<svg width="150" height="234" viewBox="0 0 150 234" fill="#222433" xmlns="http://www.w3.org/2000/svg">
<g clip-path="url(#clip0_609_17)">
<path d="M147.882 164.418C147.49 167.845 146.73 171.235 144.853 174.147C143.109 172.428 141.461 170.628 139.904 168.737C141.084 165.373 141.725 161.816 141.65 158.067C141.634 157.306 140.453 157.305 140.469 158.067C140.823 175.712 124.941 189.008 111.425 197.745C99.3959 205.522 85.5668 211.097 76.0719 222.203C67.8679 209.356 53.8729 202.371 40.4993 196.037C36.7517 194.263 32.8298 192.665 29.7077 189.866C26.6761 187.148 24.1467 183.672 21.6202 180.494C16.4997 174.052 11.9604 167.047 9.45518 159.153C9.22571 158.43 8.08581 158.739 8.31644 159.466C9.12536 162.016 10.1442 164.465 11.3187 166.835C11.2691 166.877 11.2224 166.927 11.1832 166.993C9.60048 169.66 8.2317 172.426 7.05607 175.292C1.71071 170.102 1.06149 161.178 1.2212 154.157C1.39533 146.521 3.60071 138.86 8.1458 132.678C13.0524 143.011 18.7166 153.976 29.2822 159.321C25.3766 160.329 21.393 160.753 17.3432 160.593C16.4755 159.142 15.753 157.604 15.1032 155.955C14.8271 155.255 13.6849 155.56 13.9645 156.269C15.1228 159.208 16.4812 161.838 18.5056 164.279C20.6366 166.85 23.1844 169.117 25.621 171.391C30.4803 175.927 35.8326 180.05 42.2919 181.956C47.8869 183.607 54.2488 183.141 59.0003 179.567C63.0876 176.492 65.4406 171.316 64.4322 166.244C64.431 166.239 64.4287 166.234 64.4276 166.228C66.4836 164.84 68.5944 163.532 70.7179 162.275C70.926 162.152 71.1365 162.031 71.3452 161.909C71.5943 161.957 71.8492 161.86 71.9316 161.568C76.0979 159.151 80.4354 156.85 84.6121 154.321C84.209 161.96 84.8882 169.969 89.6726 176.252C91.5747 178.75 94.1969 180.927 97.1467 182.061C100.939 183.519 104.776 183.21 108.634 182.149C122.167 178.426 133.117 167.03 137.103 153.71C137.322 152.979 136.182 152.668 135.964 153.396C135.167 156.059 134.095 158.617 132.784 161.037C132.728 161.032 132.669 161.033 132.606 161.045C128.98 161.766 125.377 161.241 122.135 159.568C132.238 154.178 137.679 143.666 142.47 133.685C147.482 138.807 148.797 146.042 148.743 153.014C148.713 156.817 148.314 160.642 147.882 164.418ZM39.7319 198.839C39.6478 198.792 39.5428 198.767 39.4143 198.781C38.324 198.897 37.2538 198.849 36.1837 198.626C36.4138 197.627 36.6663 196.635 36.9327 195.653C38.0178 196.176 39.1081 196.698 40.203 197.221C40.026 197.76 39.8738 198.299 39.7319 198.839ZM40.1079 213.673C40.4181 214.651 40.7905 215.607 41.2103 216.544C40.105 217.628 38.5287 218.025 37.2129 218.826C36.7586 217.89 36.3803 216.94 36.0742 215.978C37.4966 215.333 38.8769 214.637 40.1079 213.673ZM43.2063 220.206C42.4637 220.901 41.6566 221.483 40.7594 221.97C40.3299 222.203 39.7446 222.346 39.2684 222.601C38.7287 221.685 38.2213 220.761 37.741 219.858C39.0055 218.989 40.5507 218.637 41.739 217.655C42.1801 218.53 42.6713 219.38 43.2063 220.206ZM45.0375 222.701C44.9136 222.709 44.7873 222.762 44.676 222.885C43.6757 223.985 42.5375 224.903 41.2679 225.661C40.7819 225 40.3212 224.312 39.883 223.612C40.1015 223.511 40.3777 223.449 40.5328 223.379C40.9981 223.174 41.4455 222.947 41.8854 222.693C42.6039 222.278 43.264 221.757 43.8763 221.195C44.243 221.711 44.6345 222.21 45.0375 222.701ZM45.6579 223.43C46.0315 223.854 46.4242 224.263 46.8249 224.666C46.818 224.676 46.8099 224.683 46.8036 224.693C45.9007 226.117 44.6455 227.186 43.1331 227.893C42.7399 227.482 42.3605 227.05 41.9961 226.601C43.298 225.809 44.4823 224.851 45.5109 223.72C45.5945 223.628 45.6389 223.529 45.6579 223.43ZM47.6834 225.493C48.1366 225.911 48.6059 226.316 49.0897 226.707C48.576 227.511 48.0715 228.323 47.537 229.113C47.1645 229.664 46.5533 229.922 46.0898 230.35C45.3616 229.883 44.6743 229.349 44.0326 228.769C45.5173 228.011 46.7528 226.886 47.6834 225.493ZM52.0498 228.794C51.6612 230.022 51.0114 231.101 50.1131 232.023C49.7066 231.922 49.3036 231.807 48.9075 231.685C48.2934 231.497 47.7059 231.247 47.1397 230.956C47.5508 230.616 48.087 230.347 48.4018 229.919C48.9876 229.123 49.5007 228.268 50.0289 227.431C50.6769 227.911 51.3527 228.364 52.0498 228.794ZM53.4572 232.231C52.895 232.344 52.3311 232.366 51.7649 232.299C51.6681 232.293 51.5724 232.276 51.4755 232.267C52.1795 231.413 52.7192 230.453 53.0876 229.402C53.2611 229.499 53.4329 229.598 53.61 229.691C54.8046 230.166 54.7539 231.012 53.4572 232.231ZM35.327 212.906C35.5259 212.88 36.103 212.678 36.1653 212.653C36.4963 212.527 36.8203 212.381 37.1432 212.234C37.933 211.876 38.678 211.427 39.3929 210.938C39.4973 211.448 39.6178 211.955 39.7515 212.457C39.7314 212.471 39.7118 212.482 39.6922 212.499C38.5189 213.51 37.1443 214.202 35.7455 214.839C35.5789 214.199 35.4377 213.555 35.327 212.906ZM34.9528 208.555C36.3538 208.411 37.6794 208.002 38.9092 207.316C38.9605 208.132 39.0516 208.942 39.1773 209.744C39.0908 209.751 38.9997 209.78 38.9074 209.844C38.0714 210.424 37.1968 210.92 36.2708 211.341C35.9952 211.465 35.5559 211.556 35.1505 211.691C35.0248 210.652 34.9608 209.606 34.9528 208.555ZM35.1869 204.313H38.6295C38.7299 204.313 38.8158 204.292 38.8896 204.256C38.8596 204.84 38.851 205.423 38.859 206.003C38.8089 206.018 38.7581 206.038 38.7068 206.07C37.5502 206.783 36.3025 207.222 34.9643 207.373C34.9949 206.354 35.0704 205.333 35.1869 204.313ZM35.9306 199.776C37.0815 200.014 38.2415 200.087 39.4143 199.961C39.4321 199.96 39.4477 199.954 39.465 199.951C39.2269 201.045 39.0608 202.14 38.9616 203.232C38.8746 203.171 38.7645 203.132 38.6295 203.132H35.3374C35.4976 202.009 35.6966 200.889 35.9306 199.776ZM44.7579 180.008C45.5761 180.496 46.3936 180.984 47.2118 181.473C47.2608 181.502 47.3086 181.521 47.3559 181.536C47.3363 181.569 47.315 181.601 47.2948 181.634C46.167 181.546 45.0427 181.371 43.9403 181.126C44.2119 180.751 44.4852 180.38 44.7579 180.008ZM46.886 177.146C46.946 177.202 47.0059 177.257 47.063 177.309C47.6967 177.893 48.3303 178.477 48.9634 179.06C48.6169 179.554 48.2813 180.061 47.9527 180.575C47.9129 180.531 47.8673 180.489 47.8079 180.453C47.025 179.986 46.242 179.518 45.459 179.051C45.9307 178.413 46.4057 177.777 46.886 177.146ZM49.1076 174.32C49.6916 175.058 50.3039 175.772 50.9468 176.46C50.5069 176.993 50.0819 177.543 49.6639 178.101C49.3854 177.845 49.1064 177.588 48.8273 177.331C48.6209 177.141 48.4145 176.951 48.2081 176.76L47.8979 176.474C47.8639 176.443 47.8293 176.411 47.7947 176.379C47.7895 176.3 47.7664 176.217 47.7214 176.132C47.7134 176.117 47.7059 176.103 47.6978 176.088C48.1614 175.493 48.6301 174.903 49.1076 174.32ZM52.2176 170.778C52.5087 171.663 52.959 172.483 53.4629 173.27C53.5183 173.356 53.5846 173.419 53.6567 173.463C52.9913 174.137 52.3467 174.834 51.7194 175.552C51.0748 174.859 50.4636 174.138 49.8819 173.391C50.636 172.5 51.4115 171.627 52.2176 170.778ZM53.324 169.643C54.126 168.85 54.9683 168.108 55.8384 167.402C56.0223 168.506 56.2945 169.587 56.6623 170.647C55.9128 171.294 55.1846 171.967 54.4714 172.657C53.9034 171.767 53.4082 170.859 53.1741 169.821C53.1729 169.814 53.17 169.809 53.1683 169.803C53.2208 169.75 53.2709 169.696 53.324 169.643ZM59.5832 164.67C59.574 165.72 59.6605 166.76 59.8427 167.8C59.8577 167.886 59.8877 167.957 59.9257 168.016C59.1473 168.602 58.384 169.206 57.6344 169.825C57.2971 168.763 57.0469 167.682 56.8918 166.574C57.767 165.91 58.6659 165.277 59.5832 164.67ZM57.0181 179.509C54.4985 181.116 51.5908 181.733 48.648 181.697C49.1087 180.95 49.593 180.224 50.0981 179.516C50.2457 179.426 50.3575 179.279 50.3933 179.116C53.9277 174.298 58.456 170.378 63.3644 166.961C64.1785 172.046 61.2391 176.816 57.0181 179.509ZM60.7767 163.897C61.6283 163.359 62.4914 162.837 63.3597 162.326V165.02C63.3597 165.211 63.4347 165.354 63.546 165.449C62.6667 166.038 61.8013 166.642 60.9491 167.261C60.775 166.168 60.7214 165.072 60.7802 163.965C60.7813 163.94 60.7779 163.92 60.7767 163.897ZM66.1048 160.742C66.5009 160.516 66.8993 160.294 67.296 160.069V162.79C67.296 162.876 67.3127 162.951 67.3398 163.018C66.3965 163.597 65.4631 164.186 64.5405 164.788V161.871C64.5405 161.791 64.5256 161.723 64.5025 161.66C65.0364 161.352 65.5709 161.046 66.1048 160.742ZM71.1071 157.916C71.0817 158.924 70.9987 159.925 70.8488 160.923C70.0531 161.386 69.2632 161.856 68.4768 162.33V159.402C69.3538 158.908 70.2301 158.412 71.1071 157.916ZM74.8133 158.644C73.9161 159.155 73.0207 159.666 72.1276 160.181C72.2274 159.305 72.2885 158.427 72.2989 157.542C72.3 157.437 72.277 157.348 72.2395 157.272C73.1545 156.751 74.0672 156.226 74.9736 155.693C74.8986 156.57 74.8231 157.448 74.7481 158.326C74.7371 158.455 74.7643 158.559 74.8133 158.644ZM78.4618 153.571C78.4105 154.597 78.3586 155.623 78.3067 156.65C77.5249 157.099 76.7413 157.546 75.9578 157.992C76.0442 156.978 76.1307 155.965 76.2178 154.951C76.9708 154.497 77.7203 154.04 78.4618 153.571ZM79.4841 152.912C80.3466 152.351 81.2034 151.781 82.0434 151.188C82.0769 152.169 82.1103 153.149 82.1438 154.129C82.1466 154.222 82.1674 154.302 82.2003 154.372C81.3135 154.904 80.4198 155.428 79.5233 155.948C79.5665 155.08 79.6103 154.212 79.6541 153.344C79.6639 153.15 79.5936 153.006 79.4841 152.912ZM65.2042 138.971C65.8125 131.499 65.47 123.982 65.8177 116.498C66.5193 101.41 66.1463 86.8122 66.6629 72.2648C66.6635 72.2388 66.6612 72.2158 66.6606 72.1921C71.927 69.7146 77.9677 69.4903 83.3938 71.604C83.3915 71.6288 83.3874 71.6525 83.3886 71.6796C84.2217 97.1852 84.423 122.708 83.9917 148.224C83.9911 148.262 83.9957 148.298 84.0009 148.333C78.113 153.029 71.2927 156.45 64.7475 160.17C64.333 153.072 64.6293 146.031 65.2042 138.971ZM65.0001 90.7686C64.6282 90.4376 64.2649 90.0986 63.9075 89.755C63.9103 89.7435 63.9156 89.7342 63.9184 89.7221C64.2874 88.0408 64.6564 86.3602 65.0254 84.6789C65.0006 86.709 64.9908 88.7385 65.0001 90.7686ZM60.5743 86.1347C61.2599 84.2712 61.9448 82.4072 62.6304 80.5431C63.1654 81.1947 63.731 81.8191 64.3122 82.4285C63.8481 84.5417 63.3845 86.6548 62.9204 88.7679C62.0999 87.9215 61.3152 87.0445 60.5743 86.1347ZM57.5831 81.9546C57.6119 81.9177 57.6385 81.8762 57.6604 81.826L59.7031 77.1466C59.8058 77.1016 59.8974 77.0169 59.9597 76.8773C59.9655 76.8635 59.9718 76.8502 59.9776 76.8364C60.557 77.771 61.182 78.6762 61.8463 79.5509C61.758 79.616 61.6831 79.7083 61.6375 79.8334C60.9981 81.5717 60.3587 83.3101 59.7198 85.0485C58.9605 84.0487 58.2444 83.0184 57.5831 81.9546ZM55.2514 77.6499C55.2953 77.6148 55.3373 77.575 55.3743 77.5237C56.3141 76.2143 57.2539 74.9055 58.1942 73.5966C58.5465 74.3312 58.9311 75.0496 59.3347 75.757C59.1514 75.779 58.9784 75.8753 58.9052 76.043C58.2219 77.6078 57.5393 79.1721 56.856 80.7363C56.2783 79.7302 55.7409 78.7016 55.2514 77.6499ZM53.3701 72.8298C54.4419 71.8456 55.5622 70.9225 56.7355 70.0623C57.0475 70.96 57.3992 71.8445 57.7855 72.7128C57.5773 72.6845 57.3542 72.7502 57.2014 72.963C56.3706 74.1196 55.5403 75.2768 54.7095 76.4334C54.2073 75.2549 53.7587 74.0533 53.3701 72.8298ZM52.2441 68.4687C52.3876 68.4433 52.5254 68.3654 52.6287 68.2161C53.4053 67.0958 54.3687 66.1376 55.4746 65.3465C55.6989 66.5418 55.9941 67.7226 56.3504 68.8855C55.184 69.7279 54.0649 70.6279 52.9919 71.5844C52.7019 70.5576 52.4516 69.5192 52.2441 68.4687ZM51.5239 62.4677C51.5234 62.4487 51.5234 62.4297 51.5228 62.4106C52.7117 61.8796 53.8521 61.2644 54.9499 60.5679C54.9862 61.7378 55.0969 62.9025 55.2653 64.0585C55.2376 64.0717 55.2105 64.0838 55.1828 64.1023C53.9501 64.9268 52.8962 65.9369 52.0019 67.1056C51.7546 65.5772 51.592 64.0291 51.5239 62.4677ZM51.6272 57.7266C52.808 57.1293 53.9882 56.5325 55.169 55.9352C55.0341 56.999 54.9528 58.0806 54.9338 59.1836C54.9199 59.1911 54.9067 59.1957 54.8934 59.2049C53.806 59.9314 52.6719 60.5685 51.494 61.1272C51.4882 59.9908 51.5337 58.8567 51.6272 57.7266ZM48.4727 70.0484C46.2737 63.5834 46.167 56.7107 48.1792 50.1787C49.3837 50.0577 50.5905 49.951 51.7978 49.8501C50.9174 53.3032 50.4094 56.8485 50.3241 60.4226C50.244 63.7713 50.621 67.1033 51.3988 70.3367C50.4233 70.2451 49.4471 70.1534 48.4727 70.0484ZM41.6001 69.2084C39.5763 68.9293 37.5583 68.6128 35.5432 68.2801C34.1577 68.0512 33.3822 67.673 32.8396 66.2604C32.5191 65.4255 32.2913 64.5584 32.0763 63.6918C31.1688 60.0254 31.4121 56.148 32.4614 52.5444C32.4908 52.5421 32.5191 52.5409 32.5496 52.5346C37.2787 51.5314 42.078 50.8314 46.9073 50.3131C45.0225 56.743 45.1142 63.5373 47.1812 69.9072C45.3183 69.6956 43.4578 69.4644 41.6001 69.2084ZM52.4234 52.3368C52.4326 52.3328 52.4413 52.3311 52.4505 52.327C53.6947 51.7153 54.9701 51.1912 56.2777 50.7403C55.9047 51.9753 55.6049 53.2357 55.38 54.5215C55.3397 54.533 55.2982 54.5486 55.2566 54.5693C54.0931 55.158 52.9296 55.7467 51.7655 56.3359C51.9229 54.9942 52.1432 53.6601 52.4234 52.3368ZM53.6301 47.7416C53.6993 47.7462 53.7737 47.7393 53.8539 47.7133C55.1523 47.2942 56.4657 46.9332 57.7941 46.6236C57.4061 47.5185 57.0521 48.426 56.7327 49.345C56.7206 49.3479 56.709 49.3485 56.6963 49.3525C55.3506 49.7832 54.0389 50.2969 52.7561 50.8839C53.0144 49.8276 53.3055 48.7794 53.6301 47.7416ZM54.7089 44.6137C54.9268 44.0371 55.1598 43.4657 55.4013 42.899C55.4659 42.8996 55.534 42.8915 55.6072 42.8655C57.0682 42.3535 58.5546 42.0704 60.0992 42.018C59.4627 43.1434 58.8694 44.2856 58.3252 45.4451C58.2093 45.3788 58.0674 45.3488 57.9031 45.3857C56.6093 45.6746 55.3316 46.0188 54.066 46.4114C54.2713 45.8083 54.4846 45.2087 54.7089 44.6137ZM57.5549 38.4473C57.5854 38.449 57.616 38.4513 57.6494 38.4484C59.19 38.3101 60.7225 38.3216 62.2579 38.4681C61.7165 39.3012 61.193 40.1424 60.6908 40.9911C60.5957 40.8908 60.4584 40.8256 60.2768 40.8297C58.8256 40.862 57.4084 41.0811 56.0258 41.4922C56.5037 40.4624 57.0163 39.4476 57.5549 38.4473ZM51.8837 25.6867C50.8834 21.303 51.2841 16.943 53.1458 12.8546C56.6629 5.13027 64.6045 0.875192 72.9192 1.24016C77.1259 1.42466 81.1976 2.96122 84.6265 5.36032C88.6463 8.17282 90.2913 12.5755 91.3331 17.1875C93.2715 25.7691 91.0869 36.1191 82.4176 40.0588C82.2971 37.4533 82.1703 34.7924 82.0163 32.4141C82.0711 32.3893 82.1253 32.3582 82.1772 32.3132C86.5793 28.4582 88.0057 22.1373 85.9947 16.687C83.896 10.9997 77.8795 7.49881 72.0042 7.36851C60.2255 7.10732 49.8807 23.3049 59.7475 32.3068C59.781 32.3368 59.8156 32.3622 59.8502 32.3835C59.6651 32.6487 59.4858 32.9186 59.3065 33.1878C59.2246 33.2536 59.1669 33.3412 59.1352 33.4409C58.3626 34.6148 57.6408 35.8239 56.9621 37.0566C54.0274 33.9766 52.8103 29.748 51.8837 25.6867ZM64.9096 42.7577C64.9171 44.4995 64.932 46.1537 64.932 47.5986C64.932 47.6851 64.9488 47.76 64.9759 47.8269C62.7745 47.9319 60.5692 48.0518 58.3644 48.1873C59.1819 46.1531 60.1805 44.1807 61.2922 42.2607C62.4741 42.609 63.682 42.7773 64.9096 42.7577ZM64.9407 36.589C64.9078 38.2415 64.9015 39.9348 64.9049 41.5758C63.8908 41.5896 62.9014 41.4697 61.9189 41.2108C62.8708 39.6379 63.8879 38.0979 64.9407 36.589ZM64.815 34.7284C64.1854 35.61 63.5685 36.4979 62.9677 37.3927C62.9071 37.3639 62.8414 37.3414 62.7653 37.3328C61.2512 37.1575 59.7418 37.1293 58.2254 37.2307C58.4353 36.8594 58.6474 36.4898 58.8636 36.1226C59.1917 35.565 59.5492 34.9227 59.9413 34.2631C61.5689 34.311 63.2444 34.281 64.815 34.7284ZM65.3887 29.4269C65.3541 29.5808 65.3259 29.7463 65.3057 29.9296C65.184 31.0326 65.0998 32.2653 65.0399 33.5632C63.6267 33.1723 62.1363 33.1354 60.6666 33.1019C61.8722 31.2817 63.388 29.6056 65.3887 29.4269ZM74.1704 26.1693C71.9731 26.224 69.7977 26.8669 67.7071 27.4815C66.8855 27.7225 66.302 27.9503 65.9099 28.3654C65.8165 28.2784 65.6862 28.2242 65.5155 28.234C63.2928 28.3602 61.8065 29.763 60.5392 31.4281C56.6467 27.8344 56.3296 21.9943 58.4312 17.3553C60.7144 12.3155 65.971 8.89296 71.434 8.56028C77.0786 8.21664 82.684 11.8381 84.8559 17.0012C86.8376 21.7112 85.4683 27.3916 81.9143 30.9346C81.8878 30.5794 81.8607 30.2318 81.833 29.8962C81.5528 26.5515 76.7102 26.1064 74.1704 26.1693ZM67.3259 28.8278C69.3013 28.1238 71.438 27.632 73.5183 27.3956C75.2111 27.2036 76.8993 27.4164 78.5108 27.9486C81.0863 28.8001 80.7548 31.344 80.8943 33.5972C81.1273 37.3489 81.3602 43.2991 81.5926 47.2008C78.8746 47.2411 76.1567 47.3282 73.4433 47.4475C70.9993 47.5553 68.5454 47.6597 66.0863 47.7739C66.1019 47.7202 66.1128 47.6632 66.1128 47.5986C66.1123 44.025 66.1717 38.091 66.2916 34.5197C66.3314 33.3164 65.8713 29.3467 67.3259 28.8278ZM65.4705 72.455C65.2734 75.4791 65.1511 78.5033 65.0791 81.5291C62.4447 78.7569 60.3379 75.5656 58.8319 72.1085C61.0356 72.2481 63.241 72.364 65.4475 72.4429C65.455 72.4481 65.463 72.451 65.4705 72.455ZM91.9454 48.4859C93.3603 55.5639 93.4261 62.7779 92.1317 69.8801C92.1196 69.9458 92.1207 70.0069 92.1271 70.0652C89.5348 70.3119 86.9379 70.5149 84.3359 70.6677C84.3013 70.67 84.2696 70.6763 84.2384 70.6833C78.2606 68.253 71.6456 68.4531 65.8373 71.2788C63.3326 71.1935 60.8315 71.0609 58.3326 70.896C57.0204 67.5219 56.2616 63.9253 56.1157 60.2479C55.9641 56.4299 56.6629 52.831 57.8979 49.4079C63.0922 49.0827 68.2894 48.8653 73.4433 48.6283C79.5994 48.3452 85.7848 48.2311 91.9454 48.4859ZM99.31 48.9893C101.439 55.5904 101.554 62.5427 99.6386 69.2084C97.5335 69.4828 95.4256 69.7302 93.3131 69.9435C94.5775 62.8315 94.525 55.6308 93.1539 48.5419C95.21 48.6433 97.2626 48.7938 99.31 48.9893ZM114.241 51.4455C114.315 51.4633 114.384 51.4651 114.45 51.4587C114.818 56.5919 114.696 61.7182 114.087 66.8272C109.715 67.7035 105.321 68.4398 100.908 69.0418C102.697 62.4804 102.588 55.6164 100.583 49.1155C105.171 49.6004 109.732 50.3442 114.241 51.4455ZM86.0944 148.091C85.9998 149.361 85.9047 150.631 85.8102 151.901C85.8038 151.985 85.8148 152.057 85.8349 152.122C85.0012 152.659 84.1589 153.184 83.3096 153.702C83.2744 152.666 83.2393 151.628 83.2035 150.592C83.2012 150.514 83.1839 150.446 83.1597 150.384C84.1589 149.649 85.1402 148.889 86.0944 148.091ZM85.2993 105.829C86.9898 107.412 88.9156 108.696 90.7006 110.139C90.7052 110.143 90.7104 110.147 90.7156 110.151C92.0083 111.197 93.2266 112.327 94.2246 113.718C96.607 117.039 97.5145 121.213 97.5036 125.238C97.4799 133.956 92.01 141.426 85.6995 146.925C85.5299 147.072 85.3552 147.212 85.1846 147.358C85.4106 133.515 85.4458 119.671 85.2993 105.829ZM88.1793 102.456C87.1098 102.855 86.1336 103.443 85.2815 104.212C85.2676 103.058 85.2486 101.904 85.233 100.751C86.2201 101.311 87.206 101.874 88.1793 102.456ZM89.5071 103.269C90.2497 103.734 90.9803 104.216 91.697 104.718C91.2103 104.872 90.7571 105.047 90.4394 105.144C89.5481 105.415 88.4566 105.71 87.7786 106.402C87.2228 105.958 86.6779 105.501 86.1567 105.014C87.1011 104.186 88.196 103.611 89.4339 103.295C89.4604 103.288 89.4829 103.278 89.5071 103.269ZM92.9815 105.653C93.9525 106.391 94.8848 107.181 95.7692 108.035C94.2091 108.185 92.6823 108.444 91.2172 109.042C90.3956 108.394 89.5492 107.771 88.7138 107.133C89.2385 106.659 90.1431 106.482 90.7537 106.282C91.1469 106.154 91.5482 106.05 91.9489 105.946C92.0815 105.912 92.605 105.736 92.9815 105.653ZM96.8301 109.126C97.7146 110.104 98.4808 111.168 99.1451 112.29C97.6984 112.219 96.2651 112.309 94.83 112.543C94.0701 111.553 93.1926 110.694 92.2591 109.896C93.7276 109.392 95.278 109.238 96.8301 109.126ZM101.435 117.616C100.056 117.257 98.6555 117.03 97.2308 116.936C96.7794 115.787 96.2282 114.677 95.5778 113.626C96.9858 113.433 98.3955 113.397 99.8173 113.516C100.482 114.825 101.014 116.203 101.435 117.616ZM101.791 118.921C101.971 119.654 102.126 120.394 102.25 121.137C102.351 121.742 102.428 122.352 102.486 122.963C101.213 122.367 99.8877 121.982 98.4918 121.786C98.3252 120.554 98.0484 119.337 97.6667 118.154C99.0355 118.275 100.377 118.521 101.703 118.905C101.733 118.914 101.762 118.917 101.791 118.921ZM102.5 128.101C101.388 127.209 100.125 126.557 98.7339 126.176C98.6976 126.166 98.663 126.161 98.6284 126.158C98.6717 125.473 98.6884 124.783 98.6734 124.087C98.6653 123.719 98.6434 123.352 98.6158 122.985C99.9223 123.188 101.172 123.601 102.352 124.207C102.429 124.246 102.503 124.266 102.576 124.274C102.634 125.547 102.602 126.826 102.5 128.101ZM101.87 132.449C100.666 131.602 99.374 130.921 97.9781 130.404C98.2185 129.4 98.4076 128.382 98.5241 127.346C99.9678 127.76 101.246 128.482 102.339 129.518C102.344 129.523 102.35 129.526 102.355 129.53C102.234 130.51 102.069 131.484 101.87 132.449ZM101.225 135.099C100.994 135.92 100.723 136.697 100.42 137.444C99.92 136.771 99.344 136.164 98.6809 135.634C98.2514 135.29 97.4044 134.573 96.6796 134.395C97.0631 133.465 97.3975 132.514 97.6765 131.548C99.0845 132.071 100.397 132.789 101.592 133.692C101.478 134.164 101.356 134.633 101.225 135.099ZM97.3709 142.628C96.724 141.097 95.7848 139.749 94.5308 138.639C94.5239 138.633 94.5163 138.629 94.5089 138.623C95.101 137.656 95.6464 136.662 96.1261 135.641C96.1278 135.642 96.1302 135.643 96.1319 135.644C96.2605 135.696 96.4 135.675 96.5228 135.615C96.72 135.723 97.0354 135.931 97.0948 135.966C97.5088 136.205 97.8893 136.495 98.2531 136.804C98.8931 137.348 99.4172 138.003 99.8594 138.713C99.1698 140.134 98.3321 141.421 97.3709 142.628ZM94.1618 145.98C93.866 144.428 93.2727 142.977 92.4009 141.661C92.9123 141 93.4082 140.329 93.8683 139.635C94.9736 140.657 95.8326 141.879 96.3781 143.291C96.4254 143.412 96.4997 143.502 96.5868 143.566C95.8459 144.404 95.0324 145.202 94.1618 145.98ZM92.5301 147.366C91.9616 147.819 91.3821 148.261 90.7981 148.697C90.7796 148.315 90.7427 147.935 90.6793 147.557C90.519 146.6 90.15 145.707 89.9765 144.76C89.9621 144.68 89.9338 144.615 89.8998 144.559C90.4954 143.936 91.076 143.3 91.626 142.639C92.3311 143.804 92.8034 145.055 93.0478 146.413C93.0778 146.579 93.1591 146.691 93.2635 146.759C93.0213 146.962 92.7814 147.165 92.5301 147.366ZM87.0325 151.341C87.1294 150.043 87.2262 148.744 87.3237 147.446C87.334 147.305 87.3017 147.19 87.2418 147.101C87.8178 146.59 88.3874 146.071 88.9427 145.53C89.0828 146.071 89.2759 146.6 89.4062 147.145C89.5959 147.936 89.6421 148.748 89.6265 149.557C88.7749 150.168 87.9089 150.761 87.0325 151.341ZM142.713 132.269C142.454 132.027 141.956 132.032 141.786 132.389C136.849 142.708 131.367 153.785 120.58 159.039C120.169 159.239 120.223 159.844 120.58 160.058C124.087 162.163 128.049 162.933 132.054 162.333C127.148 170.661 119.355 177.198 110.138 180.437C106.376 181.759 102.409 182.459 98.5183 181.306C95.1973 180.321 92.4044 177.905 90.342 175.196C85.7012 169.102 85.3818 160.898 85.8361 153.566C89.9488 151.005 93.87 148.186 97.266 144.763C100.117 141.888 101.928 138.052 102.897 133.944C103.036 133.794 103.1 133.591 103.019 133.401C104.016 128.803 103.981 123.904 103.18 119.653C102.395 115.48 100.501 111.605 97.7457 108.388C97.7192 108.165 97.5814 107.968 97.33 107.927C96.3867 106.887 95.3512 105.94 94.2477 105.069C94.2332 104.885 94.1312 104.713 93.9605 104.602C93.806 104.502 93.6175 104.448 93.4082 104.429C90.9485 102.61 88.2341 101.093 85.6153 99.6103C85.4752 99.5307 85.3391 99.5163 85.2157 99.5422C85.0825 90.3137 84.875 81.0851 84.5746 71.86C84.5971 71.8491 84.6207 71.8404 84.6414 71.8277C94.7694 71.2177 104.833 69.9055 114.779 67.8932C115.057 67.8367 115.181 67.5744 115.212 67.3236C115.884 61.9627 116.018 56.5827 115.614 51.1946C115.585 50.7991 115.245 50.6117 114.938 50.6308C114.881 50.4814 114.76 50.3569 114.554 50.3067C104.133 47.7612 93.4549 47.0837 82.7728 47.1875C82.665 45.3788 82.5675 43.302 82.4684 41.1549C82.6016 41.1975 82.752 41.1981 82.9083 41.1289C92.0031 37.0762 94.2523 26.559 92.6171 17.5865C91.7575 12.8678 90.0318 8.33772 86.3083 5.17524C82.9002 2.28087 78.5321 0.705681 74.1422 0.161977C65.1361 -0.953107 56.5551 3.7736 52.3819 11.736C50.2872 15.7334 49.7913 20.1678 50.4705 24.5831C51.2022 29.3381 52.8662 34.6327 56.3308 38.1094C56.3458 38.1238 56.3614 38.1342 56.3763 38.1469C55.8834 39.0873 55.4117 40.038 54.9643 40.9969C53.8135 43.4634 52.8633 46.0182 52.1253 48.6306C45.4296 49.1847 38.7662 50.011 32.236 51.3959C32.2291 51.3976 32.2233 51.4005 32.2164 51.4022C31.9275 51.3128 31.5712 51.4109 31.4553 51.7822C30.2745 55.5702 30.0796 59.4517 30.7969 63.3504C31.099 64.9937 31.5868 66.762 32.4459 68.208C33.2242 69.5186 35.4723 69.4604 36.7407 69.6656C40.3794 70.2543 44.0326 70.7496 47.6955 71.156C47.8927 71.3204 48.1758 71.3319 48.3903 71.2275C49.4961 71.3469 50.6031 71.4512 51.7107 71.5545C53.915 79.5993 58.6157 86.9575 65.0093 92.3346C65.0744 100.389 64.5515 108.445 64.6368 116.498C64.7135 123.736 64.6051 130.976 64.0827 138.198C63.5413 145.68 63.0818 153.119 63.5921 160.641C63.5967 160.703 63.6111 160.758 63.6296 160.811C63.0265 161.159 62.4263 161.509 61.8307 161.865C57.8616 164.237 54.2367 166.933 51.0408 170.284C50.2826 171.078 49.5532 171.9 48.8446 172.741C48.5932 172.814 48.3932 173.022 48.4082 173.27C46.4305 175.667 44.6086 178.199 42.7906 180.709C42.7624 180.748 42.7405 180.787 42.7232 180.826C41.8203 180.58 40.9376 180.292 40.0883 179.971C34.6766 177.924 30.1263 173.982 25.9549 170.089C23.9934 168.258 22.0428 166.401 20.2151 164.436C19.4246 163.586 18.735 162.704 18.1118 161.79C22.5271 161.886 26.875 161.306 31.1174 160.039C31.5625 159.906 31.7528 159.178 31.2581 158.96C19.6754 153.847 13.8971 142.088 8.76906 131.247C8.61858 130.928 8.06621 130.84 7.84192 131.127C2.68163 137.748 0.339032 145.842 0.0403689 154.157C-0.231195 161.714 0.73862 171.477 6.86351 176.716C7.22214 177.023 7.68224 176.882 7.85002 176.456C8.99739 173.544 10.3633 170.749 11.9367 168.047C14.0642 172.107 16.6433 175.931 19.4373 179.598C21.6744 182.532 24.0447 185.369 26.4559 188.161C29.1363 191.266 32.1968 193.344 35.8511 195.13C34.0095 201.848 32.9221 208.799 34.7331 215.45C34.6599 215.652 34.74 215.892 34.9072 216.056C35.2445 217.18 35.6637 218.295 36.1815 219.399C38.3459 224.01 41.3948 228.702 45.6758 231.356C45.7848 231.581 46.0385 231.73 46.2835 231.714C48.0974 232.728 50.1235 233.379 52.3871 233.518C54.781 233.664 56.9512 231.441 55.1494 229.334C54.2234 228.251 52.3409 227.671 51.1584 226.891C49.3439 225.693 47.7445 224.2 46.2922 222.591C40.2347 215.877 38.5667 206.235 41.2725 197.734C54.3554 204.007 67.7336 210.776 75.5248 223.544C75.828 224.041 76.4957 223.809 76.6145 223.381C86.7753 211.258 102.112 205.604 114.885 196.858C124.557 190.236 134.979 181.24 139.433 170.005C141.035 171.92 142.725 173.748 144.523 175.484C144.816 175.767 145.228 175.674 145.45 175.365C147.614 172.354 148.469 168.834 148.963 165.211C149.511 161.182 149.839 157.077 149.923 153.014C150.079 145.51 148.386 137.574 142.713 132.269Z"/>
<path d="M45.131 67.8765C41.5539 67.8373 38.0213 67.3316 34.5769 66.367C34.3232 66.2955 34.2154 66.6893 34.4685 66.7603C37.9475 67.7347 41.5182 68.2443 45.131 68.2841C45.3944 68.287 45.3939 67.8794 45.131 67.8765Z"/>
<path d="M90.5156 68.3049C88.045 69.4788 85.3368 69.0112 82.7959 68.343C80.2613 67.6759 77.8438 66.999 75.2002 67.0025C72.6114 67.0059 70.1904 67.7537 67.7521 68.5396C65.1835 69.3681 62.4448 70.0162 59.8427 68.9565C59.5994 68.8573 59.4945 69.2516 59.7343 69.3497C62.0325 70.2854 64.4697 69.9245 66.7898 69.2632C69.6121 68.4589 72.2216 67.4787 75.2002 67.4107C78.1857 67.3421 80.944 68.3326 83.8043 69.017C86.1054 69.5676 88.5397 69.6939 90.7214 68.6572C90.959 68.5442 90.752 68.1931 90.5156 68.3049Z"/>
<path d="M99.4853 53.3163C99.4259 53.0598 99.0327 53.1687 99.092 53.4247C100.229 58.3446 100.034 63.4432 98.5316 68.2639C98.4532 68.5158 98.8464 68.6225 98.9248 68.3723C100.448 63.4841 100.638 58.3042 99.4853 53.3163Z"/>
<path d="M112.082 65.9225C108.863 66.5475 105.621 67.0261 102.359 67.3559C102.1 67.3818 102.097 67.79 102.359 67.7635C105.657 67.4303 108.936 66.9477 112.19 66.3158C112.448 66.2656 112.339 65.8729 112.082 65.9225Z"/>
<path d="M41.9305 66.0171C39.1116 65.6631 36.2933 65.3097 33.4751 64.9562C33.2145 64.9234 33.2174 65.3316 33.4751 65.3639C36.2933 65.7173 39.1116 66.0707 41.9305 66.4247C42.1905 66.457 42.1876 66.0494 41.9305 66.0171Z"/>
<path d="M37.6575 64.2959C36.1313 64.214 34.6207 64.033 33.1181 63.7488C32.8616 63.7003 32.7515 64.0935 33.0098 64.142C34.548 64.4326 36.095 64.6199 37.6575 64.7035C37.9204 64.7174 37.9193 64.3098 37.6575 64.2959Z"/>
<path d="M37.9088 63.3436C36.2397 63.0409 34.5613 62.8507 32.8662 62.7751C32.6033 62.7636 32.6044 63.1712 32.8662 63.1828C34.5244 63.2572 36.167 63.4405 37.8005 63.7369C38.0576 63.783 38.1677 63.3903 37.9088 63.3436Z"/>
<path d="M35.6147 61.7095C35.3852 61.6876 33.1931 61.4264 32.8334 61.4754C32.8247 61.3601 32.7296 61.2459 32.5831 61.2823C32.5624 61.2874 32.5416 61.2926 32.5209 61.2978C32.4257 61.322 32.3813 61.4051 32.3709 61.4944C32.3681 61.5198 32.3652 61.5452 32.3623 61.5705C32.3536 61.6449 32.409 61.7066 32.4632 61.7464C32.7595 61.9655 33.3292 61.8957 33.6792 61.9297C34.3243 61.992 34.9695 62.0549 35.6147 62.1171C35.8765 62.1425 35.8742 61.7349 35.6147 61.7095Z"/>
<path d="M35.3097 60.6763C34.2926 60.5535 33.2756 60.4307 32.2591 60.3079C31.9985 60.2762 32.0013 60.6844 32.2591 60.7155C33.2756 60.8384 34.2926 60.9612 35.3097 61.084C35.5703 61.1157 35.5674 60.7075 35.3097 60.6763Z"/>
<path d="M34.9027 59.4574C34.0309 59.3992 33.1707 59.2798 32.3156 59.0994C32.0596 59.0452 31.9501 59.4378 32.2078 59.4926C33.0974 59.6805 33.9946 59.8045 34.9027 59.865C35.165 59.8823 35.1633 59.4747 34.9027 59.4574Z"/>
<path d="M33.8441 58.3798C33.3142 58.2996 32.7884 58.2771 32.2545 58.3233C31.9945 58.3457 31.9921 58.7534 32.2545 58.7309C32.7498 58.6882 33.2433 58.6986 33.7351 58.773C33.9923 58.8116 34.103 58.419 33.8441 58.3798Z"/>
<path d="M33.373 57.4215C32.9648 57.3933 32.5566 57.365 32.1489 57.3368C31.886 57.3189 31.8877 57.7265 32.1489 57.7444C32.5566 57.7726 32.9648 57.8009 33.373 57.8291C33.6359 57.8476 33.6342 57.4394 33.373 57.4215Z"/>
<path d="M33.1205 56.7108C32.8824 56.6756 32.6448 56.6405 32.4073 56.6059C32.1501 56.5678 32.0394 56.9605 32.2989 56.9985C32.5364 57.0337 32.774 57.0688 33.0121 57.1034C33.2692 57.1415 33.3794 56.7489 33.1205 56.7108Z"/>
<path d="M112.621 64.5186C109.711 65.3293 106.732 65.7404 103.711 65.7485C103.448 65.749 103.448 66.1573 103.711 66.1561C106.768 66.148 109.784 65.7317 112.73 64.9119C112.983 64.8415 112.875 64.4483 112.621 64.5186Z"/>
<path d="M112.564 63.7293C111.415 64.1225 110.064 64.1375 108.861 64.2955C107.587 64.4627 106.313 64.6305 105.039 64.7977C104.782 64.8311 104.779 65.2393 105.039 65.2053C106.44 65.0214 107.842 64.8375 109.243 64.6535C110.355 64.5071 111.604 64.4881 112.673 64.1225C112.919 64.0383 112.813 63.644 112.564 63.7293Z"/>
<path d="M112.888 62.6199C110.614 62.8788 108.34 63.1377 106.066 63.396C105.807 63.4254 105.804 63.8336 106.066 63.8042C108.34 63.5453 110.614 63.2864 112.888 63.0276C113.146 62.9982 113.149 62.5905 112.888 62.6199Z"/>
<path d="M112.931 61.3688C111.157 61.6438 109.377 61.8641 107.589 62.0295C107.329 62.0532 107.327 62.4614 107.589 62.4372C109.413 62.2682 111.229 62.0428 113.04 61.762C113.299 61.7217 113.189 61.329 112.931 61.3688Z"/>
<path d="M112.689 60.106C111.669 60.2392 110.65 60.373 109.63 60.5067C109.373 60.5402 109.37 60.9484 109.63 60.9144C110.65 60.7806 111.669 60.6474 112.689 60.5137C112.946 60.4802 112.949 60.072 112.689 60.106Z"/>
<path d="M112.987 58.9253H110.541C110.278 58.9253 110.278 59.3335 110.541 59.3335H112.987C113.25 59.3335 113.25 58.9253 112.987 58.9253Z"/>
<path d="M112.885 57.7024H111.254C110.991 57.7024 110.991 58.11 111.254 58.11H112.885C113.148 58.11 113.148 57.7024 112.885 57.7024Z"/>
<path d="M112.783 56.7852H111.968C111.705 56.7852 111.705 57.1928 111.968 57.1928H112.783C113.046 57.1928 113.046 56.7852 112.783 56.7852Z"/>
<path d="M112.628 55.47C112.425 55.5081 112.222 55.5455 112.018 55.583C111.76 55.6309 111.87 56.0241 112.127 55.9762C112.33 55.9388 112.533 55.9013 112.736 55.8632C112.995 55.8154 112.885 55.4227 112.628 55.47Z"/>
<path d="M68.2369 66.7863C65.3841 66.7701 62.5456 66.9817 59.7256 67.4141C59.4662 67.4539 59.5769 67.8466 59.834 67.8074C62.6177 67.3807 65.421 67.1783 68.2369 67.1939C68.4999 67.1956 68.4999 66.7874 68.2369 66.7863Z"/>
<path d="M90.4591 66.4685H79.5521C79.2892 66.4685 79.2892 66.8767 79.5521 66.8767H90.4591C90.722 66.8767 90.722 66.4685 90.4591 66.4685Z"/>
<path d="M90.4585 67.169C88.6585 67.252 86.8584 67.335 85.0584 67.418C84.7966 67.4302 84.7949 67.8378 85.0584 67.8257C86.8584 67.7427 88.6585 67.6596 90.4585 67.5766C90.7203 67.5645 90.7214 67.1569 90.4585 67.169Z"/>
<path d="M64.9776 68.0368C63.55 68.1251 62.1236 68.1412 60.6943 68.0858C60.4313 68.076 60.4325 68.4837 60.6943 68.4941C62.1236 68.5488 63.55 68.5327 64.9776 68.4445C65.2388 68.4289 65.2405 68.0207 64.9776 68.0368Z"/>
<path d="M69.6617 65.1124C66.0322 65.4116 62.398 65.648 58.7599 65.8216C58.4987 65.8342 58.497 66.2419 58.7599 66.2298C62.398 66.0556 66.0322 65.8193 69.6617 65.5206C69.9217 65.4987 69.924 65.091 69.6617 65.1124Z"/>
<path d="M67.8264 64.3486C64.702 64.4714 61.5782 64.5942 58.4543 64.717C58.1926 64.7274 58.1914 65.135 58.4543 65.1246C61.5782 65.0018 64.702 64.879 67.8264 64.7562C68.0882 64.7458 68.0894 64.3382 67.8264 64.3486Z"/>
<path d="M63.7495 62.6506C61.8555 62.7636 59.9764 62.9815 58.1072 63.3044C57.8483 63.3488 57.9585 63.742 58.2156 63.6976C60.0491 63.3811 61.8924 63.1689 63.7495 63.0582C64.0107 63.0426 64.0119 62.635 63.7495 62.6506Z"/>
<path d="M63.6464 61.4219C61.6451 61.5505 59.6421 61.6324 57.6373 61.667C57.3744 61.6716 57.3739 62.0792 57.6373 62.0746C59.6421 62.04 61.6451 61.9581 63.6464 61.8296C63.9076 61.8128 63.9093 61.4046 63.6464 61.4219Z"/>
<path d="M62.1184 60.0261C60.594 60.1921 59.0666 60.3086 57.5347 60.3772C57.2729 60.3887 57.2718 60.7964 57.5347 60.7848C59.0666 60.7168 60.594 60.5997 62.1184 60.4337C62.3773 60.406 62.3796 59.9978 62.1184 60.0261Z"/>
<path d="M59.2684 58.9459L56.923 59.1414C56.6629 59.1633 56.6612 59.5715 56.923 59.5496L59.2684 59.3536C59.5285 59.3316 59.5308 58.924 59.2684 58.9459Z"/>
<path d="M58.1447 57.8107C57.7129 57.7744 57.2874 57.7934 56.859 57.858C56.6001 57.8972 56.7102 58.2904 56.9674 58.2512C57.3583 58.1924 57.7509 58.1855 58.1447 58.2184C58.4071 58.2408 58.4048 57.8326 58.1447 57.8107Z"/>
<path d="M91.7776 64.4384C88.1107 64.714 84.4437 64.9902 80.7767 65.2658C80.5161 65.2854 80.5144 65.693 80.7767 65.6734C84.4437 65.3978 88.1107 65.1222 91.7776 64.8461C92.0377 64.8265 92.04 64.4188 91.7776 64.4384Z"/>
<path d="M92.1917 63.1822C89.0961 63.2387 86.0195 63.5321 82.9689 64.0574C82.71 64.1018 82.8201 64.495 83.0773 64.4506C86.0928 63.9311 89.1324 63.6457 92.1917 63.5898C92.4546 63.5852 92.4552 63.1776 92.1917 63.1822Z"/>
<path d="M91.9887 61.6831C89.1721 61.9321 86.3533 62.161 83.5333 62.3686C83.2727 62.3876 83.2709 62.7953 83.5333 62.7762C86.3533 62.5687 89.1721 62.3404 91.9887 62.0907C92.2487 62.0676 92.251 61.66 91.9887 61.6831Z"/>
<path d="M91.987 60.629C89.8104 60.7391 87.6385 60.9063 85.4711 61.1306C85.2123 61.1571 85.21 61.5653 85.4711 61.5382C87.6385 61.3139 89.8104 61.1467 91.987 61.0366C92.2487 61.0233 92.2499 60.6157 91.987 60.629Z"/>
<path d="M91.8861 59.5335C90.3576 59.6119 88.8291 59.6903 87.3006 59.7693C87.0389 59.7826 87.0377 60.1902 87.3006 60.177C88.8291 60.0986 90.3576 60.0196 91.8861 59.9412C92.1478 59.9279 92.149 59.5203 91.8861 59.5335Z"/>
<path d="M91.4785 58.4155H88.7265C88.4636 58.4155 88.4636 58.8237 88.7265 58.8237H91.4785C91.7414 58.8237 91.7414 58.4155 91.4785 58.4155Z"/>
<path d="M91.2749 56.8865H89.9494C89.6865 56.8865 89.6865 57.2947 89.9494 57.2947H91.2749C91.5378 57.2947 91.5378 56.8865 91.2749 56.8865Z"/>
<path d="M91.8273 55.76C91.4571 55.8943 91.0887 55.9047 90.7128 55.7859C90.4614 55.7069 90.3547 56.1002 90.6044 56.1792C91.0432 56.3175 91.5027 56.31 91.9357 56.1526C92.1807 56.0638 92.0746 55.6695 91.8273 55.76Z"/>
<path d="M95.0053 65.9986C94.8796 66.7481 94.7534 67.4971 94.6271 68.246C94.5839 68.5032 94.9765 68.6133 95.0203 68.3544L95.3986 66.107C95.4424 65.8498 95.0492 65.7397 95.0053 65.9986Z"/>
<path d="M96.0748 63.4103C96.1267 65.0824 95.9405 66.7193 95.5115 68.3371C95.4441 68.5914 95.8379 68.6992 95.9047 68.4455C96.3429 66.7919 96.5355 65.1205 96.483 63.4103C96.475 63.148 96.0668 63.1474 96.0748 63.4103Z"/>
<path d="M97.6535 61.7838C97.6298 61.5244 97.2216 61.5221 97.2458 61.7838C97.4447 63.9304 97.2891 66.0499 96.7713 68.1434C96.7085 68.3988 97.1017 68.5072 97.1645 68.2518C97.6904 66.1242 97.8558 63.9673 97.6535 61.7838Z"/>
<path d="M99.1047 60.049C99.0776 59.7901 98.67 59.7872 98.6971 60.049C98.9779 62.7502 98.7472 65.4307 98.0035 68.0437C97.9314 68.2974 98.3246 68.4046 98.3967 68.1521C99.1497 65.5068 99.3889 62.786 99.1047 60.049Z"/>
<path d="M79.6709 30.0767C79.6542 29.8155 79.246 29.8138 79.2627 30.0767C79.5844 35.1678 79.7067 40.2675 79.6294 45.3678C79.6254 45.6308 80.033 45.6308 80.037 45.3678C80.1143 40.2675 79.9921 35.1678 79.6709 30.0767Z"/>
<path d="M78.6089 33.0326C78.6048 32.7697 78.1972 32.7697 78.2006 33.0326C78.2606 37.1107 78.3206 41.1888 78.3805 45.2668C78.384 45.5298 78.7922 45.5298 78.7882 45.2668C78.7282 41.1888 78.6682 37.1107 78.6089 33.0326Z"/>
<path d="M77.3485 35.6854C77.3444 35.4225 76.9362 35.4219 76.9408 35.6854L77.085 44.8586C77.089 45.1216 77.4966 45.1221 77.4926 44.8586L77.3485 35.6854Z"/>
<path d="M75.918 37.5156C75.7958 39.8599 75.7122 42.2054 75.6672 44.5526C75.662 44.8155 76.0697 44.815 76.0748 44.5526C76.1198 42.2054 76.2034 39.8599 76.3256 37.5156C76.3395 37.2527 75.9319 37.2538 75.918 37.5156Z"/>
<path d="M74.3734 39.048C74.359 41.0585 74.2425 43.0609 74.0234 45.0599C73.9946 45.3205 74.4028 45.3182 74.431 45.0599C74.6501 43.0609 74.7672 41.0585 74.781 39.048C74.7828 38.7851 74.3751 38.7851 74.3734 39.048Z"/>
<path d="M73.1176 41.3919C73.0167 42.6828 72.9158 43.9744 72.8155 45.2659C72.7947 45.5282 73.2024 45.5259 73.2231 45.2659C73.324 43.9744 73.4249 42.6828 73.5252 41.3919C73.546 41.1296 73.1378 41.1313 73.1176 41.3919Z"/>
<path d="M71.9184 42.97C71.8059 43.6481 71.6941 44.3261 71.5822 45.0041C71.5395 45.2613 71.9322 45.3714 71.9754 45.1125C72.0873 44.4345 72.1992 43.7564 72.3116 43.0784C72.3537 42.8213 71.961 42.7111 71.9184 42.97Z"/>
<path d="M70.9065 43.7299C70.6747 44.062 70.564 44.4546 70.5836 44.8582C70.5963 45.12 71.0045 45.1212 70.9913 44.8582C70.9751 44.5192 71.0645 44.2142 71.2582 43.9357C71.4093 43.7195 71.0553 43.516 70.9065 43.7299Z"/>
<path d="M87.8991 19.8851C87.5901 15.8791 86.1135 11.3906 82.3906 9.33913C82.1605 9.21229 81.9547 9.56457 82.1854 9.69141C85.8212 11.695 87.1231 16.0066 87.4915 19.8851C87.9205 24.4083 86.6434 29.1621 83.1038 32.1874C82.9037 32.3581 83.1937 32.6452 83.3921 32.4757C87.0498 29.3495 88.2578 24.5381 87.8991 19.8851Z"/>
<path d="M88.9179 21.882C88.817 26.5637 87.4251 32.014 82.5405 33.8112C82.296 33.9011 82.4021 34.2955 82.6488 34.2044C87.7163 32.3398 89.22 26.769 89.3255 21.882C89.3313 21.6185 88.9231 21.6191 88.9179 21.882Z"/>
<path d="M88.5714 29.623C87.3819 32.4528 85.5404 34.6582 82.4615 35.4296C82.2067 35.4936 82.315 35.8869 82.5699 35.8229C85.7992 35.0134 87.7163 32.7002 88.9646 29.7314C89.0667 29.4892 88.6717 29.3849 88.5714 29.623Z"/>
<path d="M90.2324 26.0009C90.327 31.0471 87.2891 35.5593 82.5612 37.3368C82.3173 37.4285 82.4228 37.8223 82.6696 37.7301C87.5664 35.8891 90.7381 31.2379 90.6407 26.0009C90.6355 25.7386 90.2278 25.738 90.2324 26.0009Z"/>
<path d="M59.3162 32.6759C55.3518 29.5792 53.7789 24.4408 55.3281 19.6478C55.4094 19.397 55.0156 19.2903 54.9349 19.5394C53.3465 24.4546 54.9562 29.7839 59.028 32.9642C59.2326 33.1245 59.5232 32.8379 59.3162 32.6759Z"/>
<path d="M58.4699 33.3435C55.1373 30.8302 53.2427 26.7994 53.4007 22.6337C53.4111 22.3702 53.0034 22.3714 52.993 22.6337C52.8293 26.9534 54.8167 31.0954 58.264 33.6952C58.4745 33.8537 58.6769 33.4997 58.4699 33.3435Z"/>
<path d="M57.4269 35.1153C55.1062 33.4928 53.8515 30.6382 53.0472 28.0137C52.2245 25.3269 52.0492 22.4705 52.405 19.6915C52.4384 19.4309 52.0302 19.4343 51.9973 19.6915C51.6029 22.768 51.9068 25.8469 52.8668 28.7949C53.6849 31.3053 55.0105 33.9212 57.221 35.4675C57.4367 35.6186 57.6402 35.2646 57.4269 35.1153Z"/>
<path d="M65.342 6.87045C60.771 8.8204 57.0959 12.4712 55.1148 17.029C55.011 17.2677 55.3622 17.4753 55.4671 17.2348C57.4245 12.7313 61.031 9.14905 65.5478 7.22273C65.7894 7.11952 65.5813 6.76839 65.342 6.87045Z"/>
<path d="M88.3961 11.6179C87.4447 9.08847 85.6487 7.10854 83.418 5.62272C82.1288 4.76421 80.6891 4.14382 79.2333 3.63067C77.7146 3.09504 76.0823 2.59862 74.4587 2.7762C74.1998 2.80445 74.1975 3.21266 74.4587 3.18383C77.1628 2.88805 80.3149 4.28623 82.612 5.60427C85.0226 6.98688 87.0192 9.10981 88.0029 11.7263C88.0945 11.9702 88.4889 11.8647 88.3961 11.6179Z"/>
<path d="M68.0334 72.6528V75.0991C68.0334 75.362 68.4411 75.362 68.4411 75.0991V72.6528C68.4411 72.3898 68.0334 72.3898 68.0334 72.6528Z"/>
<path d="M66.8099 73.0605V74.6916C66.8099 74.9545 67.2176 74.9545 67.2176 74.6916V73.0605C67.2176 72.7976 66.8099 72.7976 66.8099 73.0605Z"/>
<path d="M69.2563 71.9736V74.9636C69.2563 75.2265 69.664 75.2265 69.664 74.9636V71.9736C69.664 71.7106 69.2563 71.7106 69.2563 71.9736Z"/>
<path d="M70.8875 71.2939V75.9151C70.8875 76.178 71.2951 76.178 71.2951 75.9151V71.2939C71.2951 71.031 70.8875 71.031 70.8875 71.2939Z"/>
<path d="M72.2464 71.1579V74.9638C72.2464 75.2267 72.6546 75.2267 72.6546 74.9638V71.1579C72.6546 70.895 72.2464 70.895 72.2464 71.1579Z"/>
<path d="M73.4699 71.9736V77.5461C73.4699 77.809 73.8776 77.809 73.8776 77.5461V71.9736C73.8776 71.7106 73.4699 71.7106 73.4699 71.9736Z"/>
<path d="M74.8289 71.9736V78.9051C74.8289 79.168 75.2365 79.168 75.2365 78.9051V71.9736C75.2365 71.7106 74.8289 71.7106 74.8289 71.9736Z"/>
<path d="M76.6052 71.7016C76.596 71.4392 76.1878 71.4381 76.1976 71.7016C76.2541 73.2866 76.3112 74.8721 76.3677 76.4571C76.3775 76.7195 76.7851 76.72 76.7759 76.4571C76.7188 74.8721 76.6617 73.2866 76.6052 71.7016Z"/>
<path d="M77.838 71.9736C77.7746 75.5074 77.7106 79.0406 77.6471 82.5738C77.6425 82.8373 78.0502 82.8367 78.0548 82.5738C78.1182 79.0406 78.1822 75.5074 78.2456 71.9736C78.2502 71.7107 77.8426 71.7112 77.838 71.9736Z"/>
<path d="M79.4743 72.2435C79.4547 71.9829 79.0471 71.9811 79.0667 72.2435C79.5135 78.2138 79.6248 84.2009 79.3993 90.184C79.3889 90.4469 79.7972 90.4463 79.807 90.184C80.0324 84.2009 79.9217 78.2138 79.4743 72.2435Z"/>
<path d="M80.3605 72.6528C80.3524 82.4844 80.3437 92.3155 80.3351 102.147C80.3351 102.409 80.7427 102.409 80.7427 102.147C80.7514 92.3155 80.76 82.4844 80.7681 72.6528C80.7687 72.3898 80.361 72.3898 80.3605 72.6528Z"/>
<path d="M81.7944 72.8027C81.7828 72.5403 81.3746 72.5392 81.3862 72.8027C82.4701 97.3824 82.5653 122.002 81.671 146.59C81.6618 146.853 82.0694 146.852 82.0787 146.59C82.9729 122.002 82.8778 97.3824 81.7944 72.8027Z"/>
<path d="M80.8961 104.593C80.8955 104.33 80.4873 104.33 80.4885 104.593C80.5438 119.136 80.5986 133.679 80.6539 148.222C80.6551 148.485 81.0627 148.485 81.0616 148.222C81.0062 133.679 80.9514 119.136 80.8961 104.593Z"/>
<path d="M79.1451 116.013C79.1226 115.753 78.715 115.751 78.7375 116.013C79.679 126.948 79.9344 137.931 79.5009 148.898C79.4905 149.161 79.8987 149.16 79.9091 148.898C80.3421 137.931 80.0872 126.948 79.1451 116.013Z"/>
<path d="M77.7007 123.76C77.6932 123.498 77.2856 123.498 77.2931 123.76C77.5589 132.911 77.8247 142.061 78.0905 151.212C78.098 151.474 78.5062 151.475 78.4981 151.212C78.2323 142.061 77.9665 132.911 77.7007 123.76Z"/>
<path d="M75.8102 132.048C75.7456 138.393 75.5899 144.735 75.3432 151.075C75.3328 151.338 75.7404 151.337 75.7508 151.075C75.9975 144.735 76.1532 138.393 76.2178 132.048C76.2207 131.785 75.8131 131.786 75.8102 132.048Z"/>
<path d="M73.8775 138.708V152.571C73.8775 152.834 74.2851 152.834 74.2851 152.571V138.708C74.2851 138.445 73.8775 138.445 73.8775 138.708Z"/>
<path d="M72.7001 144.694C72.3571 147.535 72.176 150.389 72.1576 153.251C72.1559 153.514 72.5641 153.514 72.5658 153.251C72.5837 150.389 72.7647 147.535 73.1078 144.694C73.1395 144.433 72.7313 144.436 72.7001 144.694Z"/>
<path d="M70.3438 146.863V154.066C70.3438 154.329 70.7514 154.329 70.7514 154.066V146.863C70.7514 146.6 70.3438 146.6 70.3438 146.863Z"/>
<path d="M68.8487 148.902V154.61C68.8487 154.873 69.2563 154.873 69.2563 154.61V148.902C69.2563 148.639 68.8487 148.639 68.8487 148.902Z"/>
<path d="M68.2629 151.48C68.2877 151.218 67.8795 151.22 67.8553 151.48C67.7307 152.794 67.7054 154.106 67.7792 155.424C67.7936 155.686 68.2012 155.687 68.1868 155.424C68.113 154.106 68.1384 152.794 68.2629 151.48Z"/>
<path d="M66.588 151.723C66.1665 152.267 66.2576 152.896 66.2593 153.56C66.2634 154.816 66.2674 156.072 66.2708 157.328C66.272 157.591 66.6796 157.591 66.679 157.328C66.6762 156.449 66.6733 155.57 66.6704 154.69C66.6687 153.971 66.4035 152.621 66.8763 152.011C67.0348 151.806 66.7488 151.515 66.588 151.723Z"/>
<path d="M66.2489 147.974C66.163 147.814 66.0777 147.654 65.9918 147.494C65.9491 147.414 65.9059 147.334 65.8632 147.254C65.8494 147.228 65.8119 147.174 65.7796 147.121C65.8032 147.099 65.824 147.074 65.8373 147.039C65.9549 146.732 65.4314 146.566 65.3385 146.876C65.2734 147.093 65.4117 147.275 65.5109 147.46C65.6395 147.7 65.7681 147.94 65.8966 148.18C66.0212 148.412 66.3729 148.206 66.2489 147.974Z"/>
<path d="M66.6797 146.609C66.4058 146.021 66.1319 145.432 65.8581 144.844C65.7474 144.606 65.3956 144.813 65.5058 145.05C65.7796 145.638 66.0535 146.226 66.3274 146.815C66.4381 147.053 66.7898 146.845 66.6797 146.609Z"/>
<path d="M66.7806 144.042C66.5545 143.68 66.3291 143.317 66.1031 142.954C65.9641 142.731 65.6113 142.936 65.7508 143.16C65.9768 143.523 66.2028 143.886 66.4289 144.248C66.5672 144.471 66.9201 144.266 66.7806 144.042Z"/>
<path d="M66.799 142.129C66.6018 141.776 66.4052 141.422 66.208 141.068C66.08 140.838 65.7277 141.044 65.8557 141.274C66.0529 141.628 66.2501 141.982 66.4467 142.335C66.5747 142.565 66.927 142.359 66.799 142.129Z"/>
<path d="M66.9241 140.424C66.8255 140.046 66.6612 139.694 66.4317 139.377C66.2789 139.167 65.9249 139.37 66.08 139.583C66.2898 139.873 66.4403 140.186 66.5309 140.532C66.5977 140.787 66.991 140.679 66.9241 140.424Z"/>
<path d="M67.3455 138.73C67.0838 138.271 66.822 137.812 66.5609 137.353C66.4306 137.125 66.0783 137.33 66.2086 137.559C66.4703 138.018 66.7315 138.477 66.9933 138.936C67.1236 139.164 67.4758 138.958 67.3455 138.73Z"/>
<path d="M67.4315 136.983C67.2747 136.745 67.1184 136.506 66.9616 136.268C66.8232 136.058 66.69 135.75 66.4871 135.596C66.1625 135.351 65.8419 135.776 66.1625 136.017C66.2086 136.052 66.2738 136.047 66.3285 136.028C66.3729 136.101 66.4219 136.189 66.4329 136.205C66.5113 136.324 66.5897 136.444 66.6681 136.563C66.8054 136.772 66.9426 136.981 67.0798 137.189C67.2234 137.408 67.5768 137.204 67.4315 136.983Z"/>
<path d="M74.9343 115.025C74.5913 114.606 74.3837 114.104 74.3307 113.566C74.3053 113.306 73.8971 113.304 73.9231 113.566C73.9876 114.221 74.2286 114.804 74.6461 115.314C74.8127 115.517 75.0992 115.227 74.9343 115.025Z"/>
<path d="M75.4077 112.821C75.1984 112.348 74.9891 111.874 74.7798 111.401C74.6738 111.161 74.3226 111.369 74.4281 111.607C74.6374 112.08 74.8461 112.554 75.0554 113.027C75.1615 113.267 75.5127 113.059 75.4077 112.821Z"/>
<path d="M75.1356 109.997C74.9996 109.726 74.8629 109.454 74.7263 109.182C74.6081 108.948 74.2564 109.154 74.3746 109.388C74.5107 109.66 74.6473 109.931 74.7839 110.203C74.9016 110.438 75.2532 110.232 75.1356 109.997Z"/>
<path d="M75.5662 108.966C75.3022 108.486 75.0381 108.006 74.7734 107.526C74.6466 107.296 74.2943 107.501 74.4217 107.732C74.6858 108.211 74.9499 108.691 75.2145 109.171C75.3414 109.402 75.6931 109.196 75.5662 108.966Z"/>
<path d="M75.7508 107.55C75.4014 107.012 75.0526 106.474 74.7032 105.937C74.5608 105.717 74.2074 105.921 74.3509 106.143C74.7003 106.68 75.0492 107.217 75.3986 107.755C75.541 107.975 75.8944 107.771 75.7508 107.55Z"/>
<path d="M75.6141 105.467C75.3183 105.007 75.022 104.547 74.7262 104.087C74.5844 103.866 74.2315 104.071 74.3739 104.293C74.6703 104.753 74.9661 105.213 75.2624 105.673C75.4043 105.893 75.7571 105.689 75.6141 105.467Z"/>
<path d="M75.5316 103.276C75.3172 102.874 75.1027 102.472 74.8882 102.07C74.7643 101.838 74.412 102.044 74.5359 102.276L75.1799 103.482C75.3039 103.714 75.6556 103.508 75.5316 103.276Z"/>
<path d="M75.7116 100.848C75.3899 100.36 75.0687 99.8721 74.747 99.3843C74.6029 99.1658 74.2494 99.3699 74.3947 99.5901C74.7164 100.078 75.0382 100.566 75.3599 101.053C75.5035 101.272 75.8569 101.068 75.7116 100.848Z"/>
<path d="M74.6525 96.6802C74.4432 96.521 74.2402 96.8756 74.4466 97.0325C74.8646 97.3496 75.1143 97.8108 75.1909 98.3251C75.2296 98.5846 75.6228 98.4739 75.5842 98.2167C75.4908 97.5906 75.1535 97.0607 74.6525 96.6802Z"/>
<path d="M75.737 94.0314C75.4723 93.8181 75.2083 93.6047 74.9442 93.3914C74.7418 93.2277 74.4512 93.5142 74.6559 93.6797C74.92 93.893 75.1841 94.1064 75.4481 94.3197C75.6511 94.4834 75.9411 94.1969 75.737 94.0314Z"/>
<path d="M68.6855 93.9656C68.4336 93.6618 68.1816 93.3579 67.9296 93.0541C67.7342 92.8182 67.5514 92.5398 67.2095 92.617C66.7517 92.7208 67.2205 93.4329 67.4811 93.1503C67.4921 93.1642 67.5047 93.1763 67.5157 93.1901C67.6206 93.317 67.7255 93.4438 67.8305 93.5701C68.0196 93.7984 68.2081 94.0262 68.3973 94.2539C68.565 94.4569 68.8522 94.1663 68.6855 93.9656Z"/>
<path d="M68.4336 91.5579C68.0156 91.0915 67.597 90.6256 67.1784 90.1592C67.0025 89.9631 66.7154 90.2526 66.8901 90.4475C67.3087 90.9139 67.7267 91.3798 68.1453 91.8462C68.3211 92.0422 68.6089 91.7528 68.4336 91.5579Z"/>
<path d="M68.7945 89.9689C68.2548 89.3543 67.7152 88.7391 67.1749 88.1239C67.0014 87.9261 66.7143 88.2155 66.8867 88.4121C67.4269 89.0273 67.9666 89.6425 68.5062 90.2572C68.6798 90.4555 68.9675 90.1655 68.7945 89.9689Z"/>
<path d="M67.9735 86.9159C67.7019 86.6438 67.4298 86.3722 67.1582 86.1001C66.972 85.9144 66.6837 86.2027 66.8699 86.3884L67.6852 87.2042C67.8714 87.3904 68.1597 87.1022 67.9735 86.9159Z"/>
<path d="M79.8992 55.5236C79.5838 54.9355 79.2685 54.3474 78.9531 53.7588C78.8285 53.527 78.4768 53.7334 78.6008 53.9646C78.9162 54.5527 79.2315 55.1414 79.5469 55.7295C79.6715 55.9613 80.0238 55.7554 79.8992 55.5236Z"/>
<path d="M81.4715 55.7587C80.8984 54.6874 80.3247 53.6161 79.7516 52.5443C79.6277 52.3125 79.2754 52.5183 79.3993 52.7501C79.973 53.822 80.5461 54.8932 81.1192 55.9645C81.2432 56.1968 81.5955 55.9904 81.4715 55.7587Z"/>
<path d="M81.8803 52.9047C81.6047 52.3628 81.3291 51.8208 81.0535 51.2788C80.9348 51.0447 80.5831 51.2511 80.7018 51.4846C80.9774 52.0266 81.2524 52.5686 81.528 53.1106C81.6474 53.3446 81.9991 53.1382 81.8803 52.9047Z"/>
<path d="M82.684 51.6871C82.4332 51.3326 82.1818 50.9785 81.931 50.6239C81.7805 50.4112 81.4265 50.6147 81.5787 50.8298C81.8301 51.1838 82.0809 51.5384 82.3317 51.893C82.4822 52.1057 82.8362 51.9022 82.684 51.6871Z"/>
<path d="M83.286 50.4689L82.868 49.6588C82.8074 49.5417 82.6362 49.5279 82.548 49.6178C82.3502 49.8185 82.153 50.0191 81.9559 50.2198C81.7714 50.4072 82.0591 50.696 82.2441 50.5081L82.6403 50.1056C82.7377 50.2953 82.8357 50.485 82.9337 50.6747C83.0542 50.9082 83.4059 50.7024 83.286 50.4689Z"/>
<path d="M76.1238 161.679C76.125 161.416 75.7173 161.416 75.7162 161.679C75.6222 178.263 75.8125 194.848 76.2859 211.425C76.2933 211.688 76.701 211.689 76.6935 211.425C76.2201 194.848 76.0299 178.263 76.1238 161.679Z"/>
<path d="M98.7467 183.752C93.2751 183.735 89.212 179.949 86.9599 175.24C84.4859 170.066 84.1399 163.974 83.3569 158.375C83.3212 158.116 82.928 158.227 82.9643 158.484C83.7859 164.358 84.1976 170.613 86.8804 176.004C89.1734 180.611 93.4348 184.143 98.7467 184.16C99.0096 184.161 99.0096 183.753 98.7467 183.752Z"/>
<path d="M91.3989 183.091C87.676 181.375 85.7076 177.628 84.4916 173.897C82.9602 169.199 82.3064 164.157 82.2061 159.232C82.2009 158.969 81.7933 158.969 81.7985 159.232C81.9017 164.306 82.6155 169.455 84.1912 174.291C85.4055 178.015 87.4984 181.74 91.1931 183.443C91.43 183.553 91.6376 183.201 91.3989 183.091Z"/>
<path d="M87.4026 181.416C84.5261 179.315 83.5627 175.635 82.5814 172.393C81.3712 168.395 80.432 164.254 80.9572 160.059C80.9901 159.799 80.5818 159.802 80.5496 160.059C80.003 164.427 81.0414 168.713 82.2995 172.868C83.2831 176.12 84.3249 179.671 87.1968 181.768C87.4096 181.923 87.6125 181.569 87.4026 181.416Z"/>
<path d="M84.5464 180.789C80.7791 174.878 79.8185 167.826 78.9502 161.011C78.9173 160.754 78.5092 160.751 78.5426 161.011C79.4196 167.898 80.3876 175.022 84.1947 180.995C84.3354 181.215 84.6882 181.011 84.5464 180.789Z"/>
<path d="M82.0209 180.558C79.3376 174.535 77.8299 168.063 77.5692 161.476C77.5589 161.213 77.1513 161.212 77.1616 161.476C77.4251 168.138 78.9548 174.673 81.6687 180.764C81.7753 181.004 82.1265 180.796 82.0209 180.558Z"/>
<path d="M75.8286 219.99C74.043 215.105 70.1881 211.532 66.0996 208.509C61.1653 204.859 55.8638 201.65 50.489 198.697C45.1016 195.738 39.3716 193.427 34.0459 190.362C28.908 187.406 24.8208 183.224 21.3746 178.445C18.7466 174.799 16.5113 170.886 14.2869 166.987C14.1566 166.759 13.8043 166.964 13.9346 167.193C16.6669 171.981 19.4385 176.766 22.8697 181.096C26.4202 185.576 30.7006 189.08 35.7392 191.764C41.1953 194.672 46.871 197.105 52.262 200.152C57.5774 203.156 62.8864 206.409 67.6673 210.22C70.9803 212.862 73.96 216.061 75.4354 220.098C75.5254 220.343 75.9192 220.237 75.8286 219.99Z"/>
<path d="M76.3983 217.475C74.7718 212.376 70.0284 208.785 65.9561 205.649C61.2109 201.995 56.0281 198.919 50.5807 196.436C45.598 194.165 40.4054 192.376 35.5259 189.875C30.2843 187.188 25.9964 183.572 22.7561 178.63C21.3844 176.538 20.2019 174.325 19.0159 172.125C18.8913 171.894 18.539 172.099 18.6642 172.331C21.3942 177.397 24.2373 182.359 28.7639 186.045C32.8362 189.362 37.7249 191.496 42.5381 193.491C47.9365 195.729 53.2779 197.948 58.3113 200.947C63.3944 203.976 68.4203 207.59 72.4932 211.908C74.0396 213.547 75.3167 215.426 76.0051 217.584C76.0847 217.833 76.4784 217.727 76.3983 217.475Z"/>
<path d="M133.553 171.908C131.198 177.317 127.507 181.943 123.368 186.097C119.078 190.402 114.36 194.482 108.973 197.351C106.243 198.805 103.329 199.887 100.521 201.177C97.902 202.38 95.3628 203.752 92.9002 205.248C88.0582 208.19 83.5702 211.708 79.5077 215.653C78.7639 216.376 78.0398 217.12 77.3265 217.873C77.1461 218.063 77.4338 218.352 77.6148 218.161C81.6508 213.899 86.1596 210.124 91.061 206.895C93.4676 205.309 95.9739 203.879 98.546 202.58C101.253 201.213 104.072 200.101 106.831 198.849C112.322 196.356 117.012 192.631 121.406 188.553C125.557 184.7 129.397 180.444 132.218 175.507C132.846 174.41 133.4 173.272 133.905 172.114C134.009 171.875 133.658 171.667 133.553 171.908Z"/>
<path d="M131.861 170.553C127.558 180.202 120.23 188.308 111.146 193.683C108.846 195.044 106.428 196.2 103.938 197.168C101.186 198.239 98.3402 199.044 95.658 200.292C92.9325 201.561 90.5611 203.451 88.2271 205.318C85.6666 207.366 83.1614 209.482 80.7023 211.65C80.0133 212.257 79.3307 212.87 78.6503 213.486C78.4549 213.663 78.7443 213.95 78.9386 213.774C81.3688 211.574 83.8492 209.43 86.3781 207.343C88.889 205.271 91.4138 203.153 94.2281 201.501C96.9777 199.887 100.083 199.003 103.064 197.929C105.454 197.067 107.769 196.012 110.002 194.8C118.948 189.946 126.344 182.312 131.01 173.28C131.438 172.453 131.834 171.609 132.213 170.759C132.319 170.521 131.967 170.313 131.861 170.553Z"/>
<path d="M19.2182 159.447C12.737 153.082 10.5305 144.031 8.94319 135.393C8.89533 135.134 8.50268 135.244 8.54996 135.501C10.1505 144.21 12.3974 153.321 18.9299 159.735C19.1173 159.919 19.4062 159.631 19.2182 159.447Z"/>
<path d="M21.3394 159.339C15.5438 153.382 11.6854 145.748 10.3143 137.552C10.271 137.293 9.87838 137.403 9.92162 137.66C11.3031 145.923 15.2099 153.624 21.0512 159.627C21.2345 159.816 21.5228 159.527 21.3394 159.339Z"/>
<path d="M24.8502 159.034C18.9657 155.743 15.786 149.616 12.8702 143.81C12.7526 143.575 12.4009 143.781 12.5185 144.016C15.466 149.885 18.6976 156.06 24.6444 159.385C24.8738 159.514 25.0797 159.162 24.8502 159.034Z"/>
<path d="M9.64259 167.051C9.40851 166.03 8.76214 165.006 8.38564 164.018C7.96129 162.904 7.59461 161.768 7.2602 160.624C6.52911 158.123 6.04189 155.553 5.74899 152.966C5.18684 148.005 5.48898 142.958 6.5712 138.088C6.62828 137.832 6.23505 137.723 6.17797 137.98C5.08365 142.903 4.81268 147.952 5.34081 152.966C5.59278 155.356 6.05518 157.722 6.67441 160.043C7.01286 161.311 7.4205 162.558 7.86791 163.791C8.26344 164.882 8.99164 166.036 9.24937 167.159C9.30818 167.416 9.7014 167.307 9.64259 167.051Z"/>
<path d="M8.33781 169.136C4.01297 160.846 2.69492 151.185 4.64315 142.041C4.69735 141.784 4.3047 141.675 4.24992 141.932C2.27864 151.188 3.60878 160.951 7.98552 169.342C8.10717 169.575 8.45889 169.369 8.33781 169.136Z"/>
<path d="M5.88741 169.849C3.11297 163.718 2.04744 156.947 2.78026 150.259C2.80909 149.998 2.4009 150.001 2.37265 150.259C1.63118 157.023 2.73067 163.857 5.53568 170.055C5.6435 170.294 5.99523 170.087 5.88741 169.849Z"/>
<path d="M143.713 137.953C143.667 137.694 143.274 137.804 143.32 138.061C145.068 147.862 144.598 157.961 141.955 167.559C141.885 167.813 142.278 167.921 142.348 167.667C145.011 157.997 145.475 147.827 143.713 137.953Z"/>
<path d="M145.43 141.953C145.402 141.695 144.994 141.692 145.022 141.953C145.625 147.626 145.617 153.336 145.008 159.008C144.693 161.951 144.187 164.871 143.539 167.758C143.395 168.401 142.856 169.414 143.332 170.002C143.577 170.305 143.864 169.838 143.878 169.636C143.885 169.542 143.81 169.468 143.728 169.439C143.7 169.429 143.672 169.419 143.643 169.41C143.622 169.402 143.604 169.403 143.585 169.402C143.827 168.008 144.808 163.416 144.89 162.911C145.246 160.72 145.495 158.513 145.666 156.301C146.036 151.524 145.935 146.715 145.43 141.953Z"/>
<path d="M147.852 149.987C147.84 149.725 147.432 149.724 147.444 149.987C147.777 157.205 146.824 164.411 144.628 171.295C144.548 171.546 144.941 171.653 145.021 171.403C147.227 164.488 148.186 157.239 147.852 149.987Z"/>
<path d="M140.068 141.234C138.143 147.415 135.02 153.153 130.869 158.122C130.702 158.322 130.988 158.612 131.157 158.41C135.355 153.386 138.515 147.592 140.461 141.342C140.54 141.09 140.146 140.984 140.068 141.234Z"/>
<path d="M137.167 145.233C134.774 150.792 131.162 155.727 126.585 159.686C126.386 159.859 126.675 160.146 126.873 159.975C131.474 155.995 135.114 151.027 137.52 145.439C137.622 145.2 137.271 144.992 137.167 145.233Z"/>
<path d="M74.4818 167.658C74.5198 181.476 74.3693 195.295 74.0303 209.109C74.0239 209.372 74.4316 209.372 74.4385 209.109C74.7769 195.295 74.9275 181.476 74.8894 167.658C74.8888 167.395 74.4806 167.395 74.4818 167.658Z"/>
<path d="M73.192 178.803C73.2139 188.726 73.136 198.65 72.9579 208.571C72.9533 208.834 73.3609 208.834 73.3655 208.571C73.5437 198.65 73.6215 188.726 73.5996 178.803C73.599 178.54 73.1908 178.54 73.192 178.803Z"/>
<path d="M71.4599 191.443L71.3861 206.802C71.3844 207.065 71.7926 207.065 71.7938 206.802L71.8676 191.443C71.8693 191.179 71.4616 191.18 71.4599 191.443Z"/>
<path d="M70.3818 199.464C70.3754 199.202 69.9672 199.201 69.9736 199.464L70.1079 205.034C70.1143 205.296 70.5219 205.297 70.5155 205.034L70.3818 199.464Z"/>
<path d="M65.8419 166.817C65.7935 166.559 65.4003 166.669 65.4487 166.925C66.4773 172.407 63.994 178.203 59.3232 181.246C59.1041 181.389 59.3082 181.743 59.529 181.598C64.3624 178.449 66.9057 172.485 65.8419 166.817Z"/>
<path d="M67.3017 166.17C67.2677 165.913 66.8595 165.91 66.8941 166.17C67.4055 169.994 66.6756 173.831 64.7792 177.193C64.6501 177.423 65.0024 177.628 65.1315 177.399C67.0601 173.98 67.8229 170.063 67.3017 166.17Z"/>
<path d="M55.391 183.513C51.3158 185.373 46.7673 184.883 42.5854 183.661C38.8919 182.581 35.3628 180.889 32.0873 178.883C25.6026 174.911 20.1413 169.31 16.2812 162.765C16.148 162.539 15.7952 162.744 15.9295 162.971C19.9488 169.786 25.6545 175.481 32.4251 179.565C35.865 181.64 39.6178 183.299 43.5004 184.341C47.4782 185.408 51.7817 185.607 55.5968 183.865C55.8355 183.756 55.628 183.405 55.391 183.513Z"/>
</g>
<defs>
<clipPath id="clip0_609_17">
<rect width="150" height="233.579"/>
</clipPath>
</defs>
</svg>
