<svg width="150" height="152" viewBox="0 0 150 152" fill="none" xmlns="http://www.w3.org/2000/svg">
<g clip-path="url(#clip0_609_159)">
<path d="M80.7457 81.2837C78.8827 82.3098 76.6041 82.0274 74.6334 81.5483C72.1544 80.9456 70.6847 78.9813 69.9388 76.6562C68.6436 72.617 70.7367 68.3721 74.2735 66.3388C74.2846 66.3343 74.2994 66.3358 74.3106 66.3295C78.6007 64.3637 83.2545 66.5752 84.9023 70.8653C86.4127 74.7992 84.2973 79.3279 80.7457 81.2837ZM85.3439 70.1502C83.3955 65.8367 78.6786 63.7977 74.2957 65.608C74.24 65.6062 74.1844 65.6144 74.1213 65.647C69.6864 68.0608 67.8271 73.1755 69.6604 77.8813C71.3713 82.2794 77.0086 83.7409 81.0872 81.8663C85.2288 79.9632 87.1883 74.2377 85.3439 70.1502Z" fill="black"/>
<path d="M76.7673 74.6021C75.8655 74.1359 76.2885 72.856 77.2163 72.7944C77.22 72.794 77.2238 72.791 77.2312 72.7907C77.2349 72.7921 77.2386 72.7955 77.2423 72.7969C78.2815 73.1499 77.8918 75.187 76.7673 74.6021ZM77.4205 72.146C77.3722 72.1304 77.3314 72.1275 77.2906 72.1297C77.2646 72.126 77.246 72.1178 77.2163 72.1197C76.4221 72.1724 75.7764 72.7023 75.6057 73.488C75.4238 74.3141 76.0362 75.0541 76.7636 75.3347C77.6468 75.6753 78.2703 74.9591 78.4744 74.1898C78.7082 73.325 78.2666 72.4329 77.4205 72.146Z" fill="black"/>
<path d="M84.8169 81.5149C82.9984 83.1838 80.575 84.1105 78.185 84.5625C74.9006 85.1845 72.21 83.3902 69.9277 81.2302C67.7047 79.1253 66.9031 75.8784 67.1666 72.9039C67.3002 71.3771 67.7158 69.8637 68.4284 68.5043C68.7735 67.8452 69.1892 67.2221 69.679 66.6613C71.5235 64.5519 75.4053 63.5584 78.0848 63.4819C80.9647 63.3995 83.7147 64.488 85.6556 66.6401C89.4002 70.7915 88.8175 77.8379 84.8169 81.5149ZM86.4906 66.6045C84.7353 64.2134 81.9964 62.9297 79.0646 62.8135C77.1422 62.7374 75.2198 62.7894 73.4162 63.4504C71.7981 64.0445 69.9128 65.1512 68.8514 66.5852C68.4098 67.1864 68.0275 67.8314 67.7084 68.5068C67.0701 69.8525 66.6915 71.3158 66.5728 72.7988C66.3316 75.8149 67.1814 78.9186 69.0741 81.2978C70.8147 83.4881 73.7687 85.2469 76.5632 85.3682C79.5211 85.497 82.631 84.0767 84.9208 82.3069C89.6897 78.6172 89.9049 71.2572 86.4906 66.6045Z" fill="black"/>
<path d="M69.512 66.2115L67.6564 64.2981C67.6564 64.2762 67.6527 64.2532 67.6416 64.2298C66.6989 62.0599 65.7526 59.8899 64.8099 57.7196C65.259 58.0469 65.708 58.3761 66.1571 58.7053C67.2742 61.2074 68.3949 63.7095 69.512 66.2115ZM66.042 62.6321C66.042 62.6121 66.0383 62.592 66.0272 62.5713C65.0994 60.5327 64.1308 58.5135 63.1362 56.5068C63.5184 56.7807 63.897 57.0576 64.2755 57.3326L67.0218 63.6419L66.042 62.6321ZM64.231 60.7646C64.2347 60.7353 64.231 60.7049 64.2161 60.6726C63.3329 59.0319 62.5647 57.3415 61.8892 55.6076C62.1119 55.7672 62.3346 55.929 62.5572 56.0889C63.5221 58.018 64.4537 59.9634 65.3555 61.9218L64.231 60.7646ZM62.5313 59.0078C61.9041 57.4888 61.1989 56.0062 60.4233 54.5588C60.7462 54.7882 61.069 55.0209 61.3919 55.2509C62.0005 56.8724 62.702 58.4541 63.4887 59.9964L62.5313 59.0078ZM60.6942 57.1125C60.7091 57.072 60.7091 57.0245 60.6868 56.9759C60.145 55.8729 59.6291 54.7588 59.1281 53.6381C59.3508 53.7958 59.5735 53.9569 59.7999 54.1153C60.5606 55.4892 61.2546 56.8968 61.8818 58.3372L60.6942 57.1125ZM59.2691 55.6417C59.2654 55.6347 59.2654 55.628 59.2617 55.6206C58.9611 55.0405 58.6754 54.4542 58.4044 53.86C58.256 53.5338 58.1187 53.2039 57.9776 52.8732C57.9739 52.8602 57.9628 52.835 57.948 52.8045C58.1632 52.9537 58.3748 53.1066 58.5863 53.2566C59.065 54.3372 59.5586 55.4079 60.0708 56.4716L59.2691 55.6417ZM57.9888 54.3224C57.9888 54.2987 57.9813 54.2738 57.9665 54.2482C57.4841 53.4254 57.0239 52.583 56.4969 51.7869C56.7901 51.9911 57.0833 52.1996 57.3764 52.4041C57.4729 52.7173 57.6919 53.0614 57.7772 53.261C58.0073 53.801 58.256 54.3328 58.512 54.8609L57.9888 54.3224ZM55.9402 52.2074C55.9402 52.2052 55.9402 52.2033 55.9365 52.2011C55.6953 51.755 55.4466 51.3149 55.1906 50.8777C55.3576 50.9924 55.5208 51.1104 55.6878 51.2254C55.6915 51.2269 55.6916 51.2284 55.6916 51.2295C56.2074 51.9061 56.6454 52.6372 57.0684 53.3738L55.9402 52.2074ZM53.591 49.784C53.9028 49.9952 54.2108 50.2086 54.5225 50.4205C54.6932 50.701 54.864 50.9823 55.0273 51.2666C54.5485 50.7727 54.0698 50.2783 53.591 49.784ZM73.7168 63.554C66.6655 58.0915 59.4324 52.8728 52.0249 47.9084C51.7874 47.7507 51.5647 47.9418 51.535 48.1611C51.4794 48.2502 51.4719 48.3641 51.5536 48.4807C56.6564 55.7293 61.8187 62.9335 67.0477 70.0923C67.3001 70.4401 67.8865 70.1038 67.6304 69.7516C62.9618 63.3591 58.3487 56.928 53.7803 50.4635C56.6045 53.3768 59.425 56.2901 62.2492 59.2034C62.2604 59.2331 62.2752 59.2624 62.2863 59.292C62.316 59.3648 62.3791 59.3986 62.4422 59.403C64.7246 61.7555 67.0032 64.1084 69.2819 66.4609C69.4155 66.5968 69.6122 66.435 69.5602 66.2876C69.6753 66.3834 69.8868 66.2308 69.8089 66.059C68.7735 63.741 67.7381 61.4226 66.7026 59.1046C67.1257 59.4138 67.5414 59.7285 67.9607 60.0395C68.7289 61.8279 69.4378 63.6801 70.399 65.3687C70.5066 65.558 70.7998 65.388 70.6884 65.1988C69.8312 63.6879 69.1743 62.0461 68.4951 60.4362C68.8774 60.7212 69.2559 61.0089 69.6382 61.2946C69.8534 61.9151 70.0687 62.5334 70.3025 63.1476C70.5029 63.6776 70.6588 64.4357 71.0299 64.8711C71.0818 64.9323 71.1672 64.9271 71.234 64.8974C71.2451 64.8918 71.2562 64.8863 71.2711 64.8807C71.3193 64.8581 71.3565 64.7883 71.3528 64.7349C71.3528 64.7234 71.3527 64.7122 71.349 64.7007C71.3379 64.5437 71.1598 64.5018 71.067 64.5731C71.093 64.5085 71.1189 64.4443 71.1486 64.3797C71.0744 64.2042 71.0039 64.0286 70.9371 63.8523C70.7961 63.5005 70.6587 63.1465 70.5251 62.7917C70.3841 62.4135 70.2468 62.0331 70.1132 61.6516C70.4843 61.9288 70.848 62.2116 71.2154 62.4904C71.4678 63.2181 71.7647 63.9273 72.1024 64.6187C72.1989 64.8139 72.4921 64.6428 72.3956 64.4484C72.1432 63.9351 71.9243 63.4089 71.7239 62.8752C72.2286 63.2604 72.737 63.6416 73.2417 64.0312C73.5794 64.2943 74.0619 63.8204 73.7168 63.554Z" fill="black"/>
<path d="M85.6222 81.5687L87.4741 83.4822C87.4741 83.5041 87.4815 83.5271 87.489 83.5505C88.4353 85.7204 89.378 87.8904 90.3206 90.0607C89.8715 89.7333 89.4225 89.4038 88.9734 89.075C87.8564 86.5729 86.7393 84.0708 85.6222 81.5687ZM89.0885 85.1482C89.0922 85.1678 89.0959 85.1883 89.1033 85.2087C90.0311 87.2476 90.9997 89.2668 91.9943 91.2735C91.6121 90.9996 91.2335 90.7227 90.855 90.4477L88.1124 84.1384L89.0885 85.1482ZM90.8995 87.0156C90.8958 87.0449 90.8995 87.0754 90.9181 87.1073C91.7976 88.7484 92.5696 90.4388 93.2413 92.1727C93.0186 92.0131 92.7959 91.8513 92.5733 91.6913C91.6084 89.7623 90.6805 87.8169 89.7787 85.8581L90.8995 87.0156ZM92.603 88.7721C93.2302 90.2915 93.9316 91.7741 94.7072 93.2215C94.3843 92.9921 94.0652 92.7594 93.7423 92.5293C93.1299 90.9079 92.4285 89.3262 91.6455 87.7838L92.603 88.7721ZM94.44 90.6678C94.4214 90.7083 94.4214 90.7554 94.4474 90.8044C94.9893 91.907 95.5051 93.0214 96.0061 94.1422C95.7797 93.9841 95.5571 93.823 95.3307 93.6646C94.5699 92.2907 93.8759 90.8834 93.2524 89.4431L94.44 90.6678ZM95.8651 92.1385C95.8651 92.1456 95.8651 92.1523 95.8688 92.1597C96.1694 92.7398 96.4552 93.3261 96.7261 93.9203C96.8745 94.2461 97.0155 94.5764 97.1528 94.9071C97.1566 94.9201 97.1714 94.9453 97.1863 94.9757C96.971 94.8262 96.7595 94.6737 96.5442 94.5237C96.0692 93.443 95.5719 92.3724 95.0598 91.3084L95.8651 92.1385ZM97.1417 93.4579C97.1455 93.4816 97.1491 93.5065 97.164 93.5321C97.6464 94.3549 98.1066 95.1973 98.6373 95.9934C98.3404 95.7892 98.0509 95.5807 97.754 95.3758C97.6576 95.063 97.4386 94.7189 97.3533 94.5189C97.1232 93.9789 96.8745 93.4475 96.6222 92.9194L97.1417 93.4579ZM99.194 95.5729V95.5792C99.4352 96.0253 99.6876 96.4654 99.9437 96.9026C99.7767 96.7879 99.6097 96.6695 99.4427 96.5545C99.4427 96.5534 99.4426 96.5519 99.4389 96.5508C98.9268 95.8742 98.4889 95.1431 98.0621 94.4061L99.194 95.5729ZM101.539 97.9963C101.231 97.7851 100.92 97.5717 100.612 97.3598C100.441 97.0789 100.27 96.7979 100.103 96.5137C100.582 97.0076 101.061 97.5019 101.539 97.9963ZM81.4138 84.2263C88.465 89.6888 95.6981 94.9075 103.109 99.8719C103.343 100.03 103.566 99.8385 103.595 99.6192C103.655 99.5301 103.662 99.4162 103.581 99.2996C98.4778 92.0506 93.3118 84.8468 88.0827 77.688C87.8304 77.3402 87.244 77.6765 87.5001 78.0286C92.1688 84.4211 96.7855 90.8523 101.354 97.3168C98.5297 94.4035 95.7055 91.4902 92.8813 88.5766C92.8702 88.5469 92.8553 88.5179 92.8442 88.4882C92.8145 88.4155 92.7514 88.3817 92.6883 88.3773C90.4097 86.0244 88.1273 83.6719 85.8486 81.3193C85.7187 81.1835 85.522 81.3453 85.5703 81.4927C85.4552 81.3969 85.2437 81.5494 85.3216 81.7213C86.357 84.0393 87.3925 86.3576 88.4279 88.6756C88.0085 88.3665 87.5929 88.0518 87.1735 87.7408C86.4016 85.9524 85.6964 84.1001 84.7315 82.4112C84.6239 82.2223 84.3344 82.3922 84.4421 82.5815C85.303 84.0923 85.9599 85.7342 86.6391 87.3441C86.2568 87.0591 85.8746 86.7714 85.4923 86.4857C85.2808 85.8652 85.0618 85.2465 84.8317 84.6327C84.6313 84.1027 84.4718 83.3445 84.1044 82.9092C84.0524 82.8476 83.9633 82.8532 83.9002 82.8829C83.8854 82.8884 83.8743 82.894 83.8631 82.8996C83.8112 82.9222 83.7741 82.992 83.7778 83.0454C83.7778 83.0565 83.7815 83.0681 83.7815 83.0796C83.7926 83.2362 83.9745 83.2785 84.0636 83.2072C84.0376 83.2714 84.0116 83.336 83.9856 83.4006C84.0561 83.5761 84.1266 83.7517 84.1971 83.928C84.3382 84.2798 84.4718 84.6338 84.6054 84.9886C84.7501 85.3664 84.8837 85.7472 85.0173 86.1287C84.6499 85.8511 84.2825 85.5683 83.9151 85.2896C83.6627 84.5622 83.3695 83.853 83.0281 83.1616C82.9316 82.9664 82.6421 83.1375 82.7349 83.3319C82.9873 83.8448 83.2063 84.3714 83.4104 84.9051C82.9019 84.5199 82.3935 84.1387 81.8925 83.7491C81.551 83.4859 81.0686 83.9599 81.4138 84.2263Z" fill="black"/>
<path d="M101.035 50.8454C100.756 51.0165 100.474 51.1872 100.189 51.352C100.682 50.8732 101.179 50.3941 101.673 49.915C101.461 50.226 101.246 50.5352 101.035 50.8454ZM100.229 52.0133C100.229 52.0144 100.229 52.0144 100.226 52.0155C99.5502 52.5299 98.8191 52.9678 98.0806 53.3942L99.2496 52.2638C99.2496 52.2627 99.2533 52.2631 99.2533 52.262C99.7024 52.0207 100.14 51.7699 100.578 51.5138C100.463 51.6812 100.344 51.8463 100.229 52.0133ZM99.0529 53.7008C98.7375 53.7988 98.3961 54.0174 98.1957 54.1027C97.6538 54.3332 97.1231 54.5803 96.5961 54.8353L97.1343 54.3135C97.1565 54.3116 97.1825 54.3053 97.2085 54.2905C98.0324 53.8088 98.8711 53.3479 99.669 52.8201C99.4649 53.1148 99.257 53.4065 99.0529 53.7008ZM98.1994 54.9117C97.1194 55.3875 96.0469 55.8841 94.9855 56.3962L95.8131 55.592C95.8205 55.589 95.8279 55.5894 95.8354 55.5857C96.4143 55.2858 97.0007 55.0008 97.5945 54.7299C97.921 54.5811 98.2513 54.4412 98.5816 54.3031C98.5965 54.2979 98.6224 54.286 98.6521 54.2716C98.5037 54.4857 98.3478 54.6976 98.1994 54.9117ZM97.3421 56.1238C95.9652 56.8861 94.5587 57.5793 93.1188 58.2043L94.3435 57.0171C94.3843 57.0327 94.4325 57.0334 94.4808 57.0093C95.583 56.4686 96.6963 55.9527 97.8171 55.4517C97.6612 55.6763 97.4979 55.8993 97.3421 56.1238ZM96.2065 57.7152C94.5847 58.3253 93.0037 59.0256 91.4599 59.8124L92.4471 58.8541C93.9686 58.2266 95.4494 57.5237 96.8967 56.7477C96.6667 57.0713 96.4366 57.3923 96.2065 57.7152ZM95.3677 58.882C93.4379 59.8461 91.4933 60.7765 89.5338 61.6783L90.6917 60.5568C90.7214 60.559 90.751 60.5557 90.7845 60.5386C92.4248 59.6587 94.1134 58.8879 95.8502 58.214C95.6906 58.4374 95.5273 58.6589 95.3677 58.882ZM94.1245 60.6006L87.8155 63.345L88.8249 62.3664C88.8435 62.3645 88.8621 62.3616 88.8843 62.3523C90.9218 61.4245 92.9443 60.4566 94.9484 59.4617C94.6738 59.8424 94.3991 60.2209 94.1245 60.6006ZM92.7513 62.4814C90.25 63.5996 87.745 64.7174 85.2436 65.8352L87.1586 63.9808C87.1809 63.9804 87.2031 63.9763 87.2254 63.9663C89.3964 63.0222 91.5675 62.0784 93.7348 61.1343C93.4082 61.5845 93.0779 62.0328 92.7513 62.4814ZM103.295 47.8586C103.206 47.803 103.091 47.7948 102.976 47.8768C99.9436 50.0096 96.9264 52.1562 93.9092 54.3109C93.9092 54.2749 93.8944 54.2389 93.8573 54.2077C91.3782 52.1714 88.5429 50.6736 85.4626 49.7833C85.2548 49.7228 85.1657 50.0482 85.3735 50.1087C88.3944 50.9823 91.1853 52.4479 93.6161 54.4464C93.6346 54.462 93.6569 54.4712 93.6754 54.4779C89.5597 57.4231 85.4515 60.3861 81.3655 63.3721C81.3061 63.4152 81.2652 63.4679 81.243 63.5243C81.5102 63.5722 81.7663 63.6389 82.0224 63.7239C88.3091 59.1347 94.6367 54.5963 100.994 50.1039C98.0806 52.9274 95.1673 55.7505 92.2541 58.5739C92.2244 58.5862 92.1947 58.5996 92.165 58.6118C92.0908 58.6415 92.0574 58.7042 92.0536 58.7673C89.7008 61.0474 87.3479 63.3272 84.995 65.6074C84.9839 65.617 84.9802 65.6274 84.9727 65.6378C85.1286 65.7929 85.2808 65.9547 85.4292 66.1199C87.7376 65.0889 90.0459 64.0583 92.3506 63.0273C92.0425 63.4482 91.7271 63.865 91.4153 64.2843C89.6265 65.0533 87.7747 65.761 86.0861 66.7229C86.0453 66.7474 86.023 66.7816 86.0119 66.8176C86.0675 66.8899 86.1232 66.9627 86.1789 67.0362C86.2048 67.0354 86.2308 67.0299 86.2568 67.0143C87.7672 66.154 89.4113 65.4971 91.0183 64.8176C90.7362 65.2002 90.4467 65.581 90.161 65.9629C89.5412 66.1759 88.9214 66.3938 88.3091 66.6253C87.7784 66.8254 87.0213 66.9842 86.5834 67.3524C86.524 67.4043 86.5277 67.4915 86.5574 67.5568C86.5648 67.5691 86.5685 67.5817 86.5759 67.594C86.5982 67.6437 86.6687 67.6812 86.7207 67.6775C86.7318 67.6767 86.743 67.676 86.7541 67.6749C86.9137 67.6633 86.9545 67.483 86.884 67.391C86.9471 67.4181 87.0102 67.4448 87.077 67.4719C87.2514 67.4002 87.4258 67.3294 87.6039 67.2596C87.9565 67.1189 88.3091 66.9842 88.6653 66.8506C89.0439 66.7077 89.4224 66.5719 89.8047 66.4387C89.5264 66.8076 89.2443 67.1727 88.966 67.5409C88.3091 67.7688 87.6707 68.0363 87.0436 68.3351C87.0992 68.4323 87.1549 68.5295 87.2106 68.6268C87.6596 68.4145 88.1161 68.2219 88.58 68.0464C88.2497 68.4794 87.9231 68.914 87.5928 69.346C87.7079 69.5757 87.8118 69.804 87.912 70.0296C93.3711 62.9828 98.5854 55.7538 103.547 48.3482C103.707 48.1129 103.514 47.8894 103.295 47.8586Z" fill="black"/>
<path d="M69.8868 81.9447L67.9756 83.7992C67.9533 83.8 67.9274 83.804 67.9051 83.8141C65.734 84.7582 63.5667 85.7019 61.3957 86.6457C61.7222 86.1959 62.0526 85.7476 62.3828 85.2985C64.8842 84.1807 67.3855 83.0629 69.8868 81.9447ZM66.3093 85.4139C66.287 85.4154 66.2685 85.4188 66.2462 85.4281C64.2088 86.3559 62.1898 87.3237 60.1821 88.3183C60.4567 87.9379 60.7351 87.5594 61.0097 87.1797L67.3187 84.4353L66.3093 85.4139ZM64.4389 87.2235C64.4129 87.2213 64.3795 87.2246 64.3498 87.2417C62.7095 88.1212 61.0171 88.8924 59.284 89.5664C59.4436 89.343 59.6032 89.1214 59.7665 88.898C61.6926 87.9342 63.641 87.0038 65.5967 86.102L64.4389 87.2235ZM62.6834 88.9262C61.1656 89.5538 59.6811 90.2567 58.2337 91.0327C58.4638 90.7091 58.6976 90.388 58.9277 90.0652C60.5495 89.4547 62.1305 88.7544 63.6706 87.968L62.6834 88.9262ZM60.787 90.7629C60.7462 90.7473 60.7017 90.7469 60.6534 90.771C59.5475 91.3118 58.4341 91.8276 57.3134 92.3286C57.4729 92.1037 57.6325 91.881 57.7921 91.6565C59.1653 90.8942 60.5718 90.201 62.0117 89.576L60.787 90.7629ZM59.3174 92.1883C59.31 92.1909 59.3026 92.1906 59.2952 92.1943C58.7162 92.4945 58.1298 92.7795 57.536 93.0504C57.2094 93.1993 56.8792 93.3392 56.5489 93.4772C56.5378 93.4824 56.5118 93.4943 56.4784 93.5088C56.6305 93.2946 56.7827 93.0827 56.9311 92.8686C58.0148 92.3928 59.0836 91.8963 60.1487 91.3837L59.3174 92.1883ZM57.9999 93.4668C57.9739 93.4683 57.948 93.475 57.9257 93.4898C57.1018 93.9712 56.2594 94.4325 55.4615 94.9602C55.6656 94.6656 55.8772 94.3738 56.0813 94.0795C56.393 93.9816 56.7381 93.763 56.9385 93.6776C57.4767 93.4472 58.0074 93.2 58.5381 92.9451L57.9999 93.4668ZM55.8846 95.5165C55.8809 95.5176 55.8809 95.5173 55.8771 95.5184C55.4318 95.7592 54.9902 96.0101 54.5523 96.2665C54.6673 96.0992 54.7861 95.934 54.9011 95.7666C54.9011 95.7659 54.9048 95.7659 54.9048 95.7648C55.5803 95.2504 56.3114 94.8125 57.0499 94.3861L55.8846 95.5165ZM53.4612 97.8649C53.6727 97.5543 53.8843 97.2452 54.0958 96.9349C54.3779 96.7638 54.6599 96.5928 54.9419 96.4284C54.4483 96.9071 53.9548 97.3862 53.4612 97.8649ZM67.2296 77.7381C61.7668 84.789 56.5489 92.0221 51.5833 99.4322C51.4275 99.6675 51.6167 99.8909 51.8357 99.9213C51.9247 99.9774 52.0398 99.9855 52.1548 99.9031C59.4065 94.801 66.6099 89.6358 73.7688 84.4078C74.1139 84.154 73.7799 83.5684 73.4273 83.8252C67.0367 88.4935 60.6052 93.1083 54.1403 97.6764C57.0536 94.853 59.9669 92.0299 62.8801 89.2064C62.9098 89.1942 62.9395 89.1808 62.9692 89.1685C63.0397 89.1389 63.0731 89.0761 63.0806 89.013C65.4297 86.7329 67.7826 84.4531 70.1355 82.173C70.2728 82.0412 70.1095 81.8453 69.9648 81.8946C70.0576 81.7807 69.9054 81.5688 69.7347 81.6456C67.4152 82.6814 65.0994 83.7172 62.7799 84.753C63.088 84.3321 63.4034 83.9154 63.7152 83.496C65.5039 82.7271 67.3558 82.019 69.0444 81.0574C69.2337 80.9498 69.063 80.6581 68.8737 80.7661C67.3632 81.6263 65.7229 82.2832 64.1123 82.9623C64.398 82.5797 64.6838 82.1993 64.9695 81.8175C65.5893 81.6044 66.2091 81.3866 66.8214 81.155C67.3521 80.955 68.1129 80.7961 68.5471 80.428C68.6065 80.376 68.6028 80.2888 68.5731 80.2235C68.5694 80.2112 68.562 80.1986 68.5583 80.1864C68.5323 80.1367 68.4655 80.0988 68.4098 80.1029C68.3987 80.1036 68.3875 80.1044 68.3764 80.1055C68.2205 80.117 68.176 80.2973 68.2502 80.3894C68.1834 80.3623 68.1203 80.3356 68.0573 80.3085C67.8791 80.3801 67.7047 80.451 67.5265 80.5208C67.1777 80.6614 66.8214 80.7961 66.4689 80.9297C66.0903 81.0726 65.7081 81.2084 65.3258 81.3417C65.6042 80.9728 65.8862 80.6076 66.1645 80.2395C66.8956 79.9871 67.6045 79.692 68.2948 79.3525C68.4915 79.2564 68.317 78.9654 68.124 79.0612C67.6119 79.3131 67.0849 79.5321 66.5505 79.734C66.9365 79.2278 67.3187 78.7182 67.7084 78.2154C67.9719 77.8758 67.4968 77.3945 67.2296 77.7381Z" fill="black"/>
<path d="M77.6506 33.27C77.6506 32.8914 77.6469 32.5125 77.6469 32.134C78.9532 33.0759 80.2595 34.0178 81.5659 34.9593C81.6104 35.2053 81.655 35.451 81.6995 35.6967C80.3635 34.8643 79.0163 34.0538 77.6506 33.27ZM77.9178 15.1045C77.8733 15.0525 77.8287 15.0002 77.7805 14.9482C77.7137 14.8703 77.6246 14.8851 77.5652 14.9382C77.5615 14.3459 77.5578 13.7536 77.5541 13.1613C77.6766 13.8085 77.7953 14.4569 77.9178 15.1045ZM78.211 16.6795C77.9995 16.4565 77.7842 16.2334 77.569 16.0104C77.569 15.7443 77.5652 15.4786 77.5652 15.2125C77.7248 15.3925 77.8807 15.5728 78.0402 15.7528C78.0959 16.0616 78.1553 16.3707 78.211 16.6795ZM78.4968 18.2074C78.2147 17.8942 77.9289 17.5887 77.6246 17.2963C77.6098 17.2807 77.5912 17.2718 77.5763 17.264C77.5726 17.0091 77.5727 16.7545 77.5727 16.4995C77.8213 16.7611 78.0737 17.0224 78.326 17.2837C78.3817 17.5913 78.4374 17.8997 78.4968 18.2074ZM78.9532 20.6712C78.5153 20.132 78.0662 19.605 77.5875 19.1033C77.5875 19.1022 77.5838 19.1018 77.5838 19.1007C77.5801 18.6442 77.5801 18.1877 77.5763 17.7316C77.9438 18.0964 78.2889 18.4783 78.6192 18.8747C78.7305 19.4733 78.8419 20.0726 78.9532 20.6712ZM79.0794 21.3619C79.1685 21.8395 79.2575 22.3172 79.3429 22.7952C78.7342 22.2374 78.159 21.6447 77.6246 21.0127C77.6135 21.0012 77.6023 20.996 77.5949 20.9882C77.5912 20.5265 77.5875 20.0652 77.5875 19.6035C78.1108 20.1673 78.6118 20.7503 79.0794 21.3619ZM79.6917 24.6741C78.9978 24.044 78.3075 23.4138 77.6172 22.7837C77.6135 22.7792 77.6061 22.7781 77.6024 22.7744C77.5986 22.3461 77.5986 21.9178 77.5949 21.4892C78.1702 22.1461 78.7862 22.7632 79.4431 23.337C79.5284 23.7827 79.6064 24.2288 79.6917 24.6741ZM80.0963 26.8815C79.2872 26.1141 78.4634 25.364 77.6172 24.6381C77.6135 24.6366 77.6135 24.6363 77.6098 24.6348C77.6098 24.1657 77.6061 23.6966 77.6024 23.2279C78.3335 23.8926 79.0609 24.5576 79.792 25.2223C79.8922 25.7752 79.9923 26.3286 80.0963 26.8815ZM80.1927 27.4078C80.2521 27.7332 80.3115 28.0595 80.3709 28.3849C79.4839 27.6342 78.6044 26.8329 77.6172 26.2232L77.6135 25.0842C78.4671 25.8246 79.3058 26.5839 80.1223 27.3673C80.1445 27.3888 80.1668 27.4004 80.1927 27.4078ZM80.4637 28.8997C80.5342 29.2719 80.601 29.6441 80.6678 30.0164C79.688 29.2103 78.6749 28.4484 77.6246 27.734C77.6246 27.3632 77.6209 26.9921 77.6209 26.621C78.6303 27.2775 79.5321 28.1318 80.4525 28.8937C80.4562 28.8967 80.4599 28.8971 80.4637 28.8997ZM81.1428 32.6175C79.9144 31.7335 78.7417 30.7779 77.6357 29.7443L77.6283 28.1456C78.712 28.8908 79.7548 29.6864 80.7606 30.5322C80.8905 31.227 81.0167 31.9224 81.1428 32.6175ZM81.4805 34.4831C80.2002 33.5617 78.9235 32.6398 77.6432 31.7183C77.6432 31.2125 77.6395 30.7066 77.6357 30.2008C78.7714 31.2411 79.9701 32.206 81.2282 33.0944C81.3135 33.5572 81.3952 34.0204 81.4805 34.4831ZM79.0905 17.7116C79.1054 17.6682 79.0979 17.621 79.0682 17.5772C78.9792 17.1093 78.8938 16.6409 78.8048 16.1729C78.8048 16.1566 78.8048 16.1406 78.7973 16.1243C78.4002 14.0108 78.0069 11.8965 77.6061 9.78376C77.5801 9.64496 77.491 9.57594 77.3908 9.55293C77.2127 9.39929 76.9047 9.40633 76.8638 9.6958C74.3365 26.5208 71.3527 43.2738 67.9088 59.9351C67.8197 60.3597 68.4691 60.5404 68.5582 60.1144C71.8686 44.101 74.7521 28.0023 77.2127 11.8364C77.2201 13.1784 77.2238 14.5207 77.2312 15.8627C77.157 15.9183 77.1199 16.0286 77.2016 16.1154C77.2127 16.1258 77.2238 16.1362 77.2312 16.1466C77.2498 19.4558 77.2646 22.7651 77.2795 26.0744C77.157 26.1104 77.0902 26.2993 77.2349 26.3828C77.2498 26.3917 77.2646 26.4024 77.2832 26.4117C77.2869 27.5139 77.2906 28.6161 77.298 29.7187C77.2646 29.7673 77.2609 29.8271 77.298 29.8824C77.3017 30.4639 77.3054 31.0455 77.3054 31.627C77.2461 31.692 77.2275 31.8074 77.3092 31.8838C77.3092 32.3099 77.3129 32.7363 77.3129 33.1623C77.2127 33.2191 77.1681 33.3802 77.3017 33.4551C77.3054 33.4581 77.3092 33.4611 77.3166 33.4637C77.3611 43.3744 77.4094 53.2847 77.4576 63.195C77.4576 63.4125 77.7953 63.4125 77.7953 63.195C77.7471 53.3508 77.6988 43.5065 77.6543 33.6622C79.046 34.4638 80.4191 35.29 81.7811 36.1424C83.2322 44.1389 84.6536 52.1402 86.0267 60.1504C86.1009 60.5787 86.7504 60.3964 86.6799 59.9711C84.2602 45.8649 81.7255 31.7792 79.0905 17.7116Z" fill="black"/>
<path d="M78.4596 35.4162C78.4633 35.1983 78.1256 35.1987 78.1219 35.4162C78.0328 44.6117 78.1293 53.8084 78.4114 63.0002C78.4188 63.2173 78.7565 63.2181 78.7491 63.0002C78.467 53.8084 78.3705 44.6117 78.4596 35.4162Z" fill="black"/>
<path d="M79.0757 42.4165V62.998C79.0757 63.2155 79.4097 63.2155 79.4097 62.998V42.4165C79.4097 42.199 79.0757 42.199 79.0757 42.4165Z" fill="black"/>
<path d="M80.1668 45.4593C80.152 45.2433 79.8142 45.2418 79.8291 45.4593C80.2225 51.4384 80.319 57.4319 80.1149 63.4206C80.1074 63.6385 80.4451 63.6377 80.4525 63.4206C80.6567 57.4319 80.5602 51.4384 80.1668 45.4593Z" fill="black"/>
<path d="M81.269 50.5159C81.2653 50.2988 80.9275 50.2984 80.9312 50.5159C81.0203 54.8728 81.1094 59.2297 81.1984 63.5866C81.2021 63.8037 81.5399 63.8041 81.5362 63.5866C81.4471 59.2297 81.358 54.8728 81.269 50.5159Z" fill="black"/>
<path d="M82.2265 53.3849C82.2154 53.1682 81.8776 53.167 81.8888 53.3849C82.0446 56.7572 82.0335 60.1326 81.8479 63.5034C81.8331 63.7209 82.1708 63.7198 82.1857 63.5034C82.3712 60.1326 82.3824 56.7572 82.2265 53.3849Z" fill="black"/>
<path d="M83.247 55.3207C83.2433 55.1039 82.9056 55.1032 82.913 55.3207C82.9872 57.711 83.0652 60.101 83.1394 62.4914C83.1469 62.7085 83.4846 62.7089 83.4771 62.4914C83.4029 60.101 83.325 57.711 83.247 55.3207Z" fill="black"/>
<path d="M84.1303 57.0935C84.1303 56.8757 83.7926 56.8761 83.7926 57.0935C83.7814 58.643 83.8483 60.1875 83.993 61.7303C84.0115 61.9452 84.3493 61.947 84.3307 61.7303C84.186 60.1875 84.1192 58.643 84.1303 57.0935Z" fill="black"/>
<path d="M85.1992 58.5297C85.1843 58.3141 84.8466 58.3126 84.8614 58.5297C84.9245 59.4289 84.9876 60.3281 85.0544 61.2274C85.0693 61.443 85.407 61.4445 85.3884 61.2274C85.3254 60.3281 85.2623 59.4289 85.1992 58.5297Z" fill="black"/>
<path d="M76.9306 115.286C76.9343 115.665 76.9344 116.043 76.9381 116.422C75.628 115.48 74.3217 114.539 73.0154 113.597C72.9708 113.351 72.9263 113.105 72.8818 112.859C74.2178 113.692 75.5649 114.503 76.9306 115.286ZM76.6634 133.451C76.7117 133.503 76.7562 133.556 76.8008 133.608C76.8713 133.686 76.9603 133.671 77.0197 133.618C77.0197 134.21 77.0234 134.802 77.0271 135.395C76.9047 134.747 76.7859 134.099 76.6634 133.451ZM76.3702 131.876C76.5855 132.099 76.8008 132.322 77.0123 132.546C77.016 132.812 77.016 133.078 77.016 133.343C76.8602 133.163 76.7006 132.983 76.5447 132.803C76.4853 132.494 76.4296 132.185 76.3702 131.876ZM76.0882 130.348C76.3666 130.662 76.656 130.967 76.9566 131.26C76.9715 131.275 76.99 131.284 77.0086 131.292C77.0086 131.547 77.0086 131.801 77.0123 132.056C76.76 131.795 76.5076 131.534 76.2589 131.273C76.1996 130.965 76.1439 130.656 76.0882 130.348ZM75.6317 127.885C76.0659 128.424 76.515 128.951 76.9937 129.453C76.9974 129.454 76.9975 129.454 76.9975 129.455C77.0012 129.912 77.0049 130.368 77.0049 130.824C76.6412 130.459 76.2923 130.078 75.962 129.681C75.8507 129.083 75.7431 128.483 75.6317 127.885ZM75.5018 127.194C75.4128 126.717 75.3274 126.239 75.2384 125.761C75.847 126.319 76.4222 126.911 76.9604 127.543C76.9678 127.555 76.9789 127.56 76.99 127.568C76.9937 128.029 76.9937 128.491 76.9975 128.952C76.4705 128.389 75.9694 127.806 75.5018 127.194ZM74.8932 123.882C75.5835 124.512 76.2738 125.142 76.9678 125.773C76.9715 125.777 76.9752 125.778 76.9826 125.782C76.9826 126.21 76.9863 126.638 76.9863 127.067C76.4111 126.41 75.795 125.793 75.1382 125.219C75.0565 124.773 74.9748 124.327 74.8932 123.882ZM74.4887 121.674C75.294 122.442 76.1216 123.192 76.9678 123.918C76.9678 123.92 76.9714 123.92 76.9714 123.921C76.9752 124.39 76.9752 124.859 76.9789 125.328C76.2515 124.663 75.5204 123.999 74.793 123.334C74.6891 122.781 74.5889 122.227 74.4887 121.674ZM74.3922 121.148C74.3291 120.823 74.2734 120.497 74.2141 120.171C75.0973 120.922 75.9806 121.723 76.9641 122.333L76.9714 123.472C76.1142 122.731 75.2792 121.972 74.4627 121.189C74.4405 121.167 74.4145 121.156 74.3922 121.148ZM74.1176 119.656C74.0508 119.284 73.984 118.912 73.9134 118.54C74.8932 119.346 75.9064 120.108 76.9566 120.822C76.9603 121.193 76.9604 121.564 76.9641 121.935C75.9546 121.278 75.0528 120.424 74.1287 119.662C74.125 119.659 74.1213 119.659 74.1176 119.656ZM73.4422 115.938C74.6706 116.823 75.8396 117.778 76.9492 118.812L76.9566 120.41C75.873 119.665 74.8264 118.869 73.8207 118.024C73.6945 117.329 73.5683 116.633 73.4422 115.938ZM73.1007 114.073C74.3811 114.994 75.6614 115.916 76.9381 116.838C76.9418 117.343 76.9418 117.849 76.9455 118.355C75.8099 117.315 74.6111 116.35 73.3531 115.461C73.2714 114.999 73.1861 114.536 73.1007 114.073ZM75.4907 130.844C75.4796 130.888 75.4833 130.935 75.5167 130.979C75.6021 131.447 75.6874 131.915 75.7765 132.383C75.7765 132.399 75.7802 132.415 75.7839 132.432C76.181 134.545 76.5744 136.66 76.9752 138.772C77.0011 138.911 77.0902 138.98 77.1942 139.003C77.3686 139.157 77.6766 139.15 77.7211 138.86C80.2447 122.035 83.5699 104.607 87.0139 87.9461C87.0993 87.5211 86.4498 87.3404 86.3607 87.7664C83.0504 103.78 79.8328 120.554 77.3723 136.719C77.3649 135.378 77.3574 134.036 77.35 132.694C77.4279 132.638 77.4651 132.527 77.3797 132.44C77.3686 132.43 77.3611 132.42 77.35 132.409C77.3352 129.1 77.3203 125.791 77.3018 122.482C77.4242 122.446 77.491 122.257 77.3463 122.174C77.3314 122.164 77.3166 122.154 77.3018 122.145C77.2943 121.042 77.2906 119.94 77.2869 118.838C77.3166 118.789 77.3203 118.729 77.2832 118.674C77.2832 118.092 77.2795 117.51 77.2758 116.929C77.3389 116.864 77.3537 116.749 77.2758 116.672C77.2721 116.246 77.2721 115.82 77.2684 115.394C77.3686 115.337 77.4131 115.176 77.2832 115.101C77.2758 115.098 77.2721 115.095 77.2684 115.092C77.2201 105.182 77.1719 95.2712 77.1273 85.3609C77.1236 85.1434 76.7859 85.1434 76.7896 85.3609C76.8341 95.2051 76.8824 105.049 76.9306 114.894C75.5389 114.092 74.1621 113.266 72.8038 112.414C71.3527 104.417 69.9277 96.4157 68.5545 88.4055C68.4803 87.9773 67.8308 88.1595 67.9051 88.5848C70.3248 102.691 72.8595 116.777 75.4907 130.844Z" fill="black"/>
<path d="M76.1216 113.14C76.1216 113.358 76.4593 113.357 76.4593 113.14C76.5521 103.944 76.4519 94.0728 76.1699 84.881C76.1624 84.6639 75.8284 84.6632 75.8321 84.881C76.1179 94.0728 76.2144 103.944 76.1216 113.14Z" fill="black"/>
<path d="M75.5092 106.139V84.8832C75.5092 84.6654 75.1715 84.6654 75.1715 84.8832V106.139C75.1715 106.357 75.5092 106.357 75.5092 106.139Z" fill="black"/>
<path d="M74.4182 103.096C74.4331 103.312 74.7707 103.314 74.7559 103.096C74.3625 97.1174 74.266 91.1239 74.4664 85.1351C74.4738 84.9173 74.1362 84.5807 74.1287 84.7978C73.9283 90.7865 74.0248 97.1174 74.4182 103.096Z" fill="black"/>
<path d="M73.3159 98.0401C73.3196 98.2572 73.6573 98.2576 73.6536 98.0401C73.5646 93.6832 73.4755 88.9889 73.3864 84.632C73.379 84.4149 73.0413 84.4145 73.0487 84.632C73.1378 88.9889 73.2268 93.6832 73.3159 98.0401Z" fill="black"/>
<path d="M72.3585 95.1714C72.3659 95.3877 72.7036 95.3888 72.6962 95.1714C72.5366 91.7986 72.5514 88.4237 72.737 85.0525C72.7481 84.835 72.4104 84.8361 72.3993 85.0525C72.2137 88.4237 72.1989 91.7986 72.3585 95.1714Z" fill="black"/>
<path d="M71.3342 93.2352C71.3416 93.4519 71.6793 93.4527 71.6719 93.2352C71.5939 90.8448 71.5197 88.4548 71.4418 86.0644C71.4344 85.8477 71.0966 85.847 71.1041 86.0644C71.182 88.4548 71.2562 90.8448 71.3342 93.2352Z" fill="black"/>
<path d="M70.4546 91.4624C70.4546 91.6803 70.7887 91.6799 70.7924 91.4624C70.7998 89.913 70.733 88.3684 70.592 86.8257C70.5697 86.6108 70.232 86.6089 70.2542 86.8257C70.3953 88.3684 70.4658 89.913 70.4546 91.4624Z" fill="black"/>
<path d="M69.3821 90.0262C69.4007 90.2418 69.7384 90.2433 69.7199 90.0262C69.6568 89.127 69.5937 88.2278 69.5306 87.3285C69.5157 87.1129 69.178 87.1114 69.1929 87.3285C69.2559 88.2278 69.319 89.127 69.3821 90.0262Z" fill="black"/>
<path d="M118.47 74.4696C118.848 74.4677 119.227 74.4659 119.605 74.464C118.663 75.7711 117.72 77.0778 116.778 78.3845C116.533 78.429 116.288 78.4732 116.043 78.5177C116.874 77.1825 117.683 75.8342 118.47 74.4696ZM136.632 74.7364C136.684 74.6908 136.736 74.6451 136.788 74.5995C136.866 74.5308 136.851 74.4417 136.799 74.382C137.393 74.379 137.983 74.3764 138.577 74.3734C137.928 74.4959 137.282 74.6147 136.632 74.7364ZM135.059 75.03C135.281 74.8155 135.504 74.6013 135.727 74.3872C135.994 74.3857 136.261 74.3846 136.525 74.3835C136.347 74.5416 136.165 74.6997 135.987 74.8574C135.675 74.9157 135.367 74.9721 135.059 75.03ZM133.53 75.3139C133.845 75.0344 134.15 74.7461 134.443 74.4436C134.458 74.4276 134.465 74.4106 134.472 74.3931C134.728 74.392 134.985 74.3905 135.237 74.3894C134.977 74.6403 134.717 74.8912 134.454 75.1424C134.146 75.1999 133.838 75.256 133.53 75.3139ZM131.066 75.77C131.607 75.335 132.134 74.8856 132.635 74.4057C132.635 74.4046 132.635 74.4031 132.639 74.402C133.096 74.3998 133.548 74.3976 134.005 74.3954C133.641 74.7605 133.259 75.1068 132.862 75.4374C132.264 75.5495 131.667 75.6586 131.066 75.77ZM130.375 75.898C129.9 75.9867 129.422 76.0735 128.943 76.1622C129.499 75.5521 130.093 74.9773 130.724 74.4421C130.735 74.4325 130.743 74.4213 130.75 74.4109C131.21 74.4087 131.674 74.4065 132.134 74.4043C131.57 74.9283 130.988 75.4297 130.375 75.898ZM127.065 76.5081C127.696 75.8171 128.323 75.1257 128.954 74.4347C128.958 74.4299 128.961 74.4243 128.965 74.4195C129.392 74.4176 129.819 74.4154 130.249 74.4132C129.592 74.988 128.976 75.6037 128.401 76.2624C127.956 76.3448 127.51 76.4257 127.065 76.5081ZM124.857 76.9134C125.625 76.1047 126.375 75.2801 127.098 74.4339C127.102 74.4321 127.102 74.4302 127.102 74.4284C127.573 74.4261 128.041 74.4239 128.509 74.4217C127.844 75.1506 127.18 75.8798 126.516 76.6091C125.963 76.7111 125.41 76.8113 124.857 76.9134ZM124.33 77.0099C124.003 77.0696 123.68 77.1286 123.354 77.1884C124.103 76.3025 124.905 75.4219 125.514 74.4358L126.653 74.4306C125.914 75.2853 125.154 76.1233 124.371 76.9394C124.348 76.9616 124.337 76.9854 124.33 77.0099ZM122.838 77.2823C122.467 77.3509 122.096 77.4181 121.721 77.486C122.526 76.5066 123.291 75.4931 124.003 74.4432C124.374 74.4414 124.745 74.4395 125.117 74.4377C124.46 75.4471 123.606 76.3489 122.845 77.2715C122.842 77.2752 122.842 77.2789 122.838 77.2823ZM119.119 77.9596C120.006 76.7308 120.96 75.5607 121.992 74.4529L123.591 74.4451C122.849 75.5288 122.051 76.5735 121.205 77.5803C120.511 77.7076 119.817 77.8326 119.119 77.9596ZM117.256 78.298C118.177 77.0195 119.097 75.7407 120.021 74.4621C120.526 74.4599 121.031 74.4573 121.539 74.4551C120.496 75.5907 119.531 76.7876 118.644 78.0464C118.18 78.131 117.716 78.2141 117.256 78.298ZM134.027 75.9099C134.072 75.9221 134.116 75.9162 134.161 75.8846C134.628 75.7971 135.096 75.7117 135.563 75.6241C135.582 75.623 135.597 75.6212 135.615 75.6148C137.727 75.2181 139.843 74.8262 141.954 74.4247C142.091 74.3983 142.162 74.31 142.184 74.2079C142.34 74.0305 142.333 73.7244 142.043 73.681C125.217 71.1559 108.464 68.1695 91.8013 64.7248C91.3782 64.6372 91.1964 65.2874 91.6232 65.3757C107.637 68.6861 123.736 71.5686 139.902 74.0298C138.558 74.0361 137.219 74.0428 135.875 74.0491C135.82 73.9745 135.708 73.937 135.623 74.0205C135.612 74.0305 135.601 74.0406 135.593 74.0502C132.283 74.0662 128.972 74.0821 125.662 74.0977C125.629 73.9745 125.439 73.9088 125.354 74.0524C125.347 74.0684 125.335 74.0836 125.328 74.0996C124.226 74.1048 123.12 74.11 122.018 74.1152C121.969 74.0844 121.91 74.0795 121.854 74.1159C121.275 74.1189 120.693 74.1215 120.11 74.1244C120.047 74.0621 119.932 74.0454 119.854 74.1256C119.427 74.1274 119.001 74.1296 118.577 74.1315C118.518 74.0305 118.358 73.9871 118.284 74.1181C118.281 74.1229 118.277 74.1282 118.273 74.133C108.364 74.1805 98.4517 74.2276 88.5429 74.2751C88.3239 74.2762 88.3239 74.6136 88.5429 74.6125C98.3886 74.5653 108.231 74.5186 118.076 74.4714C117.275 75.8624 116.447 77.2381 115.597 78.5983C107.6 80.049 99.5985 81.4714 91.586 82.8453C91.1592 82.9188 91.3411 83.569 91.7679 83.4959C105.874 81.077 119.958 78.5422 134.027 75.9099Z" fill="black"/>
<path d="M116.321 75.2772C116.54 75.2794 116.54 74.9421 116.321 74.9399C107.125 74.8504 97.9285 74.9469 88.7397 75.2297C88.5207 75.2364 88.5207 75.5741 88.7397 75.5674C97.9285 75.2843 107.125 75.1878 116.321 75.2772Z" fill="black"/>
<path d="M109.322 75.8917H88.7397C88.5207 75.8917 88.5207 76.2291 88.7397 76.2291H109.322C109.541 76.2291 109.541 75.8917 109.322 75.8917Z" fill="black"/>
<path d="M106.279 76.9828C106.494 76.9687 106.498 76.631 106.279 76.6455C100.3 77.04 94.3064 77.1361 88.3165 76.9331C88.1013 76.926 88.1013 77.2634 88.3165 77.2708C94.3064 77.4734 100.3 77.3773 106.279 76.9828Z" fill="black"/>
<path d="M101.224 78.0862C101.439 78.0817 101.439 77.7444 101.224 77.7488C96.8671 77.8379 92.5101 77.9266 88.1532 78.0157C87.9342 78.0201 87.9342 78.3578 88.1532 78.3534C92.5101 78.2643 96.8671 78.1752 101.224 78.0862Z" fill="black"/>
<path d="M98.3516 79.0433C98.5705 79.0333 98.5705 78.6955 98.3516 78.7059C94.9818 78.864 91.6047 78.8503 88.2349 78.6648C88.016 78.6525 88.0197 78.9902 88.2349 79.0021C91.6047 79.1877 94.9818 79.2014 98.3516 79.0433Z" fill="black"/>
<path d="M96.418 80.0668C96.6332 80.0598 96.6332 79.7224 96.418 79.7295C94.028 79.8059 91.638 79.8824 89.248 79.9588C89.0291 79.9659 89.0291 80.3032 89.248 80.2966C91.638 80.2197 94.028 80.1433 96.418 80.0668Z" fill="black"/>
<path d="M94.6441 80.9464C94.8631 80.9479 94.8631 80.6102 94.6441 80.6091C93.0966 80.5994 91.549 80.6662 90.0088 80.8102C89.7936 80.8303 89.7899 81.1676 90.0088 81.1476C91.549 81.004 93.0966 80.9368 94.6441 80.9464Z" fill="black"/>
<path d="M93.2078 82.0167C93.4231 82.0015 93.4268 81.6641 93.2078 81.6793C92.3097 81.7432 91.4116 81.807 90.5098 81.8708C90.2946 81.886 90.2946 82.2234 90.5098 82.2082C91.4116 82.1443 92.3097 82.0805 93.2078 82.0167Z" fill="black"/>
<path d="M36.4528 73.7488C36.0743 73.7507 35.6957 73.7526 35.3172 73.7544C36.2561 72.4473 37.1988 71.1406 38.1414 69.8339C38.3863 69.7894 38.635 69.7452 38.8799 69.7007C38.0449 71.036 37.2359 72.3842 36.4528 73.7488ZM34.9015 73.7563C34.3931 73.7585 33.8884 73.7611 33.3837 73.7633C34.4228 72.6277 35.3877 71.4308 36.2784 70.172C36.7386 70.0874 37.2025 70.0043 37.6664 69.9204C36.7423 71.1989 35.8219 72.4774 34.9015 73.7563ZM32.9272 73.7655L31.3277 73.7733C32.0736 72.6897 32.8678 71.645 33.714 70.6381C34.408 70.5108 35.1057 70.3858 35.7996 70.2588C34.9164 71.4876 33.9589 72.6577 32.9272 73.7655ZM29.8031 73.7807C30.4596 72.7713 31.3139 71.8695 32.0773 70.9469C32.0773 70.9432 32.081 70.9395 32.081 70.9358C32.4559 70.8675 32.827 70.8003 33.1981 70.7324C32.3928 71.7118 31.632 72.7253 30.9161 73.7752C30.5454 73.777 30.1742 73.7789 29.8031 73.7807ZM29.4053 73.7826L28.2663 73.7878C29.0067 72.9331 29.766 72.0951 30.5494 71.2791C30.571 71.2568 30.5828 71.233 30.5899 71.2085C30.9154 71.1488 31.2416 71.0898 31.5689 71.03C30.8163 71.9159 30.015 72.7965 29.4053 73.7826ZM27.8169 73.79C27.3478 73.7923 26.8791 73.7945 26.41 73.7967C27.0747 73.0678 27.7397 72.3386 28.4044 71.6093C28.9573 71.5073 29.5107 71.4071 30.0637 71.305C29.2962 72.1137 28.5465 72.9383 27.8202 73.7845C27.8188 73.7863 27.8184 73.7882 27.8169 73.79ZM25.9565 73.7989C25.5282 73.8012 25.0999 73.803 24.6713 73.8053C25.3285 73.2304 25.9453 72.6147 26.5191 71.956C26.9648 71.8736 27.4109 71.7927 27.8562 71.7103C27.2261 72.4013 26.5959 73.0927 25.9658 73.7837C25.9613 73.7885 25.9602 73.7941 25.9565 73.7989ZM24.1703 73.8075C23.709 73.8097 23.2473 73.8119 22.7856 73.8142C23.3494 73.2901 23.9324 72.7884 24.544 72.3204C25.0216 72.2317 25.4996 72.1449 25.9773 72.0562C25.4195 72.6663 24.8268 73.2412 24.1948 73.7763C24.1833 73.786 24.1781 73.7971 24.1703 73.8075ZM22.2828 73.8164C21.8263 73.8186 21.3702 73.8208 20.9137 73.8231C21.2785 73.4579 21.6604 73.1116 22.0568 72.781C22.6554 72.6689 23.2547 72.5598 23.8534 72.4484C23.3141 72.8834 22.7871 73.3328 22.2854 73.8127C22.2843 73.8138 22.2839 73.8153 22.2828 73.8164ZM20.4461 73.8253C20.1912 73.8264 19.9366 73.8279 19.682 73.829C19.9433 73.5781 20.2045 73.3272 20.4658 73.076C20.7735 73.0185 21.0819 72.9624 21.3899 72.9046C21.0763 73.184 20.7709 73.4724 20.4784 73.7748C20.4628 73.7908 20.4539 73.8078 20.4461 73.8253ZM19.1925 73.8312C18.9264 73.8327 18.6607 73.8338 18.3946 73.8349C18.575 73.6768 18.7549 73.5187 18.9349 73.361C19.2437 73.3028 19.5529 73.2463 19.8616 73.1884C19.6386 73.4029 19.4155 73.6171 19.1925 73.8312ZM18.1303 73.619C18.0524 73.6876 18.0673 73.7767 18.1203 73.8364C17.528 73.839 16.9357 73.842 16.3434 73.845C16.9906 73.7225 17.639 73.6037 18.2866 73.482C18.2346 73.5276 18.1823 73.5733 18.1303 73.619ZM66.376 73.6059C56.534 73.6531 46.6882 73.6998 36.8462 73.747C37.6441 72.356 38.4717 70.9803 39.3253 69.6201C47.3229 68.1694 55.3241 66.747 63.3329 65.3731C63.7596 65.2996 63.5778 64.6494 63.1547 64.7225C49.0485 67.1415 34.9609 69.6762 20.8937 72.3085C20.8503 72.2963 20.8032 72.3022 20.7594 72.3338C20.2914 72.4213 19.823 72.5067 19.3551 72.5943C19.3387 72.5954 19.3227 72.5973 19.3064 72.6036C17.1929 73.0003 15.0787 73.3922 12.9659 73.7938C12.8271 73.8201 12.758 73.9084 12.7354 74.0105C12.5814 74.1879 12.5885 74.494 12.8779 74.5375C29.5174 77.0347 46.7439 80.3135 63.2364 83.7174C63.3737 83.5137 63.5184 83.314 63.6669 83.1181C47.7459 79.8292 31.0827 76.6343 15.0189 74.1886C16.3609 74.1823 17.7028 74.176 19.0448 74.1693C19.1005 74.2439 19.2107 74.2814 19.2975 74.1979C19.3079 74.1879 19.3183 74.1778 19.3287 74.1682C22.6379 74.1522 25.9472 74.1363 29.2565 74.1207C29.2925 74.2439 29.4814 74.3096 29.5649 74.166C29.5738 74.15 29.5845 74.1348 29.5938 74.1192C30.696 74.1136 31.799 74.1085 32.9012 74.1033C32.9495 74.1341 33.0088 74.1389 33.0645 74.1025C33.6472 74.0995 34.2261 74.0969 34.8088 74.094C34.8756 74.1563 34.9906 74.173 35.0648 74.0929C35.4916 74.091 35.9184 74.0888 36.3452 74.0869C36.4008 74.1879 36.5604 74.2313 36.6384 74.1003C36.6384 74.0955 36.6421 74.0903 36.6458 74.0854C46.5546 74.0379 56.4672 73.9908 66.376 73.9433C66.595 73.9422 66.595 73.6048 66.376 73.6059Z" fill="black"/>
<path d="M38.5979 72.9413C38.3789 72.9391 38.3826 73.2764 38.5979 73.2787C47.7942 73.3681 57.6659 73.2716 66.8585 72.9884C67.0737 72.9821 67.0737 72.6444 66.8585 72.6511C57.6659 72.9343 47.7942 73.0308 38.5979 72.9413Z" fill="black"/>
<path d="M45.5972 72.3268H66.8548C67.0738 72.3268 67.0738 71.9895 66.8548 71.9895H45.5972C45.3819 71.9895 45.3819 72.3268 45.5972 72.3268Z" fill="black"/>
<path d="M48.6403 71.2357C48.4251 71.2498 48.4251 71.5875 48.6403 71.573C54.619 71.1785 60.6126 71.0824 66.6024 71.2854C66.8214 71.2925 67.1591 70.9551 66.9402 70.9477C60.9503 70.7451 54.619 70.8412 48.6403 71.2357Z" fill="black"/>
<path d="M53.6986 70.1323C53.4797 70.1368 53.4797 70.4741 53.6986 70.4697C58.0556 70.381 62.7502 70.2919 67.1071 70.2029C67.3224 70.1984 67.3224 69.8607 67.1071 69.8652C62.7502 69.9542 58.0556 70.0433 53.6986 70.1323Z" fill="black"/>
<path d="M56.5674 69.1753C56.3485 69.1853 56.3485 69.523 56.5674 69.5126C59.9409 69.3545 63.3143 69.3682 66.6841 69.5538C66.9031 69.566 66.9031 69.2283 66.6841 69.2164C63.3143 69.0309 59.9409 69.0172 56.5674 69.1753Z" fill="black"/>
<path d="M58.5046 68.1517C58.2857 68.1588 58.2857 68.4961 58.5046 68.4894C60.8946 68.4126 63.2846 68.3361 65.6746 68.2597C65.8898 68.2526 65.8898 67.9153 65.6746 67.922C63.2846 67.9988 60.8946 68.0753 58.5046 68.1517Z" fill="black"/>
<path d="M60.2748 67.2722C60.0596 67.2707 60.0596 67.6081 60.2748 67.6095C61.8261 67.6192 63.37 67.5524 64.9138 67.4084C65.1253 67.3884 65.1291 67.051 64.9138 67.071C63.37 67.2147 61.8261 67.2818 60.2748 67.2722Z" fill="black"/>
<path d="M61.7111 66.2019C61.4958 66.2171 61.4958 66.5544 61.7111 66.5392C62.6129 66.4754 63.511 66.4116 64.4091 66.3477C64.6243 66.3325 64.6281 65.9952 64.4091 66.0104C63.511 66.0742 62.6129 66.138 61.7111 66.2019Z" fill="black"/>
<path d="M54.9568 94.3619C51.3644 90.3053 48.9706 85.4358 47.9315 80.1169C47.8462 79.6902 47.1967 79.8713 47.2784 80.2962C48.3398 85.7283 50.8114 90.6979 54.4817 94.8392C54.7712 95.1654 55.2463 94.6863 54.9568 94.3619Z" fill="black"/>
<path d="M70.5549 103.38C65.3444 102.641 60.6609 100.145 57.1538 96.2234C56.8644 95.8986 56.3893 96.3774 56.6788 96.7006C60.2526 100.698 65.0623 103.278 70.373 104.031C70.7998 104.091 70.9817 103.441 70.5549 103.38Z" fill="black"/>
<path d="M97.6204 95.8809C96.0358 97.3394 94.3249 98.6138 92.5065 99.7015C92.5324 99.6459 92.5287 99.5798 92.4805 99.5223C91.5861 98.4902 90.7436 97.4151 89.9606 96.2962C89.8344 96.1195 89.5449 96.2876 89.6674 96.4665C90.469 97.6088 91.3263 98.7069 92.2429 99.7609C92.2689 99.791 92.2949 99.804 92.3246 99.8099C89.7157 101.349 86.884 102.5 83.8928 103.229C83.4697 103.333 83.6478 103.983 84.0709 103.88C89.3334 102.597 94.1134 100.028 98.0955 96.3581C98.4184 96.0624 97.9396 95.5866 97.6204 95.8809Z" fill="black"/>
<path d="M107.6 80.3701C106.553 83.5268 105.069 86.4738 103.18 89.1552C103.165 89.1425 103.154 89.1299 103.143 89.1173C103.08 89.0531 103.005 89.0568 102.946 89.0924C102.775 88.7495 101.933 88.1717 101.74 88.0173C101.235 87.6154 100.697 87.2539 100.148 86.9177C99.9622 86.8038 99.7915 87.0958 99.9771 87.209C100.623 87.6043 101.239 88.0392 101.829 88.5202C102.1 88.7425 102.36 88.9793 102.612 89.2194C102.716 89.3159 102.801 89.4443 102.92 89.5137C101.844 90.9978 100.645 92.4006 99.3276 93.708C99.0159 94.0146 99.4946 94.4915 99.8026 94.1853C103.67 90.3524 106.538 85.7179 108.249 80.5493C108.387 80.1352 107.737 79.9589 107.6 80.3701Z" fill="black"/>
<path d="M107.448 67.8091C106.305 62.4773 103.803 57.616 100.148 53.5723C99.8546 53.2491 99.3796 53.7278 99.669 54.0496C102.608 57.3002 104.768 61.0893 106.067 65.2291C105.503 65.5683 104.783 65.6589 104.16 65.8641C103.584 66.0545 103.024 66.3042 102.482 66.5752C102.285 66.6724 102.456 66.9634 102.653 66.8665C103.325 66.531 104.015 66.256 104.735 66.0352C105.225 65.8845 105.722 65.8073 106.167 65.5617C106.409 66.3588 106.62 67.1671 106.795 67.9884C106.887 68.4137 107.537 68.2333 107.448 67.8091Z" fill="black"/>
<path d="M98.2848 51.0666C93.772 47.8078 88.8398 45.2527 83.5811 43.4312C83.1691 43.2883 82.9947 43.9408 83.403 44.0818C86.1641 45.0389 88.8287 46.2094 91.3931 47.5736C90.5915 48.5374 90.0719 49.65 89.8715 50.8903C89.8381 51.103 90.161 51.1943 90.1981 50.9801C90.3874 49.8003 90.8661 48.7308 91.6343 47.8115C91.6566 47.7837 91.6641 47.7536 91.6715 47.7236C93.8388 48.8929 95.9356 50.1978 97.9433 51.6492C98.2959 51.9046 98.6336 51.319 98.2848 51.0666Z" fill="black"/>
<path d="M54.5448 52.6846C51.1677 57.3232 48.4659 62.3697 46.4545 67.7435C46.3023 68.1521 46.9555 68.3269 47.1076 67.9231C49.0931 62.6031 51.7874 57.6156 55.1275 53.0253C55.3835 52.6727 54.7972 52.3369 54.5448 52.6846Z" fill="black"/>
<path d="M59.4361 59.5566C57.7104 61.4541 56.3261 63.5821 55.3093 65.938C55.2314 66.1146 55.2722 66.3981 55.5097 66.4338C55.5505 66.4397 55.5877 66.4453 55.6248 66.4512C55.9291 66.4961 56.1035 66.1851 56.0293 65.9762C57.009 63.7936 58.3005 61.8085 59.9149 60.0335C60.2081 59.7125 59.7293 59.2341 59.4361 59.5566Z" fill="black"/>
<path d="M69.5083 51.5901C68.2836 52.2656 67.0812 52.9681 65.8899 53.6992C64.9658 54.2678 63.7411 54.8215 63.0434 55.668C62.7688 56.0009 63.2438 56.4811 63.5221 56.1449C64.2607 55.2464 65.6449 54.6422 66.6284 54.0384C67.6861 53.3886 68.7623 52.7729 69.846 52.1728C70.2282 51.9624 69.8868 51.3797 69.5083 51.5901Z" fill="black"/>
<path d="M59.8332 87.6173C58.9797 86.9645 58.397 85.6385 57.87 84.7259C57.3207 83.7747 56.8383 82.7849 56.393 81.7822C56.2148 81.3854 55.6322 81.7291 55.8103 82.1229C56.3707 83.3795 57.0016 84.5945 57.703 85.7769C58.204 86.6134 58.705 87.5976 59.4918 88.1999C59.8369 88.4645 60.1709 87.8782 59.8332 87.6173Z" fill="black"/>
<path d="M69.4971 94.7315C69.4897 94.7185 69.486 94.7059 69.4786 94.6933C69.4192 94.5656 69.2262 94.4899 69.0963 94.5381L69.0666 94.5489C69.0444 94.5571 69.0295 94.5719 69.011 94.5827C68.5953 94.596 67.9162 94.2535 67.571 94.1348C66.929 93.9136 66.3278 93.5977 65.7377 93.2641C64.8322 92.7501 64.0157 92.0609 63.1844 91.4367C62.8356 91.1754 62.5015 91.7614 62.843 92.0194C63.9118 92.821 64.9509 93.633 66.1422 94.2505C66.9513 94.6695 68.3838 95.4196 69.293 95.2269C69.5231 95.1783 69.5825 94.9167 69.4971 94.7315Z" fill="black"/>
<path d="M90.5989 90.8846C89.0736 92.2811 87.3665 93.3978 85.4812 94.2469C85.0841 94.4254 85.4255 95.007 85.8189 94.8296C87.7562 93.9571 89.5115 92.7954 91.0776 91.3614C91.3968 91.0672 90.9181 90.5914 90.5989 90.8846Z" fill="black"/>
<path d="M98.0472 82.0497C97.3903 83.9234 96.3735 85.5879 95.0078 87.0293C94.7072 87.3448 95.1859 87.8228 95.4828 87.5062C96.9301 85.9805 98.0027 84.2122 98.6967 82.2289C98.8414 81.817 98.1883 81.6414 98.0472 82.0497Z" fill="black"/>
<path d="M92.1687 55.5938C90.0014 54.2225 87.7524 53.0171 85.4107 51.9754C85.0173 51.7998 84.6722 52.3814 85.0693 52.558C87.411 53.6001 89.66 54.8052 91.8273 56.1764C92.1947 56.4099 92.5324 55.8257 92.1687 55.5938Z" fill="black"/>
<path d="M99.7915 66.3488C98.8155 63.9168 97.0675 61.8111 95.583 59.672C95.3381 59.3172 94.7517 59.6542 95.0004 60.0127C96.444 62.0932 98.192 64.1621 99.1421 66.5284C99.3017 66.9266 99.9548 66.7529 99.7915 66.3488Z" fill="black"/>
<path d="M58.3859 87.7374C56.9904 86.165 55.8957 84.3889 55.1163 82.436C55.0384 82.2364 54.7118 82.3232 54.7935 82.5255C55.5914 84.534 56.7121 86.3591 58.1483 87.9757C58.2931 88.139 58.5306 87.8993 58.3859 87.7374Z" fill="black"/>
<path d="M57.896 88.9028C55.9996 86.9964 54.8343 84.6465 53.7543 82.2179C53.6652 82.0197 53.3758 82.1912 53.4611 82.3882C54.5559 84.8439 55.7435 87.2161 57.6585 89.1411C57.8106 89.2955 58.0482 89.0572 57.896 88.9028Z" fill="black"/>
<path d="M68.7475 96.5582C68.6213 96.3596 68.4506 96.3437 68.2279 96.2772C67.6119 96.0961 67.0181 95.8567 66.4317 95.5944C65.2516 95.0626 64.1605 94.3418 63.1659 93.5146C62.9989 93.3766 62.7577 93.6137 62.9247 93.7533C63.73 94.4235 64.5873 95.008 65.5077 95.5109C65.9307 95.7413 66.3723 95.9477 66.8177 96.128C67.0775 96.2334 67.341 96.3333 67.6044 96.4283C67.7232 96.4713 68.1129 96.5463 68.3244 96.6398C68.3244 96.6676 68.3318 96.6962 68.3541 96.7259C68.3652 96.7419 68.3764 96.7582 68.3875 96.7742C68.4395 96.8432 68.5359 96.8907 68.6213 96.8346C68.6436 96.8194 68.6659 96.8042 68.6881 96.789C68.7624 96.7385 68.7995 96.6402 68.7475 96.5582Z" fill="black"/>
<path d="M69.0852 97.568C66.621 96.946 64.32 95.892 62.2418 94.4336C62.0636 94.3081 61.8929 94.6009 62.0711 94.7249C64.1753 96.2001 66.5059 97.2648 68.9961 97.8935C69.2076 97.9466 69.2967 97.6211 69.0852 97.568Z" fill="black"/>
<path d="M58.7644 59.001C56.5897 60.6251 55.0273 62.8714 54.2739 65.4815C54.2108 65.6908 54.5374 65.7799 54.5968 65.5713C55.3242 63.0514 56.8346 60.8618 58.9351 59.2924C59.1096 59.1636 58.9389 58.8708 58.7644 59.001Z" fill="black"/>
<path d="M57.5731 58.2885C56.7195 59.033 56.007 59.8902 55.3872 60.8177C54.1662 60.1003 52.949 59.3829 51.728 58.6655C51.5387 58.555 51.368 58.8467 51.5573 58.9569C52.7708 59.6713 53.9881 60.3857 55.2017 61.1001C54.9493 61.4946 54.7118 61.8999 54.4854 62.3151C54.0549 63.1064 53.6838 63.9291 53.3238 64.753C53.1605 65.1278 52.6447 65.8263 52.8265 66.2356C52.8673 66.3236 52.9824 66.3329 53.0566 66.2961C53.064 66.2931 53.0715 66.2905 53.0752 66.2876C53.1828 66.2345 53.1791 66.1228 53.1197 66.0486C53.0974 65.9102 53.4537 65.2934 53.5056 65.1713C53.6504 64.8398 53.7951 64.5106 53.9436 64.1822C54.2405 63.5261 54.5633 62.8818 54.9047 62.2491C55.0866 61.9139 55.2796 61.5862 55.4837 61.2663C55.5134 61.283 55.5431 61.3001 55.5728 61.3172C55.7583 61.4278 55.929 61.1361 55.7435 61.0259C55.7175 61.0121 55.6953 60.9984 55.673 60.9847C56.2816 60.081 56.9867 59.2478 57.8106 58.5271C57.9776 58.3839 57.7364 58.1464 57.5731 58.2885Z" fill="black"/>
<path d="M71.119 42.8215C68.3653 43.5878 65.6635 44.4035 63.1622 45.8138C60.7165 47.1918 58.5937 49.1257 56.508 50.9772C56.1815 51.2663 56.6602 51.742 56.983 51.4544C58.5269 50.0876 60.0745 48.7393 61.7482 47.5499C61.7408 47.5863 61.7445 47.6278 61.7705 47.6694C62.6092 48.9149 63.3737 50.203 64.064 51.5368C64.1122 51.6307 64.205 51.6378 64.2792 51.5992C63.318 52.0842 62.342 52.6197 61.6443 53.4195C61.4996 53.5824 61.7371 53.8222 61.8818 53.6581C62.8245 52.5811 64.3015 51.971 65.5522 51.3331C66.2239 50.9924 66.903 50.6721 67.5859 50.3596C68.1611 50.0954 68.818 49.9024 69.3301 49.5213C69.5046 49.3932 69.3376 49.1 69.1594 49.2299C68.651 49.61 67.9904 49.8082 67.4152 50.0683C66.6321 50.4205 65.8602 50.7987 65.0957 51.1876C64.8322 51.3223 64.5613 51.4567 64.2867 51.5943C64.3572 51.5513 64.4054 51.4618 64.3534 51.3665C63.6669 50.0327 62.9024 48.7445 62.0637 47.499C62.0303 47.4471 61.9783 47.4267 61.9301 47.4252C62.4422 47.0663 62.9655 46.7204 63.5036 46.3965C65.8936 44.9569 68.6325 44.2147 71.2971 43.4724C71.7164 43.3559 71.5383 42.7046 71.119 42.8215Z" fill="black"/>
<path d="M68.9034 50.6747C67.7566 51.2302 66.6099 51.7862 65.4632 52.3417C64.5836 52.767 63.4071 53.1022 62.869 53.9761C62.754 54.1621 63.0471 54.3313 63.1585 54.1465C63.6818 53.297 65.0586 52.911 65.9196 52.4943L69.0741 50.966C69.2708 50.871 69.1001 50.5801 68.9034 50.6747Z" fill="black"/>
<path d="M92.076 54.6612C90.9255 53.8388 89.7342 53.0914 88.491 52.4167C87.8712 52.0797 87.2366 51.7724 86.5983 51.4778C86.2606 51.3226 85.9785 51.166 85.6408 51.3668C85.4516 51.4774 85.6223 51.7691 85.8115 51.6581C86.1492 51.4589 87.1995 52.1328 87.5187 52.2902C88.0568 52.5585 88.5875 52.8498 89.1145 53.1486C90.0757 53.6963 91.0035 54.3075 91.9053 54.9525C92.0797 55.0795 92.2504 54.7867 92.076 54.6612Z" fill="black"/>
<path d="M99.9994 64.6658C99.0233 63.0403 98.0139 61.4356 96.971 59.852C96.8523 59.6709 96.5591 59.8398 96.6779 60.022C97.7207 61.6059 98.7338 63.2103 99.7099 64.8361C99.8212 65.0221 100.114 64.8528 99.9994 64.6658Z" fill="black"/>
<path d="M101.458 66.1436C100.408 63.5057 99.142 60.9676 97.6687 58.5424C97.5536 58.3568 97.2605 58.526 97.3755 58.7127C98.8377 61.1127 100.092 63.6226 101.135 66.233C101.213 66.4327 101.539 66.3459 101.458 66.1436Z" fill="black"/>
<path d="M99.5725 82.7248C98.7338 84.4646 97.6909 86.0722 96.4403 87.5407C96.2993 87.7052 96.5368 87.9453 96.6778 87.7794C97.9507 86.2901 99.0158 84.6609 99.862 82.8947C99.9585 82.6999 99.6653 82.5284 99.5725 82.7248Z" fill="black"/>
<path d="M101.283 82.0229C100.831 83.4696 100.118 84.7733 99.246 86.0084C98.7598 86.6987 98.2143 87.3463 97.6576 87.9809C97.4498 88.2203 96.9673 88.5372 96.9859 88.8964C96.9933 89.0148 97.0861 89.0768 97.1974 89.059C97.2197 89.0556 97.2419 89.0523 97.2642 89.049C97.3607 89.0337 97.3978 88.9235 97.3793 88.8415C97.3793 88.8263 97.3756 88.8114 97.3718 88.7962C97.3718 88.7925 97.3681 88.7907 97.3681 88.7869C97.4869 88.6014 97.8172 88.3075 97.8988 88.2195C98.1512 87.9341 98.3961 87.6417 98.641 87.3474C99.0753 86.8219 99.4798 86.2726 99.862 85.7096C100.619 84.6015 101.209 83.3924 101.61 82.1128C101.677 81.9042 101.35 81.8159 101.283 82.0229Z" fill="black"/>
<path d="M90.7845 92.6759C89.4633 93.8568 87.9603 94.7382 86.2829 95.3112C86.0787 95.381 86.1678 95.7072 86.3719 95.6363C88.1013 95.0451 89.66 94.1333 91.022 92.9145C91.1853 92.769 90.9441 92.5312 90.7845 92.6759Z" fill="black"/>
<path d="M92.2207 93.3357C91.382 94.2758 90.3985 95.0184 89.3186 95.6611C88.9994 95.8519 86.0602 97.5472 85.8635 97.3044C85.7299 97.1348 85.4924 97.3753 85.626 97.5431C85.8746 97.85 86.2828 97.5423 86.5575 97.418C87.3071 97.0822 88.0494 96.7314 88.7767 96.3503C90.1499 95.6303 91.4228 94.7363 92.4583 93.5744C92.603 93.4125 92.3655 93.1732 92.2207 93.3357Z" fill="black"/>
<path d="M102.716 58.7172C101.74 59.5255 100.682 60.2154 99.554 60.7947C99.361 60.8942 99.5317 61.1851 99.7247 61.0861C100.879 60.4938 101.955 59.7823 102.957 58.9558C103.124 58.8174 102.883 58.5799 102.716 58.7172Z" fill="black"/>
<path d="M70.1874 47.5257C69.8014 46.4825 69.4155 45.4397 69.0295 44.3968C68.9553 44.1949 68.6287 44.2818 68.7029 44.4867L69.8645 47.6152C69.9387 47.8174 70.2653 47.7302 70.1874 47.5257Z" fill="black"/>
<path d="M54.4372 86.8008C53.4723 87.3348 52.5037 87.8685 51.5388 88.4022C51.4868 88.384 51.4237 88.3881 51.3718 88.4367C51.3161 88.4901 51.2567 88.5436 51.1973 88.597C51.0526 88.7302 51.2382 88.9529 51.4015 88.862C52.4703 88.2723 53.5391 87.6822 54.6079 87.0921C54.8009 86.9871 54.6302 86.6958 54.4372 86.8008Z" fill="black"/>
<path d="M63.9044 96.3389C63.062 97.4148 62.2752 98.5292 61.5478 99.686C61.4291 99.8705 61.7222 100.04 61.8373 99.856C62.5498 98.7241 63.318 97.6308 64.1456 96.5775C64.2755 96.4083 64.0417 96.1678 63.9044 96.3389Z" fill="black"/>
<path d="M69.2633 99.9454C69.2522 99.729 68.9145 99.7279 68.9256 99.9454C68.9738 100.703 68.8885 101.438 68.6658 102.164C68.6027 102.372 68.9293 102.461 68.9924 102.253C69.2225 101.5 69.3116 100.732 69.2633 99.9454Z" fill="black"/>
<path d="M49.8094 47.6368C49.004 46.9532 48.2766 46.1935 47.6309 45.3585C47.3637 45.0144 46.8886 45.4958 47.1521 45.835C47.6606 46.4911 48.221 47.0983 48.8259 47.6605C47.8684 47.4694 46.9035 47.3484 45.9238 47.3072C45.5972 47.2935 45.5155 47.6742 45.6825 47.8694C45.6232 47.9856 45.6157 48.1337 45.7271 48.2595C46.2726 48.8856 46.8775 49.443 47.5344 49.9499C47.8795 50.2157 48.2136 49.6289 47.8758 49.3673C47.3489 48.9605 46.8627 48.504 46.4136 48.0134C47.3266 48.0765 48.2284 48.2049 49.1191 48.4079C49.3158 48.4525 49.4568 48.3359 49.5124 48.1901C49.8056 48.2287 50.084 47.8702 49.8094 47.6368Z" fill="black"/>
<path d="M53.09 43.973C52.6336 43.1681 52.2476 42.3397 51.9359 41.4684C51.7874 41.062 51.1342 41.2372 51.2827 41.6476C51.5165 42.2922 51.7874 42.9161 52.0917 43.5251C51.5722 43.3184 51.0675 43.0831 50.5702 42.8118C50.3289 42.6778 49.9764 42.9001 50.0766 43.1929C50.2992 43.8402 50.5219 44.4867 50.7446 45.1335C50.032 44.8069 49.2972 44.5323 48.5364 44.31C48.1208 44.1875 47.9426 44.8388 48.3583 44.9613C49.3306 45.2452 50.2584 45.616 51.1565 46.0832C51.4015 46.2109 51.754 46.0001 51.6538 45.7024C51.4311 45.0619 51.2122 44.421 50.9895 43.7801C51.5499 44.045 52.1177 44.2755 52.7115 44.4689C53.001 44.5635 53.2311 44.2202 53.09 43.973Z" fill="black"/>
<path d="M48.8557 98.8628C48.3138 98.2011 47.4862 97.8522 46.7736 98.4742C46.5287 98.6902 46.4953 99.1103 46.5473 99.4076C46.5881 99.6481 46.6623 99.8834 46.692 100.126C46.5473 100.48 46.3395 100.556 46.0611 100.354C45.8756 100.256 45.7123 100.043 45.5749 99.8867C45.2818 99.562 44.8068 100.041 45.0962 100.364C45.5193 100.838 46.4322 101.552 47.052 100.907C47.3192 100.632 47.3934 100.345 47.3489 99.9687C47.3229 99.7731 47.271 99.5824 47.2264 99.3909C47.1188 99.0736 47.2821 98.8825 47.7163 98.8175C48.0021 98.8572 48.2136 99.1359 48.3806 99.3397C48.6552 99.6766 49.1303 99.1961 48.8557 98.8628Z" fill="black"/>
<path d="M52.4109 102.51C51.6947 102.952 50.9709 103.383 50.251 103.814C50.3994 103.22 50.5627 102.629 50.7297 102.039C50.8002 101.8 50.5627 101.542 50.3178 101.624C49.8613 101.774 49.4085 101.925 48.9521 102.076C49.1525 101.478 49.3529 100.863 49.6572 100.33C49.8724 99.9506 49.2898 99.611 49.0746 99.9888C48.6329 100.765 48.3917 101.685 48.0837 102.521C47.9983 102.76 48.2692 103.013 48.4993 102.936C48.9706 102.78 49.442 102.625 49.9096 102.469C49.7277 103.121 49.5496 103.774 49.3974 104.436C49.3343 104.718 49.6312 104.973 49.8947 104.817C50.8522 104.251 51.806 103.677 52.7524 103.092C53.1198 102.864 52.782 102.28 52.4109 102.51Z" fill="black"/>
<path d="M105.837 103.237C105.729 102.675 105.061 102.486 104.583 102.458C104.208 102.435 103.814 102.575 103.443 102.612C103.21 102.636 103.002 102.58 102.82 102.425C102.742 102.359 102.968 101.549 103.258 101.637C103.673 101.763 103.852 101.112 103.436 100.986C102.976 100.846 102.504 101.25 102.274 101.626C101.996 102.076 102.011 102.492 102.341 102.902C102.653 103.291 103.284 103.327 103.729 103.255C104.096 103.195 104.456 103.093 104.835 103.161C105.266 103.239 105.303 103.683 104.995 103.916C104.761 104.093 104.445 103.97 104.234 103.847C103.855 103.627 103.518 104.21 103.892 104.429C104.831 104.977 106.067 104.419 105.837 103.237Z" fill="black"/>
<path d="M107.321 100.773C107.173 101.162 106.991 101.526 106.78 101.877C106.516 101.668 106.267 101.439 106.026 101.202C106.286 100.917 106.546 100.632 106.806 100.347C107.099 100.026 106.624 99.5472 106.331 99.8693L105.547 100.724C105.388 100.554 105.225 100.384 105.065 100.215C105.18 100.124 105.295 100.037 105.407 99.9487C105.607 99.7921 105.807 99.6355 106.008 99.4789C106.152 99.3653 106.126 99.12 106.008 99.0016C105.867 98.8602 105.674 98.8885 105.529 99.0016L104.865 99.5238C104.753 99.611 104.642 99.6979 104.531 99.7851C104.386 99.8983 104.338 100 104.312 100.181C104.304 100.243 104.33 100.305 104.367 100.359C104.375 100.424 104.397 100.489 104.453 100.549C105.165 101.293 105.852 102.065 106.698 102.663C106.854 102.774 107.062 102.684 107.158 102.541C107.496 102.041 107.759 101.516 107.971 100.953C108.127 100.546 107.474 100.371 107.321 100.773Z" fill="black"/>
<path d="M105.622 44.2465C105.288 44.5901 104.954 44.9334 104.623 45.2771C104.468 45.4352 104.219 45.7829 103.959 46.0048L104.33 42.9001C104.36 42.6525 104.019 42.4699 103.822 42.6087C102.838 43.3038 101.929 44.0769 101.09 44.9431C100.786 45.2559 101.265 45.7332 101.565 45.4203C102.193 44.7731 102.857 44.1797 103.566 43.6334C103.451 44.6027 103.336 45.5721 103.221 46.5415C103.198 46.7241 103.391 46.8788 103.558 46.8784C103.907 46.8781 104.093 46.7601 104.349 46.5277C104.965 45.9692 105.518 45.3205 106.097 44.7237C106.401 44.4113 105.922 43.9336 105.622 44.2465Z" fill="black"/>
<path d="M108.572 46.6669C108.138 46.321 107.704 45.9752 107.266 45.63C107.266 45.4137 107.021 45.2582 106.817 45.3246C106.542 45.2708 106.268 45.5714 106.427 45.8011C105.915 46.6228 105.407 47.4448 104.894 48.2672C104.824 48.3856 104.835 48.5834 104.95 48.6758L105.974 49.5071C106.308 49.7784 106.791 49.3037 106.453 49.0298C106.178 48.8079 105.904 48.586 105.629 48.364C105.796 48.0987 105.959 47.8337 106.123 47.5687C106.483 47.7109 106.798 47.9402 107.103 48.1789C107.44 48.4438 107.923 47.9699 107.581 47.7016C107.232 47.4296 106.884 47.1676 106.483 46.9872C106.639 46.7367 106.794 46.4862 106.95 46.2353C107.247 46.4699 107.544 46.704 107.837 46.9386C107.826 47.0239 107.856 47.1134 107.949 47.188C108.212 47.3976 108.554 47.3323 108.661 46.9946C108.691 46.8907 108.661 46.7371 108.572 46.6669Z" fill="black"/>
<path d="M108.984 43.515C105.432 40.1449 101.098 37.661 96.7669 35.4477C91.9164 32.9716 86.7319 31.3379 81.3766 30.3957C80.9498 30.3207 80.768 30.9709 81.1947 31.0462C91.0665 32.7834 101.064 37.1667 108.505 43.9923C115.92 50.7934 117.731 60.7342 119.205 70.2255C119.271 70.6545 119.921 70.4716 119.854 70.0459C118.344 60.3111 116.418 50.57 108.984 43.515Z" fill="black"/>
<path d="M124.864 59.6724C123.636 60.0201 122.363 60.5115 121.101 60.7861C120.604 58.2688 119.965 55.7868 119.075 53.3931C118.607 52.1346 118.036 50.9222 117.386 49.7539C117.568 49.6619 117.746 49.5698 117.928 49.4778C118.329 49.2744 118.73 49.0707 119.13 48.8673C119.928 48.4602 120.73 48.0531 121.528 47.6463C121.721 47.5476 121.55 47.2566 121.357 47.355C120.459 47.8126 119.557 48.2705 118.659 48.7285C118.318 48.9022 117.594 49.1063 117.201 49.4281C115.479 46.4194 113.211 43.7214 110.673 41.3685C110.569 41.2746 110.465 41.1844 110.365 41.092C114.529 37.392 118.373 33.3694 121.877 29.0385C122.151 28.7034 121.676 28.2228 121.402 28.5612C117.887 32.9022 114.035 36.9336 109.856 40.6407C106.683 37.8882 103.057 35.7958 99.2868 33.9714C99.9102 32.7114 100.534 31.4515 101.161 30.1912C101.257 29.9971 100.964 29.826 100.868 30.0208C100.241 31.2889 99.6134 32.5571 98.9825 33.8248C98.3738 33.5323 97.7578 33.2455 97.1417 32.9645C94.3917 31.7142 91.5935 30.5497 88.7136 29.672C88.8992 27.9429 89.1887 26.2321 89.5858 24.5383C89.6377 24.3268 89.3111 24.237 89.2629 24.4489C88.8658 26.1397 88.5763 27.8483 88.3907 29.574C85.856 28.8225 83.2619 28.2981 80.5862 28.1474C80.152 28.1229 80.1557 28.798 80.5862 28.8221C86.3051 29.1446 91.6306 31.2177 96.8003 33.5472C97.4534 33.8422 98.1029 34.1443 98.7486 34.4538C98.7858 34.5281 98.8711 34.573 98.9491 34.5511C102.998 36.5128 106.817 38.8018 110.194 41.8458C113.783 45.08 116.644 49.0788 118.425 53.5723C119.353 55.9182 119.995 58.3939 120.481 60.9116C120.348 60.9717 120.396 61.181 120.541 61.2181C121.123 64.3095 121.483 67.4588 121.866 70.5061C121.918 70.9317 122.593 70.9369 122.541 70.5061C122.151 67.392 121.758 64.2297 121.164 61.1179C122.433 60.8444 123.717 60.3478 124.953 59.9979C125.165 59.9385 125.076 59.613 124.864 59.6724Z" fill="black"/>
<path d="M126.523 85.9702C124.99 85.6202 123.458 85.2699 121.925 84.9199C122.43 82.6736 122.767 80.3897 122.927 78.0962C122.957 77.6616 122.281 77.6646 122.252 78.0962C121.509 88.7766 116.885 98.904 109.314 106.471C101.833 113.948 91.5007 118.37 80.9832 119.012C80.9313 118.959 80.857 118.922 80.7606 118.922C80.5082 118.922 80.408 119.149 80.4488 119.34C80.4266 119.522 80.5305 119.714 80.7643 119.701C83.9485 119.523 87.0881 119.005 90.1313 118.173C90.4727 119.576 90.8958 120.951 91.4005 122.304C91.4784 122.505 91.805 122.418 91.7271 122.214C91.2186 120.861 90.7993 119.484 90.4579 118.08C94.169 117.035 97.7392 115.525 101.068 113.581C101.977 114.844 102.812 116.153 103.573 117.512C103.681 117.702 103.97 117.532 103.866 117.342C103.106 115.982 102.267 114.672 101.358 113.408C104.393 111.604 107.232 109.442 109.789 106.949C109.819 106.922 109.845 106.894 109.871 106.867C113.534 110.225 117.048 113.733 120.411 117.392C120.704 117.713 121.179 117.234 120.886 116.915C117.527 113.256 114.013 109.748 110.35 106.391C113.315 103.386 115.798 99.9372 117.761 96.2108C118.778 96.723 119.791 97.2355 120.804 97.7476C120.808 97.8089 120.845 97.866 120.923 97.8849C121.023 97.9091 121.123 97.9332 121.224 97.9577C121.405 98.0011 121.532 97.7383 121.353 97.6493L117.917 95.9117C119.661 92.5397 120.986 88.9473 121.847 85.2484L126.434 86.2953C126.646 86.3439 126.738 86.0185 126.523 85.9702Z" fill="black"/>
<path d="M73.1638 118.643C62.4867 117.824 52.37 113.199 44.7547 105.674C37.1727 98.1863 32.6043 87.8391 31.7953 77.2563C31.7619 76.8251 31.0883 76.8217 31.1213 77.2563C31.3573 80.3451 31.9066 83.3868 32.7416 86.3368C32.7156 86.3294 32.6859 86.3279 32.6488 86.3428C31.1128 86.9822 29.5763 87.6216 28.0403 88.2611C27.8425 88.3431 27.9293 88.6697 28.1301 88.5862C29.6661 87.9468 31.2022 87.3077 32.7379 86.6683C32.775 86.6527 32.801 86.6267 32.8195 86.5981C33.918 90.3816 35.4953 94.0123 37.5105 97.3936C35.9703 98.4461 34.4302 99.4985 32.89 100.551C32.7119 100.673 32.8826 100.966 33.0608 100.842C34.6009 99.7887 36.1448 98.7352 37.6849 97.6816C39.5331 100.734 41.7412 103.582 44.2759 106.151C44.4058 106.28 44.5357 106.407 44.6656 106.535C40.5351 110.472 36.4082 114.41 32.2777 118.348C31.9623 118.648 32.441 119.125 32.7564 118.825C36.887 114.885 41.0175 110.946 45.148 107.006C48.0057 109.737 51.2381 112.052 54.7118 113.918C54.1699 115.043 53.6281 116.169 53.0825 117.294C52.8339 117.813 52.1214 118.677 52.5704 119.232C52.7077 119.402 52.9452 119.161 52.8116 118.994C52.5333 118.652 53.7691 116.646 53.951 116.273C54.3036 115.54 54.6561 114.807 55.0124 114.074C58.4452 115.886 62.1118 117.264 65.8898 118.169C65.4705 119.799 65.0808 121.435 64.7319 123.082C64.6874 123.293 65.014 123.384 65.0585 123.171C65.4074 121.521 65.7971 119.881 66.2201 118.248C68.5062 118.778 70.8294 119.138 73.1638 119.317C73.598 119.351 73.598 118.676 73.1638 118.643Z" fill="black"/>
<path d="M72.6628 116.052C62.9098 115.145 53.7358 110.832 46.7996 103.921C39.9005 97.047 35.7291 87.6035 34.9275 77.937C34.8904 77.5065 34.215 77.5032 34.2521 77.937C35.0797 87.88 39.3475 97.2593 46.3208 104.398C53.257 111.497 62.8244 115.812 72.6628 116.727C73.097 116.767 73.0933 116.092 72.6628 116.052Z" fill="black"/>
<path d="M119.954 78.5909C117.709 98.7014 101.417 114.721 81.2727 116.632C80.8459 116.673 80.8385 117.348 81.2727 117.307C91.2818 116.358 100.693 112.024 107.908 105.021C115.085 98.0553 119.524 88.4871 120.63 78.5909C120.678 78.1589 120.003 78.1633 119.954 78.5909Z" fill="black"/>
<path d="M73.5163 29.9478C68.5285 30.4907 63.9452 32.3946 59.5549 34.7415C55.2128 37.0614 50.4365 39.5286 46.974 43.0891C43.53 46.6306 40.7763 51.3342 38.4494 55.657C36.0557 60.1015 34.4042 64.9379 34.1556 70.0037C34.137 70.439 34.8125 70.4367 34.831 70.0037C35.076 65.0229 36.7312 60.3835 39.0321 55.9977C41.2328 51.7985 43.9605 47.5863 47.0593 43.9939C50.1285 40.4374 54.8157 38.1621 58.8535 35.8953C63.4182 33.3346 68.2687 31.1936 73.5163 30.6225C73.9431 30.5761 73.9506 29.9007 73.5163 29.9478Z" fill="black"/>
<path d="M73.6796 27.9162C70.5251 28.2135 67.43 28.8269 64.4351 29.7328C63.8673 27.8913 63.2586 26.064 62.6055 24.2522C62.5312 24.0492 62.2047 24.1367 62.2789 24.342C62.9358 26.1571 63.5444 27.9878 64.1122 29.8327C60.5866 30.9267 57.202 32.426 54.0289 34.3102C52.8302 32.7244 51.6278 31.1386 50.4254 29.5525C50.2992 29.3817 50.006 29.5495 50.1359 29.7228C51.3383 31.3097 52.5407 32.8966 53.7395 34.4831C50.6555 36.3473 47.7756 38.5721 45.1666 41.1339C44.9885 41.3084 44.8215 41.4913 44.6471 41.6691C44.6322 41.6153 44.61 41.5618 44.5654 41.5121C40.6539 37.2569 36.7608 32.9834 32.7268 28.8459C32.4225 28.5341 31.9437 29.0117 32.248 29.3231C36.2858 33.4607 40.1788 37.7341 44.0904 41.9894C44.1386 42.0421 44.1906 42.0669 44.2463 42.0807C41.474 44.9791 39.11 48.2635 37.1728 51.7735C35.666 51.0324 34.163 50.2909 32.6563 49.5494C32.4596 49.4537 32.2889 49.7446 32.4856 49.8407C33.9923 50.583 35.499 51.3252 37.0058 52.0674C36.7274 52.5792 36.4602 53.0958 36.2005 53.6168C34.7865 56.4514 33.7548 59.4282 32.9123 62.4647C31.3046 62.0442 29.7018 61.6104 28.1034 61.162C27.8934 61.103 27.8043 61.4285 28.0136 61.4872C29.612 61.9358 31.2141 62.3693 32.8196 62.7898C32.133 65.3108 31.5726 67.8711 31.0345 70.4248C30.9454 70.8493 31.5949 71.0301 31.6839 70.6044C32.8492 65.0762 34.1333 59.5893 36.5456 54.4511C38.7055 49.8385 41.7152 45.6486 45.2557 41.9998C52.7412 34.2916 63.0248 29.5951 73.6796 28.5909C74.1101 28.5504 74.1138 27.8754 73.6796 27.9162Z" fill="black"/>
<path d="M45.4784 50.1659C40.7726 54.8821 39.1508 61.4873 37.6886 67.768C37.6404 67.9796 37.9669 68.0698 38.0152 67.8579C39.4625 61.6353 41.0546 55.078 45.7159 50.4045C45.868 50.2502 45.6305 50.0115 45.4784 50.1659Z" fill="black"/>
<path d="M45.3893 51.8811C41.2996 55.9813 39.9079 61.7187 38.8131 67.2168C38.7686 67.4295 39.0952 67.52 39.136 67.3067C40.2197 61.8679 41.5779 56.1772 45.6268 52.1198C45.779 51.9654 45.5415 51.7268 45.3893 51.8811Z" fill="black"/>
<path d="M44.8438 97.3936C41.1957 92.2974 38.9542 86.3057 38.3827 80.0631C38.3641 79.8482 38.0264 79.8464 38.0449 80.0631C38.6239 86.3651 40.8654 92.4176 44.5506 97.5639C44.6768 97.7391 44.97 97.571 44.8438 97.3936Z" fill="black"/>
<path d="M46.024 96.1993C43.326 92.9698 41.4035 89.1881 40.3755 85.1095C40.3236 84.8987 39.997 84.9882 40.0527 85.1993C41.0955 89.3354 43.0513 93.1635 45.7865 96.4379C45.9238 96.6049 46.1613 96.3648 46.024 96.1993Z" fill="black"/>
<path d="M71.1449 112.511C64.6912 111.763 58.5195 109.344 53.2645 105.521C53.0901 105.393 52.9193 105.686 53.0938 105.812C58.4008 109.673 64.6281 112.093 71.1449 112.848C71.3602 112.874 71.3602 112.536 71.1449 112.511Z" fill="black"/>
<path d="M70.1689 111.016C66.0457 110.455 62.0414 109.289 58.2671 107.537C58.0704 107.446 57.8997 107.737 58.0964 107.828C61.8966 109.593 65.9233 110.777 70.0798 111.341C70.2913 111.37 70.3841 111.045 70.1689 111.016Z" fill="black"/>
<path d="M101.376 103.095C96.3661 107.644 90.2056 110.778 83.5811 112.158C83.3659 112.203 83.4586 112.528 83.6702 112.484C90.3503 111.092 96.5628 107.921 101.614 103.334C101.773 103.187 101.536 102.95 101.376 103.095Z" fill="black"/>
<path d="M95.2601 105.53C93.7905 106.914 92.0574 107.903 90.2204 108.716C89.2183 109.16 88.1866 109.535 87.1549 109.903C86.0861 110.283 85.0024 110.756 83.852 110.722C83.633 110.716 83.633 111.053 83.852 111.06C84.9505 111.092 85.9599 110.679 86.9805 110.32C88.0308 109.953 89.0736 109.566 90.0942 109.135C92.0685 108.304 93.9352 107.241 95.5014 105.769C95.6572 105.62 95.4197 105.382 95.2601 105.53Z" fill="black"/>
<path d="M115.868 80.0832C114.172 85.8493 112.398 91.7701 108.613 96.5571C108.479 96.726 108.717 96.9665 108.85 96.7958C112.677 91.9579 114.48 86.0014 116.195 80.173C116.254 79.9637 115.931 79.875 115.868 80.0832Z" fill="black"/>
<path d="M114.54 80.5675C113.805 84.4401 112.428 88.1405 110.454 91.5507C110.342 91.7393 110.636 91.9089 110.743 91.7207C112.736 88.2871 114.124 84.5574 114.866 80.6573C114.903 80.4447 114.581 80.3541 114.54 80.5675Z" fill="black"/>
<path d="M108.75 50.469C108.613 50.3009 108.375 50.541 108.513 50.7077C112.666 55.7653 115.505 61.7885 116.785 68.2048C116.826 68.4182 117.152 68.3276 117.108 68.1149C115.82 61.6393 112.94 55.5719 108.75 50.469Z" fill="black"/>
<path d="M116.258 68.2148C115.701 66.1755 115.215 64.1057 114.451 62.1321C113.757 60.337 112.807 58.6499 111.686 57.0883C111.56 56.9135 111.266 57.0816 111.393 57.2586C112.562 58.8856 113.512 60.6343 114.235 62.5029C114.959 64.3782 115.404 66.367 115.931 68.3046C115.987 68.5143 116.314 68.4252 116.258 68.2148Z" fill="black"/>
<path d="M100.426 41.8064C94.9447 38.1268 88.7211 35.6745 82.2043 34.6301C81.989 34.5964 81.9 34.9215 82.1152 34.9556C88.6061 35.9959 94.7963 38.4326 100.255 42.0978C100.437 42.2191 100.604 41.9271 100.426 41.8064Z" fill="black"/>
<path d="M93.5864 39.3671C90.0756 37.4762 86.2457 36.328 82.2747 35.9728C82.0595 35.9535 82.0595 36.2913 82.2747 36.3102C86.1826 36.6602 89.9606 37.7961 93.4157 39.6584C93.605 39.7616 93.7757 39.4703 93.5864 39.3671Z" fill="black"/>
<path d="M73.0673 34.0727C66.8437 36.0403 60.2377 37.7092 54.8491 41.5544C54.6747 41.6798 54.8417 41.9726 55.0198 41.8457C60.3862 38.0169 66.9587 36.3576 73.1564 34.3981C73.3642 34.3328 73.2751 34.007 73.0673 34.0727Z" fill="black"/>
<path d="M72.455 36.0623C70.5845 36.3818 68.7327 36.7763 66.8956 37.2461C65.2664 37.6629 63.6075 38.0912 62.1676 38.9885C61.9857 39.1032 62.1527 39.3953 62.3383 39.2799C63.845 38.3428 65.593 37.9279 67.2927 37.4933C69.0258 37.0498 70.7812 36.6891 72.544 36.3877C72.7593 36.351 72.6665 36.0259 72.455 36.0623Z" fill="black"/>
<path d="M10.1888 72.2121C9.70784 73.8981 9.10776 75.5284 8.38964 77.1238C7.5242 75.7666 6.62423 74.4414 5.62406 73.1751C5.48193 72.9952 5.20174 73.0794 5.09412 73.2434C4.30438 74.4499 3.51426 75.6564 2.72453 76.8629C1.98971 75.4081 1.28383 73.9411 0.615446 72.4544C0.43731 72.0581 -0.143841 72.4017 0.0328111 72.7951C0.778387 74.4536 1.5644 76.091 2.39273 77.7098C2.51446 77.9473 2.84477 77.9091 2.97577 77.7098C3.78629 76.4718 4.59682 75.2337 5.40734 73.9957C6.396 75.2824 7.28741 76.6262 8.15063 78.0019C8.27458 78.1997 8.6201 78.2424 8.73329 78.0019C9.58723 76.1845 10.2886 74.323 10.8394 72.3913C10.9592 71.972 10.3079 71.7942 10.1888 72.2121Z" fill="black"/>
<path d="M79.9404 0.32623C79.9181 2.1358 79.8959 3.94574 79.8736 5.75569C78.378 3.68114 76.3851 1.93725 74.6038 0.130648C74.3737 -0.103528 74.0471 0.110975 74.0322 0.363706C73.9951 0.413807 73.9654 0.472817 73.9654 0.551122C73.9394 1.70567 73.9543 2.85687 74.0099 4.01068C74.0322 4.45751 74.3328 6.41701 74.318 6.8167C74.1881 6.91728 74.1436 7.08539 74.2252 7.2472C74.2326 7.26427 74.2437 7.28172 74.2512 7.29879C74.3514 7.49177 74.6372 7.51737 74.7819 7.36707C75.2495 6.88239 74.7967 5.59128 74.7485 4.99749C74.6408 3.70452 74.6149 2.40672 74.6334 1.11003C76.4964 2.95671 78.5339 4.78261 79.907 7.01711C80.0814 7.30287 80.5305 7.1856 80.5342 6.84677C80.5639 4.67314 80.5899 2.4995 80.6158 0.32623C80.6233 -0.109092 79.9478 -0.10872 79.9404 0.32623Z" fill="black"/>
<path d="M149.566 76.7954C148.731 76.923 147.9 77.0143 147.057 77.0752C145.754 77.1691 145.959 76.039 145.903 75.0808C145.881 74.7412 145.866 74.4013 145.855 74.0614C146.92 73.9085 147.989 73.7552 149.057 73.6019C149.484 73.5399 149.302 72.8901 148.876 72.951C147.862 73.0968 146.849 73.2423 145.832 73.3878C145.81 72.4192 145.81 71.4498 145.829 70.4808C146.816 70.5536 147.788 70.6871 148.757 70.8853C149.184 70.9722 149.365 70.3216 148.939 70.2348C147.874 70.0169 146.797 69.8707 145.714 69.7961C145.561 69.7857 145.465 69.8636 145.42 69.9679C145.283 69.998 145.161 70.0993 145.157 70.2808C145.131 71.5263 145.138 72.7699 145.179 74.015C145.209 75.0044 145.086 76.356 145.394 77.2986C145.498 77.61 145.632 77.8063 146.014 77.7941C147.269 77.7536 148.504 77.6356 149.744 77.4463C150.174 77.3806 149.989 76.7304 149.566 76.7954Z" fill="black"/>
<path d="M79.3689 146.891C78.8233 146.471 78.0217 146.262 77.4057 145.993C74.7373 144.822 76.8045 141.136 79.0572 142.913C79.3912 143.18 79.8736 142.706 79.5322 142.436C78.0774 141.285 75.3274 141.807 75.4016 144.067C75.435 145.117 75.8432 145.786 76.6931 146.376C77.2572 146.768 78.0403 146.964 78.6489 147.251C79.8958 147.836 79.6806 149.778 78.4337 150.19C77.5318 150.489 76.5855 150.119 75.9657 149.459C75.6651 149.142 75.1901 149.62 75.487 149.936C76.9529 151.497 79.881 151.239 80.4785 148.993C80.7123 148.105 79.9924 147.372 79.3689 146.891Z" fill="black"/>
<path d="M62.0414 80.8955C53.8879 79.9547 45.779 78.648 37.7406 76.9821C37.5291 76.9383 37.4363 77.2634 37.6516 77.3075C45.7197 78.9794 53.8583 80.2887 62.0414 81.2332C62.2604 81.2581 62.2567 80.9204 62.0414 80.8955Z" fill="black"/>
<path d="M84.6573 89.8625C83.0133 99.9094 81.1168 109.914 78.9718 119.867C78.9272 120.079 79.2538 120.169 79.2983 119.956C81.4434 110.004 83.3361 99.9992 84.9802 89.9523C85.0173 89.7393 84.6907 89.6483 84.6573 89.8625Z" fill="black"/>
<path d="M120.069 71.1841C111.656 70.0733 103.28 68.7072 94.9521 67.0903C94.7405 67.0491 94.6515 67.3742 94.863 67.4157C103.221 69.0386 111.626 70.407 120.069 71.5214C120.285 71.55 120.281 71.2123 120.069 71.1841Z" fill="black"/>
<path d="M74.0173 34.6954C72.4327 42.807 71.2265 50.9883 70.4027 59.2122C70.3804 59.4286 70.7181 59.4267 70.7404 59.2122C71.5606 51.0183 72.763 42.8671 74.3402 34.7849C74.3848 34.5726 74.0582 34.4821 74.0173 34.6954Z" fill="black"/>
</g>
<defs>
<clipPath id="clip0_609_159">
<rect width="150" height="151.01" fill="white"/>
</clipPath>
</defs>
</svg>
