<svg width="150" height="155" viewBox="0 0 150 155" fill="none" xmlns="http://www.w3.org/2000/svg">
<g clip-path="url(#clip0_609_280)">
<path d="M137.471 53.3122C130.593 58.1039 122.445 61.0096 114.803 64.3382C114.212 64.5955 114.722 65.4588 115.309 65.2034C122.951 61.8748 131.098 58.9691 137.978 54.1774C138.504 53.8112 138.003 52.9417 137.471 53.3122Z" fill="black"/>
<path d="M148.857 81.9162C148.525 81.7678 148.193 81.6194 147.86 81.471C147.869 80.9668 147.875 80.4626 147.872 79.9594C148.197 80.0968 148.529 80.2153 148.868 80.3137C148.87 80.8488 148.865 81.3825 148.857 81.9162ZM148.774 84.6245C148.406 84.4909 148.068 84.2935 147.765 84.0314C147.802 83.3584 147.832 82.6848 147.849 82.0113C148.182 82.1602 148.515 82.3086 148.848 82.4575C148.833 83.1824 148.807 83.9044 148.774 84.6245ZM148.62 87.3143C148.259 87.1445 147.906 86.96 147.56 86.7602C147.625 86.0538 147.684 85.347 147.728 84.6397C148.041 84.8614 148.384 85.0317 148.75 85.1477C148.712 85.8707 148.669 86.5932 148.62 87.3143ZM148.407 89.9808C148.327 89.9247 148.247 89.869 148.166 89.8129C148.068 89.7444 147.537 89.3144 147.292 89.1993C147.371 88.5686 147.445 87.9374 147.509 87.3053C147.86 87.5003 148.217 87.6805 148.583 87.8456C148.532 88.5591 148.472 89.2702 148.407 89.9808ZM148.072 93.0896C147.922 92.9812 147.774 92.8699 147.632 92.75C147.461 92.6059 147.3 92.4499 147.142 92.2905C147.08 92.2268 147.019 92.1612 146.959 92.095C146.934 92.0675 146.91 92.0399 146.885 92.0123C147.008 91.2641 147.12 90.514 147.22 89.7629C147.598 90.0264 147.977 90.2899 148.355 90.5535C148.273 91.4011 148.178 92.2468 148.072 93.0896ZM147.659 95.9007C147.473 95.7166 147.311 95.5002 147.15 95.3175C146.912 95.0464 146.673 94.7753 146.434 94.5047C146.555 93.8849 146.671 93.2637 146.779 92.6411C146.818 92.6777 146.854 92.711 146.883 92.7405C147.22 93.0815 147.598 93.384 147.998 93.6523C147.897 94.4043 147.783 95.1534 147.659 95.9007ZM147.156 98.5695C147.007 98.4349 146.861 98.2975 146.718 98.1567C146.549 97.9892 146.388 97.8147 146.229 97.6387C146.165 97.5678 146.103 97.496 146.041 97.4237C146.014 97.3923 145.902 97.1897 145.852 97.2249C145.855 97.2059 145.859 97.1868 145.858 97.1673C146.016 96.4862 146.167 95.8037 146.308 95.1178C146.55 95.3932 146.793 95.6681 147.036 95.9435C147.205 96.1352 147.371 96.3212 147.562 96.4715C147.439 97.1735 147.303 97.8727 147.156 98.5695ZM146.517 101.239C146.017 100.685 145.614 100.059 145.313 99.3686C145.447 98.8568 145.577 98.3441 145.7 97.8294C145.803 97.9336 145.905 98.0263 145.97 98.0986C146.301 98.4654 146.66 98.8069 147.033 99.1303C146.876 99.8367 146.703 100.539 146.517 101.239ZM145.676 104.066C145.186 103.565 144.902 102.872 144.488 102.311C144.707 101.579 144.918 100.845 145.117 100.106C145.45 100.729 145.867 101.297 146.365 101.804C146.154 102.563 145.924 103.316 145.676 104.066ZM144.79 106.507C144.371 105.92 144.022 105.294 143.754 104.623C143.94 104.058 144.122 103.491 144.298 102.92C144.671 103.504 144.982 104.126 145.502 104.585C145.28 105.229 145.042 105.869 144.79 106.507ZM143.851 108.693C143.806 108.789 143.76 108.886 143.716 108.982C143.322 108.456 143.031 107.873 142.841 107.239C143.073 106.607 143.3 105.971 143.517 105.33C143.797 105.923 144.133 106.484 144.535 107.01C144.546 107.024 144.558 107.036 144.569 107.046C144.342 107.598 144.105 108.147 143.851 108.693ZM142.614 111.311C142.315 110.791 142.075 110.245 141.892 109.673C142.091 109.2 142.284 108.723 142.469 108.24C142.503 108.15 142.536 108.059 142.569 107.969C142.797 108.517 143.102 109.023 143.479 109.489C143.195 110.095 142.907 110.703 142.614 111.311ZM141.32 113.894C141.036 113.413 140.809 112.907 140.636 112.375C140.975 111.714 141.297 111.039 141.6 110.35C141.803 110.873 142.053 111.373 142.354 111.851C142.019 112.536 141.675 113.218 141.32 113.894ZM140.215 115.9C139.924 115.358 139.73 114.783 139.64 114.175C139.874 113.781 140.101 113.383 140.319 112.978C140.514 113.477 140.755 113.957 141.048 114.411C140.779 114.913 140.499 115.408 140.215 115.9ZM138.71 118.305C138.487 117.681 138.393 117.028 138.424 116.347C138.428 116.263 138.396 116.202 138.347 116.161C138.663 115.717 138.968 115.263 139.259 114.799C139.394 115.34 139.602 115.857 139.892 116.349C139.903 116.367 139.917 116.377 139.93 116.391C139.541 117.043 139.134 117.682 138.71 118.305ZM137.429 119.934C137.228 119.28 137.122 118.609 137.114 117.912C137.114 117.865 137.1 117.827 137.082 117.793C137.37 117.452 137.65 117.103 137.919 116.746C137.936 117.457 138.089 118.142 138.367 118.795C138.074 119.196 137.759 119.574 137.429 119.934ZM135.447 121.737C135.264 121.112 135.157 120.48 135.13 119.832C135.654 119.348 136.156 118.844 136.629 118.315C136.672 119.01 136.807 119.686 137.038 120.344C136.54 120.846 136.005 121.305 135.447 121.737ZM133.139 123.283C132.988 122.713 132.943 122.137 133.001 121.556C133.577 121.148 134.129 120.719 134.652 120.265C134.708 120.874 134.828 121.473 135.017 122.062C134.415 122.5 133.786 122.903 133.139 123.283ZM131.512 124.177C131.353 124.258 131.193 124.338 131.032 124.418C131.019 124.175 131.012 123.932 131.017 123.688C131.02 123.542 130.997 122.989 131.066 122.767C131.553 122.497 132.023 122.209 132.478 121.909C132.466 122.419 132.523 122.925 132.659 123.43C132.67 123.471 132.688 123.503 132.71 123.529C132.315 123.752 131.917 123.969 131.512 124.177ZM130.558 123.072C130.499 123.583 130.503 124.1 130.541 124.613C130.542 124.628 130.549 124.639 130.552 124.653C129.79 125.02 129.012 125.375 128.231 125.731L128.337 125.115C128.391 124.8 128.402 124.388 128.581 124.102C129.239 123.75 129.9 123.4 130.561 123.045C130.56 123.054 130.559 123.063 130.558 123.072ZM127.681 125.982C127.167 126.217 126.653 126.455 126.142 126.698C126.183 126.542 126.225 126.385 126.266 126.228C126.311 126.059 126.356 125.889 126.4 125.72C126.409 125.687 126.472 125.404 126.501 125.243C126.98 124.972 127.461 124.706 127.946 124.444C127.852 124.956 127.769 125.469 127.681 125.982ZM125.548 126.985C125.149 127.181 124.754 127.383 124.362 127.59L124.543 127.122C124.575 127.039 124.817 126.295 124.875 126.197C124.883 126.192 124.892 126.187 124.9 126.182C124.981 126.172 125.04 126.131 125.077 126.075C125.357 125.906 125.637 125.739 125.92 125.576C125.796 126.045 125.673 126.515 125.548 126.985ZM125.215 130.326C124.229 131.555 122.712 132.508 121.502 133.506C120.191 134.587 118.902 135.916 117.212 136.35C116.315 136.58 115.314 136.186 114.472 135.907C113.853 135.702 113.236 135.493 112.618 135.284C113.462 134.745 114.291 134.183 115.112 133.608C115.152 133.621 115.195 133.631 115.242 133.634C116.394 133.715 116.878 134.383 118.084 133.955C119.119 133.587 120.073 132.685 120.919 132.001C121.768 131.315 123.093 130.272 123.568 129.15C124.307 128.702 125.077 128.292 125.861 127.904C125.977 128.727 125.839 129.548 125.215 130.326ZM117.811 132.967C117.695 133.022 117.578 133.073 117.456 133.117C117.25 133.19 116.968 133.142 116.663 133.053C116.981 132.705 117.309 132.366 117.638 132.029C117.696 132.341 117.754 132.654 117.811 132.967ZM119.431 130.324C119.415 130.611 119.4 130.897 119.384 131.184C118.977 131.61 118.596 132.067 118.243 132.558C118.216 132.412 118.189 132.266 118.163 132.12C118.137 131.982 118.112 131.843 118.086 131.705C118.082 131.686 118.081 131.637 118.077 131.587C118.409 131.257 118.743 130.928 119.087 130.609C119.202 130.515 119.316 130.419 119.431 130.324ZM121.31 129.489C120.823 129.851 120.356 130.239 119.914 130.655C119.928 130.4 119.941 130.145 119.955 129.889C120.433 129.489 120.908 129.086 121.376 128.674C121.352 128.927 121.328 129.181 121.304 129.435C121.302 129.456 121.308 129.47 121.31 129.489ZM123.74 127.93C123.084 128.298 122.447 128.688 121.836 129.112C121.845 129.015 121.854 128.918 121.863 128.822C121.873 128.719 121.882 128.617 121.892 128.515C121.892 128.518 121.9 128.444 121.903 128.38C121.947 128.351 121.983 128.306 121.996 128.236C122.002 128.202 122 128.172 121.997 128.143C122.715 127.599 123.452 127.092 124.205 126.614C124.053 127.008 123.9 127.402 123.748 127.797C123.729 127.847 123.731 127.891 123.74 127.93ZM108.945 133.202C108.677 133.02 108.427 133.454 108.692 133.635C109.466 134.158 110.254 134.658 111.056 135.137C110.505 135.475 109.948 135.803 109.388 136.126C108.877 135.867 108.385 135.576 107.912 135.251C107.645 135.067 107.395 135.502 107.659 135.684C108.049 135.952 108.454 136.196 108.87 136.419C108.645 136.546 108.423 136.676 108.197 136.799C108.195 136.798 108.194 136.796 108.192 136.795C107.608 136.515 107.06 136.175 106.558 135.768C106.309 135.566 105.952 135.918 106.203 136.122C106.66 136.492 107.147 136.813 107.666 137.086C106.171 137.89 104.648 138.641 103.098 139.332C103.232 139.192 103.282 138.986 103.142 138.773C98.4808 131.705 95.1693 123.858 93.3504 115.592C99.2052 113.109 104.48 109.254 108.798 104.317C115.091 110.124 122.677 114.365 130.916 116.684C129.907 118.085 128.844 119.448 127.727 120.773C126.555 120.635 125.4 120.42 124.256 120.123C123.943 120.042 123.81 120.525 124.122 120.606C125.183 120.882 126.254 121.085 127.338 121.227C126.362 122.366 125.349 123.477 124.295 124.556L122.735 124.111C122.424 124.022 122.292 124.506 122.602 124.594C123.034 124.717 123.465 124.841 123.897 124.963C123.559 125.303 123.219 125.641 122.874 125.974C122.22 125.754 121.567 125.534 120.913 125.313C120.606 125.21 120.476 125.694 120.78 125.797C121.342 125.986 121.904 126.175 122.466 126.364C122.309 126.513 122.156 126.665 121.998 126.812C122.038 126.792 122.08 126.774 122.123 126.757C122.178 126.736 122.23 126.711 122.284 126.689C122.017 126.882 121.751 127.077 121.489 127.276C121.49 127.275 121.491 127.273 121.491 127.272C121.486 127.277 121.481 127.282 121.475 127.287C121.304 127.417 121.138 127.554 120.969 127.687C119.747 127.219 118.502 126.831 117.226 126.531C116.911 126.458 116.778 126.94 117.092 127.015C118.257 127.288 119.397 127.632 120.516 128.045C120.102 128.381 119.693 128.722 119.292 129.073C118.881 128.92 118.469 128.767 118.058 128.615C117.754 128.503 117.625 128.987 117.925 129.098L118.866 129.448C118.557 129.726 118.251 130.007 117.95 130.295C117.474 130.192 117.008 130.054 116.552 129.874C116.25 129.755 116.121 130.24 116.418 130.357C116.757 130.49 117.099 130.602 117.447 130.693C116.203 131.664 114.926 132.592 113.619 133.476C113.235 133.354 112.852 133.233 112.468 133.112C112.159 133.014 112.028 133.497 112.335 133.595C112.587 133.674 112.839 133.754 113.091 133.834C112.576 134.176 112.056 134.512 111.532 134.84C110.653 134.32 109.791 133.775 108.945 133.202ZM87.1228 144.192C71.0958 146.923 54.4544 143.247 40.8318 134.754C43.9583 131.789 46.4778 128.089 48.7295 124.45C51.1648 120.514 53.1654 116.316 54.7797 111.98C60.9731 116.047 68.3133 118.346 75.8057 118.721C81.4421 119.003 86.9116 118.084 91.981 116.149C92.0543 116.336 92.2365 116.472 92.4467 116.472C92.4724 116.472 92.4971 116.468 92.5223 116.464C94.385 124.586 97.6864 132.318 102.276 139.279C102.386 139.445 102.545 139.511 102.701 139.508C97.7235 141.69 92.4871 143.278 87.1228 144.192ZM39.9562 134.2C39.7535 134.388 38.3485 133.315 37.3929 132.552C38.2695 131.878 39.277 130.631 39.4572 130.368C39.6404 130.101 39.2061 129.85 39.0244 130.115C38.709 130.575 38.3566 130.996 37.9627 131.391C37.8847 131.469 37.3482 131.909 36.9586 132.203C36.7441 132.028 36.5867 131.9 36.5258 131.852C36.2252 131.622 35.9251 131.385 35.6249 131.15C36.2295 130.729 36.7969 130.26 37.3216 129.741C37.5513 129.514 37.1969 129.159 36.9672 129.387C36.4573 129.891 35.9094 130.348 35.3196 130.756C35.281 130.782 35.2549 130.814 35.2368 130.848C34.7198 130.439 34.2046 130.026 33.6933 129.605C34.2261 129.368 34.7588 129.131 35.291 128.893C35.5859 128.763 35.331 128.331 35.0385 128.461C34.4477 128.724 33.8574 128.986 33.2671 129.249C32.3682 128.498 31.483 127.73 30.6321 126.941C31.2618 126.673 31.8245 126.261 32.2773 125.71C32.4809 125.463 32.1285 125.106 31.923 125.356C31.4635 125.915 30.887 126.325 30.232 126.564C30.1222 126.461 30.0104 126.357 29.9019 126.253C29.3497 125.722 28.807 125.182 28.2738 124.632C27.7482 124.089 27.2355 123.534 26.7299 122.973C26.7912 122.999 26.864 123.001 26.9396 122.961C27.6312 122.591 28.3228 122.221 29.0144 121.851C29.2993 121.698 29.0463 121.266 28.7614 121.418C28.0698 121.788 27.3782 122.158 26.6866 122.528C26.5681 122.591 26.5458 122.702 26.5767 122.8C26.278 122.466 25.9783 122.133 25.6863 121.793C26.8041 121.42 27.7943 120.804 28.6186 119.955C28.8436 119.723 28.4897 119.369 28.2643 119.601C27.459 120.431 26.4982 121.023 25.3928 121.365C25.3728 121.371 25.3595 121.383 25.3433 121.392C25.2939 121.333 25.243 121.275 25.1935 121.216C25.1331 121.144 25.0746 121.071 25.0147 120.999C25.3947 120.821 25.7453 120.601 26.0687 120.326C26.3151 120.116 25.9588 119.763 25.7144 119.972C25.4071 120.233 25.0608 120.446 24.6884 120.602C24.3882 120.234 24.0905 119.865 23.7989 119.49C24.3835 119.284 24.9557 119.047 25.5146 118.776C25.8052 118.634 25.5507 118.202 25.2615 118.343C24.6817 118.624 24.0872 118.865 23.4779 119.071C22.2136 117.42 21.0302 115.707 19.939 113.936C20.0361 113.891 20.1321 113.846 20.2254 113.81C20.8009 113.585 21.3765 113.36 21.9515 113.135C22.2493 113.019 22.1199 112.535 21.8183 112.652L20.4761 113.177C20.2844 113.251 20.0922 113.327 19.9005 113.401C19.8663 113.415 19.7759 113.46 19.6751 113.507C19.6693 113.497 19.6632 113.487 19.6575 113.477C19.324 112.926 19.003 112.367 18.6881 111.804C18.973 111.683 19.237 111.519 19.4758 111.311C19.7198 111.099 19.3635 110.746 19.1214 110.957C18.9183 111.134 18.6919 111.267 18.4469 111.364C18.2857 111.071 18.1221 110.779 17.9646 110.484C18.6843 110.277 19.3183 109.875 19.8049 109.302C20.0128 109.057 19.6603 108.7 19.4506 108.947C18.9916 109.489 18.4108 109.856 17.723 110.033C17.1441 108.924 16.5962 107.799 16.082 106.659C24.4158 103.225 33.2044 100.14 40.4818 94.6997C40.4889 94.6944 40.4941 94.6878 40.5008 94.6821C41.728 97.5497 43.2648 100.281 45.0946 102.796C47.5637 106.189 50.5679 109.069 53.9369 111.41C53.925 111.432 53.9121 111.454 53.9031 111.479C52.3511 115.689 50.4047 119.726 48.0921 123.571C45.8181 127.35 43.201 131.172 39.9562 134.2ZM26.0782 128.41C24.96 127.507 23.9958 126.3 23.0612 125.214C22.0233 124.007 21.0739 122.729 20.1769 121.415C20.0109 121.169 19.8472 120.921 19.686 120.672C19.6513 120.619 19.6223 120.567 19.599 120.517C20.555 121.25 21.4654 121.881 22.2378 122.338C22.273 122.374 22.313 122.407 22.3649 122.435C22.4395 122.474 22.5156 122.509 22.5912 122.545C22.7986 122.811 23.0217 123.069 23.2348 123.328C24.2013 124.5 25.0394 125.737 26.2176 126.716C27.1793 127.516 27.7787 127.079 28.6824 126.522C28.8042 126.643 28.9307 126.76 29.0534 126.88C28.9316 127.031 28.9901 127.309 29.2322 127.289C29.305 127.282 29.3754 127.27 29.4468 127.261C29.6465 127.453 29.8425 127.648 30.0447 127.838C28.8018 128.556 27.1465 129.273 26.0782 128.41ZM25.3947 123.616C25.4732 123.652 25.5498 123.664 25.623 123.663C25.7619 123.72 25.9036 123.749 26.062 123.765C26.0658 123.765 26.0692 123.764 26.073 123.765C26.6908 124.454 27.3182 125.135 27.9656 125.797C27.5099 126.092 27.2012 126.236 26.6124 125.747C26.0887 125.311 25.6492 124.772 25.2192 124.248C25.0803 124.079 24.7274 123.685 24.3364 123.204C24.6941 123.327 25.0499 123.457 25.3947 123.616ZM23.0845 121.674C23.0726 121.666 23.0631 121.656 23.0498 121.649C22.5623 121.377 21.9995 121.016 21.3955 120.592C21.571 120.242 21.7827 119.921 22.0243 119.624C22.2436 119.796 22.4467 119.953 22.6279 120.093C22.7468 120.185 22.8647 120.206 22.9699 120.183C22.9789 120.205 22.9889 120.226 22.9979 120.249C23.0193 120.224 23.0441 120.202 23.0716 120.182C23.6381 120.912 24.2256 121.627 24.8225 122.332C24.236 122.13 23.6443 121.942 23.0845 121.674ZM20.594 118.484C20.9569 118.779 21.3075 119.059 21.6295 119.313C21.3822 119.618 21.1657 119.946 20.9855 120.298C20.4979 119.944 19.988 119.553 19.4715 119.137C19.8073 118.857 20.1831 118.64 20.594 118.484ZM17.3981 117.361C17.7677 117.158 18.1449 116.973 18.552 116.85C18.573 116.843 18.5873 116.832 18.6044 116.822C19.1214 117.269 19.647 117.71 20.1531 118.125C19.7626 118.302 19.4011 118.533 19.0772 118.815C18.5145 118.352 17.9494 117.862 17.3981 117.361ZM15.5664 115.588C16.0183 115.435 16.4849 115.353 16.9644 115.34C17.3492 115.705 17.7582 116.079 18.1811 116.451C17.7739 116.599 17.3881 116.793 17.01 117.005C16.5068 116.536 16.0211 116.06 15.5664 115.588ZM13.681 113.388C14.1067 113.301 14.5324 113.214 14.9581 113.126C14.9857 113.165 15.0109 113.205 15.0385 113.244C15.3766 113.719 15.8851 114.28 16.4849 114.875C16.043 114.927 15.6126 115.033 15.193 115.194C14.6123 114.57 14.0981 113.96 13.681 113.388ZM12.9599 112.253C12.7715 111.89 12.585 111.525 12.3972 111.16C12.8333 111.176 13.2695 111.191 13.7057 111.207C14.0111 111.704 14.3236 112.197 14.6522 112.679C14.2241 112.767 13.7965 112.854 13.3685 112.942C13.211 112.703 13.0731 112.472 12.9599 112.253ZM11.1286 108.683C11.3645 108.609 11.6014 108.552 11.8478 108.524C11.9101 108.517 12.0424 108.496 12.1732 108.491C12.5608 109.237 12.9646 109.974 13.3927 110.695C12.9732 110.68 12.5537 110.665 12.1341 110.65C11.7974 109.995 11.462 109.34 11.1286 108.683ZM10.9041 108.24C10.6273 107.694 10.3519 107.147 10.0784 106.599C10.4675 106.602 10.8566 106.605 11.2456 106.607C11.4635 107.071 11.6847 107.533 11.9149 107.99C11.5515 108.029 11.1828 108.138 10.9579 108.21C10.936 108.217 10.9212 108.23 10.9041 108.24ZM8.95729 104.317C9.35065 104.244 9.74403 104.172 10.1369 104.099C10.4199 104.772 10.7091 105.442 11.0126 106.105C10.6183 106.102 10.224 106.1 9.82965 106.097C9.53617 105.505 9.24601 104.911 8.95729 104.317ZM8.0626 102.442H9.46101C9.61797 102.838 9.77683 103.234 9.9395 103.628C9.53663 103.702 9.13424 103.777 8.73137 103.852C8.50543 103.383 8.28426 102.913 8.0626 102.442ZM7.79386 101.876C7.55842 101.37 7.32772 100.861 7.09941 100.35C7.58504 100.225 8.07544 100.151 8.57582 100.125C8.8008 100.732 9.03007 101.337 9.26551 101.941H7.82478C7.81479 101.92 7.80433 101.898 7.79386 101.876ZM6.14193 98.1319C6.72983 98.1424 7.31535 98.1838 7.89945 98.2566C8.0645 98.7151 8.22718 99.1741 8.39556 99.6326C7.88805 99.6683 7.38767 99.7525 6.89395 99.8852C6.6371 99.3035 6.38784 98.7184 6.14193 98.1319ZM5.02797 95.3461C5.64631 95.3618 6.26512 95.3775 6.88394 95.3932C7.15696 96.1704 7.43142 96.95 7.71063 97.7324C7.11988 97.6672 6.52769 97.6339 5.93218 97.6297C5.62015 96.8724 5.31859 96.1114 5.02797 95.3461ZM4.84772 94.8614C4.63701 94.2968 4.43437 93.7294 4.23745 93.1605C4.91382 93.1671 5.57498 93.2803 6.22661 93.4972C6.38262 93.9591 6.541 94.42 6.70177 94.8785C6.70272 94.8814 6.70415 94.8847 6.7051 94.8876C6.12006 94.8728 5.53501 94.8581 4.94997 94.8433C4.91096 94.8424 4.87721 94.8495 4.84772 94.8614ZM3.52064 90.9763C4.1875 90.9948 4.83962 91.0819 5.48983 91.2194C5.66487 91.7863 5.8461 92.3509 6.03207 92.9131C5.38947 92.7333 4.73401 92.6492 4.06716 92.6615C3.87785 92.1022 3.69568 91.5399 3.52064 90.9763ZM2.68968 88.0435C3.36463 87.9769 4.01913 88.1305 4.65983 88.3322C4.86721 89.1156 5.08839 89.8961 5.32241 90.6724C4.6779 90.5497 4.0296 90.4764 3.36655 90.4688C3.12397 89.665 2.89992 88.8559 2.68968 88.0435ZM2.00475 85.0764C2.69301 85.0764 3.35323 85.2034 3.98346 85.4688C4.1447 86.2384 4.32116 87.0056 4.51522 87.769C3.87786 87.5911 3.23715 87.4884 2.56459 87.5588C2.35911 86.7359 2.1736 85.9078 2.00475 85.0764ZM1.47917 82.0208C2.20976 82.2182 2.90803 82.7329 3.56204 83.1805C3.65194 83.7512 3.75228 84.3211 3.86405 84.889C3.2362 84.6687 2.58266 84.5622 1.90439 84.5746C1.74124 83.7279 1.59998 82.8765 1.47917 82.0208ZM1.17571 79.3206C1.87824 79.3686 2.54415 79.5398 3.17723 79.8343C3.24002 80.728 3.33515 81.6199 3.46072 82.5089C2.86188 82.1003 2.23546 81.6917 1.56766 81.5233C1.50868 81.5086 1.45872 81.5181 1.41449 81.5366C1.31793 80.8013 1.23754 80.0626 1.17571 79.3206ZM1.04062 75.61C1.72698 76.012 2.41333 76.4144 3.09969 76.8163C3.08304 77.6363 3.09732 78.4549 3.14155 79.272C2.50419 79.0095 1.83448 78.8587 1.13576 78.8164C1.05966 77.7486 1.02873 76.6788 1.04062 75.61ZM1.16287 72.9631C1.83972 73.4192 2.54225 73.8316 3.26999 74.2035C3.19626 74.8851 3.14537 75.5663 3.11874 76.2465C2.42952 75.8426 1.74032 75.4388 1.0511 75.035C1.06918 74.3434 1.10722 73.6528 1.16287 72.9631ZM1.58525 69.6435C1.8597 69.8271 2.18551 69.9303 2.4923 70.0883C2.98459 70.3413 3.4065 70.7014 3.77275 71.1114C3.67952 71.5604 3.59152 72.0103 3.51304 72.4617C3.44264 72.8656 3.38557 73.2684 3.3342 73.6718C2.60123 73.2879 1.89537 72.8608 1.21472 72.3904C1.30319 71.471 1.42829 70.5549 1.58525 69.6435ZM2.06136 67.3224C2.13794 67.0061 2.22071 66.6921 2.30633 66.3787C3.133 66.9133 3.82316 67.603 4.35398 68.4359C4.36873 68.4592 4.38634 68.4772 4.40441 68.4929C4.22414 69.1674 4.05385 69.8433 3.90307 70.5235C3.67904 70.3042 3.43979 70.1025 3.17866 69.9184C2.94844 69.7558 2.69682 69.6259 2.44187 69.5061C2.1836 69.3848 1.87205 69.3225 1.68845 69.0837C1.79976 68.4939 1.92009 67.906 2.06136 67.3224ZM3.33563 63.188C4.03959 64.0171 4.6037 64.9474 5.16782 65.8797C4.95853 66.5394 4.75781 67.2011 4.57183 67.866C4.00201 67.065 3.28807 66.3939 2.44713 65.8726C2.70968 64.967 3.01028 64.0732 3.33563 63.188ZM4.10237 61.2341C4.6955 61.9047 5.28862 62.5754 5.88175 63.2461C5.92836 63.2989 5.98164 63.3193 6.03396 63.3226C5.8047 63.9629 5.58306 64.6055 5.37188 65.25C4.81822 64.3415 4.24601 63.4473 3.53635 62.6544C3.71757 62.1783 3.90831 61.7055 4.10237 61.2341ZM5.49982 58.0501C6.131 58.8887 6.62995 59.7981 6.98288 60.7884C6.98335 60.7898 6.98432 60.7908 6.98479 60.7922C6.71843 61.4781 6.45588 62.1654 6.20426 62.8556C5.57498 62.1445 4.9457 61.4329 4.31642 60.7218C4.69503 59.8238 5.09314 58.9343 5.49982 58.0501ZM6.31841 56.2997C6.43209 56.0609 6.54718 55.8226 6.66086 55.5839C7.2188 56.3145 7.71396 57.086 8.15013 57.8946C7.84715 58.6309 7.54604 59.3681 7.25304 60.1087C6.90154 59.2639 6.45111 58.4729 5.8927 57.7404C5.838 57.6691 5.76428 57.6387 5.69055 57.6363C5.89841 57.1892 6.10722 56.7435 6.31841 56.2997ZM8.1211 52.5559C8.71899 53.1514 9.09144 54.1374 9.39871 54.908C9.06338 55.7033 8.72803 56.4995 8.39603 57.2991C7.95415 56.5233 7.45471 55.7851 6.90249 55.0802C7.30584 54.2373 7.71442 53.3969 8.1211 52.5559ZM9.18608 50.3565C9.75353 50.9377 10.1845 51.6037 10.477 52.3462C10.2106 52.9826 9.94189 53.6199 9.67267 54.2582C9.34828 53.4701 8.9554 52.6373 8.34609 52.0898C8.62577 51.5119 8.90593 50.9344 9.18608 50.3565ZM10.271 48.1176C10.6444 48.7902 11.0178 49.4632 11.3917 50.1363C11.3717 50.1848 11.3517 50.2338 11.3317 50.2828C11.1386 50.7561 10.9407 51.2308 10.7429 51.705C10.4323 51.0667 10.0194 50.484 9.50905 49.9688C9.47576 49.9356 9.44008 49.9175 9.40393 49.9065C9.69313 49.3101 9.98184 48.7136 10.271 48.1176ZM11.5296 45.5201C11.9368 46.0077 12.3082 46.5209 12.6431 47.0627C12.2997 47.8917 11.9658 48.7207 11.6338 49.5403C11.2794 48.9024 10.9255 48.2646 10.5717 47.6268C10.5602 47.6063 10.545 47.5949 10.5317 47.5797C10.8642 46.8933 11.1971 46.207 11.5296 45.5201ZM12.8762 42.73C13.1777 43.3017 13.4788 43.8734 13.7799 44.4452C13.4679 45.1263 13.1673 45.8136 12.8771 46.5033C12.5394 45.9872 12.1694 45.4954 11.767 45.0278C12.1356 44.2625 12.5023 43.4943 12.8762 42.73ZM14.2313 40.0887C14.236 40.1372 14.2498 40.1862 14.2883 40.2319C14.6489 40.6585 14.9904 41.2046 15.1107 41.7749C14.735 42.4608 14.3816 43.1623 14.0448 43.8734C13.7723 43.3569 13.5002 42.8398 13.2277 42.3228C13.2015 42.2724 13.1644 42.2439 13.1254 42.2244C13.4816 41.5057 13.8488 40.7927 14.2313 40.0887ZM15.9289 37.2577C16.0506 37.4565 16.1724 37.6558 16.2942 37.8546C16.474 38.1485 16.7788 38.5243 16.9106 38.9015C16.3845 39.6292 15.8994 40.3893 15.4475 41.1737C15.2558 40.6966 14.9581 40.2509 14.6427 39.8775C14.5623 39.7824 14.461 39.7776 14.3783 39.8204C14.8615 38.9452 15.3738 38.0881 15.9289 37.2577ZM17.4181 35.2471C17.4885 35.162 17.5646 35.082 17.6364 34.9983C17.9974 35.6129 18.2966 36.255 18.534 36.928C18.0769 37.4156 17.6459 37.9255 17.2416 38.4568C17.2126 38.4025 17.1822 38.3483 17.1494 38.2931C16.8535 37.7923 16.5448 37.2981 16.2394 36.8025C16.6109 36.2707 17.0014 35.7503 17.4181 35.2471ZM19.8282 32.7899C20.1345 33.2603 20.3666 33.7593 20.5203 34.3082C20.5797 34.5208 20.5855 34.7867 20.6421 35.0216C20.0289 35.4887 19.4572 35.9915 18.9231 36.5271C18.6705 35.8573 18.357 35.2157 17.9841 34.6016C18.562 33.9619 19.1809 33.3592 19.8282 32.7899ZM20.7215 32.0379C20.7305 32.0132 20.7419 31.9894 20.7524 31.9651C20.897 32.0032 21.0611 31.9713 21.2067 31.8291C21.3551 31.6836 21.5034 31.538 21.6523 31.3929C21.658 31.8234 21.7436 32.2629 21.8354 32.7048C21.9325 33.1738 22.0481 33.638 22.177 34.0989C22.0138 34.1883 21.8511 34.2787 21.688 34.3657C21.609 34.3681 21.5253 34.3914 21.4402 34.448C21.3227 34.5265 21.2109 34.6102 21.0958 34.6911C21.0725 34.5455 21.0568 34.4023 21.0473 34.3553C20.9974 34.1127 20.9179 33.8777 20.8347 33.6451C20.6839 33.2223 20.4656 32.8289 20.213 32.4593C20.3814 32.3176 20.5493 32.1749 20.7215 32.0379ZM22.4728 35.0768C22.6631 35.6619 22.8724 36.2407 23.0983 36.8125C20.7795 40.0621 18.8565 43.6061 17.1204 47.2096C16.7841 47.2553 16.511 47.6639 16.7493 47.9883C13.7304 54.3676 11.2694 61.0067 10.0537 67.9778C7.85426 80.5896 9.58088 93.7798 14.5219 105.554C16.1995 109.551 18.2652 113.345 20.6758 116.891L20.4841 117.121C16.4758 113.765 13.5207 110.138 9.85818 100.552C7.05757 93.2209 4.17847 85.6476 4.08382 77.7C3.98964 69.7577 7.55842 62.2586 10.4703 55.0497C11.9006 51.5085 13.2714 47.9269 14.8786 44.4613C16.2718 41.4581 18.0017 38.5861 20.5098 36.3839C20.8761 36.0624 21.269 35.7751 21.6699 35.5006C21.6909 35.4925 21.7118 35.4863 21.7327 35.4754C21.98 35.346 22.2264 35.211 22.4728 35.0768ZM23.3161 29.877C24.5138 28.1367 26.0045 26.6089 27.625 25.2613C28.5896 24.4599 29.7849 23.5443 31.0478 22.8731C29.5466 25.2476 27.3487 27.1849 25.0456 28.8948C25.0737 28.9267 25.0984 28.9624 25.1241 28.9966C25.0946 29.0409 25.0684 29.0903 25.0518 29.1507C24.7916 30.092 25.1559 30.9515 25.5212 31.8063C25.4566 31.7815 25.3928 31.7535 25.3329 31.7188C25.5108 32.2677 25.7895 32.8246 25.9522 33.2208C25.1992 34.0689 24.4834 34.9465 23.8027 35.8512C23.553 35.1662 23.3271 34.4742 23.1278 33.7702C22.9618 33.1837 22.8324 32.5877 22.7087 31.9908C22.5318 31.1356 22.8524 30.5506 23.3161 29.877ZM31.904 23.1186C32.216 24.0513 32.3962 25.0045 32.4433 25.9896C32.3482 26.1147 32.2521 26.2374 32.1546 26.3596C31.6595 26.9784 31.1286 27.5644 30.5702 28.1233C30.5859 27.2125 30.5174 26.3078 30.3671 25.4012C30.359 25.3531 30.3395 25.3184 30.3157 25.2908C30.8937 24.604 31.4255 23.8824 31.904 23.1186ZM33.1835 20.6428C33.563 21.6122 33.8417 22.5497 34.0092 23.5919C33.6753 24.2059 33.3028 24.7985 32.9 25.3688C32.8053 24.4361 32.596 23.5271 32.2655 22.6377C32.2569 22.6139 32.2421 22.5973 32.2288 22.5787C32.5846 21.9623 32.9033 21.3173 33.1835 20.6428ZM33.9792 18.2066C34.0301 17.9949 34.0791 17.7842 34.1276 17.5735C34.6955 18.3093 35.1146 19.1298 35.3809 20.0273C35.3686 20.0811 35.3581 20.1348 35.3453 20.1886C35.1217 21.1175 34.7906 22.0137 34.3783 22.8722C34.1661 21.8752 33.8503 20.9415 33.4469 19.9707C33.6529 19.4047 33.8313 18.8173 33.9792 18.2066ZM35.0684 13.4235C35.4271 14.1388 35.722 14.8794 35.9527 15.6481C35.8214 16.7844 35.7448 17.9326 35.566 19.0584C35.2458 18.2945 34.8111 17.5887 34.267 16.9513C34.5305 15.7551 34.7697 14.5778 35.0684 13.4235ZM36.4388 9.61019C36.6666 10.1862 36.8764 10.7684 37.0657 11.3577C36.884 11.7487 36.718 12.1501 36.5772 12.5682C36.3603 13.2113 36.2138 13.8701 36.1044 14.5374C35.8675 13.9119 35.5859 13.305 35.2615 12.7152C35.564 11.6574 35.9355 10.6209 36.4388 9.61019ZM37.2203 8.23318C37.6874 7.51543 38.2186 6.84096 38.8013 6.21216C39.061 6.79768 39.2375 7.40842 39.3316 8.05007C38.5739 8.85201 37.9133 9.74241 37.3825 10.727C37.187 10.1558 36.9753 9.59021 36.7437 9.0318C36.8925 8.76401 37.0486 8.49716 37.2203 8.23318ZM41.7332 3.72786C41.8083 4.43895 41.883 5.15003 41.9577 5.86113C41.1686 6.38339 40.4294 6.96844 39.7578 7.61865C39.6394 6.99507 39.443 6.39767 39.1704 5.82546C39.949 5.0416 40.8114 4.33906 41.7332 3.72786ZM44.7854 2.12921C44.9381 2.06833 45.0927 2.01505 45.2468 1.95987C45.3619 2.63006 45.418 3.30263 45.4142 3.98423C45.4138 4.02181 45.4219 4.05416 45.4337 4.08317C45.1469 4.19209 44.862 4.30863 44.579 4.43372C43.8336 4.76334 43.1145 5.14195 42.4277 5.56433C42.353 4.85371 42.2783 4.14261 42.2031 3.43152C43.0274 2.92401 43.8912 2.48404 44.7854 2.12921ZM47.7273 1.30301V3.38587C47.117 3.53237 46.512 3.70454 45.9137 3.91335C45.9137 3.20178 45.849 2.49783 45.7253 1.79767C46.3827 1.58839 47.0514 1.42573 47.7273 1.30301ZM48.2282 1.22167C49.0682 1.09372 49.9181 1.02427 50.7715 1.00001C50.8181 1.63357 50.7976 2.26238 50.7034 2.89071C49.872 2.97157 49.0458 3.09429 48.2282 3.26838V1.22167ZM51.2709 0.990504C52.0314 0.983845 52.7939 1.01286 53.553 1.06423C53.563 1.63738 53.5255 2.20531 53.4284 2.77228C52.6878 2.7699 51.9482 2.7913 51.2128 2.84743C51.2956 2.23051 51.317 1.61313 51.2709 0.990504ZM63.6796 5.00829C71.6509 6.48327 79.5124 7.1549 87.6018 6.2583C92.7202 5.69133 97.7097 4.99879 102.65 6.8852C102.798 6.94181 102.942 7.00364 103.087 7.06357C103.125 7.08878 103.165 7.10829 103.21 7.11352C105.08 7.89881 106.808 8.98234 108.416 10.2319C108.428 10.3446 108.505 10.4468 108.652 10.4435C108.662 10.443 108.672 10.4421 108.682 10.4416C110.26 11.6978 111.722 13.1095 113.086 14.555C116.27 17.9316 119.045 21.7097 121.773 25.4554C123.025 27.1739 124.234 28.9238 125.385 30.7109C125.163 30.7484 124.94 30.7865 124.717 30.8231C124.658 30.7632 124.6 30.7018 124.541 30.6424C115.408 21.5337 103.275 15.6633 90.6521 13.3283C77.2331 10.8459 63.3081 12.7428 50.6735 17.7181C46.8255 19.2335 43.104 21.0476 39.5305 23.1186C38.3542 22.7138 37.2041 21.9042 35.9979 21.3882C36.6904 19.0023 36.7598 16.5266 37.2345 14.027C37.8357 10.8611 39.9557 8.34735 42.5927 6.61694C48.9003 2.47786 56.7094 3.71834 63.6796 5.00829ZM54.0539 1.10133C54.706 1.1546 55.3538 1.22738 55.9969 1.30824C56.0097 1.83145 55.9912 2.35323 55.9403 2.87406C55.2706 2.8246 54.6004 2.78751 53.9307 2.77514C54.0187 2.21958 54.061 1.66307 54.0539 1.10133ZM56.4997 1.37055C56.512 1.37245 56.5244 1.3734 56.5363 1.3753C57.254 1.47233 57.9689 1.58221 58.6834 1.69637C58.7071 2.18438 58.699 2.67097 58.66 3.15803C58.6434 3.15565 58.6263 3.1528 58.6096 3.15043C57.8886 3.0553 57.1637 2.97539 56.4378 2.9126C56.4897 2.39938 56.5101 1.88568 56.4997 1.37055ZM59.1875 1.77676C59.7374 1.86665 60.2868 1.95988 60.8357 2.05358C60.7524 2.52114 60.6397 2.98157 60.497 3.43486C60.0508 3.36256 59.6038 3.29359 59.1557 3.22986C59.198 2.74565 59.208 2.26192 59.1875 1.77676ZM61.3275 2.13777C62.0638 2.26477 62.8001 2.39081 63.5369 2.51448C63.3124 2.98347 63.154 3.52808 62.7368 3.82536C62.157 3.71976 61.5767 3.61608 60.9955 3.51857C61.1358 3.06528 61.2462 2.60534 61.3275 2.13777ZM66.2343 2.94066C66.063 3.43866 65.8285 3.90384 65.5313 4.34191C64.8035 4.20778 64.0758 4.07127 63.348 3.93666C63.652 3.54996 63.8013 3.03579 64.0515 2.6001C64.7778 2.71996 65.5056 2.83459 66.2343 2.94066ZM67.9604 3.17324C67.9846 3.1761 68.0089 3.17849 68.0332 3.18134C67.8819 3.70123 67.6826 4.19969 67.4324 4.68009C66.9763 4.60209 66.5197 4.52219 66.064 4.43943C66.3489 3.99279 66.5729 3.51619 66.7375 3.01248C67.1447 3.06909 67.5523 3.12378 67.9604 3.17324ZM69.833 3.37873C69.7412 3.94189 69.414 4.45845 69.1443 4.9555C68.7457 4.89604 68.3476 4.83326 67.9504 4.76714C68.1939 4.27675 68.3904 3.76734 68.5388 3.23842C68.9697 3.28789 69.4016 3.33402 69.833 3.37873ZM72.7811 3.64985C72.5894 4.27913 72.2417 4.83231 71.7456 5.28846C71.3204 5.24184 70.8956 5.1938 70.4713 5.14053C70.2045 5.10676 69.9386 5.06776 69.6727 5.03018C69.951 4.51886 70.233 4.00278 70.3281 3.4282C71.1453 3.50906 71.963 3.58231 72.7811 3.64985ZM75.633 3.86104C75.2297 4.51077 74.7136 5.06299 74.0948 5.50629C73.524 5.46158 72.9537 5.41259 72.3849 5.35504C72.8148 4.87654 73.125 4.31052 73.2929 3.68885C74.0725 3.75069 74.853 3.80681 75.633 3.86104ZM78.1801 4.02656C77.8086 4.70959 77.2736 5.26325 76.5943 5.65946C76.0064 5.63378 75.4185 5.60191 74.8311 5.56148C75.3753 5.09249 75.8357 4.53503 76.1943 3.89956C76.8564 3.94475 77.518 3.9847 78.1801 4.02656ZM78.7214 4.06128C79.2071 4.09172 79.6932 4.12455 80.1793 4.15451C80.488 4.17306 80.7952 4.18971 81.102 4.20541C80.8209 4.8071 80.3971 5.32413 79.8625 5.7232C79.053 5.72653 78.2434 5.71653 77.4343 5.69085C77.9789 5.25373 78.4175 4.70103 78.7214 4.06128ZM84.3897 4.28817C84.0939 4.77048 83.7466 5.21282 83.3414 5.61522C83.1321 5.62806 82.9228 5.64043 82.7135 5.65042C82.02 5.68467 81.3261 5.70369 80.6321 5.71416C81.0583 5.29178 81.3936 4.79426 81.6314 4.23062C82.558 4.27057 83.4755 4.29055 84.3897 4.28817ZM84.9728 4.28151C85.752 4.27057 86.5287 4.24013 87.3059 4.18971C87.1133 4.59734 86.8755 4.98024 86.5972 5.33555C85.7567 5.42164 84.9158 5.50202 84.0758 5.56481C84.4197 5.17049 84.7169 4.74051 84.9728 4.28151ZM90.9808 3.7778C90.7487 4.15975 90.4899 4.52362 90.1945 4.86418C90.1665 4.89653 90.1493 4.93076 90.1398 4.96549C89.1809 5.05919 88.2206 5.16478 87.2598 5.26657C87.4962 4.91459 87.6997 4.54359 87.8696 4.14927C88.9031 4.06794 89.9381 3.94714 90.9808 3.7778ZM91.904 3.61655C93.0993 3.38967 94.2846 3.17991 95.4732 3.05577C95.2692 3.64462 94.9762 4.18591 94.5943 4.67725C93.3371 4.70056 92.0733 4.78664 90.8057 4.90223C91.1135 4.51362 91.3865 4.10171 91.6233 3.66554C91.7166 3.64889 91.8098 3.63463 91.904 3.61655ZM98.4284 2.96349C98.1949 3.58612 97.9152 4.18543 97.588 4.76334C96.8013 4.6977 96.0107 4.66917 95.2174 4.66964C95.5646 4.15927 95.8333 3.60276 96.0169 3.00582C96.8174 2.94066 97.6203 2.92021 98.4284 2.96349ZM99.9653 3.12806C100.624 3.23603 101.269 3.3968 101.904 3.5923C101.687 4.28864 101.244 4.85705 100.634 5.23519C99.8064 5.04255 98.9735 4.90509 98.1364 4.81519C98.4527 4.23205 98.7205 3.6256 98.9483 3.0006C99.286 3.03056 99.6247 3.07241 99.9653 3.12806ZM104.486 4.61113C104.27 5.1919 103.958 5.71702 103.557 6.18078C102.801 5.86067 102.04 5.60047 101.274 5.39357C101.794 4.96834 102.178 4.39709 102.382 3.74355C103.099 3.98851 103.801 4.28246 104.486 4.61113ZM106.288 5.57099C106.471 5.67801 106.65 5.79026 106.83 5.90203C106.515 6.40289 106.132 6.85191 105.685 7.24242C105.265 7.00555 104.839 6.77676 104.403 6.56367C104.279 6.50326 104.155 6.45046 104.031 6.39339C104.414 5.92582 104.718 5.40261 104.937 4.83326C105.395 5.06586 105.845 5.31271 106.288 5.57099ZM109.069 7.45883C108.444 7.74137 107.796 7.95827 107.126 8.11761C106.802 7.90737 106.475 7.70284 106.142 7.5064C106.571 7.11114 106.944 6.66641 107.256 6.17221C107.879 6.57508 108.481 7.00697 109.069 7.45883ZM109.508 7.80226C109.973 8.17278 110.424 8.56091 110.87 8.95569C110.433 9.30529 109.966 9.61923 109.446 9.79522C108.875 9.34193 108.29 8.90575 107.688 8.49432C108.315 8.3188 108.92 8.08431 109.508 7.80226ZM112.924 10.9068C112.301 11.0328 111.67 11.1061 111.03 11.1299C110.658 10.7974 110.28 10.4716 109.895 10.1553C110.38 9.94266 110.824 9.63302 111.247 9.29294C111.82 9.81472 112.378 10.355 112.924 10.9068ZM114.719 12.8065C114.329 12.7956 113.939 12.7842 113.549 12.7732C113.281 12.7656 112.994 12.7209 112.728 12.7518C112.34 12.3637 111.948 11.9799 111.546 11.6074C112.15 11.5603 112.748 11.4657 113.34 11.3301C113.809 11.8143 114.267 12.3085 114.719 12.8065ZM116.438 14.7538C116.212 14.7557 115.986 14.7605 115.761 14.7605C115.513 14.7605 115.034 14.8252 114.663 14.799C114.178 14.2592 113.685 13.7274 113.179 13.208C113.509 13.2223 113.876 13.2836 114.051 13.2884L115.186 13.3207C115.61 13.7954 116.026 14.2739 116.438 14.7538ZM116.906 15.298C117.409 15.8892 117.904 16.4876 118.395 17.0893C118.128 17.1021 117.852 17.0641 117.587 17.0417C117.217 17.0108 116.849 16.9666 116.482 16.9176C116.018 16.3568 115.547 15.7998 115.065 15.2518C115.665 15.2609 116.265 15.2604 116.865 15.2509C116.879 15.2666 116.893 15.2823 116.906 15.298ZM120.004 19.1074C119.548 19.1669 119.09 19.1988 118.627 19.2021C118.52 19.2026 118.451 19.2606 118.415 19.3348C118.385 19.2958 118.355 19.2573 118.325 19.2183C117.871 18.6342 117.409 18.0524 116.939 17.4741C117.233 17.5074 117.528 17.5378 117.823 17.5625C118.15 17.5896 118.466 17.6092 118.768 17.5468C119.185 18.0629 119.596 18.5842 120.004 19.1074ZM121.797 21.47C121.701 21.4638 121.607 21.459 121.522 21.459C121.03 21.4586 120.538 21.4581 120.047 21.4576C119.599 20.8702 119.15 20.2842 118.698 19.701C119.255 19.6934 119.806 19.6449 120.355 19.5593C120.843 20.191 121.322 20.8288 121.797 21.47ZM123.319 23.579C122.759 23.5771 122.198 23.5757 121.639 23.5742C121.238 23.0339 120.834 22.495 120.428 21.9589C120.793 21.9594 121.157 21.9594 121.522 21.9599C121.724 21.9599 121.95 21.9789 122.177 21.988C122.562 22.515 122.942 23.0458 123.319 23.579ZM124.751 25.649C124.171 25.6214 123.595 25.562 123.021 25.4711C122.686 25.0045 122.35 24.5393 122.009 24.077L123.672 24.0808C124.035 24.6002 124.395 25.1229 124.751 25.649ZM126.037 27.5958C125.498 27.5835 124.96 27.5416 124.424 27.4646C124.093 26.9851 123.759 26.5075 123.421 26.0329C123.975 26.1032 124.531 26.1446 125.091 26.1603C125.41 26.636 125.725 27.1154 126.037 27.5958ZM127.192 29.4238L125.705 29.2849C125.685 29.283 125.67 29.2887 125.652 29.2911C125.369 28.8625 125.084 28.4358 124.795 28.0111C125.315 28.0686 125.836 28.0976 126.36 28.0991C126.642 28.5376 126.916 28.9814 127.192 29.4238ZM128.193 31.0533C127.722 30.9848 127.248 30.9587 126.769 30.9786C126.759 30.9791 126.752 30.9839 126.742 30.9853C126.495 30.5929 126.246 30.2019 125.992 29.8128C126.504 29.8609 127.015 29.9084 127.527 29.956C127.752 30.3199 127.972 30.6871 128.193 31.0533ZM128.535 31.616C128.929 32.2762 129.316 32.9416 129.698 33.6094C129.214 33.4924 128.72 33.4292 128.217 33.4221C127.836 32.7685 127.449 32.1188 127.049 31.4762C127.542 31.4738 128.029 31.5166 128.515 31.6155C128.522 31.6174 128.527 31.6151 128.535 31.616ZM130.239 31.8472C131.584 32.6824 132.769 33.7445 133.838 34.9056C134.981 36.1475 135.993 37.6325 136.639 39.1964C137.484 41.2459 136.213 43.1162 135.004 44.6858C134.57 43.9048 134.117 43.1362 133.655 42.3732C133.719 42.3471 133.781 42.3048 133.838 42.2387C135.234 40.62 134.28 38.8611 133.076 37.3362C132.898 37.1107 132.708 36.8743 132.506 36.636C131.601 34.9241 130.656 33.2332 129.672 31.5665C129.864 31.6408 130.053 31.7316 130.239 31.8472ZM137.628 45.8564C137.424 45.8968 137.22 45.9378 137.017 45.9782C136.848 46.012 136.68 46.0452 136.511 46.079C136.45 46.0914 136.258 46.1014 136.133 46.1394C135.956 45.9368 135.779 45.7351 135.598 45.5363C135.608 45.5258 135.618 45.5168 135.628 45.5044C135.877 45.1834 136.122 44.8599 136.355 44.5312C136.793 44.9646 137.217 45.4064 137.628 45.8564ZM139.545 48.1381C139.384 48.139 139.222 48.1424 139.06 48.1424C138.853 48.1429 138.647 48.1414 138.44 48.1395C138.358 48.139 137.965 48.1771 137.782 48.1547C137.372 47.6239 136.954 47.0993 136.52 46.587C137.02 46.4871 137.52 46.3877 138.02 46.2878C138.553 46.8905 139.059 47.5083 139.545 48.1381ZM141.141 50.3755C140.506 50.3208 139.873 50.2509 139.242 50.161C138.893 49.6521 138.536 49.1488 138.166 48.6546C138.268 48.6475 138.363 48.6399 138.44 48.6408C138.934 48.6461 139.428 48.6428 139.922 48.6366C140.347 49.2059 140.751 49.7867 141.141 50.3755ZM142.526 52.6396C141.947 52.6215 141.369 52.6035 140.791 52.5849C140.413 51.9513 140.022 51.3254 139.613 50.7109C140.236 50.7912 140.86 50.8602 141.486 50.9083C141.848 51.4771 142.194 52.055 142.526 52.6396ZM143.642 54.7562C143.095 54.7539 142.548 54.751 142.001 54.7482C141.709 54.1921 141.408 53.6394 141.093 53.0958L142.809 53.1495C143.099 53.6789 143.375 54.215 143.642 54.7562ZM144.855 57.4627C144.29 57.3856 143.73 57.281 143.174 57.1492C142.882 56.51 142.579 55.8759 142.259 55.2504C142.801 55.2533 143.342 55.2562 143.884 55.2585C144.229 55.9834 144.551 56.7192 144.855 57.4627ZM145.737 59.7962C145.546 59.8109 145.346 59.7824 145.15 59.7615C144.846 59.7287 144.542 59.6959 144.238 59.663C143.983 59.0104 143.715 58.3626 143.432 57.7219C143.975 57.8375 144.521 57.9298 145.071 57.9954C145.306 58.5904 145.527 59.1912 145.737 59.7962ZM146.514 62.2558C146.082 62.1949 145.66 62.0812 145.236 61.9618C145.173 61.9442 145.119 61.9537 145.074 61.9747C144.875 61.3811 144.668 60.7903 144.447 60.2043C144.917 60.2819 145.451 60.3746 145.907 60.2909C146.124 60.9401 146.323 61.5965 146.514 62.2558ZM147.08 64.3833C146.987 64.3724 146.895 64.3629 146.802 64.3472C146.619 64.3167 146.174 64.292 146.065 64.1122C145.977 63.9705 145.821 63.9705 145.712 64.0404C145.563 63.5191 145.408 62.9997 145.242 62.4836C145.711 62.6135 146.181 62.7295 146.662 62.778C146.811 63.3103 146.948 63.8459 147.08 64.3833ZM147.713 67.3138C147.298 67.2501 146.887 67.1687 146.478 67.075C146.294 66.2455 146.093 65.4202 145.87 64.5998C146.025 64.6925 146.21 64.7325 146.4 64.7767C146.663 64.8385 146.933 64.8771 147.202 64.9023C147.39 65.7014 147.559 66.5057 147.713 67.3138ZM135.5 111.596C139.155 105.349 141.676 98.4725 143.383 91.4558C145.214 83.9334 145.798 76.1385 144.261 68.5134C142.919 61.8553 140.291 55.3161 137.319 49.184C145.311 59.8114 147.795 73.5876 146.528 86.7217C145.796 94.3173 143.913 101.998 141.068 109.08C139.79 112.261 138.108 115.314 135.808 117.872C133.319 120.641 130.032 122.158 126.803 123.873C126.471 124.05 126.143 124.232 125.816 124.418C129.514 120.541 132.781 116.242 135.5 111.596ZM129.516 35.7423C129.19 35.1353 128.856 34.5341 128.514 33.9367C129.039 33.97 129.551 34.0689 130.054 34.2321C130.338 34.7339 130.617 35.2371 130.894 35.7427C130.434 35.7427 129.975 35.7423 129.516 35.7423ZM132.421 38.6394C132.788 39.3577 133.151 40.0778 133.504 40.8031C133.448 41.0514 133.33 41.2935 133.135 41.5233C132.518 40.5368 131.872 39.5698 131.202 38.6199C131.608 38.6385 132.016 38.6351 132.421 38.6394ZM131.739 37.319C131.882 37.5887 132.019 37.8608 132.159 38.1314C132.037 38.1291 131.915 38.1267 131.794 38.1243C131.66 38.1219 131.526 38.1191 131.392 38.1167L131.124 38.1115C131.098 38.1048 131.081 38.1029 131.063 38.1005C131.01 37.9697 130.86 37.8831 130.728 37.9583C130.655 37.8565 130.583 37.7542 130.509 37.6529C130.506 37.6524 130.502 37.6515 130.499 37.651C130.266 37.1778 130.025 36.7092 129.78 36.2431C130.241 36.2436 130.702 36.2436 131.163 36.2441C131.331 36.5542 131.499 36.8643 131.664 37.1763C131.655 37.1873 131.647 37.1992 131.637 37.2101C131.67 37.2453 131.705 37.2819 131.739 37.319ZM125.555 31.6826C125.688 31.6564 125.822 31.6303 125.957 31.6032C126.203 31.996 126.443 32.3932 126.682 32.7899C126.645 32.7899 126.608 32.7904 126.571 32.7904C126.237 32.417 125.9 32.046 125.555 31.6826ZM117.572 84.6883C118.219 78.3626 117.173 71.8938 114.909 65.9749C112.022 58.4273 107.03 52.0336 100.665 47.4222C100.751 47.4037 100.836 47.3538 100.911 47.2629C103.93 43.6185 106.949 39.9745 109.968 36.3301C112.7 33.032 115.473 29.751 117.73 26.1009C118.736 26.8572 119.719 27.6448 120.677 28.4615C119.927 28.6175 119.179 28.7816 118.436 28.9633C118.122 29.0399 118.255 29.5232 118.569 29.4466C119.424 29.2378 120.285 29.0494 121.148 28.8744C121.647 29.3086 122.137 29.7519 122.622 30.2005C122.006 30.2909 121.39 30.3812 120.774 30.4716C120.456 30.5182 120.592 31.001 120.908 30.9549C121.578 30.8564 122.247 30.7584 122.918 30.66C122.975 30.6519 123.012 30.6267 123.042 30.5957C123.212 30.7565 123.386 30.914 123.554 31.0771C124.147 31.6536 124.724 32.2439 125.286 32.846C125.164 32.8579 125.042 32.8708 124.921 32.8874C124.545 32.9393 124.175 33.0039 123.803 33.0829C123.558 33.1352 123.184 33.3269 122.94 33.2617C122.823 33.2308 122.724 33.2841 122.657 33.3773C122.65 33.3869 122.643 33.3968 122.636 33.4068C122.585 33.4786 122.595 33.5871 122.636 33.6594C122.643 33.6717 122.65 33.6841 122.657 33.6965C122.734 33.8335 122.893 33.8463 123.007 33.7731C123.407 33.7911 123.832 33.5885 124.214 33.5072C124.71 33.4016 125.214 33.3454 125.719 33.3164C125.957 33.5776 126.189 33.8435 126.421 34.1089C125.845 34.2011 125.266 34.2649 124.682 34.2982C124.36 34.3167 124.359 34.8176 124.682 34.799C125.395 34.7586 126.103 34.673 126.806 34.5484C127.774 35.6766 128.697 36.8415 129.574 38.0401C129.617 38.1271 129.663 38.2128 129.706 38.3003C129.76 38.4111 129.835 38.4815 129.919 38.52C130.557 39.409 131.168 40.317 131.76 41.2374C130.766 41.3787 129.778 41.5508 128.794 41.7578C128.478 41.8243 128.613 42.3076 128.927 42.241C129.964 42.0232 131.006 41.8434 132.054 41.6997C132.366 42.1939 132.671 42.6934 132.971 43.1952C132.097 43.2532 131.23 43.3607 130.367 43.5224C130.049 43.5819 130.184 44.0646 130.5 44.0057C131.413 43.8344 132.33 43.7289 133.256 43.6794C133.67 44.3824 134.071 45.093 134.463 45.8093C133.654 45.865 132.849 45.9549 132.047 46.0814C131.729 46.1313 131.865 46.6141 132.18 46.5647C133.025 46.4315 133.873 46.3435 134.726 46.2931C135.112 47.0099 135.489 47.7314 135.853 48.4601C135.942 48.6385 136.029 48.8192 136.118 48.9985C135.292 49.1232 134.465 49.2478 133.639 49.3724C133.321 49.4204 133.456 49.9032 133.772 49.8557C134.631 49.7258 135.49 49.5964 136.349 49.467C139.537 55.9905 142.265 63.0044 143.555 70.1453C145.019 78.2451 143.766 86.5794 141.57 94.4233C139.408 102.145 136.031 109.355 131.531 115.816C123.297 113.558 115.717 109.357 109.448 103.556C114.023 98.0758 116.841 91.8315 117.572 84.6883ZM38.0569 77.7181C38.0598 71.3421 39.677 65.0607 42.7316 59.4694C44.4011 56.4129 46.5439 53.6342 49.052 51.2208C51.7394 48.6356 54.9429 46.7373 58.2229 45.0083C60.0632 44.038 61.9287 43.1167 63.8108 42.2301C63.9183 42.358 64.0867 42.4289 64.2979 42.3633C77.2522 38.3398 91.9411 41.2065 102.368 49.9089C112.53 58.3916 117.863 72.0384 116.523 85.1496C115.052 99.5346 102.988 111.843 89.4982 116.032C77.5195 119.752 63.8698 117.437 53.739 110.084C43.5759 102.707 38.0512 90.1078 38.0569 77.7181ZM40.1716 62.4327C39.275 64.5441 38.5644 66.7335 38.0488 68.9553C36.1444 77.1683 36.9839 85.9378 40.1184 93.7607C40.0718 93.7764 40.0242 93.7983 39.9762 93.8345C32.723 99.2559 23.9778 102.323 15.6777 105.749C11.6133 96.3644 9.73641 86.0372 10.1978 75.8241C10.5122 68.8701 12.089 62.104 14.5542 55.6086C15.4332 53.2917 16.394 50.9649 17.4509 48.6727C23.9283 54.8557 31.6875 59.5551 40.1716 62.4327ZM100.1 47.0241C96.454 44.4751 92.3777 42.4998 87.9994 41.2184C80.791 39.1089 73.0065 39.0028 65.7458 40.9102C65.6554 40.6424 65.3448 40.4188 65.0076 40.5729C63.0603 41.4652 61.1016 42.3737 59.1785 43.3488C59.2437 43.2199 59.2523 43.062 59.1595 42.8988C54.9443 35.4949 51.1586 27.8584 47.8129 20.0235C54.0919 17.2244 60.7144 15.2057 67.5318 14.1074C81.0473 11.9299 95.0385 13.8891 107.385 19.8138C110.73 21.4186 113.925 23.3245 116.923 25.502C114.615 29.2563 111.752 32.6125 108.947 35.9986C106.032 39.517 103.117 43.0358 100.203 46.5542C100.078 46.704 100.058 46.8738 100.1 47.0241ZM34.2936 25.0716C34.5871 24.6059 34.8634 24.1269 35.1179 23.6323C35.3457 23.189 35.5355 22.7404 35.701 22.2895C36.6452 22.6786 37.5718 23.2964 38.4726 23.744C37.5019 24.3253 36.5439 24.9279 35.5964 25.5458C35.5384 25.4744 35.4551 25.4174 35.3415 25.3874C35.0171 25.3013 34.6613 25.1843 34.2936 25.0716ZM34.5895 26.2112C33.748 26.7763 32.9176 27.3585 32.0952 27.9521C32.6707 27.3162 33.2086 26.6484 33.7047 25.9477C34.0087 26.0295 34.3079 26.1237 34.5895 26.2112ZM31.453 28.6375C31.6699 28.4158 31.8811 28.189 32.089 27.9592C31.9686 28.2513 31.7332 28.5019 31.453 28.6375ZM27.9332 27.739C28.6324 27.1074 29.2974 26.4476 29.9162 25.7532C30.0599 26.7092 30.1032 27.6643 30.0523 28.6271C29.3469 29.292 28.602 29.9175 27.8281 30.5078C27.9252 29.5874 27.9608 28.6656 27.9332 27.739ZM26.0183 29.4171C26.0259 29.3895 26.0287 29.3633 26.0321 29.3372C26.5125 28.9595 26.9824 28.5724 27.44 28.1761C27.4481 29.0932 27.3962 30.0059 27.2821 30.9182C27.011 31.1161 26.7375 31.3106 26.4611 31.5004C26.1581 30.8345 25.8299 30.0992 26.0183 29.4171ZM26.2119 34.7334C26.1838 34.6559 26.1305 34.6078 26.0692 34.5831C26.9672 33.5329 27.9261 32.5359 28.9354 31.5913C28.9687 31.5742 29.0015 31.5532 29.0334 31.5275C29.5067 31.147 29.9847 30.7732 30.4656 30.4022C30.6292 31.3692 30.7001 32.5578 31.258 33.3478C31.4426 33.6095 31.8773 33.3597 31.6904 33.0948C31.3836 32.6601 31.3237 32.1406 31.2228 31.6303C31.1196 31.1066 31.0164 30.5824 30.9127 30.0587C31.3084 29.7576 31.708 29.4613 32.1085 29.1674C32.1651 29.5341 32.2212 29.9008 32.2773 30.2675C32.3263 30.5862 32.8091 30.4502 32.7606 30.1344C32.6945 29.702 32.6279 29.2692 32.5618 28.8368C34.4648 27.4584 36.4264 26.1627 38.4341 24.9446C38.5226 25.6395 38.6111 26.3339 38.6995 27.0289C38.7395 27.3447 39.2413 27.3485 39.2004 27.0289C39.101 26.2469 39.0011 25.4649 38.9017 24.6839C38.9031 24.6758 38.9041 24.6682 38.905 24.6616C39.3179 24.4142 39.7331 24.1721 40.1493 23.9324C40.2349 24.8828 40.3201 25.8336 40.4052 26.7834C40.4342 27.1031 40.9356 27.1054 40.9065 26.7834C40.8128 25.7422 40.7196 24.701 40.6259 23.6594C41.1515 23.3616 41.6799 23.0691 42.2117 22.7827C42.245 23.2532 42.2778 23.7245 42.3111 24.1959C42.334 24.516 42.8353 24.5179 42.8124 24.1959C42.773 23.6399 42.734 23.0834 42.6945 22.5273C43.2125 22.2519 43.7338 21.9832 44.257 21.7178C44.2751 22.1259 44.2931 22.534 44.3112 22.9421C44.3255 23.2646 44.8268 23.2655 44.8125 22.9421C44.7907 22.4512 44.7688 21.9604 44.7469 21.4695C45.4613 21.1132 46.181 20.7674 46.9063 20.4335C50.2615 28.3022 54.0615 35.9706 58.2943 43.4045C58.3732 43.5438 58.4869 43.6176 58.6068 43.6409C54.2051 45.9135 50.0209 48.57 46.6447 52.2534C44.1419 54.9836 42.1156 58.1381 40.5769 61.5152C32.0876 58.658 24.3383 53.9338 17.898 47.7143C19.6213 44.0903 21.6033 40.5753 23.9183 37.3533C24.0819 37.2895 24.2027 37.1535 24.198 36.967C24.4967 36.5594 24.7983 36.1546 25.1079 35.757C25.3196 35.4859 25.5398 35.2219 25.7591 34.9574C26.1282 35.9877 26.3912 37.0408 26.5467 38.1253C26.5924 38.4439 27.0752 38.3079 27.03 37.9921C26.8702 36.8762 26.5981 35.7927 26.2119 34.7334ZM147.804 67.8223C147.887 68.2818 147.963 68.7431 148.036 69.205C147.632 69.1446 147.239 69.0423 146.853 68.9077C146.771 68.4758 146.686 68.0454 146.595 67.6154C146.975 67.6972 147.357 67.7699 147.743 67.8256C147.765 67.8284 147.784 67.8237 147.804 67.8223ZM148.308 71.1361C147.939 71.0943 147.57 71.0524 147.201 71.0106C147.124 70.4959 147.042 69.9822 146.952 69.4699C147.332 69.5865 147.719 69.6664 148.115 69.7163C148.185 70.1886 148.248 70.6624 148.308 71.1361ZM148.582 73.707C148.429 73.6737 148.279 73.6352 148.129 73.5885C147.987 73.5443 147.848 73.4877 147.711 73.4278C147.693 73.4202 147.592 73.3731 147.499 73.3317C147.433 72.7267 147.36 72.1221 147.275 71.52C147.641 71.5613 148.006 71.6032 148.372 71.6446C148.453 72.3305 148.521 73.0187 148.582 73.707ZM148.744 76.0048C148.393 75.934 148.043 75.7827 147.709 75.6438C147.667 75.0645 147.62 74.4861 147.562 73.9091C147.588 73.9187 147.614 73.9286 147.636 73.9372C147.959 74.0685 148.286 74.1598 148.624 74.2231C148.672 74.8167 148.71 75.4108 148.744 76.0048ZM148.822 77.7262C148.48 77.5626 148.141 77.3947 147.804 77.2211C147.788 76.8786 147.77 76.5366 147.748 76.1946C148.081 76.3302 148.424 76.4595 148.771 76.5161C148.792 76.9195 148.808 77.3228 148.822 77.7262ZM148.866 79.7896C148.798 79.7691 148.73 79.7506 148.664 79.7287C148.536 79.6868 148.41 79.6392 148.285 79.5917C148.241 79.5746 148.045 79.4875 147.927 79.4514C147.928 79.3862 147.907 79.3225 147.865 79.2768C147.857 78.7817 147.846 78.2865 147.827 77.7923C148.162 77.9617 148.499 78.1262 148.839 78.2856C148.853 78.7874 148.86 79.2887 148.866 79.7896ZM148.467 65.5663C146.715 57.4027 142.918 49.5536 136.917 43.677C137.516 42.6772 137.934 41.6032 137.919 40.3651C137.897 38.4943 136.447 36.519 135.33 35.1277C134.022 33.5001 132.492 32.1235 130.745 30.982C130.167 30.6048 129.544 30.1972 128.844 30.1877C127.085 27.2938 125.214 24.4685 123.222 21.7225C123.203 21.6983 123.185 21.6736 123.168 21.6493C123.168 21.6436 123.168 21.6384 123.168 21.6331C123.171 21.5527 123.12 21.4509 123.044 21.4167C123.032 21.411 123.019 21.4053 123.007 21.3996C122.998 21.3958 122.99 21.3967 122.981 21.3939C119.048 15.9934 114.726 10.5762 109.413 6.4828C106.909 4.55453 104.068 3.04768 100.985 2.31328C97.53 1.49041 94.1224 2.18914 90.7044 2.82603C86.5501 3.59991 82.4087 3.29264 78.2215 3.03104C74.0249 2.76848 69.8292 2.45787 65.6635 1.87188C60.0808 1.08611 54.5205 -0.470684 48.8384 0.137669C44.1599 0.638526 39.9633 3.0396 37.0723 6.73205C35.79 8.37018 34.8706 10.2357 34.2589 12.2182C33.4165 14.9489 33.2477 17.8284 32.2336 20.5158C32.1161 20.8264 31.9829 21.128 31.8426 21.4253C30.0423 22.1335 28.3775 23.3797 26.9168 24.5526C25.1745 25.9515 23.6372 27.6434 22.3739 29.4913C22.3306 29.506 22.2868 29.5255 22.2426 29.5569C21.8383 29.8409 21.4597 30.1534 21.1044 30.492C20.9683 30.5477 20.848 30.63 20.7381 30.7375C20.7077 30.7674 20.6829 30.7984 20.6625 30.8302C18.1007 32.7894 15.9931 35.1619 14.3002 37.924C12.2483 41.2712 10.6934 44.9541 8.98582 48.4834C5.67437 55.3265 1.8302 62.1911 0.536439 69.77C-2.06963 85.0336 5.32097 99.6226 12.0947 112.759C13.103 114.715 15.8304 117.453 18.4764 119.626C18.329 119.934 18.2805 120.275 18.4674 120.604C19.4767 122.373 20.7714 124.014 22.0657 125.582C22.7273 126.383 23.4294 127.151 24.1462 127.904C24.716 128.502 25.4023 129.411 26.22 129.686C27.6778 130.178 29.4563 129.351 30.8114 128.545C33.1649 130.679 35.6796 132.647 38.3385 134.432C38.7342 134.698 39.1333 134.958 39.5343 135.214C39.6066 135.296 39.7027 135.359 39.8092 135.388C50.0589 141.878 62.0752 145.524 74.1819 146.006C87.422 146.533 100.397 142.797 111.521 135.973C113.421 136.626 115.439 137.607 117.479 137.316C119.28 137.059 120.881 135.311 122.21 134.215C123.731 132.96 125.757 131.748 126.645 129.927C127.03 129.136 127.022 128.28 126.828 127.438C128.577 126.617 130.364 125.872 132.018 125.042C134.493 123.799 136.789 122.266 138.586 120.137C140.861 117.44 142.343 114.019 143.902 110.884C145.593 107.486 147.04 103.994 147.902 100.288C148.769 96.5599 149.142 92.6958 149.483 88.8901C150.178 81.1161 150.108 73.2228 148.467 65.5663Z" fill="black"/>
<path d="M109.707 140.963C109.75 140.637 109.8 140.312 109.862 139.988C109.893 139.823 109.918 139.629 109.964 139.444C110.507 139.066 111.044 138.68 111.574 138.284C111.603 138.683 111.688 139.073 111.828 139.454C111.129 139.968 110.422 140.47 109.707 140.963ZM109.169 141.328C108.659 141.674 108.143 142.013 107.625 142.347C107.634 142.135 107.643 141.924 107.653 141.712C107.661 141.537 107.629 141.226 107.654 140.971C108.236 140.603 108.813 140.226 109.383 139.839C109.287 140.313 109.219 140.792 109.165 141.273C109.162 141.294 109.168 141.31 109.169 141.328ZM107.109 142.677C106.638 142.975 106.164 143.268 105.687 143.555C105.712 143.386 105.736 143.216 105.761 143.046C105.787 142.87 105.812 142.695 105.838 142.519C105.854 142.411 105.851 142.174 105.898 142.035C106.326 141.786 106.751 141.533 107.171 141.273C107.15 141.741 107.129 142.209 107.109 142.677ZM105.136 143.886C104.438 144.3 103.733 144.702 103.022 145.093C103.067 144.902 103.112 144.711 103.157 144.52C103.228 144.225 103.261 143.741 103.412 143.402C104.067 143.06 104.717 142.71 105.361 142.347C105.286 142.859 105.211 143.373 105.136 143.886ZM102.818 143.779L102.431 145.416C101.681 145.82 100.924 146.211 100.16 146.588C100.402 145.908 100.706 145.257 101.08 144.634C101.096 144.606 101.103 144.578 101.109 144.551C101.688 144.275 102.265 143.992 102.836 143.7C102.83 143.727 102.824 143.753 102.818 143.779ZM96.3437 148.331C96.4302 147.653 96.6172 147.007 96.9016 146.393C98.0655 145.926 99.217 145.431 100.355 144.905C100.018 145.541 99.7422 146.205 99.5291 146.896C98.4793 147.402 97.4162 147.879 96.3437 148.331ZM95.819 148.549C94.5376 149.077 93.2401 149.562 91.9292 150.006C92.2117 149.099 92.7154 148.318 93.4075 147.688C94.3635 147.359 95.3129 147.012 96.2547 146.645C96.025 147.252 95.8804 147.888 95.819 148.549ZM89.4377 150.79C89.5695 150.042 89.8301 149.349 90.2245 148.706C90.956 148.489 91.6852 148.265 92.4101 148.026C91.9744 148.582 91.6443 149.215 91.4335 149.908C91.4017 150.013 91.4388 150.094 91.5011 150.148C90.8171 150.374 90.1293 150.588 89.4377 150.79ZM86.4079 151.585C86.5967 150.762 87.0172 150.019 87.6193 149.43C88.261 149.263 88.9007 149.088 89.5386 148.906C89.2484 149.477 89.0467 150.085 88.9416 150.727C88.9288 150.803 88.9488 150.868 88.9849 150.92C88.1316 151.162 87.2716 151.381 86.4079 151.585ZM83.1478 152.261C83.612 151.464 84.1752 150.643 84.8858 150.085C85.1793 150.02 85.4728 149.954 85.7648 149.887C86.1058 149.808 86.445 149.72 86.7846 149.635C86.3299 150.241 86.0255 150.942 85.8823 151.711C84.9762 151.917 84.0644 152.099 83.1478 152.261ZM80.0751 152.714C80.224 152.387 80.4004 152.076 80.6026 151.774C80.77 151.525 81.1396 150.973 81.4963 150.75C82.3164 150.609 83.1335 150.454 83.9464 150.285C83.3761 150.908 82.9057 151.661 82.5095 152.369C81.7018 152.501 80.8903 152.616 80.0751 152.714ZM77.1037 152.984C77.4952 152.336 77.9746 151.754 78.4831 151.192C79.2104 151.103 79.9367 151.001 80.6606 150.886C80.5721 150.992 80.4884 151.099 80.4085 151.199C80.0261 151.677 79.7379 152.213 79.5096 152.778C78.7109 152.865 77.909 152.932 77.1037 152.984ZM75.7163 153.055C75.2777 153.071 74.8387 153.08 74.3997 153.084C74.8197 152.485 75.3029 151.94 75.8494 151.45C76.4806 151.403 77.1109 151.345 77.7406 151.276C77.2759 151.818 76.8497 152.388 76.5068 153.019C76.2437 153.033 75.9802 153.045 75.7163 153.055ZM73.7961 153.083C73.0108 153.081 72.2255 153.06 71.4407 153.021C71.679 152.782 71.922 152.549 72.176 152.326C72.3972 152.132 72.7544 151.746 73.1026 151.577C73.7561 151.565 74.4097 151.54 75.0627 151.502C74.5876 151.983 74.1676 152.514 73.7961 153.083ZM70.8428 152.911C70.8214 152.934 70.8095 152.958 70.7981 152.983C70.0052 152.933 69.2137 152.863 68.4241 152.776C69.0015 152.314 69.6104 151.901 70.2506 151.535C70.9294 151.567 71.609 151.585 72.2887 151.584C72.2635 151.605 72.2379 151.627 72.2127 151.647C71.7251 152.032 71.2723 152.461 70.8428 152.911ZM67.8928 152.716C67.2483 152.638 66.6057 152.546 65.965 152.443C65.9793 152.433 65.994 152.428 66.0074 152.414C66.4007 152.01 66.8169 151.633 67.2555 151.281C67.9608 151.367 68.6672 151.435 69.3749 151.483C68.8893 151.795 68.4203 152.132 67.9704 152.499C67.8904 152.564 67.8728 152.643 67.8928 152.716ZM65.6463 152.39C64.8867 152.263 64.1319 152.113 63.3794 151.95C63.5325 151.775 63.6833 151.598 63.8403 151.426C63.9835 151.268 64.1761 151 64.3916 150.813C65.1193 150.962 65.8499 151.089 66.5824 151.192C66.2604 151.467 65.9498 151.755 65.653 152.06C65.5474 152.168 65.5712 152.301 65.6463 152.39ZM60.9812 151.367C61.3669 150.975 61.7727 150.58 62.2264 150.296C62.5661 150.388 62.9057 150.477 63.2486 150.56C63.445 150.608 63.6415 150.651 63.8379 150.695C63.4879 151.063 63.1497 151.442 62.8196 151.829C62.2036 151.687 61.591 151.533 60.9812 151.367ZM58.5744 150.639C59.1133 150.282 59.6784 149.973 60.2725 149.714C60.7172 149.857 61.1643 149.996 61.6157 150.125C61.1938 150.45 60.81 150.838 60.4328 151.214C59.8092 151.037 59.1904 150.842 58.5744 150.639ZM57.978 150.439C57.3216 150.213 56.6704 149.973 56.0245 149.718C56.4207 149.317 56.8483 148.955 57.313 148.637C58.0593 148.938 58.8141 149.221 59.5795 149.483C59.0225 149.755 58.4912 150.072 57.9841 150.434C57.9818 150.436 57.9803 150.438 57.978 150.439ZM55.5222 149.517C55.3291 149.437 55.1364 149.358 54.9447 149.276C54.4572 149.068 53.9787 148.846 53.5045 148.618C54.0558 148.294 54.6189 147.994 55.1949 147.716C55.7158 147.956 56.2399 148.19 56.7698 148.412C56.3217 148.741 55.9056 149.11 55.5222 149.517ZM51.2304 147.411C51.7755 146.986 52.4057 146.741 53.0835 146.68C53.5896 146.943 54.1 147.199 54.6147 147.445C54.0558 147.724 53.5092 148.027 52.9741 148.352C52.3824 148.053 51.8031 147.737 51.2304 147.411ZM48.7566 145.895C49.0919 145.494 49.4995 145.169 49.9676 144.926C50.7567 145.401 51.5529 145.863 52.3629 146.299C51.7803 146.454 51.2399 146.74 50.7624 147.145C50.0817 146.746 49.4144 146.328 48.7566 145.895ZM48.3394 145.615C47.9784 145.373 47.6245 145.12 47.2692 144.869C47.3624 144.812 47.4542 144.753 47.5489 144.699C47.8819 144.508 48.3337 144.21 48.7528 144.174C48.993 144.326 49.2322 144.481 49.4743 144.63C49.0405 144.89 48.6591 145.223 48.3394 145.615ZM45.3505 143.462C45.6844 143.12 46.0744 142.863 46.5172 142.697C47.0614 143.072 47.6079 143.442 48.1611 143.8C47.6864 143.965 47.215 144.264 46.8079 144.547C46.317 144.193 45.8323 143.829 45.3505 143.462ZM44.9538 143.153C44.4296 142.748 43.9121 142.334 43.3965 141.917C43.8127 141.7 44.2503 141.531 44.7102 141.41C45.1483 141.731 45.5878 142.048 46.0316 142.36C45.6282 142.554 45.2644 142.821 44.9538 143.153ZM41.1338 140.041C41.4996 139.768 41.9249 139.636 42.3748 139.636C42.9775 140.109 43.5849 140.575 44.198 141.031C43.7704 141.17 43.3594 141.349 42.968 141.569C42.3525 141.066 41.7422 140.555 41.1338 140.041ZM38.9506 138.175C39.334 138.012 39.7345 137.898 40.1512 137.835C40.7034 138.292 41.2585 138.745 41.8188 139.191C41.4302 139.276 41.0673 139.456 40.7467 139.712C40.1459 139.202 39.5481 138.688 38.9506 138.175ZM37.205 136.68C37.5827 136.534 37.9703 136.416 38.367 136.324C38.7951 136.692 39.2251 137.058 39.6579 137.42C39.2674 137.511 38.8907 137.641 38.5273 137.813C38.0869 137.435 37.6459 137.057 37.205 136.68ZM36.6128 136.173C36.0815 135.72 35.5498 135.268 35.0185 134.815C35.3538 134.592 35.7277 134.441 36.1339 134.361C36.7199 134.884 37.3082 135.406 37.9028 135.921C37.5189 136.026 37.1446 136.159 36.7774 136.314C36.7227 136.267 36.668 136.22 36.6128 136.173ZM32.732 132.867C33.0892 132.629 33.4712 132.446 33.8812 132.321C34.4772 132.868 35.076 133.414 35.6801 133.957C35.2991 134.069 34.9433 134.245 34.6227 134.478C33.9925 133.941 33.3622 133.404 32.732 132.867ZM31.053 131.437C31.4449 131.198 31.8568 131.002 32.2897 130.847C32.6792 131.209 33.0673 131.572 33.4593 131.933C33.0612 132.08 32.6854 132.28 32.3377 132.531C31.9096 132.166 31.4811 131.802 31.053 131.437ZM114.958 137.04C114.07 137.758 113.164 138.458 112.245 139.142C112.116 138.744 112.058 138.334 112.065 137.916C112.704 137.429 113.334 136.931 113.954 136.421C113.632 136.289 113.321 136.113 113.02 135.894C107.506 140.384 101.206 143.777 94.5405 146.23C87.3501 148.877 79.6118 150.625 71.9277 150.59C57.2003 150.524 45.2415 141.371 34.8662 131.875C33.4483 130.577 32.048 129.259 30.6492 127.94C30.1797 127.497 29.4696 128.205 29.9409 128.649C30.5816 129.254 31.2275 129.859 31.8773 130.465C31.4501 130.635 31.0435 130.848 30.6549 131.098C29.8639 130.424 29.0724 129.75 28.2809 129.076C28.1896 129.115 28.0987 129.156 28.0055 129.191C27.9946 129.195 27.9836 129.199 27.9732 129.203C27.9432 129.213 27.9147 129.227 27.8837 129.235C27.8709 129.238 27.8476 129.245 27.8224 129.253C27.7325 129.284 27.6421 129.315 27.5499 129.34C27.4019 129.38 27.2521 129.388 27.1061 129.372C27.1003 129.372 27.0946 129.372 27.0889 129.373C33.0255 134.435 38.827 139.755 45.0108 144.512C50.5241 148.754 56.8031 151.6 63.6082 153.032C77.2008 155.892 91.2038 152.668 103.253 146.134C107.65 143.749 111.779 140.89 115.666 137.749C116.169 137.342 115.456 136.638 114.958 137.04Z" fill="black"/>
<path d="M38.5235 92.624C35.2478 83.7189 35.0442 73.922 37.9518 64.8894C38.0512 64.5812 37.5675 64.4499 37.4685 64.7563C34.5362 73.8649 34.7369 83.776 38.0403 92.7571C38.1506 93.0578 38.6353 92.9279 38.5235 92.624Z" fill="black"/>
<path d="M36.9401 92.0341C33.9211 85.6614 33.124 78.443 34.6727 71.5642C34.7435 71.2493 34.2603 71.1157 34.1894 71.431C32.6098 78.4487 33.4279 85.7875 36.5077 92.2872C36.6461 92.5788 37.078 92.3248 36.9401 92.0341Z" fill="black"/>
<path d="M35.8437 93.8383C34.9714 92.1878 34.4158 90.4479 34.1576 88.6004C34.1133 88.2818 33.6306 88.4178 33.6743 88.7336C33.9383 90.6234 34.52 92.4052 35.4109 94.0913C35.5622 94.3767 35.9945 94.1237 35.8437 93.8383Z" fill="black"/>
<path d="M91.015 118.649C85.3881 120.258 79.5543 120.743 73.7267 120.319C70.7082 120.098 67.7102 119.594 64.7698 118.885C62.0062 118.22 59.2989 117.214 57.1175 115.343C56.8735 115.134 56.5173 115.486 56.7632 115.697C60.9365 119.276 67.0628 120.131 72.3449 120.695C78.6396 121.368 85.059 120.874 91.1482 119.131C91.4583 119.043 91.3261 118.559 91.015 118.649Z" fill="black"/>
<path d="M91.7442 120.081C85.9846 121.727 80.009 122.285 74.0444 121.739C73.7224 121.709 73.7252 122.211 74.0444 122.24C80.0518 122.79 86.0778 122.222 91.8773 120.564C92.1875 120.475 92.0557 119.992 91.7442 120.081Z" fill="black"/>
<path d="M91.7651 121.143C89.6433 121.999 87.4539 122.585 85.185 122.888C84.8697 122.931 84.8654 123.432 85.185 123.389C87.5 123.08 89.7312 122.5 91.8983 121.626C92.1941 121.507 92.0653 121.022 91.7651 121.143Z" fill="black"/>
<path d="M119.022 76.7283C118.574 73.4396 118.075 70.1634 116.738 67.0997C116.61 66.8043 116.178 67.0598 116.306 67.3528C117.563 70.2328 118.051 73.3255 118.478 76.4167C118.9 79.4723 119.176 82.4546 118.829 85.5306C118.179 91.2992 115.523 96.7972 111.547 101C111.325 101.235 111.679 101.589 111.901 101.354C115.903 97.124 118.449 91.7535 119.271 85.9934C119.714 82.8846 119.443 79.8223 119.022 76.7283Z" fill="black"/>
<path d="M118.253 66.5019C118.148 66.1984 117.664 66.3292 117.77 66.6351C120.433 74.3334 121.019 82.5935 119.45 90.5882C119.388 90.9036 119.871 91.0382 119.933 90.7214C121.519 82.6397 120.946 74.2859 118.253 66.5019Z" fill="black"/>
<path d="M119.452 65.7503C119.279 65.4782 118.845 65.7294 119.019 66.0033C120.059 67.6458 120.694 69.4413 120.899 71.3748C120.933 71.6926 121.435 71.6959 121.401 71.3748C121.185 69.3495 120.541 67.4712 119.452 65.7503Z" fill="black"/>
<path d="M99.1148 44.6673C94.5799 40.346 88.4783 38.5048 82.3501 38.0292C78.5254 37.7328 74.6722 38.0102 70.8618 38.3645C67.615 38.667 64.2736 38.8863 61.2865 40.3066C60.995 40.445 61.2494 40.8769 61.5396 40.7389C64.5842 39.2915 68.0345 39.1289 71.3398 38.8211C74.6831 38.51 78.0379 38.3236 81.395 38.4725C87.6845 38.7517 94.1157 40.5958 98.7604 45.0217C98.9944 45.2443 99.3493 44.8904 99.1148 44.6673Z" fill="black"/>
<path d="M76.7884 36.6902C71.1268 36.6046 65.5132 37.4032 60.1003 39.0656C59.7926 39.1602 59.9238 39.644 60.2335 39.5488C65.6055 37.8993 71.1696 37.1064 76.7884 37.1911C77.1118 37.1958 77.1114 36.6949 76.7884 36.6902Z" fill="black"/>
<path d="M63.5678 36.0519C61.8012 36.3763 60.1241 36.949 58.5245 37.7633C58.2362 37.9103 58.4902 38.3427 58.7775 38.1962C60.3405 37.4004 61.9767 36.852 63.701 36.5352C64.0182 36.4767 63.8836 35.9939 63.5678 36.0519Z" fill="black"/>
<path d="M34.6132 95.6643C29.159 98.4449 23.4574 100.678 17.567 102.344C17.2564 102.432 17.3886 102.916 17.7002 102.827C23.632 101.149 29.374 98.8968 34.8658 96.0971C35.1536 95.9501 34.9 95.5178 34.6132 95.6643Z" fill="black"/>
<path d="M99.4673 137.238C96.6695 133.004 94.5305 128.405 93.0998 123.535C93.0089 123.226 92.5252 123.357 92.6165 123.668C94.0592 128.578 96.2134 133.221 99.0344 137.491C99.2119 137.759 99.6461 137.508 99.4673 137.238Z" fill="black"/>
<path d="M137.213 55.758C132.307 59.5518 126.803 62.4713 120.914 64.4157C120.609 64.5166 120.74 65.0003 121.047 64.899C127.023 62.926 132.589 59.9613 137.568 56.1123C137.823 55.9145 137.465 55.563 137.213 55.758Z" fill="black"/>
<path d="M57.6055 36.2925C55.1079 31.3153 52.7615 26.2649 50.5697 21.146C50.4427 20.8497 50.0114 21.1051 50.1369 21.3986C52.3292 26.5184 54.6751 31.5684 57.1732 36.5455C57.3182 36.8343 57.7501 36.5803 57.6055 36.2925Z" fill="black"/>
<path d="M20.6905 47.9987L19.9581 46.1622C19.8401 45.8659 19.3554 45.9948 19.4753 46.2954C19.7193 46.9076 19.9633 47.5197 20.2073 48.1319C20.3257 48.4282 20.8104 48.2993 20.6905 47.9987Z" fill="black"/>
<path d="M21.6746 46.5033C21.4016 45.718 21.1286 44.9322 20.8556 44.1469C20.75 43.8435 20.2658 43.9738 20.3723 44.2801C20.6454 45.0654 20.9184 45.8512 21.1914 46.6365C21.297 46.9399 21.7807 46.8096 21.6746 46.5033Z" fill="black"/>
<path d="M22.5342 44.1289C22.3577 43.4212 22.1813 42.7139 22.0048 42.0066C21.9268 41.6931 21.4435 41.8258 21.5216 42.1398C21.698 42.8471 21.8745 43.5543 22.0514 44.2621C22.1294 44.5755 22.6127 44.4424 22.5342 44.1289Z" fill="black"/>
<path d="M28.4441 35.3251C28.2139 34.6097 28.0255 33.8843 27.8795 33.1466C27.8167 32.8298 27.3339 32.9645 27.3962 33.2798C27.5427 34.0175 27.7306 34.7429 27.9608 35.4583C28.0598 35.7646 28.5435 35.6338 28.4441 35.3251Z" fill="black"/>
<path d="M29.9296 33.803L29.4496 31.9822C29.3673 31.6702 28.8841 31.8029 28.9664 32.1154L29.4463 33.9362C29.5286 34.2487 30.0118 34.116 29.9296 33.803Z" fill="black"/>
<path d="M37.4809 100.343C37.3506 100.854 37.2198 101.364 37.0895 101.875C37.0095 102.188 37.4928 102.321 37.5727 102.008C37.703 101.498 37.8334 100.987 37.9642 100.477C38.0441 100.163 37.5608 100.031 37.4809 100.343Z" fill="black"/>
<path d="M38.5292 101.433C38.4426 102.101 38.3561 102.769 38.2695 103.436C38.2281 103.756 38.7294 103.752 38.7708 103.436C38.8574 102.769 38.944 102.101 39.0305 101.433C39.0719 101.113 38.5706 101.117 38.5292 101.433Z" fill="black"/>
<path d="M40.086 103.695V105.198C40.086 105.521 40.5869 105.521 40.5869 105.198V103.695C40.5869 103.372 40.086 103.372 40.086 103.695Z" fill="black"/>
<path d="M42.0904 105.699V107.202C42.0904 107.526 42.5913 107.526 42.5913 107.202V105.699C42.5913 105.376 42.0904 105.376 42.0904 105.699Z" fill="black"/>
<path d="M51.9011 136.438C51.8008 135.94 51.7004 135.442 51.6001 134.945C51.5358 134.628 51.0531 134.763 51.1168 135.078C51.2172 135.575 51.3175 136.073 51.4179 136.571C51.4816 136.887 51.9649 136.753 51.9011 136.438Z" fill="black"/>
<path d="M53.3147 134.951C53.2634 134.633 52.7806 134.768 52.8319 135.084C52.9394 135.748 53.0474 136.412 53.1549 137.076C53.2068 137.395 53.6895 137.259 53.6382 136.943L53.3147 134.951Z" fill="black"/>
<path d="M55.6136 137.448C55.3876 136.715 55.1617 135.982 54.9358 135.248C54.8406 134.94 54.3569 135.072 54.4525 135.381C54.6784 136.115 54.9044 136.848 55.1303 137.582C55.2254 137.889 55.7092 137.758 55.6136 137.448Z" fill="black"/>
<path d="M58.3642 138.953C58.0094 137.79 57.655 136.627 57.3002 135.465C57.2065 135.157 56.7227 135.288 56.8169 135.598L57.8809 139.087C57.9751 139.395 58.4589 139.263 58.3642 138.953Z" fill="black"/>
<path d="M130.429 112.808C130.097 112.388 129.765 111.969 129.433 111.549C129.232 111.296 128.88 111.653 129.079 111.904L130.074 113.162C130.274 113.415 130.626 113.058 130.429 112.808Z" fill="black"/>
<path d="M131.494 112.753C131.026 112.21 130.701 111.587 130.515 110.895C130.43 110.583 129.947 110.715 130.031 111.028C130.241 111.804 130.615 112.499 131.14 113.108C131.351 113.353 131.704 112.997 131.494 112.753Z" fill="black"/>
<path d="M131.99 110.085C131.822 109.752 131.654 109.418 131.487 109.084C131.342 108.795 130.909 109.049 131.054 109.337C131.222 109.671 131.389 110.005 131.557 110.338C131.702 110.627 132.134 110.373 131.99 110.085Z" fill="black"/>
<path d="M133.252 108.327C133.035 107.937 132.818 107.547 132.6 107.158C132.443 106.876 132.01 107.128 132.168 107.411C132.385 107.8 132.602 108.19 132.819 108.58C132.977 108.862 133.409 108.61 133.252 108.327Z" fill="black"/>
<path d="M134.502 107.076C134.18 106.484 133.858 105.893 133.536 105.302C133.381 105.018 132.949 105.271 133.104 105.555C133.425 106.146 133.747 106.737 134.069 107.329C134.224 107.613 134.656 107.36 134.502 107.076Z" fill="black"/>
<path d="M135.308 105.119C135.135 104.704 134.962 104.289 134.79 103.873C134.668 103.579 134.183 103.708 134.307 104.007C134.48 104.422 134.652 104.837 134.825 105.252C134.947 105.546 135.431 105.417 135.308 105.119Z" fill="black"/>
<path d="M136.249 102.486C136.092 102.31 135.936 102.134 135.779 101.958C135.563 101.716 135.21 102.072 135.424 102.312C135.581 102.488 135.738 102.664 135.895 102.84C136.11 103.082 136.463 102.727 136.249 102.486Z" fill="black"/>
<path d="M96.4141 18.3916L95.6858 16.8772C95.546 16.5861 95.1141 16.8401 95.2535 17.1302C95.4961 17.6349 95.7386 18.1395 95.9812 18.6447C96.1211 18.9358 96.5534 18.6813 96.4141 18.3916Z" fill="black"/>
<path d="M98.6896 19.1327C98.4337 18.6342 98.1778 18.1362 97.9219 17.6377C97.774 17.3504 97.3421 17.604 97.4891 17.8908C97.7449 18.3893 98.0009 18.8873 98.2568 19.3857C98.4047 19.673 98.837 19.4195 98.6896 19.1327Z" fill="black"/>
<path d="M101.183 20.3913C100.926 19.8937 100.668 19.3967 100.41 18.8991C100.262 18.6123 99.8292 18.8659 99.9776 19.1522C100.235 19.6493 100.493 20.1468 100.751 20.6443C100.899 20.9311 101.332 20.6776 101.183 20.3913Z" fill="black"/>
<path d="M103.965 22.4555C103.751 21.7511 103.475 21.0719 103.136 20.4183C102.987 20.1315 102.555 20.385 102.704 20.6714C103.022 21.2873 103.28 21.9252 103.482 22.5887C103.575 22.8979 104.059 22.7656 103.965 22.4555Z" fill="black"/>
<path d="M105.64 20.6024C105.426 20.3603 105.073 20.716 105.286 20.9567C105.925 21.6778 106.242 22.5639 106.224 23.5257C106.218 23.8491 106.719 23.8477 106.725 23.5257C106.746 22.4298 106.366 21.4214 105.64 20.6024Z" fill="black"/>
<path d="M109.524 23.4458C109.44 23.1119 109.355 22.7789 109.27 22.4446C109.19 22.1316 108.707 22.2643 108.787 22.5782C108.872 22.9117 108.956 23.2451 109.041 23.579C109.121 23.8924 109.604 23.7593 109.524 23.4458Z" fill="black"/>
<path d="M112.002 23.4543C111.943 23.1371 111.461 23.2717 111.519 23.5875C111.611 24.0869 111.703 24.5864 111.796 25.0858C111.854 25.4035 112.337 25.2684 112.278 24.9526C112.187 24.4537 112.094 23.9542 112.002 23.4543Z" fill="black"/>
<path d="M113.491 24.7781V25.5301C113.491 25.8526 113.992 25.8526 113.992 25.5301V24.7781C113.992 24.4547 113.491 24.4547 113.491 24.7781Z" fill="black"/>
<path d="M14.763 64.3924C14.5033 64.0657 14.2436 63.7389 13.9839 63.4121C13.7827 63.1591 13.4307 63.5163 13.6296 63.7665C13.8893 64.0932 14.149 64.4195 14.4087 64.7463C14.6099 64.9993 14.9619 64.6421 14.763 64.3924Z" fill="black"/>
<path d="M15.2163 62.5526C15.0874 61.9448 14.7055 61.4287 14.1685 61.1186C13.8883 60.9569 13.6358 61.3897 13.9155 61.5514C14.3473 61.8006 14.6299 62.1992 14.7331 62.6858C14.8002 63.0017 15.2834 62.8675 15.2163 62.5526Z" fill="black"/>
<path d="M16.0211 60.7151C15.7614 60.3032 15.5022 59.8913 15.2425 59.4794C15.0708 59.2068 14.637 59.458 14.8096 59.7324C15.0693 60.1443 15.329 60.5558 15.5887 60.9677C15.7605 61.2402 16.1938 60.9891 16.0211 60.7151Z" fill="black"/>
<path d="M16.8678 58.6461C16.6614 58.3384 16.4545 58.0311 16.2476 57.7238C16.0682 57.4574 15.634 57.7076 15.8152 57.9768L16.4355 58.8987C16.6148 59.1655 17.049 58.9148 16.8678 58.6461Z" fill="black"/>
<path d="M17.5556 56.7735C17.3919 56.0943 16.9834 55.5259 16.404 55.1387C16.1343 54.9589 15.8841 55.3932 16.151 55.5715C16.6243 55.8874 16.9396 56.3554 17.0728 56.9067C17.1484 57.2206 17.6317 57.0874 17.5556 56.7735Z" fill="black"/>
<path d="M17.9608 54.1688C17.626 53.8506 17.4039 53.4668 17.2945 53.0178C17.2183 52.7039 16.7351 52.837 16.8117 53.1509C16.9401 53.6789 17.2126 54.1489 17.6065 54.5232C17.8405 54.7458 18.1953 54.3919 17.9608 54.1688Z" fill="black"/>
<path d="M39.7189 58.8711C39.3888 58.6737 39.2418 58.2894 39.3478 57.9217C39.4373 57.6106 38.9535 57.4784 38.8646 57.7885C38.6967 58.3712 38.9469 58.9933 39.4658 59.3034C39.7441 59.4699 39.9957 59.0366 39.7189 58.8711Z" fill="black"/>
<path d="M41.0473 57.7262C40.6811 57.2115 40.4514 56.6479 40.3515 56.0238C40.3006 55.7056 39.8178 55.8412 39.8687 56.157C39.9743 56.8186 40.2264 57.4332 40.6145 57.9792C40.8 58.2403 41.2347 57.9902 41.0473 57.7262Z" fill="black"/>
<path d="M42.295 55.1439C42.1104 54.907 41.9254 54.6707 41.7408 54.4338C41.6566 54.3258 41.4745 54.3458 41.3865 54.4338C41.2813 54.5389 41.3028 54.6802 41.3865 54.7881C41.571 55.0245 41.756 55.2614 41.9406 55.4983C42.0248 55.6062 42.2075 55.5858 42.295 55.4983C42.4001 55.3927 42.3787 55.2514 42.295 55.1439Z" fill="black"/>
<path d="M43.8988 53.7579C43.8008 53.3436 43.7033 52.9293 43.6058 52.5151C43.5316 52.2007 43.0484 52.3343 43.1226 52.6482C43.2201 53.0625 43.3181 53.4768 43.4156 53.8911C43.4898 54.2055 43.973 54.0718 43.8988 53.7579Z" fill="black"/>
<path d="M103.72 46.8244V48.3279C103.72 48.6508 104.222 48.6508 104.222 48.3279V46.8244C104.222 46.5014 103.72 46.5014 103.72 46.8244Z" fill="black"/>
<path d="M105.474 47.8266V49.8309C105.474 50.1539 105.976 50.1539 105.976 49.8309V47.8266C105.976 47.5036 105.474 47.5036 105.474 47.8266Z" fill="black"/>
<path d="M106.977 49.0794V51.0837C106.977 51.4067 107.479 51.4067 107.479 51.0837V49.0794C107.479 48.7559 106.977 48.7559 106.977 49.0794Z" fill="black"/>
<path d="M108.793 51.0334C108.691 51.3621 108.59 51.6903 108.488 52.0185C108.392 52.3281 108.876 52.4594 108.971 52.1516C109.073 51.8234 109.175 51.4952 109.277 51.1666C109.373 50.8569 108.889 50.7257 108.793 51.0334Z" fill="black"/>
<path d="M109.984 52.8369V53.5889C109.984 53.9119 110.485 53.9119 110.485 53.5889V52.8369C110.485 52.514 109.984 52.514 109.984 52.8369Z" fill="black"/>
<path d="M130.907 85.6129C130.75 84.9066 130.421 84.2763 129.944 83.7336C129.73 83.4906 129.377 83.8463 129.59 84.088C130.011 84.567 130.286 85.1244 130.424 85.7461C130.494 86.0614 130.977 85.9278 130.907 85.6129Z" fill="black"/>
<path d="M131.715 83.2956C131.385 82.7914 131.056 82.2872 130.727 81.783C130.551 81.5138 130.117 81.7645 130.294 82.036C130.624 82.5402 130.953 83.0444 131.282 83.5486C131.458 83.8178 131.892 83.5672 131.715 83.2956Z" fill="black"/>
<path d="M131.719 81.0344C131.517 80.6339 131.316 80.2339 131.114 79.8339C130.969 79.5451 130.537 79.7987 130.682 80.0864C130.883 80.4869 131.085 80.8869 131.286 81.287C131.432 81.5757 131.864 81.3222 131.719 81.0344Z" fill="black"/>
<path d="M132.472 78.9543C132.139 78.5362 131.806 78.1177 131.473 77.6996C131.271 77.447 130.919 77.8042 131.118 78.0539C131.452 78.472 131.785 78.8906 132.118 79.3087C132.32 79.5612 132.672 79.204 132.472 78.9543Z" fill="black"/>
<path d="M132.527 76.2398C132.252 75.8398 131.976 75.4393 131.701 75.0388C131.519 74.7743 131.084 75.025 131.268 75.2918C131.543 75.6923 131.819 76.0924 132.094 76.4929C132.276 76.7573 132.711 76.5071 132.527 76.2398Z" fill="black"/>
<path d="M131.796 72.0151C131.499 71.8895 131.37 72.3747 131.663 72.4983C132.014 72.6467 132.274 72.9997 132.316 73.3778C132.352 73.6951 132.853 73.6984 132.817 73.3778C132.747 72.7528 132.374 72.2591 131.796 72.0151Z" fill="black"/>
<path d="M16.5638 98.5519C13.7528 89.9712 12.8376 80.8945 13.8755 71.9252C13.9126 71.6046 13.4108 71.6084 13.3742 71.9252C12.332 80.9354 13.2567 90.0659 16.0806 98.6851C16.1805 98.9905 16.6647 98.8596 16.5638 98.5519Z" fill="black"/>
<path d="M90.9313 16.6936C79.2856 14.9313 67.4348 16.783 56.2523 20.1781C55.9436 20.2714 56.0754 20.7551 56.3855 20.6614C67.4757 17.2943 79.2461 15.4288 90.7981 17.1768C91.1139 17.2244 91.25 16.7421 90.9313 16.6936Z" fill="black"/>
<path d="M139.017 61.627C138.929 61.3169 138.446 61.4486 138.534 61.7606C141.911 73.7065 141.52 86.5029 137.427 98.2228C137.32 98.5287 137.804 98.659 137.91 98.356C142.031 86.5571 142.417 73.6528 139.017 61.627Z" fill="black"/>
<path d="M95.2549 139.582C83.8784 142.447 71.9715 142.72 60.4761 140.373C60.1607 140.308 60.0266 140.791 60.3429 140.856C71.9268 143.221 83.9236 142.952 95.3886 140.065C95.7015 139.986 95.5684 139.503 95.2549 139.582Z" fill="black"/>
<path d="M97.5542 115.006C97.294 116.16 97.2293 117.32 97.3715 118.495C97.41 118.811 97.9114 118.815 97.8729 118.495C97.7359 117.364 97.7863 116.252 98.0369 115.139C98.1083 114.824 97.625 114.691 97.5542 115.006Z" fill="black"/>
<path d="M99.6042 114.364V117.371C99.6042 117.693 100.106 117.693 100.106 117.371V114.364C100.106 114.041 99.6042 114.041 99.6042 114.364Z" fill="black"/>
<path d="M101.859 112.861V115.492C101.859 115.815 102.36 115.815 102.36 115.492V112.861C102.36 112.538 101.859 112.538 101.859 112.861Z" fill="black"/>
<path d="M103.738 112.11V114.74C103.738 115.063 104.239 115.063 104.239 114.74V112.11C104.239 111.786 103.738 111.786 103.738 112.11Z" fill="black"/>
<path d="M105.617 110.982V113.237C105.617 113.56 106.118 113.56 106.118 113.237V110.982C106.118 110.659 105.617 110.659 105.617 110.982Z" fill="black"/>
<path d="M107.12 109.479V110.982C107.12 111.306 107.621 111.306 107.621 110.982V109.479C107.621 109.156 107.12 109.156 107.12 109.479Z" fill="black"/>
<path d="M109.066 107.455C108.925 107.164 108.493 107.418 108.633 107.708C108.882 108.22 108.995 108.763 108.986 109.332C108.982 109.655 109.482 109.654 109.488 109.332C109.498 108.673 109.353 108.047 109.066 107.455Z" fill="black"/>
</g>
<defs>
<clipPath id="clip0_609_280">
<rect width="150" height="154.11" fill="white"/>
</clipPath>
</defs>
</svg>
