<svg width="65" height="154" viewBox="0 0 65 154" fill="none" xmlns="http://www.w3.org/2000/svg">
<g clip-path="url(#clip0_609_362)">
<path d="M44.4626 141.544C41.1073 141.869 37.76 142.335 34.5204 143.237C31.3789 144.112 28.8508 145.646 26.0808 147.215C24.2632 148.245 22.4531 147.542 20.5265 147.303C18.822 147.092 17.0693 147.311 15.426 147.748C12.1872 148.609 9.73306 151.026 6.27505 151.278C6.18602 151.284 6.09532 151.289 6.00505 151.294C6.26714 146.782 6.52924 142.269 6.79134 137.757C20.9379 134.159 35.8941 133.892 50.1751 136.994L50.4621 141.256C48.496 140.964 46.2656 141.369 44.4626 141.544ZM48.6961 115.031L50.1072 135.986C35.8637 132.947 20.9633 133.204 6.85042 136.738C7.28558 129.241 7.72074 121.744 8.15632 114.247C21.5366 111.594 35.4444 111.867 48.6961 115.031ZM9.14896 97.1502C21.5528 93.6831 34.7891 93.4018 47.3452 96.3506C47.3777 96.3581 47.4085 96.361 47.4388 96.3635L48.6274 114.015C35.4073 110.909 21.5586 110.649 8.21415 113.247C8.52576 107.881 8.83736 102.516 9.14896 97.1502ZM10.7016 70.4106C16.5588 69.3231 22.4893 68.6876 28.458 68.5093C31.4318 68.4201 34.4126 68.4602 37.3835 68.6127C40.2582 68.7602 43.1334 69.1622 45.6903 70.471C45.6919 70.4718 45.6936 70.4722 45.6949 70.4731L47.371 95.3585C34.8278 92.4568 21.6073 92.7189 9.20846 96.1235C9.70644 87.5527 10.204 78.9814 10.7016 70.4106ZM11.6027 54.8885C11.7803 51.8301 11.9576 48.7714 12.1352 45.713C12.1365 45.6955 12.1335 45.6801 12.1331 45.6635C22.7069 44.2697 33.6093 43.4881 44.0216 46.1943C44.0399 46.2231 44.0653 46.2472 44.0911 46.271C44.0786 46.3168 44.0711 46.3664 44.0753 46.4226L45.6191 69.3481C40.6272 67.0622 34.3452 67.4127 28.9602 67.526C22.8504 67.6552 16.756 68.3164 10.7594 69.4147C11.0406 64.5727 11.3219 59.7306 11.6027 54.8885ZM10.2477 42.9751C16.0737 41.8039 22.0371 41.5605 27.9875 41.501C33.8015 41.443 40.0094 41.2055 45.3466 43.6947C44.9252 44.1776 44.5732 44.6972 44.2824 45.2551C33.6817 42.5022 22.6008 43.3106 11.839 44.7306C11.8556 44.6051 11.8145 44.4718 11.6834 44.3568C11.1825 43.9164 10.7037 43.4556 10.2477 42.9751ZM8.72378 42.3051C8.3556 41.8906 8.05356 41.453 7.81019 40.9701C10.8268 39.8114 14.0922 39.4935 17.3164 39.2189C20.8809 38.916 24.4604 38.7864 28.0387 38.7864C31.5653 38.7864 35.0949 38.9468 38.6066 39.2514C41.8416 39.5322 45.0775 40.0614 48.0828 41.246C47.5786 41.9435 46.9741 42.5293 46.2299 43.0293C40.7708 40.3343 34.4775 40.4851 28.4772 40.5264C21.8503 40.573 15.1901 40.8476 8.72378 42.3051ZM9.25672 35.9993C10.5722 35.7185 11.8927 35.4639 13.2177 35.236V38.6743C13.2177 38.6764 13.2181 38.6785 13.2181 38.681C11.8581 38.8718 10.5127 39.1255 9.19764 39.4968C9.21719 38.3305 9.23716 37.1651 9.25672 35.9993ZM14.2511 35.0651C16.095 34.768 17.9475 34.5268 19.8059 34.3351V37.8255C19.8059 37.9205 19.8317 37.9993 19.8725 38.0655C18.8499 38.1305 17.8281 38.2055 16.8076 38.2922C15.9535 38.3647 15.1002 38.4468 14.2511 38.5476V35.0651ZM27.8356 37.8185C25.4893 37.8147 23.1433 37.881 20.8015 38.0114C20.8243 37.9568 20.8393 37.8955 20.8393 37.8255V34.2343C23.0335 34.0322 25.2355 33.9047 27.4429 33.8539C27.5037 35.1818 27.6355 36.5018 27.8356 37.8185ZM28.8341 37.5743C28.6452 36.3335 28.5304 35.0872 28.4751 33.8355C29.1561 33.8276 29.8376 33.8251 30.5198 33.8322C32.0741 33.8485 33.6276 33.9122 35.1781 34.016V37.8255C35.1781 37.8755 35.1868 37.9201 35.1989 37.9626C33.0443 37.8614 30.8984 37.8376 28.8083 37.8201C28.8358 37.7468 28.8478 37.6651 28.8341 37.5743ZM32.9561 32.9268C26.7457 32.6597 20.5098 33.0797 14.3801 34.056V32.6251C23.1479 29.826 32.5214 30.8768 41.404 32.7022C41.389 32.748 41.3786 32.7968 41.3786 32.8522V33.6722C38.587 33.2889 35.773 33.048 32.9561 32.9268ZM41.3212 38.5289C39.6229 38.2743 37.8981 38.1164 36.1724 38.0143C36.1965 37.9593 36.2115 37.8972 36.2115 37.8255V34.0905C37.8973 34.2239 39.5788 34.4043 41.2525 34.6326C41.2092 35.9326 41.2301 37.2301 41.3212 38.5289ZM14.3768 29.761C18.9452 28.3497 23.7278 28.0085 28.5092 27.8539C32.9669 27.7097 37.8985 27.2793 41.889 29.516C41.9398 29.5443 41.9893 29.561 42.0388 29.5722C42.0184 30.3243 41.998 31.0768 41.9777 31.8289C32.9199 29.9472 23.3197 28.8235 14.3568 31.6097C14.3634 30.9935 14.3701 30.3772 14.3768 29.761ZM16.7094 15.8068C16.7373 15.8634 16.7689 15.9176 16.801 15.9714C16.8679 19.9047 17.0418 23.8347 17.3301 27.7597C17.3364 27.846 17.3634 27.9193 17.4025 27.9818C16.7369 28.1189 16.0754 28.2743 15.4172 28.4485C15.4214 28.4214 15.4251 28.3943 15.4247 28.3643C15.3877 26.113 15.3507 23.8622 15.3136 21.611C15.2953 20.4851 15.277 19.3597 15.2583 18.2343C15.2517 17.8147 15.2417 17.3955 15.2446 16.9764C15.2483 16.4339 16.1174 16.0376 16.7094 15.8068ZM19.3595 27.6268C19.0263 27.6793 18.6943 27.736 18.3623 27.796C18.3623 27.7835 18.3644 27.7726 18.3635 27.7597C18.1002 24.173 17.935 20.5822 17.8564 16.9884C18.2728 17.2397 18.7496 17.4247 19.2355 17.5693C19.221 17.6114 19.2102 17.6564 19.2077 17.7064C19.1336 19.298 19.1186 20.8876 19.1619 22.4801C19.1839 23.2755 19.2318 24.0705 19.2863 24.8647C19.2992 25.0568 19.3258 26.6668 19.6204 26.9601C19.6037 26.971 19.5871 26.9822 19.5704 26.9935C19.3666 27.1293 19.2439 27.4114 19.3595 27.6268ZM20.2124 22.9572C20.1375 21.2439 20.1595 19.528 20.2373 17.8151C21.6922 18.1139 23.2069 18.2605 24.7175 18.3218C23.8472 18.7043 23.0846 19.2739 22.535 20.0709C21.282 21.8885 21.8669 24.828 22.159 26.8189C22.2497 27.4368 23.2452 27.1726 23.1553 26.5609C22.9145 24.9172 22.711 23.1401 23.0501 21.4968C23.4486 19.5647 25.5438 18.8605 27.3809 18.678C29.4864 18.4689 31.1934 19.0847 32.0259 20.9976C32.7385 22.6347 32.8284 24.5589 32.8617 26.3026C32.8733 26.9276 33.9067 26.9289 33.8951 26.3026C33.8526 24.086 33.6671 21.6489 32.4856 19.678C32.0533 18.9576 31.4455 18.4789 30.7449 18.1697C32.1902 18.0239 33.6272 17.798 35.0458 17.5093C35.0812 19.1339 35.1373 20.758 35.2172 22.3814C35.2863 23.7926 35.1086 25.5039 35.7289 26.8164C35.7381 26.836 35.7497 26.851 35.7601 26.8676C33.5123 26.696 31.2088 26.8068 28.9868 26.8693C26.1536 26.9489 23.3089 27.0893 20.5057 27.4614C20.7016 26.0501 20.2748 24.3818 20.2124 22.9572ZM38.6361 15.2464C38.1519 15.8668 37.0868 16.0205 36.3571 16.2101C35.436 16.4501 34.5004 16.6384 33.5623 16.8097C31.5728 17.173 29.5497 17.338 27.5257 17.3851C25.5017 17.4326 23.4728 17.293 21.4704 17.0214C20.2802 16.8601 18.5695 16.646 17.8277 15.6647C17.8265 15.5714 17.8231 15.4784 17.8219 15.3855C17.8206 15.3172 17.8057 15.2576 17.7832 15.2043C24.6422 13.6189 31.7808 13.6305 38.6361 15.2464ZM28.7509 8.82385C32.4332 8.93219 35.4311 11.5759 37.8315 14.0664C31.3948 12.7072 24.7275 12.7139 18.2936 14.0872C21.1122 11.3055 24.4296 8.69677 28.7509 8.82385ZM27.7341 5.74636C28.7963 5.67927 29.9204 6.82177 29.0521 7.70761C29.003 7.75802 28.9701 7.81095 28.9473 7.8647C28.1556 7.78845 27.3851 7.81678 26.6367 7.93261C26.6429 7.81719 26.6075 7.69636 26.5081 7.58719C25.7301 6.72886 26.8476 5.80219 27.7341 5.74636ZM36.6213 26.3268C36.3309 25.7122 36.3958 24.878 36.3538 24.2176C36.3051 23.4526 36.2656 22.6876 36.2277 21.9222C36.1529 20.3914 36.1058 18.8597 36.0742 17.328C36.0742 17.3201 36.0721 17.3139 36.0717 17.3064C37.0519 17.1114 38.1548 16.8555 38.9315 16.3026C38.9178 19.9693 38.8562 23.636 38.7455 27.3014C37.9996 27.1318 37.2395 27.0135 36.4715 26.9322C36.6392 26.7939 36.7353 26.5672 36.6213 26.3268ZM39.9666 15.9843C42.0076 16.7993 41.3657 20.0068 41.3569 21.758C41.3461 23.868 41.2891 25.978 41.2034 28.0868C40.7346 27.8868 40.2565 27.7168 39.7715 27.571C39.8909 23.7097 39.9549 19.8472 39.9666 15.9843ZM42.2813 34.7814C43.7998 35.011 45.3104 35.2868 46.8123 35.5972C47.9763 35.838 47.6947 36.7914 47.6498 37.6576L47.5279 40.0068C45.8559 39.4251 44.1173 39.0051 42.3446 38.6951C42.3542 38.6526 42.36 38.608 42.3562 38.5568C42.2668 37.2985 42.2443 36.041 42.2813 34.7814ZM64.9274 152.324C63.9068 150.036 62.7707 147.692 60.6972 146.072C59.6534 145.256 58.4398 144.881 57.1239 144.659C56.1554 144.496 55.3429 144.27 54.5903 143.647C54.0341 143.186 53.5677 142.654 52.9807 142.223C52.5339 141.894 52.0384 141.659 51.5117 141.494L49.7149 114.818C49.7665 114.681 49.7619 114.528 49.687 114.404L45.1087 46.4226C45.1004 46.2989 45.0517 46.201 44.9814 46.1264C44.988 46.1135 44.998 46.1043 45.0038 46.0905C45.3217 45.3472 45.7831 44.6701 46.3551 44.0776C46.3759 44.056 46.3913 44.0339 46.4071 44.0114C46.4895 44.0093 46.5768 43.9843 46.6654 43.9264C47.7575 43.2135 48.6179 42.3531 49.2877 41.2735C49.4179 41.0635 49.3596 40.7185 49.1021 40.6097C48.9161 40.5318 48.7294 40.4551 48.5413 40.3814C48.5413 40.3793 48.5421 40.3781 48.5421 40.376C48.6216 38.8406 48.944 37.1372 48.694 35.6151C48.4968 34.4135 45.6 34.3618 44.7001 34.198C43.9401 34.0601 43.1766 33.9368 42.412 33.8218V32.9055C42.7161 32.9335 42.9865 32.7318 42.9944 32.4301C43.0248 31.3176 43.0552 30.2051 43.0851 29.0926C43.0959 28.6947 42.6828 28.5514 42.3754 28.6593C42.3105 28.623 42.2447 28.5889 42.1794 28.5539C42.2056 28.4989 42.2231 28.4364 42.2264 28.3647C42.3517 25.3768 42.4062 22.3876 42.3899 19.3976C42.3791 17.4609 42.1986 15.3993 39.8451 14.9305C39.8197 14.7784 39.7095 14.6639 39.5676 14.6018C39.5626 14.5001 39.5239 14.3964 39.4349 14.3014C36.8709 11.5584 33.9517 8.82761 30.0743 8.03469C30.9579 6.70677 29.8538 5.21136 28.3232 4.84844C28.1884 3.3901 28.1502 1.93219 28.2151 0.468438C28.2429 -0.157395 27.2095 -0.154895 27.1817 0.468438C27.1176 1.91552 27.1546 3.3576 27.2861 4.79969C25.7089 5.05802 24.656 6.82344 25.6607 8.13302C22.1585 9.03677 19.1731 11.7426 16.8084 14.1589C16.6911 14.2789 16.6553 14.4143 16.6724 14.5409C16.5946 14.6214 16.5534 14.7222 16.5492 14.8276C15.7721 15.1235 14.8506 15.4926 14.425 16.1747C13.92 16.9847 14.2262 18.3193 14.2407 19.1989C14.2911 22.2539 14.3414 25.3093 14.3913 28.3643C14.3938 28.5076 14.4512 28.6164 14.5361 28.6939C14.2985 28.7639 14.0614 28.8339 13.8251 28.9093C13.7278 28.9401 13.6541 28.9901 13.5984 29.0497C13.4553 29.1222 13.3488 29.2572 13.3467 29.456C13.3367 30.4001 13.3259 31.3443 13.3163 32.288C13.3151 32.3401 13.328 32.3905 13.3467 32.4393V34.1864C13.3467 34.2001 13.35 34.2122 13.3508 34.2251C11.762 34.4947 10.1807 34.8001 8.60938 35.1422C8.38389 35.191 8.23371 35.4005 8.22996 35.6101C8.20666 36.9951 8.18295 38.3805 8.15965 39.7655C8.15923 39.783 8.16257 39.7985 8.16381 39.8147C7.72823 39.961 7.29639 40.1206 6.86872 40.2968C6.67568 40.3768 6.55421 40.6618 6.63159 40.8447C7.0006 41.721 7.48902 42.4764 8.15757 43.1789C8.3011 43.3301 8.47417 43.3593 8.6281 43.3156C8.65431 43.3131 8.6801 43.311 8.70756 43.3047C8.84069 43.2739 8.97465 43.2468 9.10778 43.2168C9.68481 43.8597 10.2993 44.4685 10.9533 45.0431C11.0078 45.091 11.066 45.1235 11.1251 45.1451C11.1209 45.2439 11.1509 45.3476 11.2062 45.4397C11.148 45.5114 11.1089 45.6018 11.1022 45.713C10.6392 53.6876 10.1761 61.6622 9.7131 69.6368C9.44185 69.7943 9.46265 70.1585 9.67066 70.3672C8.27864 94.3423 6.88661 118.318 5.49417 142.293C5.31944 145.309 5.14429 148.326 4.96914 151.342C3.09037 151.421 1.12339 151.563 0.0758304 153.226C-0.264064 153.766 0.629148 154.254 0.96821 153.716C2.21671 151.734 5.71965 152.421 7.7923 152.067C10.6575 151.578 12.9564 149.519 15.701 148.684C17.2582 148.21 18.9081 148.131 20.5265 148.274C22.0629 148.409 23.4141 148.936 24.975 148.685C26.3608 148.463 27.5652 147.454 28.7014 146.754C30.0934 145.895 31.6173 145.234 33.172 144.684C36.0942 143.649 39.2107 143.125 42.2972 142.748C43.8781 142.555 45.466 142.416 47.0536 142.279C48.7327 142.134 50.4704 142.023 52.0131 142.777C53.1047 143.311 53.7866 144.411 54.8391 145.025C56.0377 145.724 57.6144 145.59 58.8933 146.133C61.5388 147.256 62.8801 150.226 63.9306 152.581C64.1843 153.149 65.1845 152.9 64.9274 152.324Z" fill="black"/>
<path d="M20.5754 82.1292C20.6074 80.4629 20.57 78.7838 20.3295 77.1304C20.2288 76.4396 19.9177 75.7867 19.3976 75.3546C20.8849 75.4783 20.8025 77.8658 20.9041 78.8583C21.0156 79.9421 21.0455 81.0317 21.0384 82.1196L20.5754 82.1292ZM18.6151 75.4567C19.7629 75.9212 19.8623 77.3292 19.9568 78.415C20.0649 79.6538 20.0824 80.8979 20.0587 82.14L17.3599 82.1962C17.1215 80.3608 16.3793 76.1858 18.6151 75.4567ZM21.6296 76.53C21.4108 75.1712 20.6436 74.4341 19.1621 74.3816C15.1001 74.2375 16.0698 80.0846 16.3456 82.3467C16.3556 82.4279 16.3827 82.4975 16.4214 82.5575C16.3406 82.8387 16.4983 83.1846 16.899 83.1763C18.4274 83.1446 19.9563 83.1125 21.4852 83.0808C21.7731 83.0746 21.9362 82.8892 21.9753 82.6825C22.0331 82.6096 22.0693 82.5162 22.071 82.4012C22.096 80.4304 21.9433 78.4783 21.6296 76.53Z" fill="black"/>
<path d="M23.6785 83.3304C21.0272 83.4533 18.1088 83.2679 15.5165 83.8321C14.8675 83.9733 15.1429 84.9092 15.7915 84.7679C17.0458 84.495 18.405 84.5454 19.6876 84.4858C21.018 84.4242 22.3481 84.3625 23.6785 84.3008C24.3417 84.27 24.345 83.2996 23.6785 83.3304Z" fill="black"/>
<path d="M31.0821 53.1004C31.1138 51.4337 31.0767 49.755 30.8359 48.1017C30.7352 47.4104 30.424 46.7579 29.904 46.3258C31.3917 46.4496 31.3089 48.8371 31.4108 49.8296C31.5219 50.9133 31.5523 52.0025 31.5448 53.0908L31.0821 53.1004ZM29.1218 46.4279C30.2696 46.8925 30.3687 48.3004 30.4635 49.3862C30.5717 50.625 30.5887 51.8692 30.565 53.1112L27.8663 53.1675C27.6279 51.3316 26.8861 47.1571 29.1218 46.4279ZM32.1359 47.5008C31.9171 46.1425 31.1504 45.4054 29.6689 45.3525C25.6068 45.2083 26.5762 51.0558 26.852 53.3179C26.862 53.3991 26.8894 53.4687 26.9277 53.5287C26.8474 53.81 27.0051 54.1558 27.4053 54.1475C28.9342 54.1154 30.4631 54.0837 31.9916 54.0516C32.2799 54.0458 32.4426 53.8604 32.4817 53.6533C32.5395 53.5808 32.5761 53.4875 32.5773 53.3725C32.6027 51.4016 32.4496 49.4496 32.1359 47.5008Z" fill="black"/>
<path d="M34.1853 54.3016C31.5336 54.4245 28.6151 54.2391 26.0233 54.8033C25.3739 54.9445 25.6493 55.8799 26.2979 55.7391C27.5522 55.4658 28.9118 55.5166 30.1939 55.457C31.5244 55.3954 32.8549 55.3337 34.1853 55.272C34.8485 55.2412 34.8514 54.2708 34.1853 54.3016Z" fill="black"/>
<path d="M20.317 105.983C20.3491 104.317 20.3116 102.638 20.0707 100.984C19.9705 100.293 19.6593 99.6404 19.1393 99.2084C20.6266 99.3321 20.5442 101.72 20.6457 102.712C20.7572 103.796 20.7871 104.885 20.7801 105.973L20.317 105.983ZM18.3567 99.3104C19.5045 99.775 19.604 101.183 19.6984 102.269C19.8066 103.508 19.824 104.752 19.8003 105.994L17.1016 106.05C16.8632 104.215 16.121 100.04 18.3567 99.3104ZM21.3712 100.384C21.1524 99.025 20.3853 98.2879 18.9038 98.235C14.8417 98.0913 15.8115 103.938 16.0873 106.2C16.0973 106.282 16.1243 106.351 16.163 106.411C16.0823 106.693 16.24 107.038 16.6406 107.03C18.1691 106.998 19.698 106.966 21.2269 106.935C21.5148 106.928 21.6778 106.743 21.717 106.536C21.7748 106.463 21.811 106.37 21.8126 106.255C21.8376 104.284 21.6849 102.332 21.3712 100.384Z" fill="black"/>
<path d="M23.4202 107.184C20.7688 107.307 17.8504 107.122 15.2581 107.686C14.6091 107.827 14.8845 108.763 15.5331 108.622C16.7874 108.349 18.1466 108.399 19.4292 108.34C20.7597 108.278 22.0897 108.216 23.4202 108.155C24.0833 108.124 24.0866 107.153 23.4202 107.184Z" fill="black"/>
<path d="M20.4032 126.36C20.4352 124.693 20.3977 123.015 20.1573 121.361C20.0566 120.67 19.7454 120.017 19.2254 119.585C20.7127 119.709 20.6303 122.097 20.7318 123.089C20.8433 124.173 20.8733 125.262 20.8662 126.35L20.4032 126.36ZM18.4428 119.688C19.5906 120.152 19.6901 121.56 19.7845 122.645C19.8927 123.884 19.9102 125.128 19.8864 126.37L17.1877 126.427C16.9493 124.591 16.2071 120.417 18.4428 119.688ZM21.4574 120.76C21.2385 119.402 20.4714 118.665 18.9899 118.612C14.9278 118.468 15.8976 124.315 16.1734 126.578C16.1834 126.658 16.2104 126.728 16.2491 126.788C16.1684 127.069 16.3261 127.415 16.7263 127.407C18.2552 127.375 19.7841 127.343 21.313 127.311C21.6009 127.305 21.764 127.12 21.8031 126.913C21.8609 126.84 21.8971 126.747 21.8988 126.632C21.9237 124.661 21.771 122.709 21.4574 120.76Z" fill="black"/>
<path d="M23.5063 127.561C20.8549 127.684 17.9365 127.499 15.3442 128.063C14.6952 128.204 14.9707 129.14 15.6192 128.998C16.8731 128.725 18.2327 128.776 19.5153 128.716C20.8458 128.655 22.1758 128.593 23.5063 128.531C24.1694 128.5 24.1727 127.53 23.5063 127.561Z" fill="black"/>
<path d="M43.0034 47.6425C42.9839 47.3925 42.5928 47.3908 42.6123 47.6425C43.1149 54.12 43.508 60.605 43.7914 67.0958C43.8026 67.3475 44.1937 67.3483 44.1824 67.0958C43.8991 60.605 43.506 54.12 43.0034 47.6425Z" fill="black"/>
<path d="M42.4913 56.6537C42.4755 56.4029 42.0844 56.4012 42.1002 56.6537C42.3024 59.8262 42.4501 63.0021 42.5433 66.18C42.5508 66.4317 42.9418 66.4325 42.9343 66.18C42.8411 63.0021 42.6935 59.8262 42.4913 56.6537Z" fill="black"/>
<path d="M41.752 60.5029C41.7487 60.2504 41.3576 60.25 41.3609 60.5029C41.3855 62.3516 41.4096 64.2008 41.4341 66.0496C41.4375 66.3021 41.8285 66.3025 41.8252 66.0496C41.8007 64.2008 41.7761 62.3516 41.752 60.5029Z" fill="black"/>
<path d="M40.9852 62.265C40.9807 62.0129 40.59 62.0125 40.5946 62.265C40.6175 63.5271 40.6549 64.7884 40.7073 66.0496C40.7177 66.3013 41.1088 66.3021 41.0984 66.0496C41.046 64.7884 41.0085 63.5271 40.9852 62.265Z" fill="black"/>
<path d="M39.661 66.0067C30.5334 65.6225 21.3925 66.1429 12.3663 67.5529C12.118 67.5917 12.2236 67.9692 12.4704 67.9304C21.4615 66.5262 30.5696 66.0158 39.661 66.3983C39.9132 66.4087 39.9123 66.0171 39.661 66.0067Z" fill="black"/>
<path d="M17.9632 125C17.9049 125.24 17.8467 125.481 17.7889 125.722C17.7294 125.968 18.1067 126.072 18.1658 125.827C18.224 125.585 18.2823 125.345 18.3401 125.103C18.3996 124.858 18.0223 124.754 17.9632 125Z" fill="black"/>
<path d="M18.9845 124.927C18.9109 125.149 18.8377 125.371 18.7644 125.593C18.6846 125.833 19.0623 125.935 19.1414 125.697C19.2146 125.475 19.2882 125.253 19.3614 125.031C19.4409 124.79 19.0636 124.688 18.9845 124.927Z" fill="black"/>
<path d="M17.9294 104.631C17.8932 104.893 17.857 105.155 17.8208 105.418C17.7867 105.665 18.1632 105.771 18.1978 105.522C18.234 105.26 18.2702 104.998 18.3068 104.735C18.3409 104.489 17.964 104.382 17.9294 104.631Z" fill="black"/>
<path d="M18.9354 104.688C18.9429 104.864 18.9154 105.022 18.8376 105.18C18.7266 105.405 19.0636 105.604 19.1755 105.377C19.2832 105.158 19.3369 104.933 19.3265 104.688C19.3157 104.437 18.9246 104.436 18.9354 104.688Z" fill="black"/>
<path d="M18.2365 80.6191C18.1886 80.945 18.1408 81.2708 18.093 81.5962C18.0563 81.8433 18.4333 81.9495 18.4699 81.7004C18.5177 81.375 18.5656 81.0491 18.6134 80.7233C18.65 80.4766 18.2731 80.3704 18.2365 80.6191Z" fill="black"/>
<path d="M19.1829 80.6125C19.1234 80.8692 19.1056 81.1254 19.1372 81.3871C19.1667 81.6346 19.5582 81.6375 19.5282 81.3871C19.5008 81.1596 19.5083 80.9404 19.5599 80.7167C19.6164 80.4708 19.2395 80.3667 19.1829 80.6125Z" fill="black"/>
<path d="M28.3888 52.0295L28.2806 52.4916C28.2232 52.7374 28.6002 52.8416 28.6576 52.5957L28.7657 52.1337C28.8236 51.8878 28.4462 51.7837 28.3888 52.0295Z" fill="black"/>
<path d="M29.111 52.0962C29.0636 52.2908 29.0158 52.4858 28.9683 52.6804C28.9084 52.9258 29.2858 53.03 29.3453 52.7846C29.3931 52.59 29.4405 52.395 29.488 52.2004C29.5479 51.955 29.1709 51.8508 29.111 52.0962Z" fill="black"/>
<path d="M30.0134 51.9512C29.8782 52.1004 29.8083 52.2712 29.8183 52.4741C29.8307 52.7253 30.2218 52.7266 30.2093 52.4741C30.2043 52.3753 30.2218 52.3029 30.29 52.2283C30.4594 52.042 30.184 51.7645 30.0134 51.9512Z" fill="black"/>
<path d="M24.4058 65.2699C24.3005 65.1578 24.1952 65.0462 24.09 64.9341C23.9169 64.7499 23.6411 65.0274 23.8137 65.2108C23.919 65.3229 24.0243 65.4349 24.1295 65.547C24.3026 65.7312 24.5788 65.4537 24.4058 65.2699Z" fill="black"/>
<path d="M25.6505 65.2638C25.4845 65.0825 25.3185 64.9013 25.1525 64.72C24.982 64.5338 24.7061 64.8113 24.8763 64.9971C25.0423 65.1784 25.2083 65.3596 25.3743 65.5404C25.5449 65.7271 25.8207 65.4496 25.6505 65.2638Z" fill="black"/>
<path d="M26.9036 65.2507C26.743 65.0624 26.5824 64.8736 26.4214 64.6853C26.2575 64.4928 25.9825 64.7712 26.1451 64.9624C26.3057 65.1507 26.4663 65.3391 26.6269 65.5274C26.7908 65.7199 27.0662 65.4416 26.9036 65.2507Z" fill="black"/>
<path d="M27.9399 65.1899C27.8754 65.1208 27.8105 65.0516 27.746 64.982C27.7244 64.9591 27.6308 64.8787 27.5726 64.8187C27.5855 64.7683 27.5863 64.7104 27.558 64.6729C27.4723 64.5604 27.3616 64.5158 27.2302 64.5866C27.1707 64.6187 27.1328 64.6887 27.1332 64.7554C27.1345 64.912 27.2219 64.9937 27.3238 65.1033C27.4369 65.2246 27.5501 65.3458 27.6633 65.467C27.8359 65.6516 28.1117 65.3741 27.9399 65.1899Z" fill="black"/>
<path d="M29.039 65.1516C28.893 64.9041 28.7004 64.7041 28.4616 64.5454C28.2511 64.4049 28.0556 64.7441 28.2644 64.8833C28.4475 65.0054 28.5897 65.1599 28.7012 65.3491C28.8294 65.5662 29.1676 65.3695 29.039 65.1516Z" fill="black"/>
<path d="M30.506 65.2353C30.2925 64.9495 30.0791 64.6641 29.8657 64.3783C29.7167 64.1783 29.3773 64.3733 29.5283 64.5758C29.7417 64.8616 29.9547 65.1474 30.1681 65.4333C30.3171 65.6329 30.657 65.4378 30.506 65.2353Z" fill="black"/>
<path d="M31.6059 65.2408C31.4216 64.9716 31.2373 64.7029 31.0534 64.4341C30.9116 64.2275 30.5725 64.4229 30.7156 64.6316C30.8999 64.9008 31.0838 65.1695 31.2681 65.4383C31.41 65.6449 31.749 65.4495 31.6059 65.2408Z" fill="black"/>
<path d="M32.8178 65.1333C32.6656 64.9379 32.5133 64.742 32.3606 64.5466C32.2059 64.3474 31.9313 64.627 32.0844 64.8233C32.2366 65.0191 32.3889 65.2145 32.5412 65.4104C32.6964 65.6091 32.9709 65.3299 32.8178 65.1333Z" fill="black"/>
<path d="M34.1 65.2283C33.9711 65.0529 33.8421 64.8779 33.7131 64.7029C33.5654 64.502 33.2255 64.6971 33.3757 64.9004C33.5043 65.0754 33.6332 65.2508 33.7622 65.4258C33.9103 65.6266 34.2498 65.4316 34.1 65.2283Z" fill="black"/>
<path d="M35.4454 65.2449C35.3356 65.1254 35.2545 64.9949 35.1879 64.847C35.0843 64.617 34.7473 64.8166 34.8501 65.0445C34.9304 65.2224 35.0373 65.3783 35.1688 65.522C35.3397 65.7083 35.6156 65.4308 35.4454 65.2449Z" fill="black"/>
<path d="M36.8021 65.2453C36.6028 64.7957 36.3432 64.3862 36.0295 64.0082C35.8685 63.8141 35.5935 64.0924 35.7533 64.2853C36.0449 64.637 36.2796 65.0253 36.4643 65.4428C36.5662 65.6732 36.9032 65.4741 36.8021 65.2453Z" fill="black"/>
<path d="M38.1368 65.2962C37.9608 65.0366 37.7848 64.777 37.6088 64.5174C37.4678 64.3099 37.1287 64.5058 37.271 64.7154C37.447 64.9749 37.623 65.2341 37.7994 65.4937C37.94 65.7012 38.279 65.5058 38.1368 65.2962Z" fill="black"/>
<path d="M39.1935 65.3458C39.0961 65.0871 38.9555 64.8625 38.7562 64.6696C38.5752 64.4942 38.2982 64.7708 38.48 64.9466C38.6289 65.0908 38.7433 65.255 38.8165 65.45C38.9043 65.6841 39.2825 65.5829 39.1935 65.3458Z" fill="black"/>
<path d="M44.5673 73.4887C44.5481 73.2387 44.1571 73.2366 44.1766 73.4887C44.6792 79.9662 45.0719 86.4512 45.3556 92.942C45.3665 93.1933 45.7575 93.1945 45.7463 92.942C45.463 86.4512 45.0698 79.9662 44.5673 73.4887Z" fill="black"/>
<path d="M44.0556 82.4995C44.0393 82.2487 43.6483 82.2474 43.6645 82.4995C43.8667 85.6724 44.0144 88.8478 44.1071 92.0258C44.1146 92.2778 44.5057 92.2787 44.4982 92.0258C44.405 88.8478 44.2577 85.6724 44.0556 82.4995Z" fill="black"/>
<path d="M43.3158 86.3488C43.3125 86.0967 42.9214 86.0963 42.9248 86.3488C42.9493 88.1979 42.9739 90.0467 42.9984 91.8958C43.0017 92.1479 43.3928 92.1483 43.389 91.8958C43.3649 90.0467 43.3404 88.1979 43.3158 86.3488Z" fill="black"/>
<path d="M42.5496 88.1112C42.545 87.8587 42.1539 87.8582 42.1585 88.1112C42.1814 89.3728 42.2192 90.6345 42.2712 91.8957C42.2816 92.147 42.6727 92.1482 42.6623 91.8957C42.6103 90.6345 42.5724 89.3728 42.5496 88.1112Z" fill="black"/>
<path d="M25.96 90.94C25.8573 90.8255 25.755 90.7109 25.6526 90.5963C25.4841 90.4079 25.2012 90.6784 25.3693 90.8663C25.4716 90.9809 25.574 91.0954 25.6767 91.21C25.8452 91.3983 26.1281 91.128 25.96 90.94Z" fill="black"/>
<path d="M27.2044 90.9646C27.043 90.7792 26.8815 90.5942 26.7201 90.4088C26.5537 90.2179 26.2712 90.4888 26.4368 90.6788C26.5982 90.8638 26.7596 91.0492 26.9211 91.2346C27.0871 91.425 27.3695 91.1546 27.2044 90.9646Z" fill="black"/>
<path d="M28.457 90.9829C28.3014 90.7904 28.1454 90.5979 27.9894 90.4054C27.83 90.2092 27.548 90.4808 27.7061 90.6754C27.8621 90.8679 28.0181 91.0604 28.1737 91.2529C28.333 91.4491 28.6151 91.1775 28.457 90.9829Z" fill="black"/>
<path d="M29.4946 90.9479C29.4318 90.8771 29.3689 90.8062 29.3057 90.7354C29.2849 90.7116 29.1934 90.6291 29.1368 90.5675C29.151 90.5175 29.153 90.4596 29.1256 90.4216C29.0428 90.3066 28.9334 90.2595 28.8002 90.3266C28.7399 90.3575 28.7004 90.4266 28.6992 90.4933C28.6967 90.65 28.7815 90.7337 28.8809 90.8458C28.9912 90.97 29.1014 91.0937 29.2113 91.2179C29.3793 91.4071 29.6622 91.1362 29.4946 90.9479Z" fill="black"/>
<path d="M30.5946 90.9367C30.4548 90.6854 30.2671 90.4813 30.0321 90.3163C29.8253 90.1709 29.6211 90.505 29.8266 90.6492C30.0067 90.7759 30.1452 90.9338 30.2522 91.1259C30.3745 91.3463 30.7173 91.1579 30.5946 90.9367Z" fill="black"/>
<path d="M32.0585 91.057C31.8526 90.7662 31.6463 90.475 31.4403 90.1841C31.296 89.9808 30.9519 90.167 31.0979 90.3733C31.3039 90.6641 31.5102 90.9554 31.7161 91.2462C31.8605 91.4496 32.2046 91.2633 32.0585 91.057Z" fill="black"/>
<path d="M33.1581 91.0895C32.9809 90.8162 32.8033 90.5429 32.626 90.2695C32.4892 90.0595 32.1455 90.2466 32.2832 90.4587C32.4609 90.732 32.6385 91.0054 32.8157 91.2787C32.9522 91.4891 33.2963 91.302 33.1581 91.0895Z" fill="black"/>
<path d="M34.3725 91.0124C34.2252 90.8132 34.0775 90.6141 33.9302 90.4145C33.7801 90.2116 33.4988 90.4841 33.6469 90.6845C33.7942 90.8837 33.9419 91.0833 34.0892 91.2824C34.2389 91.4853 34.5206 91.2128 34.3725 91.0124Z" fill="black"/>
<path d="M35.6518 91.1392C35.5274 90.9609 35.403 90.7825 35.2782 90.6046C35.1355 90.4 34.791 90.5863 34.9358 90.7938C35.0602 90.9721 35.185 91.15 35.3094 91.3283C35.4525 91.5329 35.7966 91.3463 35.6518 91.1392Z" fill="black"/>
<path d="M36.9964 91.1896C36.8899 91.0671 36.8117 90.935 36.7489 90.7854C36.6511 90.5529 36.3091 90.7437 36.4065 90.9746C36.4822 91.1546 36.5854 91.3129 36.7131 91.4596C36.8795 91.65 37.162 91.3796 36.9964 91.1896Z" fill="black"/>
<path d="M38.3526 91.2238C38.165 90.7692 37.9154 90.3534 37.6113 89.968C37.4548 89.7696 37.1732 90.0413 37.328 90.238C37.6109 90.5967 37.8359 90.9909 38.0102 91.4129C38.1063 91.6459 38.4483 91.4546 38.3526 91.2238Z" fill="black"/>
<path d="M39.686 91.3075C39.5163 91.0438 39.3465 90.78 39.1772 90.5163C39.0416 90.3054 38.6975 90.4925 38.8348 90.7054C39.0041 90.9692 39.1739 91.2329 39.3436 91.4967C39.4792 91.7079 39.8229 91.5204 39.686 91.3075Z" fill="black"/>
<path d="M40.741 91.3837C40.6499 91.1225 40.5151 90.8945 40.3209 90.6966C40.144 90.5166 39.8603 90.7862 40.0375 90.9666C40.1827 91.1145 40.293 91.2816 40.3616 91.4783C40.4436 91.7146 40.8242 91.6225 40.741 91.3837Z" fill="black"/>
<path d="M45.2982 93.2804C39.4892 92.4054 33.6266 91.995 27.7523 92.0554C24.6991 92.087 21.6483 92.265 18.6092 92.5566C16.0099 92.8058 13.4102 93.1641 11.0284 94.2962C10.8008 94.4045 10.9993 94.742 11.226 94.6345C13.7771 93.4216 16.5907 93.1333 19.3693 92.8766C22.1563 92.6191 24.9541 92.4858 27.7523 92.447C33.5862 92.3662 39.426 92.7891 45.1942 93.6583C45.4409 93.6954 45.547 93.3179 45.2982 93.2804Z" fill="black"/>
<path d="M47.6238 112.974C35.1821 110.176 22.3036 109.675 9.68175 111.489C9.43296 111.525 9.53946 111.902 9.78575 111.867C22.3344 110.063 35.1513 110.57 47.5202 113.352C47.7657 113.407 47.8701 113.03 47.6238 112.974Z" fill="black"/>
<path d="M31.4886 109.38L31.1953 109.086C31.0169 108.907 30.7402 109.184 30.9187 109.363L31.212 109.657C31.3904 109.835 31.6671 109.558 31.4886 109.38Z" fill="black"/>
<path d="M33.0217 109.727C32.7808 109.573 32.594 109.352 32.4896 109.085C32.3989 108.852 32.0207 108.953 32.1127 109.188C32.2558 109.556 32.4917 109.852 32.8245 110.065C33.0375 110.201 33.2335 109.862 33.0217 109.727Z" fill="black"/>
<path d="M34.5227 109.963C34.2519 109.68 33.981 109.396 33.7102 109.112C33.5355 108.929 33.2596 109.206 33.4335 109.389C33.7044 109.672 33.9756 109.956 34.2464 110.24C34.4208 110.423 34.697 110.146 34.5227 109.963Z" fill="black"/>
<path d="M35.7162 109.946C35.4433 109.63 35.1704 109.315 34.8975 108.999C34.7319 108.808 34.4565 109.086 34.6208 109.276C34.8938 109.592 35.1667 109.907 35.4396 110.223C35.6052 110.414 35.8802 110.136 35.7162 109.946Z" fill="black"/>
<path d="M37.3621 110.352C37.1183 110.038 36.8745 109.724 36.6307 109.41C36.476 109.211 36.2014 109.49 36.3541 109.687C36.5979 110.001 36.8417 110.315 37.0859 110.629C37.2402 110.828 37.5148 110.549 37.3621 110.352Z" fill="black"/>
<path d="M38.9633 110.583C38.7262 110.263 38.4891 109.944 38.2519 109.624C38.1034 109.424 37.7635 109.619 37.9141 109.822C38.1517 110.141 38.3888 110.461 38.6259 110.78C38.7745 110.981 39.1139 110.786 38.9633 110.583Z" fill="black"/>
<path d="M40.4606 110.56C40.3188 110.372 40.1773 110.185 40.0354 109.998C39.8857 109.799 39.5458 109.994 39.698 110.195C39.8395 110.383 39.9814 110.57 40.1228 110.757C40.273 110.955 40.6129 110.761 40.4606 110.56Z" fill="black"/>
<path d="M41.6796 110.793C41.5398 110.537 41.4009 110.281 41.2611 110.025C41.1404 109.803 40.803 110.001 40.9237 110.222C41.063 110.479 41.2024 110.735 41.3418 110.991C41.4624 111.212 41.8002 111.015 41.6796 110.793Z" fill="black"/>
<path d="M42.7563 111.086C42.6061 110.754 42.4555 110.422 42.3053 110.09C42.2009 109.86 41.8643 110.059 41.9675 110.287C42.1181 110.619 42.2683 110.951 42.4189 111.283C42.5229 111.513 42.8599 111.314 42.7563 111.086Z" fill="black"/>
<path d="M43.4644 109.225C43.444 108.975 43.0529 108.973 43.0737 109.225C43.1241 109.846 43.1748 110.467 43.2256 111.089C43.246 111.339 43.637 111.341 43.6167 111.089C43.5659 110.467 43.5151 109.846 43.4644 109.225Z" fill="black"/>
<path d="M44.8814 111.178C44.8685 111.102 44.7869 111.045 44.712 111.037C44.5619 110.598 44.643 109.475 44.6234 109.174C44.5735 108.408 44.524 107.642 44.4741 106.876C44.4579 106.625 44.0668 106.623 44.083 106.876C44.1471 107.861 44.2111 108.846 44.2752 109.831C44.3027 110.258 44.1504 111.157 44.5227 111.465C44.6109 111.538 44.7108 111.538 44.799 111.465C44.9017 111.38 44.9017 111.303 44.8814 111.178Z" fill="black"/>
<path d="M45.3918 103.254C45.3802 103.002 44.9891 103.002 45.0007 103.254C45.1247 105.933 45.2762 108.61 45.455 111.285C45.4721 111.536 45.8632 111.537 45.8461 111.285C45.6668 108.61 45.5154 105.933 45.3918 103.254Z" fill="black"/>
<path d="M46.6366 101.489C46.6291 101.237 46.2384 101.237 46.2455 101.489C46.347 104.982 46.449 108.475 46.5505 111.967C46.5575 112.219 46.9486 112.22 46.9415 111.967C46.8396 108.475 46.7381 104.982 46.6366 101.489Z" fill="black"/>
<path d="M49.2916 134.053C36.7992 131.492 23.9136 131.236 11.3284 133.29C11.0804 133.331 11.1936 133.706 11.4394 133.666C23.9515 131.623 36.7755 131.886 49.1951 134.432C49.4414 134.483 49.5388 134.103 49.2916 134.053Z" fill="black"/>
<path d="M33.0912 130.766L32.7925 130.478C32.6107 130.303 32.3394 130.585 32.5212 130.76L32.8199 131.048C33.0017 131.223 33.273 130.941 33.0912 130.766Z" fill="black"/>
<path d="M34.6304 131.083C34.3866 130.934 34.1957 130.718 34.0863 130.452C33.9914 130.221 33.6149 130.329 33.7114 130.563C33.8612 130.928 34.1029 131.219 34.4395 131.425C34.655 131.558 34.8447 131.215 34.6304 131.083Z" fill="black"/>
<path d="M36.1356 131.292C35.8594 131.013 35.5832 130.734 35.3069 130.455C35.1293 130.276 34.8584 130.559 35.0361 130.737C35.3123 131.016 35.5886 131.295 35.8648 131.574C36.0425 131.753 36.3133 131.471 36.1356 131.292Z" fill="black"/>
<path d="M37.3288 131.252C37.0496 130.941 36.7709 130.631 36.4922 130.321C36.3228 130.132 36.0528 130.416 36.2209 130.603C36.4996 130.913 36.7784 131.223 37.0575 131.534C37.2264 131.722 37.4964 131.438 37.3288 131.252Z" fill="black"/>
<path d="M38.9821 131.626C38.7321 131.317 38.4824 131.007 38.2328 130.698C38.0743 130.502 37.8052 130.787 37.9616 130.98C38.2112 131.29 38.4612 131.599 38.7108 131.908C38.8693 132.105 39.1385 131.82 38.9821 131.626Z" fill="black"/>
<path d="M40.5875 131.827C40.3442 131.512 40.1012 131.197 39.8578 130.882C39.7056 130.684 39.3694 130.886 39.5242 131.086C39.7671 131.401 40.0105 131.716 40.2535 132.031C40.4061 132.228 40.7419 132.027 40.5875 131.827Z" fill="black"/>
<path d="M42.0836 131.775C41.9388 131.59 41.7936 131.405 41.6484 131.221C41.4945 131.025 41.1583 131.226 41.3143 131.425C41.4595 131.61 41.6047 131.794 41.7499 131.978C41.9038 132.174 42.24 131.973 42.0836 131.775Z" fill="black"/>
<path d="M43.3067 131.985C43.1627 131.732 43.0184 131.478 42.874 131.225C42.7492 131.005 42.4156 131.209 42.5404 131.429C42.6847 131.682 42.8287 131.936 42.973 132.189C43.0978 132.409 43.4319 132.205 43.3067 131.985Z" fill="black"/>
<path d="M44.3892 132.257C44.2323 131.928 44.0759 131.599 43.9191 131.27C43.8105 131.042 43.4776 131.247 43.5854 131.474C43.7418 131.803 43.8987 132.132 44.0555 132.461C44.1637 132.689 44.4969 132.483 44.3892 132.257Z" fill="black"/>
<path d="M45.0619 130.383C45.0365 130.134 44.6455 130.139 44.6709 130.391C44.7333 131.011 44.7961 131.631 44.8585 132.251C44.8834 132.5 45.2745 132.495 45.2496 132.244C45.1867 131.623 45.1243 131.003 45.0619 130.383Z" fill="black"/>
<path d="M46.5155 132.309C46.5014 132.233 46.4186 132.177 46.3433 132.172C46.1852 131.735 46.2447 130.61 46.2197 130.31C46.1552 129.545 46.0912 128.78 46.0267 128.015C46.0059 127.765 45.6148 127.77 45.6356 128.023C45.7184 129.006 45.8012 129.99 45.8836 130.973C45.9198 131.4 45.7841 132.302 46.1623 132.603C46.2518 132.674 46.352 132.672 46.4386 132.598C46.5397 132.51 46.5384 132.434 46.5155 132.309Z" fill="black"/>
<path d="M46.8754 124.377C46.8591 124.125 46.4681 124.132 46.4843 124.384C46.659 127.06 46.8612 129.733 47.0913 132.405C47.1129 132.655 47.504 132.65 47.4824 132.398C47.2523 129.726 47.0501 127.053 46.8754 124.377Z" fill="black"/>
<path d="M48.0864 122.588C48.0744 122.337 47.6833 122.343 47.6958 122.596C47.8634 126.086 48.0315 129.576 48.1992 133.066C48.2112 133.318 48.6023 133.311 48.5902 133.059C48.4222 129.568 48.2545 126.078 48.0864 122.588Z" fill="black"/>
<path d="M14.2959 61.9533C14.0812 61.3066 13.8083 60.6858 13.4755 60.0908C13.3523 59.8708 13.0145 60.0679 13.1377 60.2887C13.4543 60.8542 13.7143 61.4421 13.919 62.0571C13.998 62.2958 14.3758 62.1933 14.2959 61.9533Z" fill="black"/>
<path d="M14.3553 59.9095C14.1452 59.4929 13.9347 59.0758 13.7246 58.6591C13.6111 58.4337 13.2737 58.632 13.3868 58.857C13.5973 59.2737 13.8074 59.6904 14.0175 60.107C14.1315 60.3324 14.4685 60.1341 14.3553 59.9095Z" fill="black"/>
<path d="M13.7501 56.8829C13.5674 56.7087 13.2899 56.9854 13.473 57.1596C13.6619 57.3392 13.7742 57.5642 13.7904 57.8258C13.8062 58.0767 14.1973 58.0783 14.1815 57.8258C14.159 57.4621 14.0147 57.135 13.7501 56.8829Z" fill="black"/>
<path d="M14.1627 55.95C14.0666 55.6925 13.9701 55.435 13.8736 55.1775C13.7858 54.9433 13.4076 55.0445 13.4963 55.2816C13.5928 55.5391 13.6893 55.7962 13.7858 56.0537C13.8736 56.2879 14.2518 56.1866 14.1627 55.95Z" fill="black"/>
<path d="M14.2942 53.9341C14.1286 53.6682 13.963 53.402 13.7975 53.1357C13.6648 52.922 13.3257 53.1182 13.4601 53.3332C13.6252 53.5995 13.7908 53.8657 13.9564 54.132C14.0895 54.3457 14.4277 54.1491 14.2942 53.9341Z" fill="black"/>
<path d="M14.1536 51.5908C14.0167 51.3774 13.8799 51.1641 13.743 50.9508C13.6074 50.7391 13.2683 50.9354 13.4056 51.1483C13.5425 51.3616 13.6789 51.5754 13.8162 51.7887C13.9518 52.0004 14.2905 51.8041 14.1536 51.5908Z" fill="black"/>
<path d="M14.152 49.5032C14.1008 49.4224 14.0513 49.3407 14.003 49.2578C13.9835 49.2236 13.9647 49.1891 13.9469 49.1541C13.8973 49.0599 13.9431 49.0732 13.8911 49.1791C14.0018 48.9532 13.6648 48.7545 13.5537 48.9811C13.4418 49.2099 13.7006 49.5203 13.8146 49.7011C13.9485 49.9141 14.2872 49.7174 14.152 49.5032Z" fill="black"/>
<path d="M25.4787 79.0113C25.2985 78.6667 25.118 78.3217 24.9378 77.9771C24.8209 77.7534 24.4835 77.9513 24.6004 78.1746C24.7806 78.5196 24.9607 78.8642 25.1409 79.2088C25.2578 79.4325 25.5951 79.2346 25.4787 79.0113Z" fill="black"/>
<path d="M26.2242 78.7675C25.757 77.805 25.2902 76.8421 24.823 75.8796C24.7128 75.6525 24.3758 75.8512 24.4856 76.0775C24.9524 77.04 25.4192 78.0025 25.8864 78.965C25.9967 79.1921 26.3336 78.9937 26.2242 78.7675Z" fill="black"/>
<path d="M26.2783 75.9212C26.1597 75.3779 25.8773 74.8945 25.4612 74.5258C25.2736 74.3587 24.9957 74.635 25.185 74.8025C25.5548 75.1308 25.7957 75.542 25.9014 76.0254C25.9551 76.272 26.332 76.1675 26.2783 75.9212Z" fill="black"/>
<path d="M26.7626 74.325L26.2741 73.5212C26.1435 73.3058 25.8053 73.5025 25.9367 73.7191C26.0994 73.9866 26.2621 74.2545 26.4247 74.5225C26.5558 74.7379 26.894 74.5412 26.7626 74.325Z" fill="black"/>
<path d="M26.9215 72.7408C26.7904 72.5237 26.6598 72.3062 26.5292 72.0891C26.3989 71.8733 26.0607 72.0699 26.1913 72.2866C26.322 72.5041 26.453 72.7212 26.5837 72.9387C26.7135 73.1545 27.0517 72.9578 26.9215 72.7408Z" fill="black"/>
<path d="M10.5437 108.809C10.4343 108.337 10.1631 107.945 9.77533 107.66C9.57189 107.51 9.37719 107.85 9.57813 107.998C9.88308 108.223 10.0815 108.546 10.1664 108.913C10.2234 109.159 10.6003 109.055 10.5437 108.809Z" fill="black"/>
<path d="M10.9269 107.965C10.6298 107.438 10.3328 106.913 10.0358 106.386C9.91178 106.166 9.57396 106.364 9.69836 106.584C9.9954 107.11 10.292 107.636 10.5891 108.163C10.713 108.382 11.0509 108.185 10.9269 107.965Z" fill="black"/>
<path d="M10.9935 105.654C10.6993 105.212 10.4048 104.771 10.1102 104.329C9.97128 104.12 9.63221 104.316 9.77283 104.527C10.067 104.969 10.3615 105.41 10.6561 105.852C10.795 106.061 11.1341 105.865 10.9935 105.654Z" fill="black"/>
<path d="M10.8869 103.093L10.4039 102.538C10.2379 102.347 9.96254 102.625 10.1273 102.815L10.6103 103.37C10.7763 103.561 11.0513 103.283 10.8869 103.093Z" fill="black"/>
<path d="M10.8636 101.47C10.7584 101.241 10.6536 101.012 10.5483 100.783C10.4435 100.554 10.1065 100.753 10.2109 100.981C10.3157 101.21 10.421 101.439 10.5258 101.668C10.6307 101.898 10.9677 101.698 10.8636 101.47Z" fill="black"/>
<path d="M10.4817 99.2487C10.4368 99.1625 10.3915 99.0762 10.3461 98.9904C10.2288 98.7667 9.8914 98.9646 10.0087 99.1879L10.1444 99.4462C10.2617 99.6696 10.5991 99.4717 10.4817 99.2487Z" fill="black"/>
<path d="M7.99306 150.033C7.78505 149.63 7.5217 149.264 7.20968 148.936C7.03537 148.753 6.75912 149.03 6.93302 149.213C7.22341 149.518 7.46221 149.857 7.65525 150.23C7.77132 150.455 8.10872 150.257 7.99306 150.033Z" fill="black"/>
<path d="M9.27193 149.348C8.8376 148.89 8.40326 148.431 7.96893 147.972C7.70517 147.693 7.3582 147.104 6.94009 147.095C6.85439 147.093 6.77326 147.156 6.75163 147.238C6.7196 147.363 6.74165 147.429 6.8286 147.521C6.88518 147.581 6.98669 147.596 7.05825 147.555C7.16392 147.65 7.28415 147.818 7.3374 147.874C7.5346 148.082 7.73221 148.291 7.92941 148.499C8.28469 148.875 8.63998 149.25 8.99527 149.625C9.16917 149.809 9.445 149.531 9.27193 149.348Z" fill="black"/>
<path d="M10.6319 148.647C9.64719 147.452 8.66287 146.258 7.67813 145.063C7.51754 144.868 7.24255 145.147 7.40189 145.34C8.38621 146.535 9.37094 147.729 10.3553 148.923C10.5163 149.118 10.7913 148.84 10.6319 148.647Z" fill="black"/>
<path d="M11.1295 147.883C10.7413 147.445 10.3532 147.008 9.96504 146.57C9.79696 146.381 9.52155 146.659 9.68837 146.847C10.0765 147.285 10.4647 147.722 10.8528 148.16C11.0205 148.349 11.2959 148.071 11.1295 147.883Z" fill="black"/>
<path d="M12.244 147.64C11.925 147.077 11.5364 146.562 11.0837 146.1C10.9069 145.92 10.6303 146.197 10.8071 146.377C11.2381 146.817 11.6025 147.302 11.9062 147.838C12.0306 148.057 12.3684 147.86 12.244 147.64Z" fill="black"/>
<path d="M13.2238 147.223C12.8631 146.798 12.5028 146.375 12.1421 145.95C11.9782 145.758 11.7028 146.036 11.8655 146.228C12.2262 146.651 12.5869 147.075 12.9475 147.499C13.1115 147.692 13.3865 147.413 13.2238 147.223Z" fill="black"/>
<path d="M14.1182 146.952C13.9119 146.455 13.6252 146.013 13.2446 145.633C13.0657 145.454 12.7894 145.73 12.9679 145.909C13.2978 146.24 13.562 146.623 13.7413 147.055C13.8366 147.285 14.2152 147.185 14.1182 146.952Z" fill="black"/>
<path d="M15.2923 146.323C15.0348 146.016 14.7773 145.709 14.5202 145.401C14.3579 145.208 14.0825 145.486 14.2435 145.678C14.501 145.985 14.7585 146.293 15.0156 146.6C15.1779 146.794 15.4533 146.515 15.2923 146.323Z" fill="black"/>
<path d="M26.6203 150.103C26.1223 150.54 25.4146 150.474 24.8006 150.414C24.5497 150.389 24.5522 150.781 24.8006 150.805C25.5378 150.878 26.3082 150.897 26.8969 150.38C27.087 150.213 26.8091 149.937 26.6203 150.103Z" fill="black"/>
<path d="M54.1696 146.961C53.32 146.414 52.3569 146.337 51.3755 146.337C49.8537 146.338 48.7666 145.351 47.3954 144.838C42.2179 142.899 36.8212 145.937 32.4758 148.483C32.2582 148.61 32.455 148.948 32.673 148.821C36.8254 146.388 41.3984 143.831 46.3782 144.945C47.5073 145.198 48.4658 145.755 49.4581 146.32C50.3529 146.83 51.3655 146.695 52.3503 146.751C54.6933 146.885 56.3429 149.376 56.0874 151.572C56.0583 151.823 56.4494 151.82 56.4785 151.572C56.6969 149.692 55.7317 147.968 54.1696 146.961Z" fill="black"/>
<path d="M54.4221 149.342C54.2636 149.062 54.056 148.81 53.838 148.575C53.6828 148.408 53.1607 148.493 52.9531 148.483C52.701 148.471 52.7022 148.863 52.9531 148.875C53.1245 148.883 53.5355 148.824 53.6657 148.964C53.8276 149.138 53.9595 149.338 54.0847 149.539C54.3609 149.986 54.5211 150.502 54.5889 151.02C54.6214 151.267 55.0128 151.27 54.98 151.02C54.9013 150.42 54.7212 149.869 54.4221 149.342Z" fill="black"/>
<path d="M56.5912 147.109C56.3849 146.963 56.1898 147.303 56.394 147.447C56.6699 147.642 56.8429 147.951 56.8679 148.287C56.8862 148.538 57.2773 148.539 57.259 148.287C57.2232 147.803 56.9873 147.389 56.5912 147.109Z" fill="black"/>
<path d="M41.9754 150.932C41.653 150.495 41.2178 150.186 40.692 150.043C40.4482 149.977 40.345 150.355 40.588 150.421C41.0098 150.535 41.3772 150.776 41.6376 151.13C41.7857 151.33 42.1252 151.135 41.9754 150.932Z" fill="black"/>
<path d="M43.0841 149.875C42.8237 149.745 42.5632 149.613 42.3028 149.483C42.0781 149.369 41.8801 149.707 42.1052 149.82C42.3656 149.952 42.6261 150.083 42.8865 150.214C43.1111 150.327 43.3092 149.989 43.0841 149.875Z" fill="black"/>
<path d="M43.8812 149.542C43.5288 149.201 43.1349 148.913 42.7022 148.683C42.4796 148.565 42.2824 148.903 42.505 149.021C42.9094 149.236 43.2751 149.5 43.605 149.819C43.7864 149.994 44.063 149.718 43.8812 149.542Z" fill="black"/>
<path d="M45.2333 149.096L44.0892 148.272C43.8841 148.124 43.6894 148.464 43.892 148.61L45.0357 149.434C45.2408 149.582 45.4359 149.242 45.2333 149.096Z" fill="black"/>
<path d="M46.5858 147.76L45.6248 147.331C45.3964 147.229 45.1975 147.567 45.4276 147.669C45.7479 147.812 46.0683 147.955 46.3886 148.098C46.6166 148.2 46.8159 147.862 46.5858 147.76Z" fill="black"/>
<path d="M49.9565 151.183C49.7464 151.083 49.5363 150.983 49.3262 150.883C49.0999 150.775 48.9014 151.113 49.129 151.221L49.7589 151.521C49.9856 151.629 50.184 151.292 49.9565 151.183Z" fill="black"/>
<path d="M9.65634 153.674C9.40173 153.47 9.14671 153.268 8.89168 153.065C8.69657 152.909 8.41783 153.184 8.61502 153.342C8.87005 153.545 9.12507 153.748 9.3801 153.95C9.57522 154.106 9.85395 153.831 9.65634 153.674Z" fill="black"/>
<path d="M11.8143 153.186C11.486 152.994 11.1586 152.802 10.8308 152.609C10.6128 152.481 10.416 152.82 10.6336 152.948C10.9614 153.14 11.2888 153.332 11.6167 153.524C11.8355 153.652 12.0319 153.313 11.8143 153.186Z" fill="black"/>
<path d="M15.742 153.433C15.1104 152.835 14.3762 152.22 13.577 151.863C13.1547 151.673 12.856 152.222 13.317 152.39C13.406 152.423 13.4871 152.367 13.5374 152.3C13.5408 152.296 13.5441 152.292 13.547 152.288C13.7671 152.469 14.3208 152.769 14.4157 152.836C14.7889 153.098 15.1346 153.396 15.4653 153.71C15.6484 153.883 15.9254 153.606 15.742 153.433Z" fill="black"/>
<path d="M17.1727 151.224C16.9027 150.973 16.6332 150.722 16.3631 150.47C16.1788 150.299 15.9018 150.575 16.0869 150.747C16.3565 150.999 16.6265 151.25 16.8961 151.501C17.0804 151.673 17.3574 151.396 17.1727 151.224Z" fill="black"/>
<path d="M18.4387 150.733C18.1787 150.407 17.9191 150.08 17.6591 149.753C17.5018 149.555 17.2272 149.834 17.3824 150.03C17.6424 150.356 17.9024 150.683 18.162 151.01C18.3193 151.208 18.5939 150.929 18.4387 150.733Z" fill="black"/>
<path d="M19.9352 149.987C19.7671 149.556 19.4284 149.237 18.9787 149.117C18.7345 149.051 18.6313 149.429 18.8747 149.494C19.1838 149.577 19.4405 149.79 19.5582 150.091C19.6489 150.324 20.0271 150.223 19.9352 149.987Z" fill="black"/>
<path d="M35.4846 12.8108C33.8979 11.0753 31.9766 9.59868 29.5599 9.4116C29.3082 9.39202 29.3103 9.78368 29.5599 9.80327C31.8693 9.9816 33.6977 11.4358 35.2083 13.0874C35.3789 13.2741 35.6547 12.9962 35.4846 12.8108Z" fill="black"/>
<path d="M31.1866 21.1366C30.3965 19.8878 29.1301 19.5236 27.746 19.3399C27.4964 19.3066 27.4997 19.6987 27.746 19.7316C29.1414 19.917 30.2168 20.3349 30.996 21.567C31.4749 22.3241 31.6742 23.2128 31.7744 24.1107C31.692 24.0324 31.5435 24.0136 31.4632 24.1382C31.2748 24.4316 31.3717 24.7987 31.6475 24.9937C31.7216 25.0462 31.7931 25.0345 31.8464 24.9937C31.8614 25.2391 31.8747 25.4832 31.8876 25.7216C31.9009 25.9728 32.292 25.9741 32.2782 25.7216C32.1925 24.1203 32.0631 22.5228 31.1866 21.1366Z" fill="black"/>
<path d="M29.4842 25.1732C29.3885 24.9115 29.2924 24.6499 29.1967 24.3878C29.1106 24.1528 28.7324 24.2545 28.8198 24.492C28.9155 24.754 29.0111 25.0157 29.1072 25.2774C29.1934 25.5124 29.5711 25.4107 29.4842 25.1732Z" fill="black"/>
<path d="M30.233 25.2799C30.1378 24.9203 30.0425 24.5607 29.9472 24.2011C29.8823 23.957 29.5054 24.0607 29.5699 24.3053C29.6652 24.6649 29.7608 25.0245 29.8561 25.3841C29.9206 25.6278 30.2979 25.5241 30.233 25.2799Z" fill="black"/>
<path d="M31.2552 25.0716C31.1533 24.7466 31.051 24.4216 30.9486 24.097C30.8733 23.857 30.496 23.9595 30.5717 24.2007C30.674 24.5257 30.776 24.8507 30.8783 25.1757C30.9536 25.4157 31.3314 25.3132 31.2552 25.0716Z" fill="black"/>
<path d="M36.7235 42.8295C36.6286 42.6966 36.5342 42.5637 36.4397 42.4307C36.2945 42.227 35.9555 42.4228 36.1019 42.6286C36.1968 42.7616 36.2912 42.8941 36.3856 43.027C36.5308 43.2307 36.8699 43.0357 36.7235 42.8295Z" fill="black"/>
<path d="M37.9965 42.9249C37.8293 42.6995 37.6624 42.4741 37.4956 42.2487C37.3471 42.0487 37.0076 42.2433 37.1578 42.4462C37.3251 42.6716 37.4919 42.897 37.6587 43.1224C37.8072 43.3229 38.1467 43.1283 37.9965 42.9249Z" fill="black"/>
<path d="M39.0582 43.2317C38.8885 42.9 38.6725 42.5991 38.4158 42.3296C38.2419 42.1466 37.9657 42.4242 38.1396 42.6067C38.3742 42.8529 38.5656 43.1262 38.7208 43.4292C38.836 43.6537 39.1734 43.4558 39.0582 43.2317Z" fill="black"/>
<path d="M40.2206 43.4324C39.9589 43.0741 39.6973 42.7157 39.4356 42.3578C39.2883 42.1562 38.9488 42.3512 39.0982 42.5553C39.3599 42.9137 39.6215 43.2716 39.8832 43.6299C40.0305 43.8316 40.37 43.6366 40.2206 43.4324Z" fill="black"/>
<path d="M41.5931 43.9191C41.2732 43.4583 40.9532 42.997 40.6333 42.5362C40.4906 42.3308 40.1516 42.5258 40.2959 42.7337C40.6158 43.1949 40.9358 43.6558 41.2553 44.117C41.3984 44.3229 41.7374 44.127 41.5931 43.9191Z" fill="black"/>
<path d="M42.5733 44.2678C42.4081 43.8212 42.1859 43.4078 41.896 43.0303C41.7441 42.8332 41.4042 43.0278 41.5581 43.2278C41.8269 43.5774 42.0432 43.9578 42.1959 44.3716C42.2829 44.6066 42.6606 44.5049 42.5733 44.2678Z" fill="black"/>
<path d="M43.5622 44.2637C43.4773 43.9616 43.3421 43.6828 43.1515 43.4337C43.0005 43.2358 42.6606 43.4303 42.8141 43.6312C42.9851 43.8553 43.1087 44.0957 43.1852 44.3674C43.2535 44.6103 43.6308 44.507 43.5622 44.2637Z" fill="black"/>
<path d="M44.2889 44.1819C44.2378 44.1194 44.2353 44.0536 44.2556 43.979C44.3218 43.7349 43.9445 43.6315 43.8787 43.8749C43.8197 44.0928 43.8721 44.2865 44.0123 44.4586C44.172 44.6544 44.447 44.3757 44.2889 44.1819Z" fill="black"/>
<path d="M40.5022 40.4061C40.404 40.2757 40.3059 40.1457 40.2077 40.0161C40.0575 39.817 39.7176 40.0115 39.8699 40.2136C39.968 40.3432 40.0666 40.4741 40.1648 40.6036C40.3146 40.8028 40.6545 40.6074 40.5022 40.4061Z" fill="black"/>
<path d="M41.3193 40.0382C41.115 39.8903 40.9199 40.2299 41.1221 40.3765C41.2482 40.4678 41.306 40.5949 41.3297 40.7453C41.3692 40.994 41.7457 40.8878 41.707 40.6411C41.6667 40.3861 41.5257 40.1878 41.3193 40.0382Z" fill="black"/>
<path d="M43.092 40.8325C42.9851 40.4225 42.7396 40.0858 42.3918 39.847C42.183 39.7041 41.9879 40.0437 42.1946 40.1854C42.4584 40.3666 42.6344 40.6283 42.7151 40.9366C42.7787 41.1808 43.1561 41.0775 43.092 40.8325Z" fill="black"/>
<path d="M44.4158 41.725C44.2411 41.095 43.9573 40.5133 43.5638 39.9912C43.4136 39.7916 43.0741 39.987 43.226 40.1887C43.6004 40.685 43.8725 41.2291 44.0389 41.8291C44.1063 42.0725 44.4836 41.9687 44.4158 41.725Z" fill="black"/>
<path d="M45.624 42.0487C45.3606 41.5279 45.0969 41.0071 44.8331 40.4871C44.7191 40.2612 44.3817 40.46 44.4957 40.6846C44.7591 41.2046 45.0228 41.7254 45.2866 42.2462C45.4006 42.4712 45.738 42.2733 45.624 42.0487Z" fill="black"/>
<path d="M46.4818 41.8625C46.3083 41.6058 46.1831 41.3329 46.1036 41.0329C46.0392 40.7891 45.6618 40.8929 45.7267 41.137C45.8141 41.467 45.953 41.777 46.144 42.0604C46.2842 42.2683 46.6228 42.0725 46.4818 41.8625Z" fill="black"/>
<path d="M47.2772 41.7178L47.1582 41.3328C47.0838 41.0924 46.7064 41.1949 46.7813 41.437C46.8208 41.5658 46.8608 41.6937 46.9003 41.822C46.9748 42.0624 47.3521 41.9599 47.2772 41.7178Z" fill="black"/>
<path d="M32.817 28.9887C32.7059 28.6441 32.3972 28.412 32.0319 28.4204C31.7802 28.4262 31.7798 28.8179 32.0319 28.8121C32.2196 28.8079 32.3814 28.9108 32.4401 29.0929C32.517 29.3325 32.8948 29.23 32.817 28.9887Z" fill="black"/>
<path d="M34.3342 29.5454C34.0118 29.0862 33.689 28.6271 33.3661 28.1683C33.2222 27.9633 32.8831 28.1587 33.0283 28.3658C33.3512 28.825 33.674 29.2837 33.9968 29.7429C34.1408 29.9475 34.4798 29.7525 34.3342 29.5454Z" fill="black"/>
<path d="M35.7491 30.0049C35.3551 29.3537 34.9616 28.7028 34.5676 28.052C34.4374 27.8362 34.0992 28.0328 34.2302 28.2495C34.6238 28.9003 35.0177 29.5516 35.4113 30.2024C35.5415 30.4183 35.8798 30.2216 35.7491 30.0049Z" fill="black"/>
<path d="M37.0068 30.0125C36.8496 29.7254 36.6923 29.4379 36.535 29.1508C36.4173 28.9354 36.2987 28.5512 36.0749 28.4204C35.7583 28.2345 35.4634 28.6762 35.7729 28.877C35.8361 28.9179 35.896 28.9141 35.9459 28.8887C35.9709 28.9341 35.9959 28.98 36.0208 29.0254C36.0995 29.1691 36.1781 29.3125 36.2563 29.4562C36.394 29.7075 36.5313 29.9587 36.669 30.2104C36.7901 30.4316 37.1279 30.2341 37.0068 30.0125Z" fill="black"/>
<path d="M38.3793 29.9708C38.1958 29.5029 37.9616 29.0658 37.6649 28.6595C37.5177 28.4583 37.1782 28.6533 37.3271 28.8575C37.603 29.2345 37.8314 29.6395 38.0023 30.075C38.0935 30.307 38.4716 30.2062 38.3793 29.9708Z" fill="black"/>
<path d="M39.4422 30.17C39.3282 29.8112 39.1535 29.4912 38.9189 29.197C38.7616 29 38.4866 29.2787 38.6422 29.4741C38.8332 29.7129 38.9729 29.9833 39.0653 30.2741C39.1414 30.5137 39.5192 30.4112 39.4422 30.17Z" fill="black"/>
<path d="M40.2709 29.5082C40.0908 29.3316 39.8141 29.6082 39.9947 29.7853C40.1419 29.9295 40.2376 30.1074 40.2588 30.3145C40.2838 30.5632 40.6753 30.5657 40.6495 30.3145C40.6179 30.002 40.4964 29.7291 40.2709 29.5082Z" fill="black"/>
<path d="M41.7736 30.6637C41.6796 30.3362 41.5856 30.0087 41.4915 29.6812C41.4221 29.4391 41.0447 29.542 41.1146 29.7854C41.2086 30.1129 41.3027 30.4404 41.3967 30.7675C41.4662 31.01 41.8435 30.9066 41.7736 30.6637Z" fill="black"/>
</g>
<defs>
<clipPath id="clip0_609_362">
<rect width="65" height="154" fill="white"/>
</clipPath>
</defs>
</svg>
