<svg viewBox="0 0 320 320" xmlns="http://www.w3.org/2000/svg" fill="#7D819D" opacity="25%">
<g clip-path="url(#clip0_807_31)">
<path d="M276.49 32C264.967 32 259.098 25.6606 253.92 20.0674C249.244 15.0163 245.55 11.0266 237.658 11.0266C229.765 11.0266 226.071 15.0163 221.395 20.0674C216.217 25.6606 210.348 32 198.824 32C187.301 32 181.432 25.6606 176.254 20.0674C171.578 15.0163 167.885 11.0266 159.992 11.0266C152.1 11.0266 148.407 15.0163 143.732 20.0674C138.554 25.6606 132.685 32 121.161 32C109.639 32 103.772 25.6606 98.5937 20.0674C93.9189 15.0163 90.2259 11.0266 82.3347 11.0266C74.4426 11.0266 70.7497 15.0163 66.0741 20.0674C60.8963 25.6606 55.0271 32 43.5044 32C31.9808 32 26.1116 25.6606 20.9331 20.0674C16.2575 15.0163 12.5645 11.0266 4.67169 11.0266C2.09214 11.0266 0 8.55845 0 5.51328C0 2.46903 2.09214 0 4.67169 0C16.1944 0 22.0636 6.33935 27.2422 11.9326C31.9178 16.9837 35.6115 20.9734 43.5044 20.9734C51.3964 20.9734 55.0894 16.9837 59.765 11.9335C64.9428 6.33935 70.812 0 82.3347 0C93.8566 0 99.7251 6.34027 104.903 11.9335C109.578 16.9846 113.27 20.9734 121.161 20.9734C129.054 20.9734 132.747 16.9837 137.422 11.9335C142.6 6.33935 148.469 0 159.992 0C171.516 0 177.384 6.33935 182.563 11.9335C187.238 16.9837 190.932 20.9734 198.824 20.9734C206.718 20.9734 210.411 16.9837 215.086 11.9335C220.265 6.33935 226.134 0 237.658 0C249.181 0 255.05 6.33935 260.229 11.9335C264.904 16.9837 268.597 20.9734 276.49 20.9734C284.385 20.9734 288.078 16.9837 292.755 11.9326C297.934 6.33935 303.804 0 315.328 0C317.908 0 320 2.46903 320 5.51328C320 8.55845 317.908 11.0266 315.328 11.0266C307.434 11.0266 303.74 15.0163 299.063 20.0674C293.884 25.6606 288.015 32 276.49 32Z"/>
<path d="M276.49 80C264.967 80 259.098 73.6606 253.92 68.0674C249.244 63.0163 245.55 59.0266 237.658 59.0266C229.765 59.0266 226.071 63.0163 221.395 68.0674C216.217 73.6606 210.348 80 198.824 80C187.301 80 181.432 73.6606 176.254 68.0674C171.578 63.0163 167.885 59.0266 159.992 59.0266C152.1 59.0266 148.407 63.0163 143.732 68.0674C138.554 73.6606 132.685 80 121.161 80C109.639 80 103.772 73.6606 98.5937 68.0674C93.9189 63.0163 90.2259 59.0266 82.3347 59.0266C74.4426 59.0266 70.7497 63.0163 66.0741 68.0674C60.8963 73.6606 55.0271 80 43.5044 80C31.9808 80 26.1116 73.6606 20.9331 68.0674C16.2575 63.0163 12.5645 59.0266 4.67169 59.0266C2.09214 59.0266 0 56.5585 0 53.5133C0 50.469 2.09214 48 4.67169 48C16.1944 48 22.0636 54.3394 27.2422 59.9326C31.9178 64.9837 35.6115 68.9734 43.5044 68.9734C51.3964 68.9734 55.0894 64.9837 59.765 59.9335C64.9428 54.3394 70.812 48 82.3347 48C93.8566 48 99.7251 54.3403 104.903 59.9335C109.578 64.9846 113.27 68.9734 121.161 68.9734C129.054 68.9734 132.747 64.9837 137.422 59.9335C142.6 54.3394 148.469 48 159.992 48C171.516 48 177.384 54.3394 182.563 59.9335C187.238 64.9837 190.932 68.9734 198.824 68.9734C206.718 68.9734 210.411 64.9837 215.086 59.9335C220.265 54.3394 226.134 48 237.658 48C249.181 48 255.05 54.3394 260.229 59.9335C264.904 64.9837 268.597 68.9734 276.49 68.9734C284.385 68.9734 288.078 64.9837 292.755 59.9326C297.934 54.3394 303.804 48 315.328 48C317.908 48 320 50.469 320 53.5133C320 56.5585 317.908 59.0266 315.328 59.0266C307.434 59.0266 303.74 63.0163 299.063 68.0674C293.884 73.6606 288.015 80 276.49 80Z"/>
<path d="M276.49 128C264.967 128 259.098 121.661 253.92 116.067C249.244 111.016 245.55 107.027 237.658 107.027C229.765 107.027 226.071 111.016 221.395 116.067C216.217 121.661 210.348 128 198.824 128C187.301 128 181.432 121.661 176.254 116.067C171.578 111.016 167.885 107.027 159.992 107.027C152.1 107.027 148.407 111.016 143.732 116.067C138.554 121.661 132.685 128 121.161 128C109.639 128 103.772 121.661 98.5937 116.067C93.9189 111.016 90.2259 107.027 82.3347 107.027C74.4426 107.027 70.7497 111.016 66.0741 116.067C60.8963 121.661 55.0271 128 43.5044 128C31.9808 128 26.1116 121.661 20.9331 116.067C16.2575 111.016 12.5645 107.027 4.67169 107.027C2.09214 107.027 0 104.558 0 101.513C0 98.469 2.09214 96 4.67169 96C16.1944 96 22.0636 102.339 27.2422 107.933C31.9178 112.984 35.6115 116.973 43.5044 116.973C51.3964 116.973 55.0894 112.984 59.765 107.933C64.9428 102.339 70.812 96 82.3347 96C93.8566 96 99.7251 102.34 104.903 107.933C109.578 112.985 113.27 116.973 121.161 116.973C129.054 116.973 132.747 112.984 137.422 107.933C142.6 102.339 148.469 96 159.992 96C171.516 96 177.384 102.339 182.563 107.933C187.238 112.984 190.932 116.973 198.824 116.973C206.718 116.973 210.411 112.984 215.086 107.933C220.265 102.339 226.134 96 237.658 96C249.181 96 255.05 102.339 260.229 107.933C264.904 112.984 268.597 116.973 276.49 116.973C284.385 116.973 288.078 112.984 292.755 107.933C297.934 102.339 303.804 96 315.328 96C317.908 96 320 98.469 320 101.513C320 104.558 317.908 107.027 315.328 107.027C307.434 107.027 303.74 111.016 299.063 116.067C293.884 121.661 288.015 128 276.49 128Z"/>
<path d="M276.49 176C264.967 176 259.098 169.661 253.92 164.067C249.244 159.016 245.55 155.027 237.658 155.027C229.765 155.027 226.071 159.016 221.395 164.067C216.217 169.661 210.348 176 198.824 176C187.301 176 181.432 169.661 176.254 164.067C171.578 159.016 167.885 155.027 159.992 155.027C152.1 155.027 148.407 159.016 143.732 164.067C138.554 169.661 132.685 176 121.161 176C109.639 176 103.772 169.661 98.5937 164.067C93.9189 159.016 90.2259 155.027 82.3347 155.027C74.4426 155.027 70.7497 159.016 66.0741 164.067C60.8963 169.661 55.0271 176 43.5044 176C31.9808 176 26.1116 169.661 20.9331 164.067C16.2575 159.016 12.5637 155.027 4.67169 155.027C2.09214 155.027 0 152.558 0 149.513C0 146.468 2.09214 144 4.67169 144C16.1944 144 22.0636 150.339 27.2422 155.933C31.9178 160.984 35.6115 164.973 43.5044 164.973C51.3964 164.973 55.0894 160.984 59.765 155.933C64.9428 150.339 70.812 144 82.3347 144C93.8566 144 99.7251 150.339 104.903 155.933C109.578 160.984 113.27 164.973 121.161 164.973C129.054 164.973 132.747 160.984 137.422 155.933C142.6 150.339 148.469 144 159.992 144C171.516 144 177.384 150.339 182.563 155.933C187.238 160.984 190.932 164.973 198.824 164.973C206.718 164.973 210.411 160.984 215.086 155.933C220.265 150.339 226.134 144 237.658 144C249.181 144 255.05 150.339 260.229 155.933C264.904 160.984 268.597 164.973 276.49 164.973C284.385 164.973 288.078 160.984 292.755 155.933C297.934 150.339 303.804 144 315.328 144C317.908 144 320 146.468 320 149.513C320 152.558 317.908 155.027 315.328 155.027C307.434 155.027 303.74 159.016 299.063 164.067C293.884 169.661 288.015 176 276.49 176Z"/>
<path d="M276.49 224C264.967 224 259.098 217.661 253.92 212.067C249.244 207.016 245.55 203.027 237.658 203.027C229.765 203.027 226.071 207.016 221.395 212.067C216.217 217.661 210.348 224 198.824 224C187.301 224 181.432 217.661 176.254 212.067C171.578 207.016 167.885 203.027 159.992 203.027C152.1 203.027 148.407 207.016 143.732 212.067C138.554 217.661 132.685 224 121.161 224C109.639 224 103.772 217.661 98.5937 212.067C93.9189 207.016 90.2259 203.027 82.3347 203.027C74.4426 203.027 70.7497 207.016 66.0741 212.067C60.8963 217.661 55.0271 224 43.5044 224C31.9808 224 26.1116 217.661 20.9331 212.067C16.2575 207.016 12.5637 203.027 4.67169 203.027C2.09214 203.027 0 200.558 0 197.513C0 194.468 2.09214 192 4.67169 192C16.1944 192 22.0636 198.339 27.2422 203.933C31.9178 208.984 35.6115 212.973 43.5044 212.973C51.3964 212.973 55.0894 208.984 59.765 203.933C64.9428 198.339 70.812 192 82.3347 192C93.8566 192 99.7251 198.339 104.903 203.933C109.578 208.984 113.27 212.973 121.161 212.973C129.054 212.973 132.747 208.984 137.422 203.933C142.6 198.339 148.469 192 159.992 192C171.516 192 177.384 198.339 182.563 203.933C187.238 208.984 190.932 212.973 198.824 212.973C206.718 212.973 210.411 208.984 215.086 203.933C220.265 198.339 226.134 192 237.658 192C249.181 192 255.05 198.339 260.229 203.933C264.904 208.984 268.597 212.973 276.49 212.973C284.385 212.973 288.078 208.984 292.755 203.933C297.934 198.339 303.804 192 315.328 192C317.908 192 320 194.468 320 197.513C320 200.558 317.908 203.027 315.328 203.027C307.434 203.027 303.74 207.016 299.063 212.067C293.884 217.661 288.015 224 276.49 224Z"/>
<path d="M276.49 272C264.967 272 259.098 265.661 253.92 260.067C249.244 255.016 245.55 251.027 237.658 251.027C229.765 251.027 226.071 255.016 221.395 260.067C216.217 265.661 210.348 272 198.824 272C187.301 272 181.432 265.661 176.254 260.067C171.578 255.016 167.885 251.027 159.992 251.027C152.1 251.027 148.407 255.016 143.732 260.067C138.554 265.661 132.685 272 121.161 272C109.639 272 103.772 265.661 98.5937 260.067C93.9189 255.016 90.2259 251.027 82.3347 251.027C74.4426 251.027 70.7497 255.016 66.0741 260.067C60.8963 265.661 55.0271 272 43.5044 272C31.9808 272 26.1116 265.661 20.9331 260.067C16.2575 255.016 12.5637 251.027 4.67169 251.027C2.09214 251.027 0 248.558 0 245.513C0 242.467 2.09214 240 4.67169 240C16.1944 240 22.0636 246.339 27.2422 251.933C31.9178 256.984 35.6115 260.973 43.5044 260.973C51.3964 260.973 55.0894 256.984 59.765 251.933C64.9428 246.339 70.812 240 82.3347 240C93.8566 240 99.7251 246.339 104.903 251.933C109.578 256.984 113.27 260.973 121.161 260.973C129.054 260.973 132.747 256.984 137.422 251.933C142.6 246.339 148.469 240 159.992 240C171.516 240 177.384 246.339 182.563 251.933C187.238 256.984 190.932 260.973 198.824 260.973C206.718 260.973 210.411 256.984 215.086 251.933C220.265 246.339 226.134 240 237.658 240C249.181 240 255.05 246.339 260.229 251.933C264.904 256.984 268.597 260.973 276.49 260.973C284.385 260.973 288.078 256.984 292.755 251.933C297.934 246.339 303.804 240 315.328 240C317.908 240 320 242.467 320 245.513C320 248.558 317.908 251.027 315.328 251.027C307.434 251.027 303.74 255.016 299.063 260.067C293.884 265.661 288.015 272 276.49 272Z"/>
<path d="M276.49 320C264.967 320 259.098 313.661 253.92 308.067C249.244 303.016 245.55 299.027 237.658 299.027C229.765 299.027 226.071 303.016 221.395 308.067C216.217 313.661 210.348 320 198.824 320C187.301 320 181.432 313.661 176.254 308.067C171.578 303.016 167.885 299.027 159.992 299.027C152.1 299.027 148.407 303.016 143.732 308.067C138.554 313.661 132.685 320 121.161 320C109.639 320 103.772 313.661 98.5937 308.067C93.9189 303.016 90.2259 299.027 82.3347 299.027C74.4426 299.027 70.7497 303.016 66.0741 308.067C60.8963 313.661 55.0271 320 43.5044 320C31.9808 320 26.1116 313.661 20.9331 308.067C16.2575 303.016 12.5637 299.027 4.67169 299.027C2.09214 299.027 0 296.558 0 293.513C0 290.467 2.09214 288 4.67169 288C16.1944 288 22.0636 294.339 27.2422 299.933C31.9178 304.984 35.6115 308.973 43.5044 308.973C51.3964 308.973 55.0894 304.984 59.765 299.933C64.9428 294.339 70.812 288 82.3347 288C93.8566 288 99.7251 294.339 104.903 299.933C109.578 304.984 113.27 308.973 121.161 308.973C129.054 308.973 132.747 304.984 137.422 299.933C142.6 294.339 148.469 288 159.992 288C171.516 288 177.384 294.339 182.563 299.933C187.238 304.984 190.932 308.973 198.824 308.973C206.718 308.973 210.411 304.984 215.086 299.933C220.265 294.339 226.134 288 237.658 288C249.181 288 255.05 294.339 260.229 299.933C264.904 304.984 268.597 308.973 276.49 308.973C284.385 308.973 288.078 304.984 292.755 299.933C297.934 294.339 303.804 288 315.328 288C317.908 288 320 290.467 320 293.513C320 296.558 317.908 299.027 315.328 299.027C307.434 299.027 303.74 303.016 299.063 308.067C293.884 313.661 288.015 320 276.49 320Z"/>
</g>
</svg>
