<svg width="150" height="158" viewBox="0 0 150 158" fill="none" xmlns="http://www.w3.org/2000/svg">
<g clip-path="url(#clip0_609_650)">
<path d="M108.211 82.9803C108.185 82.7974 108.16 82.6145 108.135 82.4316C108.071 82.6482 108.09 82.8333 108.211 82.9803Z" fill="black"/>
<path d="M110.831 67.1691C111.007 67.0457 111.177 66.9211 111.34 66.7977C111.178 66.9077 111.008 67.0322 110.831 67.1691Z" fill="black"/>
<path d="M117.132 103.625C116.767 102.369 115.321 104.466 113.916 106.124C115.552 105.254 117.339 104.336 117.132 103.625Z" fill="black"/>
<path d="M123.533 76.1646C121.245 76.2846 119.442 77.4413 117.785 78.7899C122.266 77.0374 126.643 76.003 123.533 76.1646Z" fill="black"/>
<path d="M117.785 78.7898C114.699 79.997 111.563 81.5441 110.788 83.2741C113.446 82.9297 115.473 80.6724 117.785 78.7898Z" fill="black"/>
<path d="M113.702 68.1766C112.544 68.7891 110.68 70.0614 109.212 71.4066C112.717 69.7607 118.857 65.1519 113.702 68.1766Z" fill="black"/>
<path d="M108.368 79.49C107.365 78.1852 116.748 72.6956 111.843 75.3927C110.709 76.0154 105.999 78.4746 107.942 76.2936C108.198 76.0053 108.628 77.1889 108.798 76.5292C109.16 75.1145 111.971 73.8591 111.395 73.5225C110.271 72.8662 109.255 76.1511 108.081 75.7843C105.994 75.1313 107.249 73.2039 109.212 71.4066C108.705 71.6444 108.252 71.8206 107.898 71.9036C105.45 72.469 108.606 68.8901 110.831 67.1691C109.159 68.346 107.049 69.358 106.833 67.1018C106.764 66.377 107.472 66.2907 107.419 65.8262C107.359 65.3 106.452 66.0887 106.452 65.401C106.452 64.923 106.362 64.426 106.244 63.9256C106.544 64.1915 109.28 61.536 107.597 62.4458C107.245 62.7723 106.287 63.1414 106.159 63.5824C105.872 62.466 105.503 61.3497 105.698 60.4017C106.489 58.6897 108.319 57.7046 109.475 56.5289C108.138 55.9477 101.872 60.8112 105.074 57.6766C105.313 57.4432 106.364 56.1295 105.763 56.4974C103.046 58.1635 104.552 53.0173 105.783 51.404C106.562 50.383 104.289 53.2697 103.787 53.1306C102.148 52.6751 104.114 49.8781 105.249 48.8056C105.347 48.7147 105.424 48.6384 105.485 48.5745C105.987 48.6564 106.885 47.7959 106.505 47.4425C106.07 47.0386 104.88 47.7847 105.251 48.4152C105.269 48.4443 105.29 48.4679 105.311 48.4892C104.73 48.8539 103.604 49.7368 103.344 50.1979C102.935 50.9204 102.579 48.9313 102.576 48.6126C102.563 47.7903 104.163 46.9993 103.887 46.3161C103.499 45.358 102.716 48.8045 102.146 47.0117C101.123 43.7884 102.874 41.7095 104.993 39.3804C107.054 37.1141 101.644 42.9728 101.209 42.9963C98.153 43.1601 104.262 35.7162 102.635 36.975C101.655 37.7334 101.613 40.0468 100.341 39.8191C98.7644 39.5364 98.3852 36.2772 98.9383 34.7334C99.6485 32.7521 102.738 29.0801 99.7562 32.5053C96.8056 35.898 97.0244 30.1818 96.5969 27.9986C96.3377 26.6803 98.7532 26.3953 98.8273 25.1579C97.9982 25.1624 97.6111 26.7802 96.7742 26.7791C94.9881 26.7791 95.9047 21.8763 95.8531 19.9477C93.5318 17.5412 94.3262 24.8112 94.7749 26.3314C100.231 44.8127 105.449 63.4578 108.135 82.4316C108.615 80.8194 113.695 77.512 115.162 76.3576C113.224 76.1063 109.257 80.6467 108.368 79.49Z" fill="black"/>
<path d="M112.085 66.3713C113.621 64.7704 112.769 65.7161 111.34 66.7977C111.622 66.6058 111.876 66.4577 112.085 66.3713Z" fill="black"/>
<path d="M113.916 106.124C112.828 106.703 111.808 107.262 111.486 107.724C111.502 107.734 111.516 107.744 111.532 107.754C112.1 108.103 112.999 107.207 113.916 106.124Z" fill="black"/>
<path d="M107.341 101.124C105.499 115.248 105.309 142.108 104.846 144.827C109.2 130.817 108.288 93.8661 107.341 101.124Z" fill="black"/>
<path d="M104.846 144.827C104.824 144.901 104.8 144.976 104.778 145.049C104.801 145.034 104.824 144.959 104.846 144.827Z" fill="black"/>
<path d="M104.744 85.022C104.276 88.3541 106.347 95.8844 106.347 95.8844C106.347 95.8844 105.105 82.4495 104.744 85.022Z" fill="black"/>
<path d="M110.695 96.2109C112.228 97.0916 114.197 93.4779 115.951 92.4738C119.033 90.7079 109.602 95.5849 110.695 96.2109Z" fill="black"/>
<path d="M99.3321 37.1982C99.4892 39.1795 102.137 33.4073 103.421 33.202C105.536 31.242 99.2031 35.5782 99.3321 37.1982Z" fill="black"/>
<path d="M113.276 84.3725C113.079 84.5004 112.895 84.6575 112.72 84.8314C113.671 84.1369 114.211 83.7689 113.276 84.3725Z" fill="black"/>
<path d="M104.024 73.8007C105.452 73.6504 104.955 69.1762 103.581 68.8306C102.272 68.5019 102.831 73.9275 104.024 73.8007Z" fill="black"/>
<path d="M106.185 62.3594C106.884 63.2479 106.654 61.997 106.736 61.6189C107.173 60.8807 107.659 60.2513 108.46 59.7834C111.645 57.2266 105.257 60.4936 106.185 62.3594Z" fill="black"/>
<path d="M110.137 90.4971C111.237 91.4305 114.726 88.481 113.757 87.2076C112.818 85.9735 108.996 89.5277 110.137 90.4971Z" fill="black"/>
<path d="M103.723 67.1309C105.125 66.6104 103.445 63.671 102.797 62.4211C102.551 63.662 102.497 67.5876 103.723 67.1309Z" fill="black"/>
<path d="M97.4765 30.0493C98.2304 28.8455 100.404 27.9199 99.3119 27.065C98.5614 26.4783 96.4791 31.6425 97.4765 30.0493Z" fill="black"/>
<path d="M100.151 29.825C99.2188 30.4129 96.6799 32.4626 97.7244 32.7453C98.2225 32.88 101.064 29.2506 100.151 29.825Z" fill="black"/>
<path d="M104.546 43.0299C104.242 42.2636 101.638 45.3186 102.365 45.819C103.273 46.4427 104.98 44.126 104.546 43.0299Z" fill="black"/>
<path d="M104.497 78.2963C105.414 78.0506 105.129 74.3898 104.08 74.9855C103.067 75.561 103.613 78.5319 104.497 78.2963Z" fill="black"/>
<path d="M107.718 74.5648C107.928 75.5745 109.553 74.0061 110.044 73.2185C110.476 72.524 107.588 73.9421 107.718 74.5648Z" fill="black"/>
<path d="M116.578 94.6279C117.183 95.3582 119.777 93.9043 119.5 93.101C119.215 92.2775 115.978 93.902 116.578 94.6279Z" fill="black"/>
<path d="M118.653 63.1941C117.605 63.4723 116.418 64.0737 115.43 64.6391C116.567 64.4809 118.326 63.6485 118.653 63.1941Z" fill="black"/>
<path d="M113.822 108.753C114.34 109.354 117.083 107.797 116.245 107.186C115.51 106.65 113.252 108.092 113.822 108.753Z" fill="black"/>
<path d="M107.254 55.4428C106.862 55.6751 105.776 56.2753 106.157 56.6332C106.671 57.119 109.373 54.1885 107.254 55.4428Z" fill="black"/>
<path d="M119.706 65.2753C118.613 65.475 117.706 66.1425 116.67 66.4869C117.201 66.7315 119.352 65.7375 119.706 65.2753Z" fill="black"/>
<path d="M115.354 101.627C115.089 101.681 113.941 102.858 114.705 102.568C115.286 102.348 117.033 101.273 115.354 101.627Z" fill="black"/>
<path d="M105.993 44.218C105.509 43.6133 103.885 45.5666 104.404 45.8515C105.145 46.2588 106.466 44.8081 105.993 44.218Z" fill="black"/>
<path d="M115.811 98.7118C115.645 98.8318 115.144 99.1336 115.415 99.3232C115.683 99.5117 116.423 98.2664 115.811 98.7118Z" fill="black"/>
<path d="M56.0206 90.6585C58.4361 91.9667 60.3422 94.0344 62.9282 95.356C65.1103 96.4712 56.8844 88.9656 53.0385 88.6178C51.5127 88.4798 55.0445 90.1301 56.0206 90.6585Z" fill="black"/>
<path d="M25.7172 86.9775C24.6766 87.2603 28.7046 89.5681 28.6282 88.868C28.5104 87.7898 26.7918 86.6858 25.7172 86.9775Z" fill="black"/>
<path d="M68.2125 10.4304C67.7816 13.8848 64.3059 14.8698 62.4929 17.6443C60.8448 20.1664 51.7944 24.6215 55.9017 23.4379C59.2944 22.4585 69.2805 13.8197 68.2125 10.4304Z" fill="black"/>
<path d="M67.4664 16.5225C68.4593 15.8987 70.5864 13.1927 69.6833 12.3905C69.5273 13.0883 65.7936 17.5749 67.4664 16.5225Z" fill="black"/>
<path d="M56.2214 10.7636C56.8205 9.09759 63.2682 3.31971 61.3968 4.34851C57.0101 6.76063 48.2895 16.2565 51.9884 13.5538C53.4447 12.4891 55.5191 12.7158 56.2214 10.7636Z" fill="black"/>
<path d="M56.8766 12.6586C51.0674 14.7442 61.1119 11.7633 61.6313 9.70795C62.033 8.11932 58.2701 12.1582 56.8766 12.6586Z" fill="black"/>
<path d="M49.7996 17.9406C50.1204 17.7847 50.3617 17.18 49.7614 17.42C49.4462 17.5457 49.3171 18.1751 49.7996 17.9406Z" fill="black"/>
<path d="M53.7072 15.2738C53.8553 15.4151 54.4757 15.1077 54.1829 14.917C53.9978 14.7947 53.5053 15.0808 53.7072 15.2738Z" fill="black"/>
<path d="M50.807 17.0554C50.982 16.9623 50.779 16.6931 50.6219 16.7985C50.448 16.9152 50.6219 17.1541 50.807 17.0554Z" fill="black"/>
<path d="M54.6529 14.5849C54.5206 14.6892 54.6945 14.8687 54.8156 14.7678C54.9458 14.6589 54.7775 14.485 54.6529 14.5849Z" fill="black"/>
<path d="M24.4103 24.5375C23.6978 23.5951 22.9953 22.7783 22.4699 22.0378C22.4278 23.199 23.0586 24.2357 24.4103 24.5375Z" fill="black"/>
<path d="M42.8471 16.9543C42.5913 17.0632 42.3377 17.1765 42.0887 17.2965C40.5561 18.0314 39.1896 18.9457 37.813 19.8119C39.5688 19.0557 41.2248 18.0426 42.8471 16.9543Z" fill="black"/>
<path d="M48.9817 84.3939C57.543 89.5188 31.5066 69.469 24.6018 66.6216C22.1172 65.5962 40.2981 79.1949 48.9817 84.3939Z" fill="black"/>
<path d="M43.9095 35.1743C48.3467 34.739 50.8677 30.9952 53.871 28.4956C54.6923 27.8123 59.162 23.2787 57.4466 23.9664C52.4339 25.9758 49.8478 33.9223 44.3247 34.4541C43.4821 34.5348 42.524 35.3101 43.9095 35.1743Z" fill="black"/>
<path d="M42.5632 34.9589C42.1347 34.4092 40.1354 35.0038 40.5146 35.751C40.8478 36.4085 42.9391 35.4402 42.5632 34.9589Z" fill="black"/>
<path d="M40.0412 36.0202C39.9256 35.8003 39.5745 36.0079 39.6687 36.2188C39.7876 36.4869 40.1635 36.2536 40.0412 36.0202Z" fill="black"/>
<path d="M38.8677 25.9185C41.2574 26.3729 43.1769 25.2969 44.8901 23.3695C45.9099 22.2195 49.5382 19.2947 47.8688 19.0569C45.7192 18.7506 45.2805 23.1922 43.1758 24.0393C42.018 24.5049 37.2622 25.6133 38.8677 25.9185Z" fill="black"/>
<path d="M34.5884 29.6926C33.6394 30.3624 32.7257 31.1074 31.8172 31.8714C32.7093 31.6178 33.7141 30.6664 34.5884 29.6926Z" fill="black"/>
<path d="M39.055 36.6743C38.6006 35.5468 35.0767 37.7109 35.5541 38.8979C36.0247 40.0681 39.4869 37.7435 39.055 36.6743Z" fill="black"/>
<path d="M31.8172 31.8714C31.3686 31.9992 30.9483 31.951 30.588 31.6391C29.8781 31.0221 32.487 29.3975 33.2637 28.8669C33.9485 28.399 36.4073 27.1559 35.3241 27.2154C31.3978 27.4297 28.3524 30.7147 26.5432 34.0826C25.8178 35.4334 29.5861 31.3912 30.1415 32.0441C31.0414 33.1032 27.8741 34.7782 26.7786 35.4671C24.1541 37.1152 17.3846 31.4933 20.2534 28.546C21.4798 27.2861 22.8396 29.1249 24.1542 28.2689C25.382 27.4701 25.3424 25.6178 26.8975 25.3766C28.6808 25.1006 29.595 22.8669 31.504 22.5494C33.9446 22.1432 35.8878 21.0236 37.8131 19.8119C36.6048 20.3325 35.3506 20.7318 34.0275 20.9517C31.1077 21.4375 29.354 23.7173 26.9195 24.3826C25.9058 24.6586 25.0721 24.6855 24.4103 24.5374C24.6244 24.8213 24.8392 25.1152 25.0506 25.4226C26.0952 26.9417 22.8861 27.3893 21.332 26.9877C19.4938 26.512 18.1245 29.761 18.7671 31.656C19.5187 33.8729 24.1197 35.4323 23.4042 36.7158C23.1081 37.2453 22.7659 37.6245 22.3864 37.8882C22.8884 37.7816 23.3993 37.629 23.9195 37.4125C26.9252 36.1627 29.3533 33.9458 31.8172 31.8714Z" fill="black"/>
<path d="M137.403 50.0913C142.54 57.4612 148.588 65.3931 149.188 74.6478C149.714 82.7693 143.509 90.515 143.571 98.7375C143.619 105.056 143.381 110.722 141.574 115.888C139.384 122.15 136.531 124.444 133.096 128.485C130.564 131.463 127.792 133.795 124.334 134.419C119.574 135.278 114.61 133.251 111.112 136.897C109.641 140.367 110.838 136.047 111.703 135.181C113.146 133.361 112.686 132.119 111.249 134.634C109.957 135.079 112.462 132.186 112.434 131.193C112.717 129.703 115.729 128.853 115.575 127.908C113.079 128.726 112.021 131.069 110.827 132.95C110.467 131.054 110.889 128.693 112.706 127.508C114.778 125.686 117.72 125.082 119.964 123.7C117.767 124.013 115.251 125.304 113.232 126.469C108.528 130.292 113.004 122.502 115.809 122.106C118.214 120.277 111.758 123.497 111.286 125.144C109.93 120.655 118.815 118.501 117.589 117.306C115.967 115.726 113.787 121.509 111.35 121.04C108.353 120.462 113.472 116.699 115.117 114.84C115.824 114.042 118.463 113.87 117.881 113.107C116.767 111.645 114.434 114.983 112.893 116.067C108.67 119.036 114.37 112.041 116.064 111.401C121.093 109.499 118.856 109.622 115.359 111.372C113.451 112.327 111.532 117.328 111.525 111.927C111.524 110.533 114.231 108.853 113.363 108.76C111.558 108.568 111.158 108.195 111.486 107.724C108.926 106.06 115.323 102.512 114.053 102.443C113.166 102.396 112.513 102.389 112.046 102.402C112.738 102.176 113.616 101.66 114.076 100.575C114.103 100.512 114.118 100.464 114.123 100.427C114.493 100.45 115.084 99.9885 115.009 99.6474C114.905 99.1829 113.741 99.9222 113.874 100.257C113.896 100.312 113.929 100.351 113.971 100.378C113.501 100.62 112.104 102.003 111.656 102.045C109.525 102.244 112.189 97.9062 113.521 96.8594C114.138 96.3748 115.842 95.65 115.913 95.1002C116.086 95.1283 116.276 95.0756 116.187 94.8714C116.117 94.7121 115.958 94.7345 115.832 94.7962C115.812 94.8052 115.797 94.8153 115.782 94.8254C114.465 93.7787 112.85 97.6605 111.178 98.3549C110.126 98.7936 110.317 95.125 110.358 93.9627C110.439 91.7042 113.533 90.3232 115.711 89.3471C118.007 88.3172 115.38 88.7985 114.489 89.4761C109.039 93.6283 109.03 92.3078 109.768 87.9884C110.929 87.6653 111.648 85.8983 112.72 84.8314C111.87 85.4518 110.691 86.3314 109.936 87.0135C110.041 86.411 110.152 85.7637 110.26 85.0748C110.363 84.4196 110.542 83.8228 110.788 83.2741C110.284 83.3403 109.773 83.3617 109.249 83.328C108.699 83.2932 108.369 83.1698 108.211 82.9802C109.169 89.8755 109.793 96.8134 109.966 103.804C110.32 118.175 111.245 133.475 106.943 147.175C105.565 150.791 100.399 159.513 96.2861 153.959C91.4989 137.904 85.9409 122.289 77.7117 107.438C72.9278 98.8048 67.2824 95.0722 60.3445 88.5831C51.2771 80.1047 40.5943 74.5546 31.8026 66.0797C27.6996 61.4215 26.0194 55.8804 28.3919 51.7584C29.9381 49.0726 33.5893 45.6036 36.4106 43.3172C41.2192 39.4207 47.1653 36.6597 52.4013 33.524C60.4252 28.7188 66.3759 22.1163 71.604 14.5221C74.2798 10.6358 77.1395 2.43011 82.8041 4.26107C86.9069 5.58718 90.0887 7.77155 94.1881 9.59017C100.515 12.3972 102.162 20.6657 109.788 19.0681C117.147 17.5255 120.999 22.5191 125.293 21.4611C131.751 19.8703 130.43 22.3744 129.402 27.0471C127.432 35.9955 132.762 43.4327 137.403 50.0913ZM81.3792 126.941C79.9982 125.256 78.6115 123.629 77.9406 123.026C73.1556 118.719 69.7685 113.188 65.1137 108.864C59.954 104.072 53.8609 101.288 47.687 97.5954C46.1107 96.6519 39.9581 92.4413 39.8426 93.9649C47.926 97.3351 54.7528 102.487 62.0509 106.947C63.2053 107.652 59.0105 106.584 58.2397 106.606C53.3471 106.746 49.5427 102.69 45.69 99.9032C40.7008 96.294 35.935 93.4578 30.3597 90.8684C27.5277 89.5535 25.4671 88.7783 22.4946 87.4331C19.4734 86.0666 17.6608 84.2637 14.7891 83.1384C11.4028 81.8101 8.91868 85.1298 5.72426 85.0737C-1.10024 84.9548 0.492878 73.0019 4.18555 68.3527C11.2622 59.4424 19.741 77.1418 27.7938 78.6328C30.5935 79.15 32.5866 80.5075 35.0808 82.205C40.8388 85.5045 47.1283 87.7787 51.9458 92.6915C55.4866 96.3018 60.5307 97.122 63.3332 102.247C64.224 103.878 63.4196 100.294 63.0662 99.6687C61.0008 96.0292 56.7857 95.153 53.8138 92.8879C47.0879 87.7618 40.5864 83.3482 33.3562 79.5819C27.1573 76.3531 19.3998 73.2869 14.1083 67.1029C10.6173 63.0225 -3.02387 62.7173 3.08865 56.8396C4.85836 55.1377 7.11756 53.3561 9.60126 53.1193C12.3032 52.8613 17.2432 53.4918 18.8871 53.5221C19.8403 53.54 22.7134 54.0651 24.1141 51.8639C26.5414 48.0494 33.3687 44.9518 38.9675 40.3878C40.5146 39.1268 38.052 41.7947 36.6395 42.9929C35.3858 44.0565 33.3466 45.5756 32.411 46.3486C31.1547 47.3875 29.4073 49.3632 28.3256 51.0135C27.917 51.6362 27.6068 52.4406 27.2752 53.1956C22.0805 65.0217 37.5471 72.2076 45.7158 77.9877C50.5187 81.8291 55.5101 85.316 59.7622 89.8733C63.8347 94.2375 69.2367 97.6223 73.1107 102.892C76.6537 107.712 80.0632 111.779 81.5352 117.512C81.7663 118.41 80.4245 116.192 80.3516 116.638C80.2484 117.257 81.3545 118.642 81.8134 119.023C82.3553 119.47 82.9106 120.482 83.1631 120.845C84.0034 122.058 86.641 125.624 82.0782 120.103C78.6732 115.986 87.1436 129.371 89.2024 137.807C82.9107 126.932 68.6522 107.542 68.6522 107.542C68.4458 108.018 75.1145 118.58 81.3792 126.941ZM43.9028 7.35305C42.9189 7.41812 39.9043 9.96151 40.5685 9.01911C42.7966 5.86092 42.2839 7.19264 39.9548 8.77678C38.7476 9.59914 38.1552 10.5763 37.2644 11.6354C35.6503 13.5595 29.7053 11.4424 30.3502 13.7098C30.797 15.2805 37.7379 12.0898 37.7379 12.0898C37.7379 12.0898 28.1066 19.1163 28.6517 14.3796C28.9497 11.7902 31.1346 12.0303 32.8046 10.6896C36.1919 7.96898 40.8433 7.04564 43.9667 4.23637C50.3235 -1.48203 49.8209 6.95926 43.9028 7.35305ZM38.7566 10.7704C38.4413 10.4989 39.0842 9.90992 39.3534 10.0109C39.69 10.1365 39.0483 11.0217 38.7566 10.7704ZM35.4838 7.65037C34.9414 7.16122 37.0456 5.5793 37.5292 6.19972C38.024 6.83248 35.9877 8.10363 35.4838 7.65037ZM31.3922 7.64701C32.0571 6.07408 33.9326 6.79322 34.9348 5.89905C36.0068 4.94206 36.6496 3.9503 38.0688 3.41402C39.2323 2.97423 39.8673 1.82874 41.1137 1.68513C43.6257 1.3968 41.2775 6.43085 40.2577 4.31268C39.4937 2.72405 38.9854 4.54041 38.5961 5.13839C37.8287 6.31977 35.3527 5.87437 35.0978 7.77826C34.94 8.95627 30.3804 10.0401 31.3922 7.64701ZM34.2815 1.08043C38.2708 -0.0908442 37.6986 4.2779 34.7979 4.00527C33.8565 3.91664 33.0694 1.4372 34.2815 1.08043ZM131.136 23.0262C131.395 21.5296 130.263 18.469 128.663 18.5632C127.299 18.6451 126.749 20.2786 125.159 20.4222C122.002 20.7072 120.123 18.4252 117.263 18.1762C111.598 17.6848 106.116 18.6608 101.082 12.9223C97.4305 8.75995 90.5183 7.54379 86.4301 4.16458C80.5154 -0.724727 74.5793 5.55464 72.285 10.5416C70.1332 7.6773 72.7517 -3.16827 64.9017 4.14998C64.61 -1.44613 59.8003 1.19262 57.7775 4.24535C55.8119 7.21057 57.6384 1.62904 55.6145 1.49329C53.2528 1.3351 51.3445 1.04791 49.7502 2.96975C48.8819 4.0165 49.1276 1.94431 48.994 1.53257C48.7259 0.702353 46.0793 -0.505957 45.432 0.739368C43.3777 4.69412 44.4963 1.68852 42.6698 0.613728C41.1126 -0.302876 39.2884 1.92524 38.1687 1.13653C34.4626 -1.47753 31.7196 0.672047 33.7902 4.99591C34.4135 6.29845 31.5252 5.57932 30.2604 7.73115C29.1456 9.62831 31.9463 9.21768 31.6037 10.1365C30.2483 13.7727 26.2099 10.7143 28.5642 16.4058C29.0085 17.4806 24.5583 17.0083 23.3097 17.7723C21.0227 19.1724 21.324 20.4234 22.47 22.0378C22.5336 20.2887 24.1242 18.2592 27.0753 18.0471C32.2414 17.6769 36.2726 14.3201 40.2521 10.6694C43.6088 7.58978 48.1223 6.19186 51.3445 3.2244C54.2525 0.546388 57.7955 3.61932 55.509 6.42972C53.3112 9.13129 50.88 11.5872 48.0382 13.4103C46.2925 14.5299 44.5894 15.7854 42.8471 16.9544C45.6676 15.7506 48.7483 15.0988 50.5098 12.3489C52.3071 9.5464 55.6044 8.32128 57.5127 5.91478C60.5273 2.11261 65.5513 -0.454351 63.6563 6.90765C62.0958 12.966 55.5931 16.5472 50.107 18.8336C46.8411 20.1945 45.9402 25.2353 42.2569 25.9768C40.1085 26.4099 37.3531 26.3987 35.9181 28.1231C35.5492 28.5674 35.0903 29.1328 34.5884 29.6926C36.7483 28.1679 39.092 27.0326 41.9821 26.9417C45.8572 26.8216 46.7827 21.7383 49.8007 20.1261C53.77 18.0034 57.6182 16.9623 60.9166 13.4394C63.1706 11.0329 68.9316 -2.98763 70.1018 5.06099C71.0251 11.4178 73.4967 12.8819 68.1631 17.2697C63.8605 20.8116 60.911 25.3643 56.6466 28.8624C52.8983 31.9387 49.1264 35.3112 44.7061 37.1175C38.6062 39.6104 34.2024 43.8299 28.1382 45.7686C24.0049 47.0902 23.7368 51.8168 21.5182 50.5389C21.2777 50.4009 21.0255 50.2966 20.8549 50.1126C19.5136 48.6698 19.878 46.1994 16.3949 43.8074C14.837 42.7371 10.6737 40.2263 12.9522 38.8183C14.2155 38.0385 16.1412 37.5 17.7114 38.1676C19.1461 38.7779 21.1822 38.7252 22.3864 37.8882C20.8881 38.2057 18.7457 38.1631 17.8257 37.6739C17.0328 37.251 15.6878 37.0501 14.0576 37.6156C6.10234 40.3732 17.1118 45.3209 20.2167 49.7603C21.2856 51.2884 19.6371 51.9716 18.4965 52.5752C16.8484 53.4458 13.8399 52.2891 10.7403 52.2162C10.4252 52.2095 9.88376 52.2083 9.27108 52.343C6.85324 52.8703 2.69666 54.3804 0.767529 58.2207C-3.03127 65.7824 8.8553 61.6291 1.91401 70.4731C-1.53363 74.8654 -0.183859 84.6261 4.92085 86.3325C7.39849 87.1616 9.021 84.377 11.3751 84.1706C16.0045 83.7667 19.0731 86.8026 22.8519 89.0778C25.5425 90.6979 27.763 90.9021 30.3056 92.0666C32.9962 93.2985 34.8182 96.0471 37.9443 96.6171C44.5995 97.831 48.8482 106.158 55.5752 107.137C64.3048 108.406 68.1362 114.521 73.362 120.277C79.5595 126.702 86.7162 133.231 89.8946 141.714C94.2712 153.394 99.3142 165.522 107.558 149.428C114.716 123.879 119.598 144.424 133.824 129.375C140.647 122.157 145.659 114.257 145.402 104.53C145.318 101.319 144.549 98.2876 145.764 95.245C151.452 80.9933 151.579 71.5793 144.227 57.3905C141.789 52.6851 138.454 49.5337 135.8 44.862C134.313 42.2457 132.498 40.3766 131.773 37.0243C130.602 31.6066 130.255 28.1174 131.136 23.0262Z" fill="black"/>
<path d="M23.1846 45.4825C22.231 45.7214 21.5546 48.8415 22.7023 46.9028C23.3794 45.7585 25.654 46.095 25.5968 44.9866C25.5555 44.1855 23.881 45.3075 23.1846 45.4825Z" fill="black"/>
<path d="M33.1232 40.6661C32.4223 40.3519 31.2819 41.6803 31.4783 42.349C31.6691 42.9997 33.6608 40.9073 33.1232 40.6661Z" fill="black"/>
<path d="M40.8725 14.0105C41.5008 12.6731 35.7414 18.0684 33.8547 18.5991C31.1008 19.3732 23.176 22.7524 26.0943 22.1118C32.299 20.752 37.7244 20.7083 40.8725 14.0105Z" fill="black"/>
<path d="M53.1149 8.02165C49.2465 8.8025 46.1848 12.3747 42.8123 14.7632C40.3901 16.4798 55.26 7.58747 53.1149 8.02165Z" fill="black"/>
<path d="M52.583 6.36359C54.6418 4.81086 54.2143 3.62948 52.2667 6.05057C50.8463 7.81646 45.6788 7.53598 46.3744 9.69005C46.8714 11.2304 50.9058 7.63023 52.583 6.36359Z" fill="black"/>
<path d="M46.0939 10.0603C45.4106 9.41069 43.206 11.4167 43.7132 12.064C44.2483 12.745 46.721 10.656 46.0939 10.0603Z" fill="black"/>
<path d="M46.6425 2.93721C45.7427 3.07857 45.6574 4.14774 44.6466 4.80182C43.9925 5.2259 41.466 7.49891 42.7494 7.44618C43.5898 7.4114 48.184 2.69375 46.6425 2.93721Z" fill="black"/>
</g>
<defs>
<clipPath id="clip0_609_650">
<rect width="150" height="157.292" fill="white"/>
</clipPath>
</defs>
</svg>
