<svg width="150" height="151" viewBox="0 0 150 151" fill="none" xmlns="http://www.w3.org/2000/svg">
<g clip-path="url(#clip0_609_517)">
<path d="M117.697 29.0192C117.698 29.0119 117.698 29.0098 117.697 29.0098C117.697 29.0192 117.692 29.0424 117.697 29.0192Z" fill="black"/>
<path d="M117.697 29.0097C117.697 29.0045 117.695 29.0034 117.69 29.0171C117.681 29.0444 117.693 29.0118 117.697 29.0097Z" fill="black"/>
<path d="M83.1379 53.6672C79.4783 57.8947 80.6154 64.6468 77.9414 69.1174C75.9194 72.4971 73.13 75.2541 71.8171 79.1398C67.9165 90.6812 59.2229 103.422 57.3529 112.324C55.2094 122.528 66.2144 93.9558 70.8955 84.8842C72.941 80.9207 74.0371 76.244 76.7547 72.8095C78.3172 70.8351 80.2496 69.1868 80.6816 66.5371C82.3076 56.5599 85.7074 55.5901 88.8923 47.3558C89.7605 45.1111 89.284 42.4246 88.9797 39.8927C88.2764 34.0399 94.3011 30.1384 95.2883 24.636C93.7716 26.4189 91.7848 28.7278 89.4461 32.4179C84.2842 40.5606 90.7583 44.8628 83.1379 53.6672Z" fill="black"/>
<path d="M95.3449 21.9736C95.474 22.9077 95.4401 23.7902 95.2883 24.636C98.5401 20.8134 99.6308 19.4059 97.3957 11.9922C95.5071 14.5188 94.7997 18.0269 95.3449 21.9736Z" fill="black"/>
<path d="M117.185 129.584C115.325 129.466 114.169 131.274 112.244 130.711C110.523 130.208 109.578 128.442 107.915 127.785C101.942 125.42 95.505 124.922 89.3865 124.549C73.8042 123.598 62.4025 134.669 48.7124 139.358C45.4879 140.462 41.1788 141.278 38.753 137.474C34.1824 130.306 32.3977 122.231 30.2703 114.085C27.5029 103.49 23.757 92.6903 16.9613 84.1121C15.3397 82.0651 13.5867 80.198 11.7382 78.2846C10.1105 76.5984 4.542 74.5735 6.28456 72.718C7.21023 71.7324 4.98106 69.1763 5.26728 68.2885C6.55385 64.2986 4.51202 65.1623 2.99824 61.2177C-0.530229 52.0231 8.70192 62.0013 11.2217 65.016C11.9257 65.8586 17.0075 72.9052 15.6922 70.6752C12.6486 65.5157 7.87461 61.6037 4.73934 56.4252C3.9339 55.0956 4.48362 53.2979 3.38576 51.8547C0.732778 48.3677 4.00459 48.0059 4.83779 44.7671C6.07587 39.9547 1.28144 37.5627 7.1184 33.1952C9.34757 31.5269 10.8166 41.2054 12.695 43.165C22.2762 53.1612 15.4207 56.5935 22.9224 64.9256C28.0093 70.5763 27.5151 74.6293 31.0736 80.34C38.0145 91.4806 38.2711 103.853 39.7041 116.493C39.9327 118.51 38.543 122.714 40.3243 122.759C43.0101 122.824 40.9581 116.445 40.87 113.379C40.7125 107.903 40.9584 102.259 39.3457 96.92C38.5143 94.1672 38.8758 91.3144 37.5338 88.8193C35.7197 85.4448 34.2643 82.1777 31.9282 78.9957C29.5752 75.7916 29.8478 70.9245 27.5309 67.6068C25.999 65.4137 23.4779 63.8347 22.3566 61.4133C20.5066 57.4203 21.0546 52.8982 19.4773 48.8684C17.5937 44.056 13.5457 40.9003 11.022 36.191C9.37713 33.1216 9.94252 30.7611 10.7979 27.9084C11.9248 24.1521 15.3261 23.6924 17.9075 21.5339C24.3248 16.1671 18.4286 15.2194 28.781 14.8554C32.6887 14.7176 31.3304 8.88173 34.9184 7.83405C40.4145 6.22991 35.7026 11.481 37.8946 17.3358C42.1667 28.7478 41.1706 31.9761 41.0324 43.1409C40.9926 46.3554 42.951 49.0073 43.7105 52.0693C44.7549 56.2801 44.3073 60.5928 43.9498 64.7394C43.4717 70.2871 45.6119 74.9564 47.0024 80.138C48.6664 86.339 45.522 92.8302 47.9102 98.9438C50.2446 104.92 43.5899 113.368 47.933 117.691C49.1551 118.907 47.9613 112.246 48.6863 110.73C49.859 108.277 49.9407 105.38 49.7874 102.56C49.3652 94.793 48.624 87.2246 48.4405 79.4469C48.3805 76.9066 46.5474 74.8354 45.8666 72.4561C44.4796 67.6079 45.9524 62.5778 45.602 57.6423C44.7893 46.1914 40.8958 45.1889 42.4732 31.4996C43.3893 23.5493 33.8902 13.508 39.8389 7.91505C44.503 3.53075 41.7001 2.31582 49.6842 4.46904C52.9375 5.34632 54.3869 1.15242 57.4253 1.43223C66.1461 2.23482 59.2911 13.7878 58.0788 18.2783C57.0771 21.9873 59.5193 25.8193 59.5406 29.664C59.5793 36.6728 57.8028 43.4806 59.3719 50.5735C61.3597 59.5588 55.7934 67.6721 56.7062 76.6868C57.7559 87.0542 54.884 96.8221 54.5888 107.051C54.5499 108.399 55.1255 107.607 55.1891 106.746C56.1726 93.4329 57.8615 80.5304 59.03 67.1966C59.4542 62.3558 61.955 57.7969 61.0306 52.9592C59.5324 45.1184 61.1794 37.6447 60.7529 29.827C60.1944 19.5911 58.4866 21.251 62.1633 11.2106C65.9775 0.793735 61.1911 8.40838 67.6534 3.62858C70.0541 1.85298 71.2395 1.14085 74.1686 2.65558C76.279 3.74744 79.3755 5.70817 81.4377 4.76883C83 4.05775 84.3347 2.46729 86.1591 3.90523C87.6932 5.11385 90.281 4.41329 91.1291 6.20782C92.5777 9.27409 96.4269 8.87858 97.2015 11.3589C97.2689 11.5756 97.3334 11.786 97.3957 11.9922C98.5246 10.4817 100.075 9.32143 102.033 8.62823C103.334 8.1675 103.872 10.447 104.484 11.4326C105.386 12.8884 106.582 14.096 107.552 15.5213C109.592 18.5192 114.359 15.0111 116.258 18.5444C117.29 20.4652 116.739 23.5914 118.832 24.7422C119.808 25.2776 119.793 25.2555 119.286 26.1528C118.763 27.0795 116.729 28.469 117.713 29.0003C120.091 30.2836 120.529 25.3649 123.55 26.6198C132.202 30.2162 127.848 37.5227 122.491 40.6689C118.552 42.982 114.967 46.5027 112.9 50.8091C111.622 53.4715 110.735 56.3411 108.253 57.92C96.8715 65.1591 95.7382 70.61 86.8635 79.1808C83.9335 82.0104 80.8022 84.8958 78.3698 88.2492C76.0788 91.408 75.0841 95.7597 71.8932 98.0329C67.8894 100.886 66.2103 105.594 63.0065 109.15C62.6798 109.512 63.1381 110.012 63.4633 109.586C66.0506 106.196 68.392 102.547 71.7541 99.9704C75.4715 97.1219 76.985 92.5399 79.7864 88.8782C83.2837 84.3078 87.6885 80.5904 91.6714 76.4564C98.1462 69.7359 99.1047 64.7489 108.484 59.6924C113.27 57.1121 113.922 50.8102 117.676 47.0213C121.596 43.0651 126.71 40.509 129.554 35.4936C129.823 35.0202 129.965 35.0634 130.323 35.5525C131.83 37.6132 134.303 38.178 136.434 39.0648C141.918 41.3453 134.633 47.0571 137.335 51.0637C139.652 54.5003 144.997 55.6952 143.654 61.2124C142.196 67.205 136.57 65.5115 132.491 67.0241C128.898 68.3568 126.442 71.1759 123.071 72.6759C119.637 74.2033 115.951 75.131 112.704 77.2138C109.398 79.3344 106.542 82.1156 103.175 84.0637C100.546 85.5837 97.3256 85.7972 94.5913 87.1615C82.2757 93.3046 72.8388 104.172 63.9906 114.761C62.1483 116.967 56.8214 123.547 59.1271 121.978C61.4809 120.377 65.699 115.29 68.7667 111.841C73.5469 106.466 79.1587 102.287 83.9142 97.0094C86.3351 94.3228 89.2157 92.3842 92.1308 90.3162C95.7143 87.7748 100.267 87.6686 103.862 85.3828C107.113 83.3148 109.797 80.5704 113.127 78.5613C117.442 75.9557 122.677 75.1216 126.767 72.2173C130.834 69.3277 135.447 67.6005 140.636 66.9484C145.123 66.3846 141.795 66.8484 145.036 68.9364C146.409 69.82 149.433 71.2885 148.658 73.0209C143.484 84.5918 151.698 82.5606 145.359 90.8642C143.944 92.7176 147.346 95.0097 146.846 97.1061C146.595 98.1591 145.898 98.7881 145.242 99.4771C143.77 99.0216 125.441 100.824 118.669 101.801C117.657 101.947 113.708 103.02 116.243 102.619C125.288 101.187 136.072 101.839 143.839 100.054C144.372 99.9315 144.751 99.8285 144.996 99.7432C144.874 99.8789 144.756 100.02 144.645 100.168C143.831 101.259 144.503 103.111 143.54 104.073C136.308 111.296 131.417 106.283 123.02 107.649C115.259 108.913 106.342 106.218 99.2264 110.482C94.181 113.505 88.3384 112.868 83.1564 115.096C78.9925 116.886 73.9136 118.957 71.4419 122.926C70.6333 124.225 68.3684 124.12 68.2929 125.663C68.2631 126.275 67.2138 125.68 67.4628 126.183C68.2891 127.85 80.7902 115.061 89.8284 114.984C97.6669 114.917 103.782 108.677 112.438 110.423C116.145 111.171 119.84 110.089 123.424 109.403C127.214 108.677 130.963 109.784 134.762 110.546C136.132 110.821 135.751 113.225 136.41 114.648C137.698 117.427 133.564 119.747 131.193 120.2C127.475 120.912 127.045 127.99 123.839 126.674C123.6 126.576 123.319 126.45 123.009 126.303C123.26 126.543 123.355 126.834 123.228 127.199C122.45 129.428 119.542 129.736 117.185 129.584ZM85.8325 128.71C84.1487 131.112 83.9047 133.506 81.977 135.996C80.4918 137.914 82.2944 140.957 81.4667 143.277C80.6127 145.67 78.9821 148.072 76.6451 149.035C73.0141 150.529 64.833 140.246 58.5269 139.128C54.8939 138.483 51.7623 137.883 57.0804 136.605C63.8163 134.987 72.2267 143.105 77.157 143.185C79.6967 143.226 72.4737 140.6 70.0933 139.431C66.4672 137.649 62.6472 136.361 58.7974 136.013C56.6769 135.821 60.9923 133.94 62.4467 134.308C64.5826 134.849 72.8881 136.318 72.074 135.826C68.9828 133.963 68.5415 135.483 65.9269 134.142C60.563 131.391 72.8636 133.835 78.1562 134.099C81.7363 134.278 66.1846 131.408 67.9679 130.717C73.0018 128.767 77.0104 127.253 82.3921 126.208C85.007 125.7 88.7688 124.522 85.8325 128.71ZM31.6656 124.586C24.093 124.929 -3.15818 119.162 8.87433 105.32C10.9552 102.927 9.06483 102.289 11.7759 98.9417C13.1542 97.2387 10.5281 94.0241 12.1973 92.0507C13.5242 90.4824 15.8777 89.7702 16.4646 87.6601C17.339 84.516 18.6095 88.812 19.315 89.8954C22.2006 94.327 24.5941 99.0164 26.0739 104.045C26.3213 104.887 26.8503 106.53 27.1199 107.267C28.2536 110.369 29.0885 112.741 29.6908 115.127C30.1582 116.979 31.6039 122.174 31.1891 121.698C22.9629 112.264 20.8559 111.727 14.6152 108.676C9.83376 106.338 20.7619 112.48 22.5993 114.047C24.4069 115.59 33.9992 124.481 31.6656 124.586ZM125.823 128.726C131.143 121.555 140.05 121.126 137.51 112.908C136.904 110.945 138.213 109.809 139.88 109.538C144.667 108.763 144.463 103.013 146.992 99.9147C148.897 97.5816 147.844 95.4746 147.04 92.6556C146.05 89.1801 151.472 87.4193 148.178 82.1724C145.412 77.766 152.721 73.2503 148.683 69.1773C147.445 67.9287 144.59 68.3442 144.546 65.9133C144.477 62.1759 147.386 56.4073 142.49 53.664C140.904 52.7762 139.242 51.7937 138.477 49.9108C137.554 47.6388 138.943 45.2625 139.841 43.427C142.83 37.3186 132.741 38.3148 131.384 34.3102C126.585 20.1454 122.227 29.5083 117.372 17.6251C116.109 14.5315 112.527 15.4624 109.816 14.8228C106.518 14.0465 105.717 8.72922 102.905 6.86947C101.083 5.66295 99.0711 8.42417 97.235 8.15804C92.3214 7.44591 86.2264 -1.34793 82.0489 2.28531C80.4006 3.71904 78.5283 3.06477 76.8547 2.25481C65.7917 -3.09932 69.9117 2.91751 64.6415 2.17697C61.6043 1.75096 59.1179 -0.688385 55.8789 0.188894C53.1655 0.924167 51.3167 4.89821 48.2633 3.06055C43.3425 0.0994751 41.9332 7.14191 38.2413 6.35509C36.6891 6.0248 35.054 6.12472 33.6913 6.84842C31.8772 7.81091 31.1818 9.89261 30.5253 11.8092C29.3426 15.2636 24.1355 12.5276 21.1985 13.7373C18.0105 15.0511 19.4921 19.7625 16.5823 20.7082C14.4964 21.3856 12.2158 22.0146 10.5043 23.4242C9.56458 24.1984 9.31896 25.3702 9.32359 26.5546C9.344 31.7183 3.53902 31.8309 2.4624 36.4729C1.09652 42.3635 5.13327 41.2569 1.24273 46.9077C0.747187 47.6272 -0.377813 48.4582 0.127832 49.5995C0.860161 51.252 1.25851 52.9655 2.27717 54.5444C4.23621 57.5802 -1.83342 60.9357 1.77257 63.3772C3.56521 64.59 5.07773 65.6188 3.88288 68.1528C2.2819 71.5472 6.87825 76.3944 10.2946 78.7937C18.9197 84.8516 15.6966 86.1359 10.8477 92.421C9.61854 94.0136 12.0235 97.7751 10.5348 98.6219C8.35438 99.8631 8.78281 101.818 8.35522 103.776C7.8541 106.072 4.95655 106.94 4.45438 109.311C3.20368 115.217 10.3753 120.582 14.6496 122.372C19.7467 124.506 25.1021 125.028 30.4193 125.278C33.1914 125.409 33.6072 129.174 34.4606 131.786C35.553 135.129 36.9954 138.007 39.129 140.333C43.9389 145.574 50.7217 138.671 56.5603 139.972C66.6447 142.221 72.8667 155.421 80.0361 148.326C84.763 143.648 80.5335 138.48 84.8154 134.334C86.2013 132.991 85.5347 130.494 87.0364 129.123C87.8264 128.402 87.5845 126.869 88.2422 126.051C89.3957 124.615 92.874 125.967 94.9761 126.105C98.7208 126.349 102.154 127.495 105.883 128.539C108.45 129.256 109.309 131.794 112.206 132.172C115.025 132.539 117.066 130.942 119.581 130.621C121.823 130.333 124.405 130.637 125.823 128.726Z" fill="black"/>
<path d="M54.0348 31.9793C52.3689 25.8057 54.0825 42.1963 54.4985 48.5792C54.6764 51.3099 53.5212 61.1956 54.1468 59.8513C58.2732 50.9796 56.413 40.7941 54.0348 31.9793Z" fill="black"/>
<path d="M81.431 20.6966C82.45 15.5749 85.5029 0.314068 83.1612 4.5816C79.5928 11.0844 79.3131 19.2944 80.1444 26.9038C80.324 28.5458 81.2041 21.8369 81.431 20.6966Z" fill="black"/>
<path d="M67.9493 62.9111C70.307 52.388 72.7546 50.098 71.6402 43.469C70.5214 36.8137 66.8735 67.712 67.9493 62.9111Z" fill="black"/>
<path d="M144.074 79.6343C144.425 79.5712 144.273 79.1031 143.939 79.2335C138.473 81.3783 128.117 83.1697 127.075 85.4492C126.018 87.7612 131.803 83.9765 134.16 83.2297C137.528 82.162 140.59 80.2633 144.074 79.6343Z" fill="black"/>
<path d="M73.6511 23.706C72.4242 18.578 70.387 43.6552 72.2893 40.4154C74.9041 35.9606 74.9714 29.2253 73.6511 23.706Z" fill="black"/>
<path d="M75.8344 47.5483C78.7604 43.4291 79.5766 39.3993 79.4794 33.0606C79.4145 28.832 73.1507 51.3267 75.8344 47.5483Z" fill="black"/>
<path d="M122.599 63.7391C123.887 61.5953 115.244 68.3884 112.111 70.2008C111.588 70.5027 109.697 70.9424 110.432 71.1759C113.67 72.2015 120.994 66.4088 122.599 63.7391Z" fill="black"/>
<path d="M109.893 71.5642C108.473 71.418 102.287 76.8615 103.345 76.4671C105.908 75.5109 112.645 71.8461 109.893 71.5642Z" fill="black"/>
<path d="M132.421 58.1629C134.759 56.9448 137.447 56.8796 138.746 54.88C140.08 52.8277 130.318 59.259 132.421 58.1629Z" fill="black"/>
<path d="M112.597 63.636C111.147 64.8678 106.774 65.6988 108.206 67.3429C109.16 68.4379 114.188 62.2864 112.597 63.636Z" fill="black"/>
<path d="M111.338 37.9823C111.351 37.9802 111.369 37.9834 111.366 37.9728C111.364 37.9644 111.349 37.9749 111.338 37.9823Z" fill="black"/>
<path d="M111.338 37.9824C111.334 37.9835 111.329 37.9856 111.327 37.9887C111.323 37.9951 111.329 37.9898 111.338 37.9824Z" fill="black"/>
<path d="M121.604 56.8648C119.62 57.4139 117.01 59.1727 116.784 60.5485C116.445 62.6103 123.102 56.4504 121.604 56.8648Z" fill="black"/>
<path d="M91.5693 53.7912C92.667 54.9598 93.3208 51.2088 94.0463 49.8792C95.6527 46.937 90.5946 52.754 91.5693 53.7912Z" fill="black"/>
<path d="M94.5372 48.5129C94.524 48.5224 94.5273 48.5161 94.5372 48.5129V48.5129Z" fill="black"/>
<path d="M127.76 60.8516C129.273 60.4266 132.829 59.7682 131.806 58.4312C131.109 57.5203 126.636 61.1672 127.76 60.8516Z" fill="black"/>
<path d="M54.1937 29.3147C55.2238 29.218 53.5264 22.3449 53.8974 25.6247C54.0345 26.8386 53.0592 29.4199 54.1934 29.3147H54.1937C54.1815 29.3211 54.184 29.3547 54.198 29.3621C54.2207 29.3736 54.2181 29.3032 54.1937 29.3147Z" fill="black"/>
<path d="M74.4016 52.6489C75.793 53.057 77.0001 48.9778 75.6143 48.476C74.2423 47.9795 72.9837 52.2334 74.4016 52.6489Z" fill="black"/>
<path d="M79.836 28.6216C79.7034 29.4368 78.8084 30.8989 79.4593 31.1924C80.5419 31.6816 80.3533 25.4428 79.836 28.6216Z" fill="black"/>
<path d="M79.9769 27.21C79.9898 27.2121 79.9847 27.1848 79.9763 27.1753C79.9594 27.1564 79.9622 27.2079 79.9769 27.21Z" fill="black"/>
<path d="M67.2714 63.8758C65.7096 63.7138 64.7418 67.9814 66.2446 68.5883C67.2829 69.008 68.318 63.9842 67.2714 63.8758Z" fill="black"/>
<path d="M135.717 47.9218C137.222 47.0866 133.595 48.5087 133.272 49.1136C132.933 49.7468 135.149 48.2373 135.717 47.9218Z" fill="black"/>
<path d="M122.701 56.3622C123.933 57.4204 127.507 53.0319 126.186 53.6778C125.348 54.088 121.67 55.4765 122.701 56.3622Z" fill="black"/>
<path d="M96.1413 57.538C97.3358 58.0818 99.2586 54.9104 98.3913 54.2845C97.7894 53.8501 95.7022 57.3382 96.1413 57.538Z" fill="black"/>
<path d="M91.3189 63.8641C90.2055 63.0352 87.954 66.1625 89.0549 66.9893C90.1598 67.8182 92.4549 64.7109 91.3189 63.8641Z" fill="black"/>
<path d="M99.1384 38.705C98.0074 38.5241 96.8292 41.908 97.7528 42.1647C98.8353 42.4655 100.042 38.8502 99.1384 38.705Z" fill="black"/>
<path d="M53.6506 62.1624C53.6213 62.1666 53.6245 62.1823 53.6506 62.1624V62.1624Z" fill="black"/>
<path d="M95.5717 46.2638C95.0988 46.9023 94.0087 47.8396 94.6033 48.4413C95.0711 48.9146 96.3046 45.2761 95.5717 46.2638Z" fill="black"/>
<path d="M94.5433 48.5096H94.541C94.5394 48.5107 94.5385 48.5117 94.5372 48.5128C94.5394 48.5117 94.5418 48.5107 94.5443 48.5107C94.5471 48.5117 94.5578 48.516 94.5616 48.5149C94.6588 48.4749 94.6232 48.4791 94.5433 48.5096Z" fill="black"/>
<path d="M54.1763 23.2843C54.0905 22.7636 54.392 21.617 53.9296 21.6317C53.3481 21.6496 54.4928 25.2019 54.1763 23.2843Z" fill="black"/>
<path d="M50.8231 52.6931C50.0709 52.9876 50.4109 55.4375 51.2182 55.2681C51.933 55.1198 51.4441 52.4501 50.8231 52.6931Z" fill="black"/>
<path d="M93.9264 60.3751C93.7976 59.9974 91.9337 61.8687 92.2933 62.4946C92.6352 63.0889 94.1853 61.1345 93.9264 60.3751Z" fill="black"/>
<path d="M90.9443 54.9367C90.2462 54.6843 89.1619 56.5282 89.8575 56.8985C90.4572 57.2172 91.2872 55.0609 90.9443 54.9367Z" fill="black"/>
<path d="M89.8452 56.9153C89.8503 56.9458 89.8537 56.929 89.862 56.9153C89.8761 56.8911 89.8444 56.9101 89.8452 56.9153Z" fill="black"/>
<path d="M116.406 31.1208C117.046 31.5226 117.335 30.0825 117.625 29.4377C118.03 28.5405 115.94 30.8294 116.406 31.1208Z" fill="black"/>
<path d="M74.0152 19.9907C73.3496 19.7824 73.191 21.9041 73.8643 22.0535C74.575 22.2112 74.6597 20.1927 74.0152 19.9907Z" fill="black"/>
<path d="M85.632 63.6213C85.6335 63.6224 85.6319 63.6234 85.6333 63.6213C85.6341 63.6203 85.632 63.6213 85.632 63.6213Z" fill="black"/>
<path d="M85.8547 63.7842C86.2091 63.7284 86.7775 62.8659 86.4732 62.605C86.0981 62.2842 85.4792 63.1331 85.6341 63.6211C85.6345 63.6222 85.635 63.6232 85.6353 63.6232H85.6328C84.8321 63.5202 83.8423 65.5619 84.6603 65.7733C85.291 65.9364 86.1084 64.3143 85.8547 63.7842Z" fill="black"/>
<path d="M74.1614 12.8159C73.8852 12.94 74.2416 14.9354 74.4817 14.2917C74.647 13.8488 74.6507 12.5939 74.1614 12.8159Z" fill="black"/>
<path d="M102.969 48.5107C103.316 48.9041 104.451 47.8522 103.946 47.3725C103.453 46.9045 102.626 48.1236 102.969 48.5107Z" fill="black"/>
<path d="M108.626 19.2008C108.012 18.8274 107.481 20.5136 107.968 20.623C108.461 20.7345 109.166 19.528 108.626 19.2008Z" fill="black"/>
<path d="M74.2653 15.2666C73.8458 15.1983 73.7758 16.4406 74.2107 16.4553C74.6106 16.4679 74.6737 15.3319 74.2653 15.2666Z" fill="black"/>
<path d="M73.7976 54.3825C74.5575 54.7527 74.6528 53.1875 74.1579 53.0676C73.683 52.9529 73.383 54.1795 73.7976 54.3825Z" fill="black"/>
<path d="M100.425 36.2352C100.014 35.9953 99.2712 37.2702 99.8299 37.6068C100.396 37.9466 100.833 36.4729 100.425 36.2352Z" fill="black"/>
<path d="M53.6585 62.1559C53.6554 62.1591 53.6532 62.1601 53.6506 62.1622C53.6564 62.1622 53.6634 62.1622 53.6717 62.1633C53.6767 62.1643 53.6816 62.1664 53.6833 62.1643C53.6979 62.1465 53.6601 62.1286 53.6585 62.1559Z" fill="black"/>
<path d="M53.8748 60.8178C53.8868 60.7862 53.9007 60.7989 53.8828 60.7936C53.8154 60.7757 53.8564 60.8672 53.8748 60.8178Z" fill="black"/>
<path d="M53.8792 60.8463C53.4175 60.7337 53.1534 62.0349 53.6719 62.138C54.1512 62.2337 54.35 60.9609 53.8792 60.8463Z" fill="black"/>
<path d="M89.8363 56.9301C89.3971 56.5135 88.5903 57.8683 89.0183 58.226C89.4624 58.5973 90.24 57.3119 89.8363 56.9301Z" fill="black"/>
<path d="M116.37 31.1504C116.351 31.1609 116.365 31.1588 116.38 31.1567C116.406 31.1693 116.429 31.1377 116.394 31.1556C116.392 31.1567 116.39 31.1567 116.387 31.1556H116.392C116.394 31.1556 116.375 31.1472 116.37 31.1504Z" fill="black"/>
<path d="M115.471 32.4432C115.525 32.481 115.621 32.3211 115.567 32.2812C115.514 32.2412 115.415 32.4042 115.471 32.4432Z" fill="black"/>
<path d="M116.367 31.1672C115.949 30.798 115.171 31.9888 115.567 32.2812C115.96 32.5705 116.775 31.528 116.367 31.1672Z" fill="black"/>
<path d="M53.854 19.8489C53.3043 19.7974 53.1993 20.9166 53.8407 21.0228C54.3371 21.1059 54.2492 19.8857 53.854 19.8489Z" fill="black"/>
<path d="M97.014 43.548C96.466 43.2587 95.9995 44.563 96.392 44.8228C96.7926 45.0869 97.5931 43.8551 97.014 43.548Z" fill="black"/>
<path d="M72.9625 57.0827C73.2946 57.17 73.7426 56.2264 73.2873 56.016C72.8276 55.8036 72.5804 56.9827 72.9625 57.0827Z" fill="black"/>
<path d="M124.686 62.3851C124.46 62.1116 123.806 62.5724 123.916 62.8091C124.026 63.0457 124.937 62.6912 124.686 62.3851Z" fill="black"/>
<path d="M123.741 62.9058C123.777 62.9563 123.952 62.8869 123.916 62.8091C123.88 62.7312 123.703 62.8543 123.741 62.9058Z" fill="black"/>
<path d="M88.4143 59.0329C88.007 58.9109 87.6313 59.7608 87.9008 60.0028C88.5076 60.5487 88.8535 59.1633 88.4143 59.0329Z" fill="black"/>
<path d="M104.357 46.8447C104.814 47.399 105.406 46.2493 104.969 46.0295C104.64 45.8633 104.088 46.5196 104.357 46.8447Z" fill="black"/>
<path d="M101.961 49.6857C102.266 49.9108 102.707 49.5016 102.43 49.1997C102.258 49.0114 101.668 49.469 101.961 49.6857Z" fill="black"/>
<path d="M87.0761 61.568C86.5036 61.0873 86.0628 62.2907 86.5059 62.5547C86.8544 62.7619 87.3975 61.8373 87.0761 61.568Z" fill="black"/>
<path d="M86.4806 62.5798C86.4565 62.5914 86.4684 62.5924 86.4878 62.5893C86.49 62.5903 86.4924 62.5893 86.495 62.5882C86.4971 62.5882 86.4993 62.5872 86.5016 62.5872C86.5018 62.5872 86.5007 62.5861 86.499 62.5851C86.5088 62.5777 86.5167 62.5609 86.5059 62.5546C86.4947 62.5472 86.4784 62.5672 86.4806 62.5798Z" fill="black"/>
<path d="M101.166 34.3722C100.884 34.4658 100.551 35.2369 100.907 35.2811C101.174 35.3137 101.459 34.2744 101.166 34.3722Z" fill="black"/>
<path d="M114.625 62.2705C114.622 62.0002 113.717 62.483 114.019 62.7028C114.297 62.9048 114.629 62.5314 114.625 62.2705Z" fill="black"/>
<path d="M100.641 51.3698C101.077 51.7295 101.366 50.9648 101.112 50.7407C100.914 50.5651 100.321 51.1057 100.641 51.3698Z" fill="black"/>
<path d="M85.6338 63.6211C85.6345 63.6211 85.6331 63.6211 85.6333 63.6211C85.634 63.6232 85.6321 63.6211 85.6338 63.6211Z" fill="black"/>
<path d="M115.701 61.3564C115.508 61.0104 114.86 61.4616 115.022 61.7583C115.185 62.056 115.897 61.7046 115.701 61.3564Z" fill="black"/>
<path d="M111.366 37.973C111.384 38.0077 111.403 38.0372 111.423 38.0603C111.395 38.0393 111.365 38.0182 111.331 37.9983C109.817 37.1115 109.363 40.6932 108.353 41.9912C107.718 42.8065 105.512 44.0351 106.344 44.6041C107.514 45.4057 108.204 42.574 109.009 41.4663C109.75 40.446 112.239 38.864 111.483 38.1129C111.789 38.3075 112.25 37.5554 111.94 37.2682C111.66 37.0084 111.208 37.6617 111.366 37.973Z" fill="black"/>
<path d="M74.2863 11.5736C74.0274 11.52 73.9125 12.1879 74.2204 12.2658C74.5326 12.3447 74.5563 11.6294 74.2863 11.5736Z" fill="black"/>
<path d="M107.428 21.5739C107.212 21.4183 106.928 21.9726 107.172 22.1136C107.429 22.2629 107.612 21.7065 107.428 21.5739Z" fill="black"/>
<path d="M91.6984 63.3498C91.8177 63.4876 92.0421 63.2541 91.96 63.1079C91.8453 62.9028 91.5465 63.1741 91.6984 63.3498Z" fill="black"/>
<path d="M74.3008 10.4385C74.1055 10.2839 74.0024 10.9361 74.2185 10.9413C74.4194 10.9466 74.4626 10.5658 74.3008 10.4385Z" fill="black"/>
<path d="M103.69 29.4556C103.615 29.2947 103.403 29.5766 103.433 29.6965C103.5 29.9627 103.753 29.5913 103.69 29.4556Z" fill="black"/>
<path d="M131.111 50.5009C131.028 50.5177 130.85 50.4778 130.951 50.6597C131.023 50.7912 131.404 50.442 131.111 50.5009Z" fill="black"/>
<path d="M105.872 24.7989C105.706 24.719 105.506 25.105 105.694 25.1944C105.859 25.2723 106.059 24.8883 105.872 24.7989Z" fill="black"/>
<path d="M96.1726 45.3098C95.9277 45.1962 95.7998 45.7159 95.9344 45.8274C96.0866 45.9536 96.4471 45.4361 96.1726 45.3098Z" fill="black"/>
<path d="M95.9145 45.8433C95.8964 45.8401 95.8819 45.8559 95.907 45.8443C95.9073 45.8433 95.9082 45.8443 95.9087 45.8443H95.9081C95.907 45.8443 95.9244 45.8527 95.9291 45.8496C95.9566 45.8359 95.9323 45.8401 95.9145 45.8433Z" fill="black"/>
<path d="M125.495 61.973C125.56 62.035 125.672 61.9719 125.652 61.8836C125.629 61.7857 125.421 61.9015 125.495 61.973Z" fill="black"/>
<path d="M106.87 22.8183C106.767 22.5038 106.513 23.0855 106.735 23.0949C106.877 23.1002 106.909 22.9382 106.87 22.8183Z" fill="black"/>
<path d="M113.534 35.1717C113.617 35.2222 113.733 35.0581 113.684 34.9761C113.607 34.8456 113.408 35.0949 113.534 35.1717Z" fill="black"/>
<path d="M94.2926 59.8029C94.3328 59.986 94.5098 59.6336 94.3104 59.7472C94.298 59.7535 94.2885 59.785 94.2926 59.8029Z" fill="black"/>
<path d="M127.156 53.2149C127.251 53.157 127.196 53.0645 127.101 53.1223C127.006 53.1812 127.06 53.2727 127.156 53.2149Z" fill="black"/>
<path d="M105.408 45.5665C105.441 45.7222 105.635 45.5792 105.571 45.4866C105.514 45.4035 105.388 45.4729 105.408 45.5665Z" fill="black"/>
<path d="M102.284 32.1359C102.249 32.1453 102.213 32.1832 102.205 32.22C102.155 32.4451 102.475 32.0822 102.284 32.1359Z" fill="black"/>
<path d="M121.678 125.646C122.155 125.888 122.607 126.112 123.009 126.302C122.73 126.034 122.256 125.827 121.678 125.646Z" fill="black"/>
<path d="M83.1379 53.6672C79.4783 57.8947 80.6154 64.6468 77.9414 69.1174C75.9194 72.4971 73.13 75.2541 71.8171 79.1398C67.9165 90.6812 59.2229 103.422 57.3529 112.324C55.2094 122.528 66.2144 93.9558 70.8955 84.8842C72.941 80.9207 74.0371 76.244 76.7547 72.8095C78.3172 70.8351 80.2496 69.1868 80.6816 66.5371C82.3076 56.5599 85.7074 55.5901 88.8923 47.3558C89.7605 45.1111 89.284 42.4246 88.9797 39.8927C88.2764 34.0399 94.3011 30.1384 95.2883 24.636C93.7716 26.4189 91.7848 28.7278 89.4461 32.4179C84.2842 40.5606 90.7583 44.8628 83.1379 53.6672Z" fill="black"/>
<path d="M115.899 123.564C116.836 124.759 119.802 125.06 121.678 125.646C118.648 124.114 114.604 121.912 115.899 123.564Z" fill="black"/>
<path d="M117.185 129.584C115.325 129.466 114.169 131.274 112.244 130.711C110.523 130.208 109.578 128.442 107.915 127.785C101.942 125.42 95.505 124.922 89.3865 124.549C73.8042 123.598 62.4025 134.669 48.7124 139.358C45.4879 140.462 41.1788 141.278 38.753 137.474C34.1824 130.306 32.3977 122.231 30.2703 114.085C27.5029 103.49 23.757 92.6903 16.9613 84.1121C15.3397 82.0651 13.5867 80.198 11.7382 78.2846C10.1105 76.5984 4.542 74.5735 6.28456 72.718C7.21023 71.7324 4.98106 69.1763 5.26728 68.2885C6.55385 64.2986 4.51202 65.1623 2.99824 61.2177C-0.530229 52.0231 8.70192 62.0013 11.2217 65.016C11.9257 65.8586 17.0075 72.9052 15.6922 70.6752C12.6486 65.5157 7.87461 61.6037 4.73934 56.4252C3.9339 55.0956 4.48362 53.2979 3.38576 51.8547C0.732778 48.3677 4.00459 48.0059 4.83779 44.7671C6.07587 39.9547 1.28144 37.5627 7.1184 33.1952C9.34757 31.5269 10.8166 41.2054 12.695 43.165C22.2762 53.1612 15.4207 56.5935 22.9224 64.9256C28.0093 70.5763 27.5151 74.6293 31.0736 80.34C38.0145 91.4806 38.2711 103.853 39.7041 116.493C39.9327 118.51 38.543 122.714 40.3243 122.759C43.0101 122.824 40.9581 116.445 40.87 113.379C40.7125 107.903 40.9584 102.259 39.3457 96.92C38.5143 94.1672 38.8758 91.3144 37.5338 88.8193C35.7197 85.4448 34.2643 82.1777 31.9282 78.9957C29.5752 75.7916 29.8478 70.9245 27.5309 67.6068C25.999 65.4137 23.4779 63.8347 22.3566 61.4133C20.5066 57.4203 21.0546 52.8982 19.4773 48.8684C17.5937 44.056 13.5457 40.9003 11.022 36.191C9.37713 33.1216 9.94252 30.7611 10.7979 27.9084C11.9248 24.1521 15.3261 23.6924 17.9075 21.5339C24.3248 16.1671 18.4286 15.2194 28.781 14.8554C32.6887 14.7176 31.3304 8.88173 34.9184 7.83405C40.4145 6.22991 35.7026 11.481 37.8946 17.3358C42.1667 28.7478 41.1706 31.9761 41.0324 43.1409C40.9926 46.3554 42.951 49.0073 43.7105 52.0693C44.7549 56.2801 44.3073 60.5928 43.9498 64.7394C43.4717 70.2871 45.6119 74.9564 47.0024 80.138C48.6664 86.339 45.522 92.8302 47.9102 98.9438C50.2446 104.92 43.5899 113.368 47.933 117.691C49.1551 118.907 47.9613 112.246 48.6863 110.73C49.859 108.277 49.9407 105.38 49.7874 102.56C49.3652 94.793 48.624 87.2246 48.4405 79.4469C48.3805 76.9066 46.5474 74.8354 45.8666 72.4561C44.4796 67.6079 45.9524 62.5778 45.602 57.6423C44.7893 46.1914 40.8958 45.1889 42.4732 31.4996C43.3893 23.5493 33.8902 13.508 39.8389 7.91505C44.503 3.53075 41.7001 2.31582 49.6842 4.46904C52.9375 5.34632 54.3869 1.15242 57.4253 1.43223C66.1461 2.23482 59.2911 13.7878 58.0788 18.2783C57.0771 21.9873 59.5193 25.8193 59.5406 29.664C59.5793 36.6728 57.8028 43.4806 59.3719 50.5735C61.3597 59.5588 55.7934 67.6721 56.7062 76.6868C57.7559 87.0542 54.884 96.8221 54.5888 107.051C54.5499 108.399 55.1255 107.607 55.1891 106.746C56.1726 93.4329 57.8615 80.5304 59.03 67.1966C59.4542 62.3558 61.955 57.7969 61.0306 52.9592C59.5324 45.1184 61.1794 37.6447 60.7529 29.827C60.1944 19.5911 58.4866 21.251 62.1633 11.2106C65.9775 0.793735 61.1911 8.40838 67.6534 3.62858C70.0541 1.85298 71.2395 1.14085 74.1686 2.65558C76.279 3.74744 79.3755 5.70817 81.4377 4.76883C83 4.05775 84.3347 2.46729 86.1591 3.90523C87.6932 5.11385 90.281 4.41329 91.1291 6.20782C92.5777 9.27409 96.4269 8.87858 97.2015 11.3589C97.2689 11.5756 97.3334 11.786 97.3957 11.9922C98.5246 10.4817 100.075 9.32143 102.033 8.62823C103.334 8.1675 103.872 10.447 104.484 11.4326C105.386 12.8884 106.582 14.096 107.552 15.5213C109.592 18.5192 114.359 15.0111 116.258 18.5444C117.29 20.4652 116.739 23.5914 118.832 24.7422C119.808 25.2776 119.793 25.2555 119.286 26.1528C118.763 27.0795 116.729 28.469 117.713 29.0003C120.091 30.2836 120.529 25.3649 123.55 26.6198C132.202 30.2162 127.848 37.5227 122.491 40.6689C118.552 42.982 114.967 46.5027 112.9 50.8091C111.622 53.4715 110.735 56.3411 108.253 57.92C96.8715 65.1591 95.7382 70.61 86.8635 79.1808C83.9335 82.0104 80.8022 84.8958 78.3698 88.2492C76.0788 91.408 75.0841 95.7597 71.8932 98.0329C67.8894 100.886 66.2103 105.594 63.0065 109.15C62.6798 109.512 63.1381 110.012 63.4633 109.586C66.0506 106.196 68.392 102.547 71.7541 99.9704C75.4715 97.1219 76.985 92.5399 79.7864 88.8782C83.2837 84.3078 87.6885 80.5904 91.6714 76.4564C98.1462 69.7359 99.1047 64.7489 108.484 59.6924C113.27 57.1121 113.922 50.8102 117.676 47.0213C121.596 43.0651 126.71 40.509 129.554 35.4936C129.823 35.0202 129.965 35.0634 130.323 35.5525C131.83 37.6132 134.303 38.178 136.434 39.0648C141.918 41.3453 134.633 47.0571 137.335 51.0637C139.652 54.5003 144.997 55.6952 143.654 61.2124C142.196 67.205 136.57 65.5115 132.491 67.0241C128.898 68.3568 126.442 71.1759 123.071 72.6759C119.637 74.2033 115.951 75.131 112.704 77.2138C109.398 79.3344 106.542 82.1156 103.175 84.0637C100.546 85.5837 97.3256 85.7972 94.5913 87.1615C82.2757 93.3046 72.8388 104.172 63.9906 114.761C62.1483 116.967 56.8214 123.547 59.1271 121.978C61.4809 120.377 65.699 115.29 68.7667 111.841C73.5469 106.466 79.1587 102.287 83.9142 97.0094C86.3351 94.3228 89.2157 92.3842 92.1308 90.3162C95.7143 87.7748 100.267 87.6686 103.862 85.3828C107.113 83.3148 109.797 80.5704 113.127 78.5613C117.442 75.9557 122.677 75.1216 126.767 72.2173C130.834 69.3277 135.447 67.6005 140.636 66.9484C145.123 66.3846 141.795 66.8484 145.036 68.9364C146.409 69.82 149.433 71.2885 148.658 73.0209C143.484 84.5918 151.698 82.5606 145.359 90.8642C143.944 92.7176 147.346 95.0097 146.846 97.1061C146.595 98.1591 145.898 98.7881 145.242 99.4771C143.77 99.0216 125.441 100.824 118.669 101.801C117.657 101.947 113.708 103.02 116.243 102.619C125.288 101.187 136.072 101.839 143.839 100.054C144.372 99.9315 144.751 99.8285 144.996 99.7432C144.874 99.8789 144.756 100.02 144.645 100.168C143.831 101.259 144.503 103.111 143.54 104.073C136.308 111.296 131.417 106.283 123.02 107.649C115.259 108.913 106.342 106.218 99.2264 110.482C94.181 113.505 88.3384 112.868 83.1564 115.096C78.9925 116.886 73.9136 118.957 71.4419 122.926C70.6333 124.225 68.3684 124.12 68.2929 125.663C68.2631 126.275 67.2138 125.68 67.4628 126.183C68.2891 127.85 80.7902 115.061 89.8284 114.984C97.6669 114.917 103.782 108.677 112.438 110.423C116.145 111.171 119.84 110.089 123.424 109.403C127.214 108.677 130.963 109.784 134.762 110.546C136.132 110.821 135.751 113.225 136.41 114.648C137.698 117.427 133.564 119.747 131.193 120.2C127.475 120.912 127.045 127.99 123.839 126.674C123.6 126.576 123.319 126.45 123.009 126.303C123.26 126.543 123.355 126.834 123.228 127.199C122.45 129.428 119.542 129.736 117.185 129.584ZM85.8325 128.71C84.1487 131.112 83.9047 133.506 81.977 135.996C80.4918 137.914 82.2944 140.957 81.4667 143.277C80.6127 145.67 78.9821 148.072 76.6451 149.035C73.0141 150.529 64.833 140.246 58.5269 139.128C54.8939 138.483 51.7623 137.883 57.0804 136.605C63.8163 134.987 72.2267 143.105 77.157 143.185C79.6967 143.226 72.4737 140.6 70.0933 139.431C66.4672 137.649 62.6472 136.361 58.7974 136.013C56.6769 135.821 60.9923 133.94 62.4467 134.308C64.5826 134.849 72.8881 136.318 72.074 135.826C68.9828 133.963 68.5415 135.483 65.9269 134.142C60.563 131.391 72.8636 133.835 78.1562 134.099C81.7363 134.278 66.1846 131.408 67.9679 130.717C73.0018 128.767 77.0104 127.253 82.3921 126.208C85.007 125.7 88.7688 124.522 85.8325 128.71ZM31.6656 124.586C24.093 124.929 -3.15818 119.162 8.87433 105.32C10.9552 102.927 9.06483 102.289 11.7759 98.9417C13.1542 97.2387 10.5281 94.0241 12.1973 92.0507C13.5242 90.4824 15.8777 89.7702 16.4646 87.6601C17.339 84.516 18.6095 88.812 19.315 89.8954C22.2006 94.327 24.5941 99.0164 26.0739 104.045C26.3213 104.887 26.8503 106.53 27.1199 107.267C28.2536 110.369 29.0885 112.741 29.6908 115.127C30.1582 116.979 31.6039 122.174 31.1891 121.698C22.9629 112.264 20.8559 111.727 14.6152 108.676C9.83376 106.338 20.7619 112.48 22.5993 114.047C24.4069 115.59 33.9992 124.481 31.6656 124.586ZM125.823 128.726C131.143 121.555 140.05 121.126 137.51 112.908C136.904 110.945 138.213 109.809 139.88 109.538C144.667 108.763 144.463 103.013 146.992 99.9147C148.897 97.5816 147.844 95.4746 147.04 92.6556C146.05 89.1801 151.472 87.4193 148.178 82.1724C145.412 77.766 152.721 73.2503 148.683 69.1773C147.445 67.9287 144.59 68.3442 144.546 65.9133C144.477 62.1759 147.386 56.4073 142.49 53.664C140.904 52.7762 139.242 51.7937 138.477 49.9108C137.554 47.6388 138.943 45.2625 139.841 43.427C142.83 37.3186 132.741 38.3148 131.384 34.3102C126.585 20.1454 122.227 29.5083 117.372 17.6251C116.109 14.5315 112.527 15.4624 109.816 14.8228C106.518 14.0465 105.717 8.72922 102.905 6.86947C101.083 5.66295 99.0711 8.42417 97.235 8.15804C92.3214 7.44591 86.2264 -1.34793 82.0489 2.28531C80.4006 3.71904 78.5283 3.06477 76.8547 2.25481C65.7917 -3.09932 69.9117 2.91751 64.6415 2.17697C61.6043 1.75096 59.1179 -0.688385 55.8789 0.188894C53.1655 0.924167 51.3167 4.89821 48.2633 3.06055C43.3425 0.0994751 41.9332 7.14191 38.2413 6.35509C36.6891 6.0248 35.054 6.12472 33.6913 6.84842C31.8772 7.81091 31.1818 9.89261 30.5253 11.8092C29.3426 15.2636 24.1355 12.5276 21.1985 13.7373C18.0105 15.0511 19.4921 19.7625 16.5823 20.7082C14.4964 21.3856 12.2158 22.0146 10.5043 23.4242C9.56458 24.1984 9.31896 25.3702 9.32359 26.5546C9.344 31.7183 3.53902 31.8309 2.4624 36.4729C1.09652 42.3635 5.13327 41.2569 1.24273 46.9077C0.747187 47.6272 -0.377813 48.4582 0.127832 49.5995C0.860161 51.252 1.25851 52.9655 2.27717 54.5444C4.23621 57.5802 -1.83342 60.9357 1.77257 63.3772C3.56521 64.59 5.07773 65.6188 3.88288 68.1528C2.2819 71.5472 6.87825 76.3944 10.2946 78.7937C18.9197 84.8516 15.6966 86.1359 10.8477 92.421C9.61854 94.0136 12.0235 97.7751 10.5348 98.6219C8.35438 99.8631 8.78281 101.818 8.35522 103.776C7.8541 106.072 4.95655 106.94 4.45438 109.311C3.20368 115.217 10.3753 120.582 14.6496 122.372C19.7467 124.506 25.1021 125.028 30.4193 125.278C33.1914 125.409 33.6072 129.174 34.4606 131.786C35.553 135.129 36.9954 138.007 39.129 140.333C43.9389 145.574 50.7217 138.671 56.5603 139.972C66.6447 142.221 72.8667 155.421 80.0361 148.326C84.763 143.648 80.5335 138.48 84.8154 134.334C86.2013 132.991 85.5347 130.494 87.0364 129.123C87.8264 128.402 87.5845 126.869 88.2422 126.051C89.3957 124.615 92.874 125.967 94.9761 126.105C98.7208 126.349 102.154 127.495 105.883 128.539C108.45 129.256 109.309 131.794 112.206 132.172C115.025 132.539 117.066 130.942 119.581 130.621C121.823 130.333 124.405 130.637 125.823 128.726Z" fill="black"/>
<path d="M114.013 118.237C114.119 117.296 111.938 117.703 110.958 117.498C101.696 115.566 88.0379 116.112 83.2213 119.175C80.0814 121.172 90.9199 117.729 94.9191 117.75C99.347 117.773 103.786 117.445 108.236 117.533C110.073 117.57 113.82 119.935 114.013 118.237Z" fill="black"/>
<path d="M144.074 79.6343C144.425 79.5712 144.273 79.1031 143.939 79.2335C138.473 81.3783 128.117 83.1697 127.075 85.4492C126.018 87.7612 131.803 83.9765 134.16 83.2297C137.528 82.162 140.59 80.2633 144.074 79.6343Z" fill="black"/>
<path d="M122.843 95.1717C126.802 94.0199 134.993 94.5038 136.367 92.4789C139.233 88.2566 110.336 98.8081 122.843 95.1717Z" fill="black"/>
<path d="M117.451 115.837C121.125 116.453 123.343 117.214 126.312 117.749C127.5 117.963 131.814 120.171 131.248 119.124C128.901 114.778 112.832 115.065 117.451 115.837Z" fill="black"/>
<path d="M116.468 96.657C119.799 93.6739 100.952 101.533 103.464 100.888C107.768 99.7822 115.05 97.9267 116.468 96.657Z" fill="black"/>
<path d="M123.376 123.392C121.013 122.726 117.399 121.067 115.072 121.359C112.363 121.698 125.007 123.852 123.376 123.392Z" fill="black"/>
<path d="M108.469 122.454C110.417 124.912 115.324 126.072 117.651 126.438C118.996 126.65 107.434 121.147 108.469 122.454Z" fill="black"/>
<path d="M106.664 121.656C104.438 121.011 99.052 118.712 99.4892 120.921C99.8283 122.635 109.122 122.368 106.664 121.656Z" fill="black"/>
<path d="M138.199 92.6387C140.011 92.624 141.823 92.4915 143.539 92.0044C145.728 91.3838 135.159 92.6619 138.199 92.6387Z" fill="black"/>
<path d="M119.943 87.8337C118.536 88.367 115.064 88.1019 115.809 89.6566C116.675 91.4637 124.622 86.0591 119.943 87.8337Z" fill="black"/>
<path d="M91.9321 101.345C91.2603 101.796 88.7939 103.111 89.3687 103.288C92.2029 104.159 97.2811 97.7584 91.9321 101.345Z" fill="black"/>
<path d="M99.0704 97.3743C100.122 96.6591 103.013 96.8063 102.392 95.5262C101.951 94.6152 93.6914 99.7832 95.6934 99.2877C97.3745 98.8712 97.9967 98.1044 99.0704 97.3743Z" fill="black"/>
<path d="M96.4264 120.4C95.0685 120.022 89.4506 120.616 90.5449 120.706C91.9163 120.819 98.0804 120.861 96.4264 120.4Z" fill="black"/>
<path d="M107.875 121.163C109.854 122.049 116.962 122.544 111.732 121.745C110.86 121.611 106.309 120.462 107.875 121.163Z" fill="black"/>
<path d="M106.23 115.468C109.072 115.622 112.85 117.519 112.577 115.265C112.323 113.174 104.431 115.37 106.23 115.468Z" fill="black"/>
<path d="M118.187 118.984C118.487 118.219 115.237 117.247 115.298 118.286C115.365 119.423 117.84 119.874 118.187 118.984Z" fill="black"/>
<path d="M109.08 120.079C108.997 120.631 113.16 121.366 113.175 120.75C113.211 119.258 109.301 118.611 109.08 120.079Z" fill="black"/>
<path d="M115.305 89.9448C115.149 89.4241 112.368 90.5991 112.709 91.1292C113.339 92.1107 115.591 90.9031 115.305 89.9448Z" fill="black"/>
<path d="M125.824 85.8078C125.622 85.1304 122.423 85.9109 122.806 86.9186C123.287 88.183 126.194 87.0533 125.824 85.8078Z" fill="black"/>
<path d="M102.592 100.996C101.21 99.8768 100.085 101.7 102.288 101.378C102.414 101.359 102.848 101.204 102.592 100.996Z" fill="black"/>
<path d="M98.7012 120.655C98.668 119.957 97.0142 120.177 97.1793 120.722C97.3294 121.217 98.7317 121.298 98.7012 120.655Z" fill="black"/>
<path d="M97.1645 120.724C97.153 120.725 97.141 120.732 97.1558 120.737C97.1706 120.742 97.1908 120.721 97.1645 120.724Z" fill="black"/>
<path d="M111.736 91.5164C111.576 91.0136 110.143 91.5101 110.418 92.0844C110.695 92.6619 111.883 91.9792 111.736 91.5164Z" fill="black"/>
<path d="M103.138 115.922C103.336 116.205 104.018 116.058 104.06 115.729C104.122 115.251 102.863 115.528 103.138 115.922Z" fill="black"/>
<path d="M101.233 116.041C101.291 116.46 102.351 116.299 102.282 115.887C102.21 115.457 101.178 115.645 101.233 116.041Z" fill="black"/>
<path d="M89.0526 120.584C88.9376 120.325 88.0076 120.357 88.1767 120.733C88.3266 121.065 89.1617 120.831 89.0526 120.584Z" fill="black"/>
<path d="M114.242 122.846C113.996 123.269 115.314 123.81 115.481 123.356C115.66 122.872 114.463 122.464 114.242 122.846Z" fill="black"/>
<path d="M114.118 122.731C114.159 122.779 114.214 122.887 114.242 122.846C114.264 122.813 114.087 122.693 114.118 122.731Z" fill="black"/>
<path d="M115.092 115.589C115.159 115.992 115.977 115.948 115.991 115.651C116.006 115.339 115.012 115.103 115.092 115.589Z" fill="black"/>
<path d="M107.378 93.3119C107.525 93.5739 108.404 93.3593 108.18 92.9427C107.976 92.5619 107.23 93.049 107.378 93.3119Z" fill="black"/>
<path d="M106.386 120.523C106.386 120.523 106.386 120.524 106.386 120.526C106.388 120.527 106.387 120.523 106.386 120.523Z" fill="black"/>
<path d="M106.383 120.528C106.384 120.53 106.386 120.528 106.386 120.526C106.388 120.521 106.381 120.527 106.383 120.528Z" fill="black"/>
<path d="M105.531 120.619C105.618 120.997 106.673 120.848 106.383 120.528C106.161 120.284 105.433 120.199 105.531 120.619Z" fill="black"/>
<path d="M116.574 115.933C116.678 116.117 117.124 116.047 116.985 115.813C116.881 115.638 116.44 115.696 116.574 115.933Z" fill="black"/>
<path d="M109.684 92.2832C109.542 92.1591 109.306 92.3032 109.281 92.4484C109.243 92.6724 109.871 92.4473 109.684 92.2832Z" fill="black"/>
<path d="M118.985 119.224C118.895 119.085 118.641 119.157 118.743 119.331C118.821 119.462 119.096 119.395 118.985 119.224Z" fill="black"/>
<path d="M105.996 119.68C105.802 119.696 105.857 119.932 106.045 119.909C106.247 119.884 106.166 119.666 105.996 119.68Z" fill="black"/>
<path d="M113.811 115.492C113.826 115.524 113.875 115.546 113.914 115.551C114.144 115.581 113.717 115.296 113.811 115.492Z" fill="black"/>
</g>
<defs>
<clipPath id="clip0_609_517">
<rect width="150" height="150.421" fill="white"/>
</clipPath>
</defs>
</svg>
