<svg width="150" height="197" viewBox="0 0 150 197" fill="none" xmlns="http://www.w3.org/2000/svg">
<g clip-path="url(#clip0_609_713)">
<path d="M115.286 82.6045C115.386 82.6584 115.486 82.7123 115.586 82.7573C117.742 83.7498 116.433 82.5596 115.286 82.6045Z" fill="black"/>
<path d="M132.207 48.2708C148.538 75.6031 150.175 109.688 143.578 140.35C136.617 172.71 140.586 163.977 130.85 137.563C129.067 132.727 125.514 126.37 127.989 124.793C128.976 124.164 132.172 125.17 130.526 124.241C129.319 123.558 127.097 124.87 126.386 123.587C126.17 123.197 127.01 121.436 126.395 121.205C124.014 120.307 124.222 115.854 123.13 113.269C122.432 111.619 130.376 117.024 129.814 115.605C128.937 113.388 124.096 113.503 122.598 110.792C119.66 105.48 122.577 107.467 126.65 107.797C129.088 107.995 125.021 107.092 124.159 106.894C123.167 106.67 121.345 106.643 121.122 105.605C120.835 104.272 119.049 100.76 120.156 98.7745C120.781 97.654 118.298 96.913 118.161 95.3636C118.022 93.7895 121.535 96.6076 121.59 95.5432C121.742 92.5971 117.353 93.6345 116.681 89.9317C116.421 88.5058 119.85 90.4751 118.237 89.4871C115.773 87.9759 112.771 84.3157 114.608 82.8381C114.803 82.6809 115.041 82.6136 115.286 82.6046C112.873 81.282 110.753 77.5881 112.199 75.6592C112.98 74.6173 115.877 78.4616 116.139 77.2198C116.44 75.7962 112.623 75.9489 111.749 74.5994C109.922 71.7812 111.138 72.9961 113.567 73.2925C115.769 73.5597 110.338 71.9429 110.333 70.6046C110.324 68.3254 107.158 65.7184 108.365 63.9602C108.752 63.3943 110.569 65.4556 110.501 64.4721C110.414 63.2101 107.467 63.7491 107.168 62.0537C106.941 60.7648 107.24 60.547 108.199 60.3314C109.819 59.9699 104.39 57.1697 105.875 56.6869C107.155 56.2693 102.619 50.5522 104.666 51.2932C106.392 51.9175 100.656 46.0791 103.785 47.258C104.011 47.3411 103.982 46.9549 103.829 46.9369C102.711 46.8 101.624 46.8291 100.881 46.0567C100.205 45.3516 99.4886 43.7393 100.93 43.6787C102.603 43.6091 98.1732 41.4871 97.7683 39.7782C97.4057 38.2446 94.1041 34.0365 95.5623 35.505C99.7709 39.7445 95.0117 35.7745 98.2904 34.5687C99.3716 34.1712 95.6263 33.7783 94.4041 33.0844C89.3167 30.1922 94.1194 31.032 96.0144 31.0859C99.4852 31.1802 102.912 31.6023 106.384 31.645C118.313 31.7887 126.599 38.8845 132.207 48.2708ZM135.812 157.968C138.789 167.496 138.161 177.922 137.992 187.793C137.887 193.953 131.414 195.421 126.715 194.822C113.622 193.153 103.039 185.981 92.5457 178.87C80.2763 170.557 69.2205 158.929 58.1129 149.211C45.3451 138.039 33.9828 125.307 23.982 111.745C16.4665 101.554 7.89453 90.2101 4.28173 77.1862C0.985769 66.675 6.93053 59.4961 14.1817 52.3284C22.0581 44.5455 30.1491 37.6787 41.3396 32.2064C54.5937 25.7258 71.1099 18.2752 84.7888 27.264C97.0837 35.3434 102.134 51.3089 106.666 65.0021C116.896 95.9003 126.094 126.87 135.812 157.968ZM62.0558 18.1405C62.1202 17.6578 64.8521 18.1877 64.2723 18.1562C63.5506 18.1158 61.9491 18.9399 62.0558 18.1405ZM66.4399 18.7176C66.8221 19.6001 65.5022 18.6615 64.6534 18.6705C64.0569 18.6749 66.1742 18.1046 66.4399 18.7176ZM2.75658 56.4691C-1.44993 47.3636 10.7641 37.636 16.7917 32.1458C29.3079 20.7476 47.8574 10.8539 64.8166 16.5687C70.3199 18.4235 66.1632 17.6982 63.2717 17.3366C61.8004 17.1525 50.4112 18.6211 51.8567 20.1929C52.4773 20.8688 54.4298 18.6615 54.6334 19.7214C54.7329 20.2401 54.9092 20.157 55.1481 20.0133C58.4986 17.9766 63.9786 18.7041 67.6473 20.1907C68.3331 20.4691 68.6964 19.7663 67.9713 19.4654C66.269 18.7558 73.2519 21.264 69.1846 22.0993C63.4549 23.2715 55.5539 24.4437 48.6258 27.4033C41.1321 30.6031 33.6357 33.6637 27.0285 38.6128C20.7817 43.2902 16.4874 46.4385 10.1575 53.8554C7.66751 56.7723 5.72694 62.9003 2.75658 56.4691ZM33.0642 5.48933C29.8971 7.30819 22.4324 7.1645 23.1831 10.7865C23.387 11.77 24.4996 9.98258 25.2281 9.74905C28.0668 8.84187 30.6959 7.29023 33.4617 6.22811C37.7322 4.59338 28.6311 9.49758 27.2041 10.1712C25.6742 10.892 14.1588 19.3598 19.4405 13.3913C20.894 11.7475 18.3321 13.3621 17.7272 13.9122C16.3421 15.172 13.5745 15.9601 13.2418 17.6038C13.1342 18.136 16.3067 17.1121 14.9261 17.898C13.9105 18.4774 11.3688 22.0298 11.0549 19.6069C10.2341 13.27 17.3111 9.81644 21.8124 7.3621C23.009 6.70866 23.7325 5.14129 25.0067 5.05596C25.6235 5.01554 25.9704 4.38227 26.561 4.517C27.6678 4.76626 27.7733 3.41226 28.626 3.33142C33.2106 2.89804 27.223 4.37108 26.1231 5.44668C24.2564 7.27452 32.6739 2.73408 34.498 4.35983C35.3097 5.08288 33.4621 5.26253 33.0642 5.48933ZM17.3198 15.0395C17.5219 15.5672 15.4403 17.0133 14.9748 16.6293C14.4806 16.2206 17.1168 14.5095 17.3198 15.0395ZM14.9072 8.54998C14.8877 1.47214 28.7598 -1.54138 20.3234 6.03048C19.1874 7.04994 17.532 6.71541 16.5889 8.16152C16.3347 8.54999 14.909 9.23037 14.9072 8.54998ZM105.681 29.3276C99.5019 29.1368 92.2619 30.5694 87.1489 26.166C83.7525 23.2423 78.851 22.0275 74.4685 21.886C72.2593 21.8164 72.0036 19.2026 70.8031 17.8396C67.1079 13.6405 60.7426 15.8748 56.3757 13.2072C50.3003 9.49759 45.6932 6.12932 38.7103 5.74085C36.1709 5.59938 35.7739 0.607608 32.638 0.904015C30.8248 1.07467 29.0513 1.88083 27.2699 1.64954C25.288 1.39131 23.2457 0.0888936 21.2299 0.00356423C16.9801 -0.176076 13.059 5.00881 12.737 9.44594C12.5209 12.419 8.93622 14.5859 9.20478 17.4916C9.34378 18.9961 9.7428 20.1368 9.93233 22.0792C10.0783 23.5747 9.34939 25.0185 8.35486 26.4399C9.88584 24.5492 11.806 22.8247 13.2539 21.1787C16.7677 17.1885 22.0567 15.401 26.806 12.7109C33.1653 9.11131 36.6864 4.33514 48.1435 9.25055C49.9558 10.0275 43.7007 8.62179 41.885 9.51101C40.7311 10.0746 41.2976 9.88604 40.0909 10.3194C39.5153 10.526 39.1197 11.0178 38.4988 11.2086C34.5155 12.4212 39.8504 12.0013 41.0198 10.8853C42.8194 9.16748 45.3559 10.8808 47.5379 10.1218C50.0113 9.26181 55.423 12.6929 53.2742 13.0634C46.9736 14.1503 39.796 15.9916 33.7536 18.9916C26.4999 22.5934 19.9201 27.1248 13.7243 32.2446C12.3835 33.3516 8.77656 39.2685 6.99879 36.3471C4.97626 33.0237 5.73659 30.1922 7.44385 27.6637C4.95448 30.8636 1.99849 33.9871 5.67529 37.3643C7.5202 39.0597 6.28495 40.0342 5.14333 41.5365C2.44558 45.0889 -0.193571 49.1061 0.01324 53.9721C0.146848 57.1158 4.8934 59.5881 3.72057 62.0874C2.76736 64.1151 1.77439 65.7611 1.87432 67.8853C0.790859 77.1301 2.9205 84.5851 7.28801 92.4018C21.214 117.325 43.5952 140.085 64.7474 159.262C74.0171 167.664 81.4974 174.008 91.8121 181.162C99.2816 186.34 109.739 192.666 118.683 194.797C147.579 201.684 139.98 186.641 140.925 165.92C141.51 153.109 147.435 137.66 148.599 124.962C151.223 96.3404 151.011 69.0373 134.669 45.0373C127.66 34.7461 118.622 29.7296 105.681 29.3276Z" fill="black"/>
<path d="M139.717 192.298C139.646 192.334 139.587 192.394 139.625 192.477C139.709 192.664 139.937 192.185 139.717 192.298Z" fill="black"/>
<path d="M128.08 145.036C130.094 151.317 132.448 157.501 134.072 163.744C133.76 160.463 133.156 157.187 131.992 153.118C130.608 148.281 129.192 139.052 125.664 133.769C124.323 131.761 127.277 142.53 128.08 145.036Z" fill="black"/>
<path d="M134.989 186.406C136.893 178.602 135.994 171.134 134.072 163.744C134.4 167.189 134.406 170.635 134.401 175.01C134.397 178.302 132.412 196.968 134.989 186.406Z" fill="black"/>
<path d="M124.103 131.633C123.732 125.819 121.059 120.843 118.575 115.742C121.364 126.275 124.509 138.031 124.103 131.633Z" fill="black"/>
<path d="M110.998 92.3614C111.874 94.5687 112.703 96.556 113.481 98.5702C112.624 92.6286 111.742 86.5208 107.765 80.7858C105.942 78.1563 109.935 89.678 110.998 92.3614Z" fill="black"/>
<path d="M118.575 115.742C117.45 111.489 116.383 107.435 115.631 104.855C114.966 102.572 114.248 100.557 113.481 98.5702C113.954 101.846 114.419 105.071 115.392 108.154C116.222 110.783 117.377 113.278 118.575 115.742Z" fill="black"/>
<path d="M98.566 50.431C100.27 59.7948 106.104 75.6571 107.199 76.4812C107.788 76.9213 105.032 67.2633 102.922 60.2978C102.243 58.059 98.1368 48.071 98.566 50.431Z" fill="black"/>
<path d="M116.149 74.1031C117.806 74.8149 127.207 76.3396 122.808 75.2887C121.172 74.898 112.463 72.5155 116.149 74.1031Z" fill="black"/>
<path d="M112.559 65.2087C112.395 66.3359 121.939 67.1353 120.509 66.6121C118.053 65.7117 112.92 62.7431 112.559 65.2087Z" fill="black"/>
<path d="M112.548 65.2244C112.557 65.2289 112.55 65.2199 112.551 65.2042C112.545 65.1885 112.547 65.2019 112.548 65.2132C112.547 65.2177 112.546 65.2244 112.548 65.2244Z" fill="black"/>
<path d="M125.873 118.695C123.667 119.905 134.939 123.327 129.345 120.94C128.028 120.379 127.127 118.005 125.873 118.695Z" fill="black"/>
<path d="M117.925 83.7364C118.275 84.3921 125.584 85.2768 123.32 84.6391C122.08 84.2888 117.534 83.0043 117.925 83.7364Z" fill="black"/>
<path d="M102.805 41.4399C105.568 41.9542 100.746 40.2026 99.9265 40.0253C97.4025 39.4818 101.923 41.2783 102.805 41.4399Z" fill="black"/>
<path d="M124.153 102.971C122.87 102.796 120.615 100.744 120.337 101.689C119.992 102.864 126.638 103.31 124.153 102.971Z" fill="black"/>
<path d="M115.985 69.7221C117.458 69.9938 120.528 71.8082 120.693 70.4788C120.791 69.6929 113.935 69.3449 115.985 69.7221Z" fill="black"/>
<path d="M113.111 68.6218C113.629 67.297 110.898 65.5679 109.602 66.3381C108.301 67.1083 112.68 69.7221 113.111 68.6218Z" fill="black"/>
<path d="M115.698 84.7984C114.891 85.4676 116.954 85.8561 117.558 86.3209C120.034 88.2273 116.216 84.3673 115.698 84.7984Z" fill="black"/>
<path d="M114.652 58.0881C113.218 57.9758 110.536 56.3793 110.386 57.7086C110.263 58.8044 117.446 58.3082 114.652 58.0881Z" fill="black"/>
<path d="M121.783 86.8711C119.361 86.3119 124.513 88.7034 124.616 87.9063C124.729 87.0283 122.702 87.0844 121.783 86.8711Z" fill="black"/>
<path d="M127.341 88.3195C127.048 88.9954 133.006 89.4512 130.675 88.7573C129.607 88.4407 127.797 87.2708 127.341 88.3195Z" fill="black"/>
<path d="M118.676 77.6601C114.383 76.0725 120.313 79.5373 120.872 78.574C121.217 77.9812 119.333 77.9026 118.676 77.6601Z" fill="black"/>
<path d="M126.046 100.506C126.391 99.52 124.057 99.6368 122.99 99.6098C122.095 99.5896 125.832 101.119 126.046 100.506Z" fill="black"/>
<path d="M109.827 57.484C110.227 57.0035 108.258 56.3792 107.588 56.4129C106.357 56.4758 109.475 57.9062 109.827 57.484Z" fill="black"/>
<path d="M116.339 58.5394C116.297 59.5701 119.521 59.7632 119.428 58.7595C119.348 57.9039 116.385 57.4369 116.339 58.5394Z" fill="black"/>
<path d="M107.821 52.928C108.204 52.1353 105.606 51.0126 105.205 51.7985C104.834 52.5238 107.453 53.687 107.821 52.928Z" fill="black"/>
<path d="M109.048 60.6794C109.859 60.8276 111.012 61.8246 111.098 60.877C111.16 60.1854 107.525 60.401 109.048 60.6794Z" fill="black"/>
<path d="M132.314 132.888C132.593 132.329 131.315 131.779 130.741 131.581C129.826 131.267 132.07 133.38 132.314 132.888Z" fill="black"/>
<path d="M123.797 95.9317C125.92 96.6435 123.229 94.9414 122.414 95.2715C121.781 95.5297 123.454 95.8171 123.797 95.9317Z" fill="black"/>
<path d="M132.096 122.213C131.5 122.918 134.499 124.4 134.573 122.945C134.618 122.076 132.676 121.526 132.096 122.213Z" fill="black"/>
<path d="M103.717 36.8838C101.41 36.7469 101.556 37.2611 103.764 37.3172C104.11 37.3262 104.039 36.9018 103.717 36.8838Z" fill="black"/>
<path d="M106.07 41.9047C107.266 41.7408 103.539 40.9504 104.52 41.5769C104.965 41.8621 105.547 41.9766 106.07 41.9047Z" fill="black"/>
<path d="M102.465 34.0836C102.415 33.2057 100.036 32.6218 99.8447 33.6547C99.6974 34.4496 102.492 34.5822 102.465 34.0836Z" fill="black"/>
<path d="M126.855 117.417C126.234 118.057 128.753 118.879 129.002 118.266C129.283 117.572 127.35 116.909 126.855 117.417Z" fill="black"/>
<path d="M128.329 127.295C129.037 127.025 127.961 125.871 127.754 126.114C127.477 126.437 127.799 127.499 128.329 127.295Z" fill="black"/>
<path d="M128.76 107.395C127.435 107.352 128.744 108.064 129.372 108.004C130.362 107.909 129.156 107.409 128.76 107.395Z" fill="black"/>
<path d="M106.704 37.5956C106.791 36.4414 104.813 36.7716 104.858 37.3442C104.906 37.946 106.644 38.3973 106.704 37.5956Z" fill="black"/>
<path d="M113.904 61.6001C114.062 61.8494 115.142 62.0312 115.394 61.8471C115.846 61.517 113.561 61.0635 113.904 61.6001Z" fill="black"/>
<path d="M126.096 117.372C126.887 117.383 125.47 116.424 125.134 116.399C124.315 116.334 125.749 117.367 126.096 117.372Z" fill="black"/>
<path d="M106.569 47.6174C105.547 47.577 108.012 48.7536 108.122 48.181C108.256 47.4804 107.064 47.6354 106.569 47.6174Z" fill="black"/>
<path d="M112.326 65.083C112.813 64.672 111.619 64.2701 111.141 64.3778C110.113 64.6091 112.045 65.3187 112.326 65.083Z" fill="black"/>
<path d="M124.319 79.4924C124.319 78.9871 123.004 78.4953 122.772 79.0208C122.557 79.5126 124.319 79.9639 124.319 79.4924Z" fill="black"/>
<path d="M114.499 54.0619C114.129 53.9923 113.46 53.7027 113.301 54.1383C113.095 54.7042 115.46 54.2438 114.499 54.0619Z" fill="black"/>
<path d="M116.556 79.7124C116.792 79.059 115.01 78.4819 114.889 79.0657C114.606 80.4287 116.407 80.1256 116.556 79.7124Z" fill="black"/>
<path d="M127.012 103.939C127.178 103.322 125.52 102.98 125.386 103.535C125.26 104.056 126.847 104.55 127.012 103.939Z" fill="black"/>
<path d="M115.884 54.3987C115.924 54.8523 117.484 55.2273 117.299 54.4055C117.173 53.8486 115.842 53.9249 115.884 54.3987Z" fill="black"/>
<path d="M131.396 107.869C130.895 108.228 132.038 108.52 132.278 108.358C132.732 108.053 131.601 107.721 131.396 107.869Z" fill="black"/>
<path d="M104.362 44.3254C104.575 43.3666 102.99 43.6316 103.045 44.175C103.094 44.6622 104.268 44.7498 104.362 44.3254Z" fill="black"/>
<path d="M112.017 61.059C111.542 61.9752 113.251 61.7686 113.272 61.3105C113.294 60.803 112.213 60.6817 112.017 61.059Z" fill="black"/>
<path d="M132.931 138.235C132.96 138.284 132.956 138.246 132.936 138.208C132.936 138.208 132.935 138.21 132.934 138.215C132.925 138.203 132.911 138.199 132.907 138.212C132.904 138.224 132.92 138.239 132.931 138.235Z" fill="black"/>
<path d="M131.603 137.543C131.295 138.008 132.724 138.796 132.907 138.212C133.059 137.725 131.884 137.123 131.603 137.543Z" fill="black"/>
<path d="M129.348 104.388C129.401 103.602 128.17 103.789 128.19 104.337C128.204 104.73 129.314 104.902 129.348 104.388Z" fill="black"/>
<path d="M118.771 80.3815C118.823 79.9818 117.713 79.4788 117.548 79.9751C117.276 80.7969 118.7 80.9272 118.771 80.3815Z" fill="black"/>
<path d="M127.224 100.629C126.97 100.975 127.729 101.24 127.938 101.022C128.301 100.643 127.41 100.376 127.224 100.629Z" fill="black"/>
<path d="M113.687 68.6869C113.505 69.0327 114.37 69.3538 114.536 69.0843C114.717 68.7902 113.846 68.3837 113.687 68.6869Z" fill="black"/>
<path d="M128.293 85.8404C128.511 86.0942 129.247 86.038 129.124 85.6495C129.042 85.3891 128.01 85.5103 128.293 85.8404Z" fill="black"/>
<path d="M129.879 129.08C129.52 129.284 129.945 129.789 130.252 129.56C130.487 129.385 130.216 128.885 129.879 129.08Z" fill="black"/>
<path d="M121.629 90.9107C121.659 90.603 120.82 90.0978 120.695 90.5828C120.586 91.0072 121.598 91.2363 121.629 90.9107Z" fill="black"/>
<path d="M102.292 43.6585C102.193 43.3598 101.434 43.3374 101.614 43.7281C101.732 43.9863 102.399 43.9751 102.292 43.6585Z" fill="black"/>
<path d="M129.921 127.701C129.888 128.337 131.554 128.519 130.468 127.867C130.309 127.771 129.94 127.335 129.921 127.701Z" fill="black"/>
<path d="M129.618 130.87C129.304 130.995 129.581 131.586 129.894 131.453C130.205 131.321 129.922 130.748 129.618 130.87Z" fill="black"/>
<path d="M121.626 66.913C121.286 67.2026 122.017 67.4362 122.228 67.2835C122.549 67.0499 121.865 66.7086 121.626 66.913Z" fill="black"/>
<path d="M124.728 75.7806C124.512 75.9355 125.251 76.2409 125.339 75.9714C125.434 75.6795 124.941 75.6279 124.728 75.7806Z" fill="black"/>
<path d="M124.577 75.8703C124.562 75.904 124.656 75.8614 124.616 75.8592C124.602 75.8592 124.582 75.8569 124.577 75.8703Z" fill="black"/>
<path d="M110.326 53.7117C110.574 53.5051 110.016 53.2155 109.824 53.3861C109.57 53.6152 110.128 53.8756 110.326 53.7117Z" fill="black"/>
<path d="M128.947 100.822C128.654 101 129.079 101.406 129.314 101.254C129.6 101.067 129.198 100.67 128.947 100.822Z" fill="black"/>
<path d="M122.011 79.014C122.404 78.6839 121.239 78.5222 121.52 78.9129C121.637 79.0769 121.84 79.1577 122.011 79.014Z" fill="black"/>
<path d="M132.089 89.1413C131.843 89.3815 132.359 89.5163 132.528 89.3905C132.829 89.1637 132.287 88.9459 132.089 89.1413Z" fill="black"/>
<path d="M132.976 138.246C132.846 138.48 133.577 139.014 133.776 138.673C133.974 138.331 133.102 138.019 132.976 138.246Z" fill="black"/>
<path d="M121.605 63.0709C121.583 63.3516 122.459 63.6031 122.536 63.1966C122.616 62.7722 121.627 62.779 121.605 63.0709Z" fill="black"/>
<path d="M105.62 47.6758C105.778 47.5074 105.394 47.1705 105.192 47.3187C104.946 47.4984 105.416 47.8958 105.62 47.6758Z" fill="black"/>
<path d="M130.538 118.872C130.595 118.521 129.858 118.4 129.791 118.724C129.719 119.069 130.482 119.22 130.538 118.872Z" fill="black"/>
<path d="M131.722 119.184C131.792 118.852 131.102 118.726 131.049 119.027C130.997 119.321 131.651 119.514 131.722 119.184Z" fill="black"/>
<path d="M123.587 109.995C123.336 110.04 123.601 110.397 123.771 110.366C124.025 110.319 123.744 109.966 123.587 109.995Z" fill="black"/>
<path d="M119.952 86.8688C120.167 86.7632 119.93 86.4781 119.761 86.5657C119.521 86.6892 119.759 86.9631 119.952 86.8688Z" fill="black"/>
<path d="M119.792 90.062C119.787 89.8374 119.153 89.8194 119.272 90.0664C119.36 90.2506 119.797 90.2865 119.792 90.062Z" fill="black"/>
<path d="M126.201 88.0927C126.008 88.2567 126.295 88.4498 126.466 88.3622C126.72 88.2319 126.391 87.9288 126.201 88.0927Z" fill="black"/>
<path d="M100.723 36.7041C100.995 36.5582 100.649 36.3044 100.453 36.4212C100.179 36.5851 100.528 36.8097 100.723 36.7041Z" fill="black"/>
<path d="M127.625 96.5649C127.652 96.7917 128.373 97.014 128.364 96.6166C128.357 96.2618 127.585 96.2393 127.625 96.5649Z" fill="black"/>
<path d="M109.588 48.2191C109.488 48.1383 109.155 48.2483 109.32 48.4055C109.437 48.5156 109.79 48.3808 109.588 48.2191Z" fill="black"/>
<path d="M125.926 96.0305C125.842 95.9451 125.445 95.8845 125.616 96.1248C125.693 96.2348 126.112 96.2168 125.926 96.0305Z" fill="black"/>
<path d="M122.749 91.0994C122.678 91.05 122.28 90.9871 122.371 91.1577C122.427 91.2588 122.903 91.2094 122.749 91.0994Z" fill="black"/>
<path d="M98.9223 40.0769C98.8774 40.0904 98.8996 40.0836 98.9223 40.0769V40.0769Z" fill="black"/>
<path d="M98.9234 40.0769C98.9234 40.0769 98.9223 40.0747 98.9219 40.0747C98.9214 40.0769 98.9219 40.0769 98.9225 40.0769C98.9232 40.0769 98.9241 40.0792 98.9237 40.0769H98.9234C98.9668 40.0657 98.945 40.0725 98.9234 40.0769Z" fill="black"/>
<path d="M98.3771 39.4324C98.1083 39.6839 98.6654 40.0971 98.9016 40.0095C99.1495 39.9197 98.651 39.1787 98.3771 39.4324Z" fill="black"/>
<path d="M117.539 62.3883C117.626 62.5949 118.032 62.4399 117.855 62.2715C117.759 62.1817 117.453 62.1862 117.539 62.3883Z" fill="black"/>
<path d="M121.975 81.3516C121.894 81.3067 121.539 81.2864 121.748 81.4234C121.805 81.4616 122.209 81.4863 121.975 81.3516Z" fill="black"/>
<path d="M109.382 41.7049C109.263 41.8172 109.42 41.9721 109.546 41.9138C109.73 41.8284 109.518 41.577 109.382 41.7049Z" fill="black"/>
<path d="M111.972 53.8733C112.075 53.8419 112.033 53.6959 111.916 53.6959C111.761 53.6982 111.871 53.907 111.972 53.8733Z" fill="black"/>
<path d="M107.272 41.705C107.247 41.5343 106.988 41.6062 107.007 41.7588C107.031 41.9475 107.29 41.8285 107.272 41.705Z" fill="black"/>
<path d="M132.993 133.129C132.917 133.243 133.111 133.441 133.216 133.304C133.303 133.189 133.076 133.003 132.993 133.129Z" fill="black"/>
<path d="M99.6826 36.5155C99.9543 36.3762 99.2342 36.2168 99.4608 36.4616C99.5129 36.5177 99.6256 36.5469 99.6826 36.5155Z" fill="black"/>
<path d="M46.4054 26.6376C39.1677 28.4789 32.5542 30.181 33.5225 30.5111C38.1031 32.0717 42.1001 29.4826 46.4054 26.6376Z" fill="black"/>
<path d="M63.0689 21.5424C56.3266 20.0222 51.1767 23.487 46.4055 26.6375C55.2049 24.401 64.9271 21.9624 63.0689 21.5424Z" fill="black"/>
<path d="M52.8835 20.9407C53.4694 20.9541 53.9933 20.267 53.1683 20.2715C52.6543 20.276 52.1028 20.9182 52.8835 20.9407Z" fill="black"/>
<path d="M65.6708 21.4594C66.0927 21.1652 64.9841 21.008 65.223 21.3785C65.3203 21.529 65.521 21.5627 65.6708 21.4594Z" fill="black"/>
<path d="M8.42062 33.0035C17.0137 29.633 22.597 21.1517 30.8153 16.9886C33.3965 15.6817 36.39 14.9115 39.1419 13.8673C41.338 13.0342 48.2629 11.8396 46.1339 11.4018C38.395 9.8052 27.5108 16.4542 17.7224 24.6637C16.5426 25.654 6.15446 33.8928 8.42062 33.0035Z" fill="black"/>
</g>
<defs>
<clipPath id="clip0_609_713">
<rect width="150" height="196.707" fill="white"/>
</clipPath>
</defs>
</svg>
