<svg width="150" height="117" viewBox="0 0 150 117" fill="none" xmlns="http://www.w3.org/2000/svg">
<g clip-path="url(#clip0_609_814)">
<path d="M12.7108 93.0544C12.6998 93.0466 12.6888 93.0387 12.6774 93.0309C12.6735 93.0281 12.6691 93.0281 12.6652 93.0254C12.6373 92.8572 12.578 92.4495 12.5764 92.4381C12.5124 92.0197 12.4633 91.5994 12.4158 91.1791C12.3297 90.4166 12.281 89.6501 12.2472 88.8841C12.1793 87.3509 12.2382 85.8137 12.3796 84.2864C12.3997 84.068 12.0595 84.0699 12.0394 84.2864C11.8776 86.0361 11.8446 87.7861 11.9393 89.5409C11.9864 90.4166 12.0803 91.2891 12.1958 92.158C12.2429 92.5139 12.1828 93.157 12.5073 93.3942C12.5862 93.452 12.6919 93.4033 12.7402 93.3334C12.7505 93.318 12.7611 93.3023 12.7717 93.287C12.8275 93.2061 12.7819 93.1047 12.7108 93.0544Z" fill="black"/>
<path d="M13.5562 94.2376C12.985 91.4139 12.9296 88.5411 13.3947 85.6982C13.4297 85.4837 13.1021 85.3917 13.0667 85.6078C12.5914 88.5124 12.6444 91.443 13.2282 94.328C13.2714 94.5428 13.5994 94.4517 13.5562 94.2376Z" fill="black"/>
<path d="M148.148 64.0282C147.48 64.5554 146.82 65.0908 146.16 65.6274C145.009 66.5659 143.87 67.524 142.739 68.4896C140.476 70.4208 138.268 72.416 136.096 74.4509V74.4517C135.762 74.4623 135.428 74.4713 135.094 74.4867C137.294 72.8104 139.191 70.7822 141.226 68.91C143.646 66.6814 146.207 64.6053 148.757 62.5272C148.796 62.5425 148.84 62.5519 148.891 62.5508C150.053 62.517 147.987 64.1563 148.148 64.0282ZM145.846 75.508C145.878 76.8213 145.874 78.1408 145.76 79.4391C145.701 79.3366 145.646 79.2337 145.591 79.1311C145.485 78.9383 145.19 79.1099 145.296 79.3028C145.359 79.414 145.418 79.5256 145.477 79.6367C145.54 79.7483 145.661 79.7361 145.736 79.6701C145.697 80.0425 145.654 80.4138 145.595 80.7822C145.402 80.6282 145.206 80.4739 145.013 80.3199C144.844 80.1847 144.601 80.424 144.774 80.5603C144.994 80.7367 145.218 80.913 145.438 81.0898C145.469 81.1142 145.5 81.1232 145.536 81.126C145.257 82.6765 144.77 84.1795 143.929 85.5846C141.91 88.954 138.135 88.8118 134.796 87.9833C135.126 87.9585 135.456 87.9338 135.782 87.909C136.218 87.876 136.222 87.1953 135.782 87.2283C131.834 87.5256 127.886 87.823 123.934 88.12C124.331 87.3811 124.715 86.6359 125.1 85.8914C125.203 85.7917 125.305 85.6954 125.407 85.5952C125.537 85.4707 125.529 85.3199 125.458 85.2024C127.069 82.0495 128.577 78.8475 129.98 75.5941C135.259 74.9553 140.566 74.9333 145.846 75.508ZM127.992 92.8965C128.047 93.6762 128.098 94.456 128.153 95.2362C128.18 95.6499 128.145 96.1535 128.216 96.5989C127.63 96.6331 127.049 96.6712 126.468 96.7023C126.381 95.455 126.322 94.2074 126.299 92.9574C126.86 92.9334 127.426 92.9173 127.992 92.8965ZM130.29 92.8211C130.27 94.0373 130.266 95.2535 130.278 96.4697C129.811 96.5 129.347 96.531 128.88 96.5597C128.758 96.0922 128.84 95.3564 128.813 94.9231L128.671 92.8717C129.21 92.8529 129.752 92.8379 130.29 92.8211ZM130.969 92.7998C131.327 92.7892 131.68 92.7845 132.038 92.7751C132.101 93.9654 132.113 95.1545 132.077 96.3452C131.704 96.3719 131.331 96.401 130.958 96.4261C130.946 95.217 130.95 94.0086 130.969 92.7998ZM134.34 92.7225C134.151 93.8082 133.959 94.894 133.77 95.9798C133.755 96.0741 133.774 96.1535 133.814 96.2199C133.802 96.221 133.786 96.2218 133.77 96.223C133.759 96.223 133.751 96.2183 133.739 96.2191C133.668 96.2246 133.598 96.2348 133.527 96.2411C133.268 96.2611 133.012 96.2772 132.757 96.2961C132.792 95.1168 132.78 93.9387 132.718 92.7598C133.26 92.7472 133.802 92.7303 134.34 92.7225ZM109.12 97.1096C108.7 97.1061 108.275 97.103 107.851 97.0982C107.258 97.0916 107.203 95.1957 107.164 94.2962C107.69 94.2427 108.216 94.1956 108.743 94.1449C108.747 94.1587 108.743 94.1704 108.743 94.185C108.963 95.1482 108.755 96.1888 109.12 97.1096ZM109.768 96.9164C109.548 96.4579 109.576 95.9563 109.576 95.4613C109.576 94.9946 109.513 94.5354 109.415 94.0805C110.224 94.0047 111.033 93.9343 111.842 93.8644C111.827 94.9101 111.681 96.0938 111.909 97.1198C111.897 97.1198 111.886 97.1202 111.874 97.1202C111.182 97.1222 110.487 97.1202 109.796 97.1159C109.803 97.0527 109.8 96.9863 109.768 96.9164ZM126.856 98.1078C120.964 98.6943 115.04 98.8487 109.124 98.5643C108.904 98.5537 108.904 98.8943 109.124 98.9045C114.745 99.1748 120.375 99.0459 125.976 98.5297C125.12 98.9548 124.279 99.4171 123.447 99.9043C118.666 99.9506 113.885 99.7974 109.116 99.4431C108.9 99.427 108.9 99.7672 109.116 99.7833C113.693 100.123 118.281 100.277 122.865 100.248C122.575 100.424 122.284 100.602 121.993 100.782C117.02 100.638 112.047 100.494 107.077 100.35C106.857 100.344 106.857 100.684 107.077 100.69C111.874 100.829 116.674 100.968 121.471 101.108C121.204 101.275 120.936 101.443 120.673 101.613C120.331 101.832 119.998 102.056 119.668 102.282C115.68 102.215 111.705 101.92 107.753 101.393C107.537 101.364 107.537 101.705 107.753 101.733C111.548 102.239 115.366 102.53 119.192 102.612C119.078 102.692 118.964 102.771 118.85 102.851C118.509 102.842 118.175 102.833 118.1 102.834C117.55 102.846 117 102.847 116.446 102.846C115.456 102.845 114.466 102.816 113.473 102.774C111.493 102.691 109.517 102.514 107.549 102.271C107.333 102.244 107.333 102.585 107.549 102.612C109.737 102.882 111.933 103.058 114.136 103.141C115.236 103.182 116.336 103.192 117.44 103.184C117.766 103.182 118.092 103.171 118.418 103.164C118.249 103.289 118.073 103.41 117.904 103.537C113.08 103.49 108.26 103.305 103.443 102.973C103.227 102.958 103.227 103.298 103.443 103.313C108.114 103.636 112.789 103.818 117.468 103.871C117.197 104.084 116.93 104.299 116.666 104.519C112.483 104.619 108.299 104.528 104.123 104.239C103.903 104.223 103.907 104.564 104.123 104.579C108.161 104.859 112.212 104.954 116.258 104.869C115.912 105.17 115.57 105.478 115.244 105.796C110.405 105.683 105.565 105.57 100.725 105.457C100.505 105.452 100.505 105.792 100.725 105.798L114.899 106.128C114.671 106.361 114.443 106.597 114.223 106.839C108.326 106.817 102.426 106.795 96.5296 106.773C96.3096 106.773 96.3096 107.113 96.5296 107.114C102.328 107.135 108.126 107.157 113.928 107.178C113.748 107.386 113.563 107.592 113.39 107.808C106.633 107.869 99.8765 107.819 93.1237 107.655C92.9037 107.649 92.9037 107.99 93.1237 107.995C99.7901 108.157 106.46 108.208 113.131 108.149C112.927 108.413 112.722 108.675 112.53 108.95H90.0635C89.8436 108.95 89.8436 109.291 90.0635 109.291H112.294C112.149 109.51 112.007 109.733 111.866 109.961C111.858 109.96 111.854 109.957 111.842 109.957C103.337 110.175 94.8286 110.226 86.3198 110.111C86.0998 110.109 86.0998 110.449 86.3198 110.452C94.7658 110.566 103.216 110.515 111.662 110.301C111.52 110.544 111.383 110.791 111.249 111.043C110.813 111.071 110.381 111.096 109.945 111.122C109.913 111.107 109.878 111.1 109.835 111.113C109.807 111.12 109.784 111.126 109.756 111.133C100.894 111.645 92.0081 111.62 83.1457 111.044C82.9257 111.03 82.9297 111.37 83.1457 111.384C91.4031 111.921 99.6802 111.982 107.941 111.574C103.243 112.553 98.3641 112.37 93.5873 112.351C87.9226 112.328 82.2618 112.295 76.6011 112.253C65.2796 112.17 53.9541 112.049 42.6326 111.892C40.0281 111.855 37.4236 111.817 34.8191 111.777C34.5992 111.774 34.5992 112.114 34.8191 112.118C46.1407 112.292 57.4661 112.429 68.7876 112.53C74.4483 112.58 80.1091 112.621 85.7738 112.653C91.2931 112.684 96.8478 112.884 102.363 112.606C104.881 112.479 107.384 112.147 109.815 111.47C110.232 111.446 110.652 111.421 111.068 111.395C111.025 111.482 110.978 111.567 110.935 111.656C110.892 111.75 110.892 111.84 110.919 111.919C109.705 113.05 106.72 112.853 105.313 112.98C103.318 113.161 101.31 113.272 99.3069 113.36C95.5121 113.525 91.7173 113.537 87.9186 113.529C80.0226 113.513 72.1228 113.438 64.2268 113.353C54.0366 113.242 43.8504 113.073 33.6642 112.868C33.6681 112.833 33.6681 112.795 33.6406 112.756L32.6586 111.216C32.5407 111.031 32.2461 111.201 32.3639 111.387C32.6782 111.879 32.9925 112.37 33.3067 112.861C32.9846 112.854 32.6625 112.849 32.3443 112.842C32.3718 112.797 32.3796 112.738 32.3403 112.677C32.0064 112.182 31.6694 111.687 31.3343 111.192C31.2117 111.012 30.9167 111.182 31.0405 111.364C31.3728 111.855 31.7047 112.346 32.0379 112.836C31.79 112.831 31.5425 112.827 31.2954 112.822C31.2923 112.798 31.2844 112.772 31.2651 112.747C30.8982 112.259 30.5761 111.743 30.2972 111.2C30.197 111.005 29.9036 111.177 30.0034 111.371C30.263 111.877 30.5639 112.356 30.8994 112.814C30.615 112.808 30.3306 112.803 30.0462 112.797C30.0485 112.766 30.0454 112.734 30.0266 112.7C29.7182 112.153 29.4094 111.606 29.101 111.058C28.9934 110.867 28.6992 111.039 28.8072 111.23L29.686 112.79C29.4027 112.783 29.1195 112.778 28.8363 112.772C28.3912 111.998 27.9465 111.224 27.5014 110.45C27.3922 110.259 27.0984 110.43 27.2076 110.621C27.6181 111.335 28.0286 112.05 28.4391 112.764C28.1374 112.758 27.8357 112.752 27.5344 112.746C26.9279 111.808 26.3838 110.835 25.9085 109.822C25.8154 109.623 25.5223 109.796 25.6146 109.993C26.0593 110.942 26.5621 111.855 27.1215 112.737C26.8509 112.731 26.5798 112.726 26.3092 112.72C25.3498 111.484 24.5056 110.174 23.7805 108.786C23.6787 108.591 23.3853 108.763 23.4866 108.958C24.1768 110.279 24.9794 111.526 25.8782 112.711C25.5255 112.703 25.1723 112.697 24.8195 112.689C23.3931 110.915 22.2688 108.945 21.4702 106.813C21.394 106.609 21.0648 106.697 21.1422 106.903C21.9251 108.994 23.0125 110.924 24.3835 112.68C24.0174 112.671 23.6512 112.664 23.2851 112.656C23.2843 112.629 23.278 112.6 23.2572 112.571C21.8175 110.554 20.683 108.364 19.8718 106.022C19.8003 105.816 19.4715 105.904 19.5438 106.112C20.3514 108.444 21.4734 110.633 22.8982 112.648C22.5886 112.641 22.2791 112.635 21.9695 112.627C20.0458 110.251 19.3081 107.192 18.0101 104.465C17.9158 104.267 17.6228 104.44 17.7163 104.637C18.9839 107.3 19.7288 110.255 21.5327 112.618C21.176 112.61 20.8193 112.603 20.4626 112.594C18.7369 109.357 17.4173 105.935 16.5272 102.375C16.4741 102.162 16.1457 102.253 16.1991 102.466C17.0795 105.988 18.3821 109.377 20.0749 112.586C19.8568 112.581 19.6392 112.576 19.4216 112.571C19.4365 112.521 19.4283 112.465 19.3752 112.418C18.5734 111.717 18.2348 110.726 17.8612 109.759C17.4704 108.746 17.1097 107.722 16.7656 106.692C16.0424 104.53 15.4382 102.329 14.9256 100.108C14.8761 99.8941 14.5481 99.9848 14.5972 100.198C15.135 102.527 15.7827 104.825 16.5405 107.092C16.9192 108.225 17.334 109.344 17.7693 110.457C18.0749 111.239 18.4226 111.982 19.0342 112.563C18.7907 112.557 18.5467 112.552 18.3028 112.546C16.1151 108.143 14.8926 103.367 13.8013 98.593C14.8116 98.7073 15.8236 98.8138 16.8383 98.9002C16.9561 98.91 17.0736 98.8279 17.1321 98.7316C17.7465 97.7209 18.445 96.7993 19.2534 95.9355C19.5528 95.6153 19.0724 95.1329 18.7722 95.4538C18.7679 95.4585 18.764 95.4633 18.7596 95.4676C17.8494 95.2877 16.9365 95.1305 16.0224 94.9816C15.8739 94.2946 15.8047 93.604 15.8177 92.8996C15.8216 92.68 15.4815 92.6804 15.4771 92.8996C15.465 93.5832 15.5305 94.2557 15.6641 94.9231C15.4728 94.8925 15.2819 94.8591 15.0906 94.8292C15.0576 93.657 15.025 92.4848 14.9924 91.3126C14.9861 91.0938 14.6459 91.093 14.6522 91.3126C14.6844 92.4667 14.7166 93.6209 14.7488 94.775C14.6211 94.7558 14.4939 94.733 14.3662 94.7141C14.3666 94.7035 14.3697 94.6937 14.3681 94.6819C14.0609 92.4722 13.9942 90.2499 14.158 88.0253C14.1741 87.8061 13.8335 87.8077 13.8174 88.0253C13.654 90.2456 13.7274 92.4593 14.0264 94.6646C13.2128 94.5476 12.3981 94.4376 11.5814 94.3425C11.0322 90.6711 11.0491 86.9729 11.1763 83.272C12.5756 83.3934 13.9753 83.5026 15.3758 83.6063C15.4618 83.6601 15.5698 83.6641 15.6692 83.6275C18.0824 83.8039 20.4976 83.9567 22.9147 84.0797C22.9202 84.0797 22.9241 84.0773 22.9296 84.0773C22.8699 84.3028 22.8137 84.5291 22.7512 84.7542C22.6915 84.9706 22.8589 85.1812 23.0793 85.1851C25.6747 85.2287 28.2682 85.3187 30.8602 85.4472C31.2141 86.0973 31.5873 86.7329 31.9907 87.3551C32.2932 87.8211 32.7803 88.7933 33.2831 89.0879C33.6956 89.3307 34.6463 89.172 35.1177 89.1865C36.1233 89.218 37.1251 89.2498 38.1268 89.2812C38.5432 91.4768 38.8771 93.6869 39.0657 95.9244C39.0853 96.1436 39.27 96.313 39.4978 96.2525C40.0713 96.0996 40.6449 95.9567 41.2224 95.8207C41.297 95.9437 41.5209 95.9205 41.5366 95.75C43.2494 95.3552 44.9739 95.0276 46.7024 94.7577C51.0157 95.0366 55.329 95.3156 59.6463 95.5945C61.8501 95.7375 64.0578 95.8801 66.2656 96.0227C67.8369 96.1244 70.0761 96.7529 71.4746 95.8086C71.5453 95.761 71.5885 95.7005 71.612 95.6361C71.667 95.5736 71.6867 95.5061 71.6946 95.4393C73.5252 93.7458 74.4523 91.3896 75.8547 89.3582C75.9097 90.1977 75.9647 91.0376 76.0197 91.8775C76.0393 92.2023 76.4243 92.286 76.605 92.1257C76.6207 92.1246 76.6325 92.1289 76.6482 92.1261C82.5407 91.0191 88.4608 90.5469 94.4397 90.1773C99.3816 89.8716 104.363 89.469 109.293 89.9043C109.371 89.9369 109.454 89.9443 109.528 89.9274C110.609 90.0288 111.685 90.1686 112.758 90.3611C112.762 90.3973 112.773 90.4287 112.789 90.457C106.154 90.4778 99.523 90.6899 92.9037 91.0997C92.6837 91.113 92.6837 91.4536 92.9037 91.4398C99.5898 91.0262 106.288 90.8125 112.985 90.7956L113.029 91.5168C113.013 91.5129 112.997 91.5078 112.978 91.5086C104.885 91.837 96.7928 92.1654 88.7004 92.4934C88.4804 92.5025 88.4804 92.8427 88.7004 92.834C96.7928 92.5056 104.885 92.1772 112.978 91.8488C113.001 91.848 113.025 91.8417 113.044 91.8319L113.08 92.4455C107.109 92.7547 101.138 93.0638 95.1665 93.373C94.9465 93.3844 94.9465 93.725 95.1665 93.7136C101.141 93.404 107.12 93.0945 113.099 92.7849L113.111 93.012C113.115 93.0344 113.123 93.0505 113.127 93.0705C111.061 93.2402 108.998 93.4276 106.932 93.6378C106.72 93.5399 106.429 93.6299 106.46 93.9214C106.586 95.0905 106.712 96.2599 106.838 97.429C106.857 97.6156 106.979 97.7664 107.179 97.7696C110.503 97.8156 113.822 97.8002 117.142 97.7299C117.248 97.7731 117.366 97.7708 117.456 97.7236C121.314 97.6376 125.163 97.4765 129.013 97.2361C128.282 97.4915 127.564 97.7849 126.856 98.1078ZM17.237 112.522C17.2602 112.446 17.2633 112.362 17.2248 112.274C15.2858 107.834 13.8292 103.225 12.8408 98.4846C13.0415 98.5085 13.2423 98.5293 13.443 98.5525C14.5339 103.335 15.7533 108.118 17.919 112.537C17.6915 112.532 17.4645 112.528 17.237 112.522ZM7.64556 97.059C7.65459 96.3511 7.69387 94.6521 8.26152 94.6933C9.35949 94.773 10.4547 94.8866 11.5488 95.0084C13.7911 95.2586 16.0184 95.6267 18.2325 96.058C17.8679 96.4823 17.5214 96.9183 17.1899 97.3744C16.4109 98.4457 15.4862 98.1031 14.2986 97.9809C12.0709 97.7515 9.85368 97.4306 7.64556 97.059ZM22.5163 58.2441C22.6837 63.4704 22.851 68.6967 23.018 73.9229C21.5637 76.9973 20.1118 80.0728 18.6681 83.1526C18.3963 83.1349 18.1248 83.1145 17.853 83.096C19.7728 74.8846 21.3241 66.5919 22.5163 58.2441ZM23.2961 82.6101C23.2282 82.8945 23.1633 83.1789 23.0914 83.4625C23.0427 83.4288 22.987 83.4028 22.9147 83.3989C21.6199 83.3333 20.3255 83.2571 19.0319 83.1758C20.3616 80.3391 21.7032 77.5079 23.0423 74.6756C23.1268 77.3202 23.2117 79.9651 23.2961 82.6101ZM24.4247 59.6202C24.893 62.9915 25.078 66.3809 24.9892 69.7589C24.4373 70.9221 23.8877 72.086 23.337 73.2496C23.1677 67.9581 22.9983 62.667 22.829 57.3756C23.359 58.1251 23.8869 58.8762 24.4247 59.6202ZM23.3609 73.9999C23.8952 72.8705 24.4251 71.7388 24.9601 70.6098C24.8168 74.2011 24.3583 77.7763 23.5947 81.3024C23.5165 78.8683 23.4387 76.4339 23.3609 73.9999ZM25.6731 69.1099C26.425 67.5268 27.1757 65.9433 27.93 64.3613C28.9993 65.7795 30.0808 67.1886 31.1748 68.5875C31.1658 68.6118 31.1571 68.6366 31.1481 68.6609C31.0903 68.8161 31.262 68.9041 31.383 68.8518C32.3679 70.1081 33.3617 71.3573 34.3674 72.5967C34.4184 72.658 34.4734 72.6918 34.5324 72.7055C34.8781 74.6544 35.3023 76.5907 35.7384 78.5191C36.2451 80.7371 36.7794 82.9487 37.2744 85.1671C35.267 85.0138 33.2596 84.8909 31.2502 84.7888C31.134 84.6729 30.9698 84.6823 30.846 84.7664C28.4049 84.6466 25.9623 84.5609 23.5181 84.5153C24.8792 79.4654 25.595 74.2993 25.6731 69.1099ZM27.699 64.0573C27.0253 65.4699 26.3555 66.8841 25.6838 68.2975C25.6893 65.7834 25.5447 63.2649 25.2485 60.7528C26.0569 61.8605 26.8752 62.9613 27.699 64.0573ZM37.8754 43.7033V43.7905C36.4062 50.1309 34.4499 56.3475 32.03 62.3866C31.975 62.3791 31.9161 62.372 31.8595 62.3642C31.4572 62.3107 31.4376 62.8858 31.777 63.0167C31.3162 64.1496 30.8421 65.277 30.3483 66.397C29.6494 65.4892 28.949 64.5825 28.26 63.6672C31.4412 57.0012 34.6463 50.347 37.8754 43.7033ZM37.9422 45.8745C38.0089 48.0441 38.0718 50.2142 38.115 52.3846C38.1307 53.195 38.1386 54.0058 38.1504 54.8166C38.115 54.9176 38.0797 55.0193 38.0443 55.1203C37.9815 55.2833 38.0522 55.4067 38.1622 55.4734C38.1739 56.2375 38.1897 57.0016 38.1975 57.7656C38.2093 58.6629 38.2172 59.5597 38.2211 60.4566C38.225 60.9052 38.2289 61.3538 38.2329 61.802V62.4749C38.1543 62.7495 38.1661 62.9896 38.2604 63.1978C36.7126 62.9994 35.1648 62.7967 33.6171 62.5932C35.3887 57.1124 36.8265 51.529 37.9422 45.8745ZM33.0789 64.2085C33.6917 66.2128 33.8803 68.305 34.1631 70.389C34.2142 70.7441 34.2652 71.0988 34.3202 71.4528C33.4364 70.356 32.5643 69.2478 31.6985 68.1365C32.1793 66.8338 32.635 65.5237 33.0789 64.2085ZM32.3757 62.4317C34.2456 57.7519 35.8366 52.9656 37.1408 48.098C36.0998 52.9782 34.8113 57.8018 33.2753 62.5484C32.9767 62.5091 32.6743 62.4714 32.3757 62.4317ZM32.7135 63.1577C32.7842 63.3286 32.8393 63.5018 32.8982 63.6739C32.4386 65.0629 31.9554 66.4449 31.4518 67.8199C31.1626 67.4478 30.8715 67.0774 30.5836 66.7046C31.1147 65.5041 31.6223 64.2942 32.1164 63.0787C32.3168 63.105 32.5171 63.131 32.7135 63.1577ZM37.9972 88.5965C36.6655 88.5545 35.3377 88.5128 34.0099 88.4712C33.1417 88.4441 32.1832 86.6033 31.6281 85.4888C33.5621 85.5905 35.4948 85.7096 37.4276 85.858C37.6279 86.769 37.8165 87.6816 37.9972 88.5965ZM72.4095 93.6177C71.9617 94.2133 71.4667 94.7695 70.8774 95.2558C70.8224 95.2998 70.795 95.3513 70.7832 95.4039C69.9975 95.7182 69.0508 95.5222 68.2494 95.4703L64.9417 95.2566C62.954 95.1282 60.9702 94.9997 58.9824 94.8713C56.0205 94.6796 53.0585 94.4883 50.0965 94.2965C57.4818 93.4496 64.9692 93.5081 72.4095 93.6177ZM78.0663 91.1943C77.5989 91.2729 77.1353 91.3483 76.6718 91.4343C76.6128 90.5583 76.5539 89.6823 76.4989 88.8063C76.9821 88.7642 77.4653 88.7171 77.9485 88.6715C77.9878 89.5126 78.0271 90.3533 78.0663 91.1943ZM38.7278 64.1315C38.7828 64.0883 38.8261 64.0259 38.8693 63.9555C38.8732 63.9563 38.8811 63.9571 38.885 63.9579L38.8575 64.0722C38.8064 64.2851 39.1325 64.3755 39.1875 64.1626C39.1993 64.1087 39.215 64.0549 39.2267 64.0011C41.3009 64.2659 43.3751 64.5291 45.4492 64.7938C45.4689 64.9632 45.7282 65.0201 45.7753 64.8351C48.6469 65.2016 51.5185 65.5721 54.3862 65.957V65.9598C54.3862 66.3656 54.9637 66.3911 55.0502 66.0462C62.5926 67.0644 70.1154 68.1895 77.5792 69.6183C78.031 72.1501 78.4867 74.6815 78.9424 77.2125C79.1191 80.7991 78.9817 84.3739 78.522 87.9401C77.7874 88.0112 77.0528 88.0791 76.3182 88.1424C76.1925 88.041 76.0118 88.0151 75.89 88.1691C74.7233 89.6426 73.922 91.3856 72.8849 92.944C64.1443 92.8132 55.3291 92.7386 46.6906 94.0762C46.5963 94.0703 46.5021 94.064 46.4078 94.0581C46.2939 94.0506 46.2114 94.0927 46.1564 94.1579C44.6086 94.4085 43.0687 94.7106 41.5327 95.0626C41.4738 88.3636 40.4995 81.703 38.6375 75.266C38.5746 75.0555 38.2486 75.1451 38.3075 75.3564C40.1735 81.791 41.1399 88.4453 41.1949 95.1415C40.9867 95.1902 40.7784 95.2362 40.5702 95.2865C39.5253 84.9769 37.675 74.7616 35.0234 64.7432C34.9684 64.531 34.6384 64.6214 34.6934 64.8335C37.3451 74.8489 39.1993 85.0606 40.2403 95.3678C40.0635 95.4126 39.8828 95.453 39.706 95.499C39.5056 93.3211 39.1718 91.1664 38.7671 89.0243C38.7828 88.9343 38.7671 88.8408 38.7161 88.7631C38.1307 85.6864 37.3961 82.6348 36.6851 79.5813C36.0055 76.6846 35.377 73.778 34.9134 70.838C34.5127 68.2806 34.3831 65.6989 33.4835 63.2586C35.0038 63.4586 36.524 63.655 38.0482 63.8503C38.0757 63.9402 38.1386 64.0204 38.2486 64.1315C38.39 64.2749 38.5825 64.2458 38.7278 64.1315ZM54.3862 48.9905C52.9249 49.7467 51.4125 50.3595 49.849 50.8502C49.5583 50.7645 49.2637 50.6761 48.9691 50.598C49.1419 49.892 49.3148 49.1857 49.4915 48.481C51.0668 47.9019 52.7245 47.4628 54.3862 47.1202V48.9905ZM50.9647 51.1974C52.1353 50.7869 53.2745 50.3022 54.3862 49.7439V52.5103C53.2667 52.0137 52.1274 51.5793 50.9647 51.1974ZM53.7459 52.9683C53.8245 53.0029 53.907 53.0383 53.9855 53.0724C52.2649 56.8971 50.5404 60.7221 48.8159 64.5471C48.6941 64.5314 48.5723 64.5149 48.4505 64.4992C50.3165 60.7025 52.0803 56.8578 53.7459 52.9683ZM46.3528 62.0475C47.1424 60.9209 47.8456 59.7322 48.5762 58.5733C49.8647 56.529 51.1532 54.4843 52.4417 52.4396C52.7756 52.5665 53.1056 52.6969 53.4356 52.8344C51.7582 56.7541 49.9786 60.6282 48.0969 64.4537C47.3663 64.3602 46.6395 64.2655 45.9128 64.1728C46.0582 63.4637 46.2074 62.7558 46.3528 62.0475ZM49.189 51.7659C49.409 51.7038 49.629 51.6299 49.849 51.5624C50.6111 51.789 51.3693 52.0428 52.1157 52.319C50.8979 54.2525 49.6801 56.1857 48.4623 58.1192C47.822 59.1351 47.2013 60.1792 46.5335 61.1876C47.2131 57.9982 47.9359 54.819 48.7098 51.6504C48.7451 51.639 48.7766 51.6189 48.8119 51.593C48.8748 51.7234 49.0044 51.8169 49.189 51.7659ZM38.9046 60.4566C38.8928 58.8872 38.8732 57.3174 38.8496 55.748C39.761 55.2448 40.5781 54.6249 41.3599 53.9626C40.5899 57.0746 39.8199 60.1867 39.05 63.2987C39.046 63.2983 39.0421 63.2975 39.0421 63.2975C39.1325 62.3657 38.9085 60.9912 38.9046 60.4566ZM45.8696 62.7201C45.7714 63.1899 45.6693 63.6593 45.575 64.1296C45.3118 64.0962 45.0486 64.0628 44.7854 64.0294C45.1703 63.611 45.5278 63.1726 45.8696 62.7201ZM44.4593 63.8876C44.4318 63.9174 44.42 63.95 44.4161 63.9823C42.7387 63.7689 41.0652 63.5556 39.3878 63.3419C40.197 60.0877 41.0023 56.8338 41.8077 53.5796C43.3358 52.24 44.7814 50.7861 46.5924 49.7864C47.3899 49.348 48.2345 48.9677 49.1066 48.6295C48.9376 49.291 48.7766 49.9537 48.6155 50.6164C48.5016 50.695 48.4505 50.8431 48.4702 50.9771L48.3602 51.0863C48.203 51.2458 48.2541 51.4485 48.3798 51.5675C47.5431 55.0052 46.7613 58.4562 46.0346 61.9187C45.5474 62.6073 45.0328 63.2716 44.4593 63.8876ZM54.3862 55.6726V65.2763C53.4474 65.1502 52.5085 65.0295 51.5696 64.907C52.7364 61.899 53.6752 58.8149 54.3862 55.6726ZM51.2239 64.8618C50.5365 64.7726 49.853 64.6815 49.1655 64.5927C50.8783 60.7975 52.5871 57.0024 54.2959 53.2072V53.2064C54.3155 53.2142 54.3313 53.2213 54.3509 53.2292C54.3627 53.2351 54.3745 53.2339 54.3862 53.2382V54.0526C53.6438 57.7401 52.5871 61.353 51.2239 64.8618ZM56.8533 65.6121C56.2601 65.5304 55.6629 65.4479 55.0698 65.3678V46.9847C55.6237 46.8786 56.1737 46.7847 56.7236 46.6963C56.7668 53.0017 56.81 59.3067 56.8533 65.6121ZM40.0203 20.0924C43.7247 20.651 47.4134 21.2976 51.0864 22.02C51.0982 22.0601 51.11 22.0998 51.1257 22.1402C51.2043 22.3245 51.4832 22.2636 51.4636 22.0946C56.2208 23.0382 60.9505 24.113 65.6488 25.3253C65.692 25.407 65.7274 25.4891 65.7706 25.5708C65.8609 25.7559 66.1202 25.6148 66.0731 25.4345C67.9351 25.9185 69.7932 26.4162 71.6435 26.943C71.6631 27.0239 71.7103 27.1005 71.8006 27.1555C72.9556 27.854 74.028 28.6495 75.0101 29.5322C75.1436 29.6783 75.2733 29.826 75.4068 29.9718C75.4461 30.0158 75.4933 30.0283 75.5365 30.0225C77.371 31.7867 78.8638 33.8722 79.9755 36.2226C79.8891 37.3099 79.7988 38.3969 79.7084 39.4839C79.5749 39.2647 79.4413 39.0455 79.3077 38.8263C79.1938 38.6393 78.9031 38.8102 79.017 38.9983C79.1742 39.2588 79.3313 39.5192 79.4884 39.7801C79.5355 39.8563 79.6102 39.8712 79.677 39.8516C79.6495 40.2138 79.618 40.5756 79.5866 40.9378C79.5041 40.7967 79.4177 40.6561 79.3313 40.5151C79.2173 40.3285 78.9227 40.4994 79.0366 40.6871L79.5395 41.5125C79.5198 41.7765 79.4962 42.0401 79.4766 42.304C79.3352 42.0361 79.1781 41.7749 78.9974 41.5278C78.8717 41.3526 78.577 41.5223 78.7067 41.6999C78.9934 42.0935 79.2291 42.5142 79.4216 42.9624C79.3941 43.3148 79.3627 43.6676 79.3352 44.02C79.0209 43.578 78.7027 43.1361 78.3884 42.6941C78.2627 42.517 77.9681 42.6867 78.0938 42.8658L79.2291 44.454C79.2488 44.4804 79.2723 44.4968 79.2959 44.509C79.2645 44.8787 79.2331 45.2487 79.2056 45.6184L78.0153 43.6636C77.9014 43.4767 77.6067 43.6475 77.7206 43.8353C78.1999 44.6222 78.6792 45.4086 79.1584 46.1955C79.1349 46.4732 79.1113 46.7513 79.0877 47.0291C78.5417 45.9841 77.976 44.9502 77.371 43.9367C77.261 43.7481 76.9664 43.9194 77.0764 44.1083C77.7717 45.2703 78.4199 46.4559 79.0366 47.6596C78.9502 48.6982 78.8638 49.7365 78.7774 50.7751C78.746 51.1487 79.2291 51.1892 79.4099 50.9468C79.6181 50.6636 79.8419 50.3945 80.0619 50.1258C79.6848 51.8916 78.9699 53.5309 77.9171 55.0028C75.5286 48.0544 68.0609 45.3163 61.2373 45.5115C56.9318 45.6345 52.4653 46.7175 48.4426 48.2135C47.0441 48.7328 45.74 49.4265 44.53 50.2794C45.2528 48.8499 45.7596 47.337 46.0424 45.7472C46.0778 45.5328 45.7517 45.4412 45.7125 45.6569C45.3943 47.4569 44.7893 49.1563 43.8936 50.7472C43.8661 50.77 43.8347 50.7912 43.8072 50.814C43.5597 51.0073 43.324 51.2108 43.0883 51.4147C44.5968 47.6458 45.4375 43.655 45.5592 39.5872C45.5671 39.3676 45.2293 39.3684 45.2214 39.5872C45.0918 43.8381 44.1765 48.0127 42.5148 51.9238C41.7762 52.5944 41.0574 53.2834 40.2913 53.9123C41.9687 51.8625 42.6326 49.159 43.159 46.5852C43.9486 42.713 44.3965 38.7721 44.5457 34.8241C44.5536 34.6049 44.2158 34.6057 44.2079 34.8241C44.0626 38.6377 43.6265 42.427 42.8958 46.1727C42.2948 49.2509 41.5209 52.5724 39.046 54.7113C38.9989 54.7542 38.9871 54.8052 38.995 54.8524C38.9439 54.8862 38.8928 54.9235 38.8378 54.9565V54.9137C42.8723 43.7399 43.2808 31.5133 40.0203 20.0924ZM47.9359 13.1608C50.3833 10.5551 52.7599 7.88266 55.0776 5.16032C55.0776 5.16503 55.0776 5.16935 55.0737 5.17407C53.0192 10.5017 50.4854 15.6239 47.9398 20.7303C45.3786 20.2609 42.8055 19.8303 40.2285 19.441C43.3947 18.2456 45.6771 15.5634 47.9359 13.1608ZM51.1807 20.7841C51.1336 20.9704 51.0864 21.1479 51.0589 21.3235C50.1358 21.1436 49.2126 20.9664 48.2855 20.7955C50.454 16.4465 52.6107 12.084 54.4727 7.59432C53.9424 9.71563 53.412 11.8369 52.8856 13.9586C52.5046 15.4754 52.1274 16.9921 51.7503 18.5092C51.5618 19.2674 51.3693 20.0256 51.1807 20.7841ZM51.7543 19.8995C51.9428 19.1409 52.1314 18.3827 52.3199 17.6246L53.3727 13.3989C53.9581 11.0607 54.5394 8.72215 55.1248 6.384C55.0816 11.6142 54.9637 16.8428 54.7516 22.0691C53.6281 21.8326 52.5045 21.6056 51.381 21.3848C51.4282 20.8796 51.6443 20.3344 51.7543 19.8995ZM55.4312 22.1166C55.6669 16.2438 55.7965 10.3681 55.8201 4.49053C56.1461 4.47207 56.5075 4.48385 56.6922 4.62056C56.7315 4.72741 56.7747 4.83309 56.814 4.93994C56.7983 5.80575 56.7826 6.67195 56.7668 7.53815C56.7393 9.32044 56.7197 11.1031 56.7079 12.8858C56.6883 16.0913 56.704 19.2965 56.7393 22.5016C56.2954 22.4042 55.8515 22.3005 55.4076 22.2058C55.4194 22.1771 55.4273 22.1504 55.4312 22.1166ZM57.47 6.64327C59.8309 12.7035 62.4276 18.6676 65.2639 24.5212C62.6594 23.8589 60.0431 23.235 57.419 22.6533C57.36 17.3162 57.3796 11.9795 57.47 6.64327ZM57.4857 5.63958C61.7873 13.0009 66.7409 19.9635 72.2799 26.437C72.2485 26.4131 72.2131 26.3938 72.166 26.3809C70.0171 25.7665 67.8566 25.1878 65.692 24.6331C62.6908 18.4531 59.9527 12.1492 57.4857 5.73739V5.63958ZM57.5014 4.78594C61.4376 8.82664 65.3424 12.9039 69.3376 16.8857C73.0891 20.6231 77.705 23.765 80.5923 28.2775C80.4273 30.4915 80.2544 32.7051 80.0777 34.9184C78.5574 32.0652 76.4361 29.6312 73.8434 27.7181C67.6601 20.6977 62.184 13.0787 57.4975 4.9804C57.4975 4.91558 57.5014 4.85076 57.5014 4.78594ZM80.6394 36.4355C80.7023 36.3416 80.7258 36.223 80.6669 36.0957V36.0933C81.2247 29.1075 81.7511 22.1194 82.1911 15.1254C85.0038 15.7425 87.8165 16.3596 90.6292 16.9768C90.6449 17.1237 90.861 17.176 90.9396 17.0451C93.2376 17.5499 95.5357 18.0543 97.8338 18.5591C97.9202 18.8361 98.2934 18.8816 98.4348 18.6911C101.868 19.4446 105.302 20.198 108.735 20.9515C110.33 23.2865 111.933 25.6184 113.532 27.9499C115.272 30.4832 117.02 33.0115 118.776 35.5339C118.795 35.6243 118.823 35.7135 118.843 35.8042C120.221 41.5211 119.043 47.1218 117.428 52.614C117.428 52.5504 117.425 52.4867 117.425 52.4227C118.006 49.3562 118.124 46.2234 117.758 43.1078C117.735 42.8925 117.393 42.8898 117.421 43.1078C117.719 45.6545 117.692 48.2107 117.354 50.7335C117.075 46.2002 116.089 41.7297 114.419 37.4867C114.341 37.2852 114.011 37.3728 114.093 37.5775C115.955 42.3123 116.961 47.326 117.079 52.3983C117 52.821 116.91 53.2425 116.812 53.6625C116.222 49.26 113.995 45.2861 111.795 41.4724C111.685 41.2823 111.391 41.4536 111.501 41.6441C113.614 45.3073 115.775 49.1209 116.431 53.329C115.806 51.9344 115.142 50.5606 114.427 49.2113C113.539 47.5401 112.648 45.6891 111.163 44.4591C110.998 44.3205 110.754 44.5597 110.923 44.6999C112.31 45.8498 113.135 47.5445 113.983 49.1001C114.647 50.3198 115.26 51.5667 115.837 52.8297C114.997 51.6056 114.16 50.3819 113.323 49.1582C112.294 47.6568 111.241 46.254 109.76 45.1686C106.661 42.8949 102.1 42.0966 98.3602 41.8323C97.6649 41.7831 96.9656 41.767 96.2703 41.782C96.176 41.749 96.0778 41.7533 95.9914 41.791C92.0945 41.921 88.284 43.054 84.9842 45.0472C85.1609 44.4081 85.3338 43.7689 85.5067 43.1302C85.5656 42.918 85.2395 42.8281 85.1806 43.0394C84.9724 43.7976 84.7681 44.5554 84.5599 45.3132C84.2614 45.5029 83.9667 45.6974 83.676 45.9016C83.8096 45.4157 83.9471 44.9298 84.0728 44.4411C84.3792 43.2567 84.611 42.0581 84.7485 40.8423C84.772 40.6243 84.4303 40.6266 84.4067 40.8423C84.3006 41.811 84.1199 42.7617 83.8999 43.7108C83.8606 43.8931 83.4992 45.3033 83.2989 46.1719C82.8275 46.5188 82.3718 46.8825 81.9279 47.2671C82.8903 43.8962 83.6014 40.464 84.0571 36.9858C84.0846 36.7686 83.7428 36.7714 83.7153 36.9858C83.2439 40.6137 82.4818 44.192 81.4486 47.7008C81.3033 47.8348 81.158 47.966 81.0165 48.1039C82.1165 43.0901 82.8628 38.0084 83.2517 32.8898C83.2675 32.6706 82.9257 32.6721 82.91 32.8898C82.5211 38.0331 81.7668 43.1384 80.6551 48.175C80.6355 48.2685 80.6865 48.336 80.7533 48.3675C80.6551 48.4676 80.553 48.5639 80.4548 48.666C81.1933 41.3267 81.9358 33.9873 82.6743 26.648C82.6939 26.4296 82.3561 26.4319 82.3325 26.648C81.5783 34.1272 80.828 41.6064 80.0737 49.0852C79.8969 49.2824 79.7163 49.478 79.5473 49.6827C79.9166 45.2676 80.2859 40.8521 80.6394 36.4355ZM94.4947 4.47128C94.1726 8.6098 93.7679 12.7409 93.2769 16.8625C92.5619 16.7053 91.8431 16.5478 91.1281 16.3907C92.2005 12.4042 93.328 8.43185 94.4947 4.47128ZM94.8914 3.7194C95.2411 8.26528 95.4886 12.8178 95.6182 17.3767L93.6108 16.9355C94.1333 12.5401 94.5575 8.13368 94.8914 3.7194ZM95.6182 0.686318C95.6222 0.673747 95.6222 0.663141 95.6222 0.651356C95.8343 0.641928 96.0424 0.658819 96.1642 0.771563C96.0817 0.810847 96.0268 0.901592 96.0975 0.997051C96.1643 1.09015 96.231 1.18286 96.2939 1.27596C96.3685 2.08402 96.4392 2.89248 96.5099 3.70054L96.9224 8.40474C97.2013 11.5517 97.4802 14.6987 97.7552 17.8461C97.272 17.7397 96.7889 17.6336 96.3057 17.5272C96.1525 12.1591 95.846 6.79883 95.3904 1.44842C95.4689 1.19465 95.5397 0.94009 95.6182 0.686318ZM97.6924 3.23228C99.5701 7.18577 101.919 10.889 104.363 14.5188C105.628 16.3954 106.9 18.2649 108.177 20.1336C104.936 19.4218 101.695 18.71 98.4506 17.9986C97.9909 12.7864 97.5313 7.57429 97.0717 2.36215C97.2799 2.65246 97.4881 2.94198 97.6924 3.23228ZM110.22 20.5461C110.196 20.5512 110.173 20.5567 110.149 20.5661C109.639 20.4538 109.124 20.3414 108.613 20.2287C107.113 18.0099 105.62 15.7885 104.131 13.5658C102.261 10.77 100.462 7.91448 98.9063 4.92972C102.646 10.1584 106.405 15.3713 110.22 20.5461ZM112.467 23.5748C113.421 24.8622 114.376 26.1499 115.342 27.4313C116.753 29.7023 117.845 32.1689 118.579 34.7805C115.405 30.224 112.274 25.6419 109.167 21.0462C109.474 21.1137 109.78 21.1813 110.086 21.2485C110.122 21.2559 110.149 21.2512 110.181 21.2504C110.99 21.9858 111.748 22.7633 112.467 23.5748ZM120.245 66.3852C119.994 64.5079 119.695 62.6364 119.338 60.772C119.656 60.8301 119.974 60.884 120.292 60.9441C120.72 61.0258 120.905 60.3701 120.473 60.288C117.629 59.7467 114.773 59.3012 111.909 58.9143C107.615 54.9687 103.381 50.9527 99.1537 46.9265C99.142 46.9163 99.1301 46.912 99.1184 46.9053C99.7548 46.6574 100.387 46.3856 101.012 46.1259C101.574 45.8926 102.43 45.6094 102.619 44.925C102.968 43.6542 100.584 43.063 99.7744 43.0182C99.4876 43.0025 99.197 43.0037 98.9102 43.0174V42.5468C102.501 42.7963 106.398 43.8322 109.419 45.7563C111.19 46.8853 112.318 48.8887 113.473 50.5803C114.521 52.1108 115.57 53.6413 116.615 55.1721C116.623 55.235 116.658 55.2774 116.706 55.3006L116.796 55.433C117.039 55.7916 117.629 55.455 117.385 55.0932C117.389 55.0881 117.389 55.0826 117.393 55.0771C117.393 55.0747 117.397 55.0728 117.397 55.07C119.263 49.06 120.764 43.1616 119.75 36.9336C123.918 42.9074 128.145 48.8412 132.482 54.6972C135.609 58.9233 138.799 63.105 142.055 67.2326C142.063 67.2396 142.067 67.242 142.075 67.2479C141.788 67.5005 141.497 67.7499 141.211 68.0057C138.85 70.1183 136.732 72.5146 134.14 74.3558C134.065 74.4081 134.026 74.4749 134.002 74.5456C132.808 74.6194 131.614 74.7247 130.419 74.8583C126.955 72.1155 123.572 69.282 120.245 66.3852ZM119.467 65.7052C117.22 63.7355 114.993 61.7392 112.789 59.7216C114.738 59.9965 116.682 60.2982 118.623 60.6432V60.6467C118.953 62.3272 119.232 64.0141 119.467 65.7052ZM99.1223 47.3657C103.168 51.2171 107.219 55.0582 111.324 58.8365C107.395 58.3172 103.451 57.9063 99.5033 57.5347C99.2598 54.1492 99.1341 50.7602 99.1223 47.3657ZM97.6217 55.3894L97.5313 52.7688C97.4763 51.0218 97.4174 49.2749 97.3585 47.5276C97.3585 47.5111 97.3506 47.4997 97.3467 47.4844C97.3742 47.4785 97.4017 47.4765 97.4331 47.469C97.771 47.3795 98.1049 47.273 98.4388 47.1567C98.4466 50.5995 98.5762 54.0372 98.8159 57.471C98.4859 57.4404 98.1559 57.4093 97.826 57.3791C97.7985 57.3048 97.7474 57.2377 97.6806 57.1968C97.6649 57.187 97.6492 57.1776 97.6335 57.1677C97.5431 56.7348 97.6295 55.6176 97.6217 55.3894ZM96.5453 42.4989C97.1031 42.4855 97.6649 42.4867 98.2305 42.5095V43.0744C97.6924 43.138 97.1581 43.2429 96.6239 43.3749C96.5964 43.083 96.5728 42.7912 96.5453 42.4989ZM101.432 44.2187C101.617 45.145 101.236 45.6372 100.285 45.6954C99.9237 45.8447 99.5584 45.9908 99.1891 46.1338C98.4506 46.4261 97.7081 46.7639 96.9067 46.844C95.9796 46.9367 94.7776 46.1236 93.9369 45.7653C93.5755 45.6125 93.218 45.4597 92.8566 45.3073C95.5436 44.3484 98.8159 42.8945 101.432 44.2187ZM80.7416 49.3472C81.8847 48.098 83.1693 47.0243 84.5481 46.1165C84.6228 46.1251 84.7013 46.0929 84.7249 45.9998V45.9975C88.0208 43.8817 91.8784 42.7216 95.8657 42.5173L95.96 43.5533C94.5851 43.9488 93.2298 44.4851 91.9216 44.9093C91.8274 44.8689 91.7292 44.8284 91.6349 44.7879C91.2342 44.6182 90.8885 45.2043 91.2931 45.3756C92.6327 45.9456 93.9762 46.5156 95.3157 47.086C95.7439 47.2671 96.2075 47.4541 96.6789 47.5103C96.6789 47.5166 96.6749 47.5213 96.6749 47.5276L96.8949 54.0793C96.9185 54.7632 96.6632 56.3801 96.9303 57.2962C90.7589 56.7333 84.5796 56.2108 78.4317 55.4408C79.6731 53.708 80.494 51.7804 80.8476 49.6567C80.8672 49.5259 80.8201 49.4222 80.7416 49.3472ZM75.8154 55.7779C76.4518 55.8639 77.0882 55.9484 77.7246 56.0293C77.7796 56.0556 77.8346 56.0639 77.8935 56.0513C84.8663 56.936 91.8784 57.4954 98.8787 58.1498C98.973 58.4547 99.4248 58.479 99.5191 58.2091C103.754 58.6094 107.981 59.0565 112.192 59.6375C114.62 61.8594 117.063 64.0565 119.542 66.2202C120.324 72.033 120.575 77.8996 120.304 83.7717C118.921 82.398 116.71 82.3261 114.812 82.1878C110.97 81.9081 107.113 81.8928 103.267 82.0641C96.781 82.3532 90.3307 83.3388 84.0257 84.9007C84.0335 84.8748 84.0375 84.8465 84.0335 84.8147C83.4836 82.0499 83.0789 79.2624 82.8236 76.4555C82.8039 76.2387 82.4622 76.2367 82.4818 76.4555C82.7411 79.2926 83.1496 82.1108 83.7035 84.905C83.7114 84.9321 83.7193 84.9545 83.731 84.9722C83.5896 85.0076 83.4482 85.039 83.3067 85.0751C82.3797 79.3468 81.4565 73.6185 80.5294 67.8902C80.4941 67.6741 80.1641 67.766 80.1995 67.9809C81.1265 73.7069 82.0536 79.4332 82.9807 85.1596C82.3718 85.3167 81.7669 85.477 81.1619 85.6451C80.6394 82.7987 80.1326 79.9506 79.618 77.1033C79.6023 76.8095 79.5905 76.5153 79.5709 76.2214C79.563 76.0941 79.4963 76.0085 79.4099 75.9551C78.196 69.2317 76.9978 62.5068 75.8154 55.7779ZM67.6169 61.703C64.4428 58.9159 61.2687 56.1287 58.0946 53.3415C61.3119 55.3572 64.5096 57.4074 67.503 59.751C69.0468 60.9606 70.5632 62.1925 72.1856 63.3015C73.7452 64.37 75.3715 65.345 76.9939 66.3184C77.1471 67.1803 77.3003 68.0426 77.4535 68.9049C77.43 68.9002 77.4064 68.8962 77.3828 68.8919C73.7452 67.0491 70.6614 64.3759 67.6169 61.703ZM67.6012 62.1402C70.3314 64.5389 73.1166 66.9159 76.2986 68.6904C70.0761 67.5327 63.8143 66.5738 57.5368 65.7052C57.5054 61.5455 57.4779 57.3862 57.4504 53.2264C60.8327 56.1978 64.2189 59.1692 67.6012 62.1402ZM60.2984 50.9016C59.3438 51.2646 58.3932 51.6276 57.4425 51.9906C57.4346 50.9154 57.4268 49.8398 57.419 48.7646C58.3421 49.5287 59.3006 50.2413 60.2984 50.9016ZM73.2541 55.4129C73.8709 55.5064 74.4915 55.594 75.1122 55.6801C75.7054 59.0789 76.3103 62.4761 76.9153 65.873C75.3754 64.9478 73.8434 64.0129 72.3545 63.0076C70.571 61.8028 68.9251 60.4243 67.2241 59.1068C64.1757 56.7403 60.8955 54.6886 57.6232 52.6458C58.7506 52.2168 59.8742 51.7879 61.0016 51.3589C61.0055 51.3628 61.0134 51.3671 61.0173 51.3711C61.3905 51.6044 61.7323 51.0152 61.363 50.7834C60.0745 49.9785 58.8489 49.0899 57.69 48.1113C57.5996 48.0379 57.5054 48.0182 57.415 48.032C57.4111 47.5519 57.4072 47.0723 57.4032 46.5926C57.8393 46.527 58.2714 46.4614 58.6957 46.4049C65.9003 45.4432 74.743 47.6336 77.3003 55.2959C76.7346 55.2216 76.165 55.145 75.5954 55.0669C75.5247 55.0244 75.4422 55.0146 75.3558 55.0346C74.7154 54.9459 74.0751 54.8535 73.4348 54.7565C73.0066 54.6917 72.822 55.3473 73.2541 55.4129ZM80.1248 90.8384C80.1287 90.8498 80.1327 90.8565 80.1366 90.8671C79.6691 90.9354 79.2056 91.003 78.742 91.078C78.7027 90.2551 78.6674 89.4317 78.6281 88.6087C79.0956 88.5635 79.563 88.5152 80.0305 88.4677C79.9834 89.2624 80.0187 90.048 80.1248 90.8384ZM82.2029 90.5807C81.7276 90.6416 81.2522 90.7033 80.7769 90.7705C80.7808 90.7343 80.7887 90.6982 80.7808 90.6573C80.6826 89.907 80.663 89.1535 80.7141 88.3989C81.2247 88.3455 81.7394 88.2905 82.25 88.2351C82.2304 88.9964 82.2108 89.7573 82.1911 90.5183C82.1911 90.5418 82.199 90.5595 82.2029 90.5807ZM84.5246 87.986C84.4735 88.7678 84.4224 89.5495 84.3753 90.3313C83.8725 90.3863 83.3735 90.4358 82.8746 90.4967C82.8943 89.7184 82.9139 88.9398 82.9336 88.1616C83.4639 88.1039 83.9942 88.0446 84.5246 87.986ZM86.5476 90.1101C86.0527 90.158 85.5538 90.2032 85.0588 90.2554C85.1099 89.4926 85.157 88.7297 85.2042 87.9668C85.2081 87.9456 85.2002 87.9306 85.1963 87.9114C85.652 87.8611 86.1077 87.8112 86.5634 87.7609C86.5398 88.5439 86.5359 89.3268 86.5476 90.1101ZM88.9911 89.8909C88.4019 89.9396 87.8165 89.9899 87.2272 90.0441C87.2154 89.2576 87.2233 88.4716 87.243 87.6855C87.7497 87.6297 88.2565 87.5751 88.7632 87.5205C88.7632 88.318 88.8379 89.1068 88.9911 89.8909ZM89.4428 87.4475C89.9024 87.3987 90.3621 87.354 90.8177 87.3072C90.8374 88.1204 90.8531 88.9336 90.8688 89.7467C90.4642 89.7774 90.0557 89.8053 89.651 89.8379C89.655 89.808 89.6589 89.7797 89.651 89.7467C89.5018 88.9854 89.4389 88.2217 89.4428 87.4475ZM93.1473 89.5876C92.613 89.6242 92.0787 89.6575 91.5484 89.696C91.5327 88.8766 91.5131 88.0571 91.4974 87.2377C92.0159 87.1854 92.5384 87.1356 93.0569 87.0861L93.1473 89.5876ZM95.2411 89.447C95.1743 89.4513 95.1114 89.4552 95.0486 89.4592C94.64 89.4843 94.2315 89.515 93.8269 89.5417C93.7955 88.7132 93.768 87.8851 93.7365 87.0566C93.7365 87.0436 93.7287 87.035 93.7287 87.0228C94.2119 86.978 94.699 86.9352 95.1821 86.8943C95.1507 87.7468 95.1704 88.5965 95.2411 89.447ZM97.6767 89.2969C97.0914 89.3319 96.5021 89.3684 95.9168 89.405C95.8461 88.5509 95.8304 87.6977 95.8657 86.8417C96.4039 86.7997 96.946 86.7659 97.4842 86.7309C97.4881 87.592 97.5549 88.4457 97.6767 89.2969ZM99.9748 89.1704C99.4326 89.1968 98.8945 89.2258 98.3523 89.2573C98.2227 88.404 98.1638 87.5472 98.1638 86.6846C98.7413 86.6504 99.3187 86.6213 99.8962 86.5966C99.9237 87.4545 99.9473 88.3125 99.9748 89.1704ZM102.646 89.0714C101.982 89.0883 101.318 89.1095 100.654 89.139C100.627 88.2834 100.603 87.4278 100.576 86.5722C101.216 86.549 101.856 86.5353 102.497 86.5235C102.477 87.3775 102.528 88.2249 102.646 89.0714ZM104.811 86.5109C104.787 87.3559 104.763 88.2013 104.74 89.0463C104.268 89.0459 103.797 89.0483 103.326 89.0565C103.2 88.2111 103.153 87.3638 103.176 86.5113C103.722 86.5051 104.264 86.5078 104.811 86.5109ZM107.003 89.0911C106.476 89.0711 105.946 89.0569 105.419 89.051L105.49 86.5137C105.966 86.5216 106.445 86.5373 106.92 86.5569C106.865 87.4074 106.897 88.2477 107.003 89.0911ZM107.6 86.5875C108.071 86.6119 108.543 86.6418 109.014 86.6748C108.975 87.5225 108.986 88.3671 109.049 89.2121C108.59 89.1759 108.134 89.1449 107.674 89.1217C107.674 89.1033 107.678 89.0872 107.678 89.0679C107.564 88.2437 107.545 87.4164 107.6 86.5875ZM110.97 89.4128C110.558 89.3621 110.145 89.3138 109.733 89.2745C109.67 88.4256 109.654 87.5767 109.693 86.7254C109.796 86.7333 109.902 86.74 110.004 86.7482C110.181 86.7627 110.491 86.7592 110.833 86.7734C110.88 87.6533 110.927 88.5329 110.97 89.4128ZM111.516 86.8335C111.988 86.9053 112.396 87.0527 112.49 87.3697C112.714 88.1192 112.769 88.897 112.762 89.6729C112.388 89.6081 112.015 89.5558 111.642 89.5036C111.646 89.4816 111.654 89.4631 111.654 89.438C111.607 88.5698 111.563 87.7016 111.516 86.8335ZM114.113 97.0998C113.61 97.1045 113.107 97.1116 112.604 97.1143C112.329 96.1063 112.514 94.8504 112.526 93.8035C112.974 93.7658 113.425 93.732 113.873 93.6959C113.928 94.8328 114.007 95.9669 114.113 97.0998ZM116.871 97.0645C116.179 97.0762 115.484 97.0857 114.792 97.0935C114.686 95.9445 114.604 94.7943 114.553 93.6417C115.056 93.6028 115.555 93.5667 116.057 93.5305C116.175 93.5973 116.332 93.6075 116.466 93.5014V93.5003C116.513 93.4971 116.556 93.4936 116.6 93.4904C116.6 93.5026 116.596 93.5113 116.596 93.5238C116.631 94.709 116.725 95.8883 116.871 97.0645ZM116.215 92.8332C115.61 92.8768 115.005 92.9204 114.4 92.9676C117.923 90.1969 121.451 87.4259 124.975 84.6552C124.837 84.9266 124.696 85.1969 124.558 85.468C121.895 88.0599 119.118 90.5159 116.215 92.8332ZM121.321 89.4399C121.321 89.4281 121.317 89.4203 121.314 89.4089C121.408 89.3256 121.502 89.2411 121.596 89.1575C121.616 89.5499 121.702 89.9761 121.726 90.3026C121.773 91.0274 121.824 91.7525 121.871 92.4773C121.726 92.4856 121.577 92.4915 121.427 92.5001C121.392 91.4799 121.357 90.4597 121.321 89.4399ZM117.385 92.7499C118.497 91.85 119.585 90.9296 120.661 89.9903C120.689 90.8408 120.72 91.6913 120.748 92.5417C119.628 92.607 118.509 92.673 117.385 92.7499ZM119.012 97.0161C118.524 97.0291 118.037 97.0401 117.55 97.0499C117.405 95.8785 117.311 94.7043 117.275 93.5238C117.275 93.4936 117.263 93.47 117.256 93.4437C117.798 93.4064 118.34 93.3769 118.882 93.3423C118.878 93.3655 118.866 93.3852 118.866 93.4115C118.843 94.6171 118.894 95.8172 119.012 97.0161ZM119.526 93.3019C120.064 93.2685 120.599 93.2414 121.137 93.2107C121.109 94.4596 121.188 95.6974 121.349 96.934C120.795 96.9541 120.241 96.978 119.687 96.9949C119.573 95.8031 119.522 94.61 119.546 93.4115C119.55 93.3698 119.538 93.3357 119.526 93.3019ZM121.812 93.1723C121.934 93.166 122.052 93.1605 122.17 93.1542C122.249 93.1715 122.323 93.1695 122.394 93.1428C122.724 93.1263 123.054 93.1094 123.38 93.0929C123.482 94.3409 123.584 95.589 123.686 96.837C123.132 96.8614 122.578 96.8877 122.025 96.9093C121.86 95.673 121.789 94.4325 121.816 93.1848C121.816 93.1801 121.812 93.177 121.812 93.1723ZM125.619 92.988C125.643 94.2388 125.702 95.488 125.788 96.736C125.313 96.7604 124.841 96.7855 124.366 96.8075C124.264 95.5623 124.162 94.3174 124.059 93.0725C124.059 93.0674 124.056 93.0638 124.056 93.0583C124.578 93.0332 125.097 93.0112 125.619 92.988ZM125.493 88.6833L126.295 88.6232C126.326 89.839 126.393 91.0521 126.495 92.264C126.271 92.273 126.047 92.2785 125.827 92.288C125.855 92.2389 125.874 92.1807 125.863 92.1041C125.717 90.9665 125.595 89.8261 125.493 88.6833ZM123.348 88.8448L124.818 88.7344C124.92 89.8599 125.038 90.9834 125.183 92.1041C125.195 92.1929 125.234 92.2593 125.289 92.3115C124.378 92.352 123.462 92.3952 122.551 92.4427C122.516 91.9411 122.484 91.4391 122.449 90.937C122.425 90.62 122.406 90.3026 122.382 89.9852C122.362 89.6961 122.245 89.2121 122.28 88.8813C122.3 88.8507 122.319 88.8185 122.327 88.776C122.331 88.7682 122.331 88.7603 122.335 88.7525C122.359 88.6629 122.343 88.5847 122.307 88.5175C122.732 88.1318 123.156 87.7433 123.576 87.3496C123.403 87.6773 123.231 88.0065 123.054 88.3329C122.94 88.5443 123.077 88.8652 123.348 88.8448ZM129.052 75.7044C129.1 75.6978 129.151 75.6934 129.202 75.6868C128.09 78.2414 126.911 80.763 125.674 83.2567C125.65 83.2681 125.631 83.2818 125.607 83.2987L113.826 92.5602C113.822 92.5131 113.799 92.4714 113.759 92.4443L113.638 90.292C113.634 90.2048 113.598 90.14 113.551 90.0877C113.559 89.9844 113.528 89.8834 113.437 89.8218C113.445 88.7187 113.296 87.6867 112.974 86.6068C112.927 86.4469 112.801 86.3766 112.648 86.3569C101.471 84.9408 90.3346 86.7628 79.2095 87.8721C79.4884 85.6907 79.6455 83.5061 79.6848 81.3181C79.9794 82.9389 80.2741 84.5597 80.5687 86.1802C80.6198 86.4611 80.9144 86.4783 81.0912 86.3401C81.1344 86.3467 81.1854 86.3444 81.2365 86.3298C87.8126 84.4961 94.534 83.3357 101.346 82.8552C104.547 82.6293 107.761 82.5901 110.966 82.6769C112.679 82.7228 114.388 82.8305 116.093 82.966C117.676 83.0917 119.42 83.3918 120.304 84.865C120.485 85.1655 120.921 85.0252 120.94 84.6933C121.274 78.7407 121.058 72.7896 120.308 66.8924C123.462 69.6312 126.668 72.3119 129.948 74.9129C129.591 74.9557 129.229 74.9997 128.872 75.048C128.436 75.1066 128.624 75.7622 129.052 75.7044ZM134.965 51.1534C138.928 55.2472 143.167 59.073 147.724 62.4989C145.901 63.9874 144.09 65.4872 142.318 67.0342C142.311 67.0196 142.307 67.0055 142.295 66.9918C134.419 57.0118 126.919 46.7219 119.628 36.2874C119.585 36.0658 119.55 35.8454 119.503 35.6231C119.145 34.0046 118.623 32.429 117.971 30.9099C123.309 37.9224 128.828 44.8147 134.965 51.1534ZM7.37568 72.8305C6.50947 72.9483 5.75956 73.2076 5.18327 73.7544C5.00885 72.4317 4.55001 71.2336 3.79616 70.1203C5.07956 69.9443 6.33506 69.5177 7.36115 68.6974C8.94781 67.4302 9.90082 65.2161 11.9047 64.5888C12.2107 66.7792 12.5434 68.965 12.9052 71.1456C11.3865 73.0151 9.5567 72.5335 7.37568 72.8305ZM148.891 61.87C148.875 61.8704 148.863 61.8782 148.843 61.881C148.726 61.8146 148.572 61.8056 148.439 61.9132C148.29 62.035 148.14 62.1575 147.991 62.2793C139.961 56.2532 133 48.9642 126.589 41.265C123.423 37.4576 120.363 33.5548 117.366 29.6057C115.798 26.4351 113.626 23.5572 111.061 21.1408C109.745 19.346 108.432 17.5484 107.12 15.7508C104.041 11.5219 100.992 7.26984 97.9517 3.01112C97.6531 2.37394 97.3585 1.73205 97.0874 1.08073C97.0599 1.0163 97.0049 0.984481 96.9499 0.974267C96.9303 0.762922 96.9107 0.551576 96.8949 0.34023C96.8792 0.157955 96.7496 -0.00271506 96.5532 3.47884e-05C96.0504 0.00749865 95.5475 0.0145696 95.0447 0.0220335C94.8404 0.0247833 94.7343 0.174454 94.7226 0.331981C94.6636 0.386192 94.6322 0.465937 94.6401 0.572788C94.6676 0.877235 94.6911 1.18208 94.7147 1.48692C94.6833 1.95007 94.644 2.41243 94.6125 2.87519C93.2808 7.33976 92.0081 11.82 90.7942 16.3176C87.9108 15.6848 85.0274 15.0519 82.144 14.419C81.9868 14.2482 81.6372 14.3012 81.5626 14.5715C81.5272 14.6453 81.5154 14.7251 81.5311 14.8017C81.2601 19.1122 80.9576 23.4205 80.6355 27.7275C77.8346 23.5635 73.5919 20.5834 70.0446 17.1049C65.7824 12.9274 61.6734 8.58152 57.5093 4.30708C57.5093 4.27015 57.5093 4.23283 57.5132 4.19591C57.5172 4.01049 57.3522 3.85571 57.1715 3.85571H55.2387C54.838 3.85571 54.8066 4.41982 55.1405 4.51646V4.56478C52.866 7.2447 50.5326 9.87394 48.1363 12.4458C45.7871 14.9694 43.3751 17.9322 40.0438 19.1519C39.9299 19.1932 39.9064 19.3106 39.9456 19.3959C39.8828 19.3868 39.8238 19.3762 39.761 19.3668C39.6981 19.3578 39.6471 19.366 39.596 19.3825C39.3839 19.3664 39.1482 19.5345 39.2267 19.8009C42.4284 30.6388 42.2634 42.2035 38.8025 52.9263C38.7357 49.4128 38.6375 45.9005 38.5118 42.3885C38.5236 42.363 38.5354 42.337 38.5471 42.3111C38.5904 42.227 38.5589 42.1493 38.5 42.1009C38.4882 41.7183 38.4764 41.3353 38.4646 40.9527C38.4489 40.5155 37.7654 40.5139 37.7811 40.9527C37.8086 41.6268 37.8283 42.3009 37.8518 42.9746C34.552 49.7589 31.2785 56.5541 28.0298 63.3616C27.0331 62.0338 26.0436 60.7001 25.0697 59.355C25.0529 59.2388 24.992 59.1704 24.9146 59.1366C24.2067 58.1569 23.5082 57.1697 22.8117 56.1813C22.8133 56.1699 22.8153 56.1585 22.8168 56.1475C22.8333 56.0242 22.7324 55.9441 22.6377 55.9366C22.5175 55.7653 22.3938 55.5964 22.2739 55.4247C22.0245 55.0676 21.4341 55.4074 21.6863 55.7681C21.9176 56.1 22.1561 56.4269 22.3894 56.7576C21.1705 65.5995 19.5433 74.381 17.5096 83.0725C16.9534 83.034 16.3968 82.9966 15.8405 82.957C15.0104 79.0977 14.2715 75.2213 13.6202 71.3298C13.641 71.3019 13.6642 71.2748 13.6842 71.2469C13.8276 71.0478 13.7066 70.8541 13.5279 70.783C13.1688 68.6095 12.8404 66.4308 12.5383 64.2478C12.5481 64.183 12.5379 64.1158 12.5112 64.0522C12.4668 63.7304 12.4205 63.4091 12.3772 63.0874C12.3203 62.6592 11.6387 62.6533 11.6969 63.0874C11.7334 63.3624 11.7735 63.6369 11.8112 63.9119C10.514 64.2651 9.64783 65.1584 8.79577 66.2104C7.29514 68.0634 5.63934 69.3166 3.18452 69.5063C2.86907 69.5306 2.76025 69.85 2.9441 70.0869C3.99415 71.4402 4.52057 72.9318 4.58107 74.6391C4.59285 74.9695 5.04302 75.114 5.21508 74.8107C6.2887 72.92 8.85195 73.5981 10.6452 73.3537C11.5857 73.2257 12.3993 72.6832 13.0502 72.0075C13.6677 75.6546 14.3611 79.2891 15.1357 82.9082C13.7942 82.8089 12.4531 82.7028 11.1123 82.5861C10.9399 82.5708 10.8385 82.669 10.8028 82.7943C10.6503 82.814 10.5078 82.9177 10.5007 83.1149C10.3691 86.8464 10.3616 90.5646 10.8908 94.2655C9.7975 94.1465 8.70189 94.0447 7.60274 93.965C7.46524 93.9552 7.29713 94.075 7.27473 94.2148C7.10896 95.2468 7.00289 96.2749 6.96085 97.3202C6.95614 97.4451 7.01034 97.5304 7.08733 97.5842C7.1274 97.6301 7.18045 97.6682 7.26138 97.682C8.87947 97.9566 10.5015 98.1958 12.1278 98.4013C13.1244 103.273 14.6251 107.995 16.6108 112.555C16.3539 112.699 16.4081 113.183 16.7786 113.192C17.2802 113.204 17.7823 113.214 18.2839 113.226C18.3334 113.261 18.3951 113.258 18.4473 113.23C21.4914 113.303 24.5363 113.369 27.5808 113.434C27.6004 113.462 27.6181 113.491 27.6373 113.52C27.7387 113.666 27.9512 113.578 27.9575 113.442C40.7234 113.714 53.4906 113.921 66.2616 114.055C74.5937 114.142 82.9336 114.239 91.2695 114.208C95.2882 114.192 99.3069 114.09 103.314 113.818C105.317 113.682 107.317 113.48 109.309 113.234C110.377 113.102 111.296 112.83 111.834 111.856C111.917 111.708 111.882 111.568 111.791 111.471C111.815 111.429 111.838 111.389 111.862 111.347C111.933 111.342 112.003 111.339 112.074 111.334C112.294 111.319 112.294 110.979 112.074 110.994C112.07 110.994 112.058 110.995 112.054 110.995C112.84 109.575 113.767 108.32 114.812 107.182H114.902C115.052 107.182 115.095 107.032 115.048 106.931C115.751 106.19 116.505 105.5 117.307 104.844C117.338 104.843 117.369 104.843 117.397 104.842C117.523 104.838 117.574 104.731 117.558 104.637C117.876 104.381 118.206 104.132 118.54 103.886C118.576 103.886 118.611 103.888 118.646 103.888C118.768 103.888 118.819 103.784 118.807 103.691C119.361 103.291 119.931 102.9 120.52 102.52C124.515 99.9404 128.687 97.3516 133.527 96.9219C133.676 96.9101 133.829 96.9007 133.979 96.8885C134.261 96.8657 134.36 96.5718 134.273 96.3774C134.348 96.3412 134.407 96.2725 134.426 96.1609C134.642 94.929 134.859 93.6971 135.075 92.4647C135.114 92.2526 134.984 92.0311 134.749 92.0342C132.223 92.0684 129.697 92.1426 127.175 92.2401C127.073 91.0191 127.006 89.797 126.974 88.5721L132.918 88.1247C132.953 88.1565 132.996 88.1832 133.051 88.2001C136.575 89.295 140.464 89.9962 143.434 87.2832C146.506 84.4823 146.624 79.4195 146.526 75.5819C146.632 75.5941 146.738 75.6027 146.844 75.6157C146.895 75.6895 146.981 75.7402 147.103 75.7331C147.256 75.7237 147.406 75.7147 147.559 75.7056C148.007 75.6785 147.983 75.0818 147.559 75.0248C144.086 74.5609 140.606 74.3661 137.129 74.4258C140.056 71.6991 143.061 69.0592 146.149 66.5125C146.97 65.8364 147.798 65.1714 148.631 64.5094C149.008 64.2073 149.629 63.8463 149.822 63.3647C150.14 62.5563 149.798 61.8437 148.891 61.87Z" fill="black"/>
<path d="M68.3947 97.0766C60.9859 96.5483 53.577 96.0195 46.1682 95.4907C45.9482 95.4754 45.9521 95.8156 46.1682 95.8313C53.577 96.3597 60.9859 96.8884 68.3947 97.4168C68.6147 97.4325 68.6108 97.0923 68.3947 97.0766Z" fill="black"/>
<path d="M40.2795 110.921C39.8906 110.479 39.4703 110.068 39.0185 109.689C38.8496 109.548 38.61 109.788 38.7789 109.929C39.2307 110.309 39.651 110.719 40.0399 111.161C40.1853 111.326 40.4249 111.084 40.2795 110.921Z" fill="black"/>
<path d="M41.187 110.807C40.8452 110.508 40.4995 110.209 40.1578 109.911C39.9928 109.767 39.7492 110.007 39.9142 110.151C40.2599 110.45 40.6017 110.748 40.9474 111.047C41.1124 111.19 41.352 110.951 41.187 110.807Z" fill="black"/>
<path d="M42.7505 110.763C42.3733 110.499 41.9923 110.235 41.6152 109.972C41.4345 109.846 41.2656 110.141 41.4423 110.266C41.8234 110.529 42.2005 110.793 42.5816 111.056C42.7623 111.182 42.9312 110.887 42.7505 110.763Z" fill="black"/>
<path d="M43.8623 110.571C43.5519 110.393 43.2455 110.214 42.9351 110.035C42.7466 109.925 42.5738 110.219 42.7662 110.329C43.0727 110.508 43.383 110.686 43.6894 110.865C43.8819 110.975 44.0508 110.68 43.8623 110.571Z" fill="black"/>
<path d="M45.2411 110.997C44.8404 110.708 44.4554 110.397 44.09 110.065C43.9251 109.919 43.6854 110.159 43.8465 110.306C44.2393 110.657 44.6439 110.985 45.0721 111.291C45.2489 111.419 45.4178 111.124 45.2411 110.997Z" fill="black"/>
<path d="M46.8359 111.104C46.341 110.728 45.8499 110.353 45.3549 109.978C45.1821 109.845 45.0132 110.14 45.1821 110.272L46.6631 111.398C46.8399 111.531 47.0088 111.235 46.8359 111.104Z" fill="black"/>
<path d="M48.0813 111.065C47.6609 110.728 47.2445 110.392 46.8242 110.055C46.6553 109.919 46.4117 110.158 46.5846 110.296C47.001 110.632 47.4213 110.969 47.8417 111.305C48.0106 111.441 48.2502 111.202 48.0813 111.065Z" fill="black"/>
<path d="M49.4601 111.157L48.4309 110.259C48.2659 110.115 48.0223 110.355 48.1873 110.5L49.2166 111.398C49.3816 111.542 49.6251 111.302 49.4601 111.157Z" fill="black"/>
<path d="M50.6858 111C50.3047 110.737 49.9276 110.474 49.5465 110.21C49.3658 110.084 49.1969 110.38 49.3737 110.504C49.7547 110.767 50.1318 111.031 50.5129 111.294C50.6936 111.419 50.8625 111.124 50.6858 111Z" fill="black"/>
<path d="M52.1746 110.938C51.77 110.622 51.3654 110.307 50.9568 109.991C50.7879 109.859 50.5443 110.097 50.7172 110.232C51.1218 110.548 51.5303 110.863 51.935 111.179C52.1039 111.312 52.3474 111.073 52.1746 110.938Z" fill="black"/>
<path d="M53.636 110.998C53.2942 110.771 52.9564 110.543 52.6146 110.316C52.43 110.194 52.2611 110.489 52.4418 110.61C52.7835 110.837 53.1214 111.065 53.4631 111.292C53.6478 111.414 53.8167 111.119 53.636 110.998Z" fill="black"/>
<path d="M55.2505 111.036C54.8695 110.7 54.4884 110.363 54.1073 110.027C53.9424 109.883 53.6988 110.122 53.8638 110.268C54.2488 110.604 54.6298 110.94 55.0109 111.276C55.1759 111.421 55.4155 111.181 55.2505 111.036Z" fill="black"/>
<path d="M79.1702 103.377C78.7067 103.088 78.2431 102.799 77.7835 102.51C77.5949 102.393 77.426 102.687 77.6106 102.803C78.0742 103.092 78.5338 103.382 78.9973 103.671C79.1859 103.787 79.3548 103.493 79.1702 103.377Z" fill="black"/>
<path d="M80.8986 103.649C80.3212 103.133 79.7398 102.617 79.1623 102.101C78.9973 101.956 78.7577 102.195 78.9227 102.342C79.5002 102.858 80.0776 103.374 80.659 103.89C80.8201 104.035 81.0636 103.795 80.8986 103.649Z" fill="black"/>
<path d="M81.7512 102.853C81.2719 102.614 80.8437 102.307 80.4666 101.926C80.3134 101.77 80.0698 102.011 80.227 102.167C80.6237 102.567 81.0755 102.895 81.5822 103.146C81.7747 103.244 81.9476 102.95 81.7512 102.853Z" fill="black"/>
<path d="M82.6075 102.394C82.2972 102.101 81.9868 101.808 81.6726 101.516C81.5154 101.365 81.2718 101.606 81.4329 101.756C81.7432 102.049 82.0575 102.342 82.3678 102.635C82.525 102.785 82.7686 102.545 82.6075 102.394Z" fill="black"/>
<path d="M85.2082 102.856C84.3989 102.191 83.5936 101.525 82.7883 100.86C82.6194 100.721 82.3758 100.961 82.5487 101.1C83.354 101.766 84.1593 102.431 84.9646 103.097C85.1335 103.235 85.3771 102.996 85.2082 102.856Z" fill="black"/>
<path d="M85.322 101.494C84.9056 101.116 84.4931 100.737 84.0767 100.358C83.9157 100.211 83.6721 100.451 83.8371 100.599L85.0824 101.735C85.2434 101.882 85.487 101.643 85.322 101.494Z" fill="black"/>
<path d="M85.9741 100.729C85.7423 100.471 85.5066 100.213 85.2709 99.9558C85.1256 99.7931 84.8859 100.034 85.0313 100.196C85.267 100.454 85.4988 100.712 85.7345 100.97C85.8837 101.132 86.1234 100.891 85.9741 100.729Z" fill="black"/>
<path d="M41.5169 21.7458C41.458 21.5348 41.128 21.6248 41.187 21.8365C44.0429 32.0031 43.6068 42.9357 39.9653 52.8461C39.8867 53.0524 40.2167 53.1408 40.2913 52.9365C43.9565 42.9726 44.3846 31.9666 41.5169 21.7458Z" fill="black"/>
<path d="M78.4042 61.098C78.3649 60.882 78.0389 60.9739 78.0742 61.1884C78.2038 61.9752 78.3335 62.7621 78.4631 63.5489C78.4278 63.6189 78.4395 63.712 78.4985 63.7642C79.7005 71.0383 80.9026 78.3121 82.1008 85.5858C82.1361 85.8019 82.4661 85.7099 82.4307 85.4951C81.0872 77.363 79.7437 69.2305 78.4042 61.098Z" fill="black"/>
<path d="M84.7328 84.4443C84.4106 83.1601 84.2064 81.8626 84.12 80.5415C84.1082 80.3239 83.7664 80.3223 83.7821 80.5415C83.8686 81.8925 84.0768 83.221 84.4028 84.5347C84.4578 84.7476 84.7838 84.6572 84.7328 84.4443Z" fill="black"/>
<path d="M84.4617 64.1508C84.3242 63.6877 84.0689 63.2799 83.7075 62.9594C83.5425 62.8144 83.3029 63.054 83.4639 63.1998C83.786 63.483 84.01 63.8314 84.1318 64.2412C84.1946 64.4513 84.5246 64.3618 84.4617 64.1508Z" fill="black"/>
<path d="M85.7738 63.9563C85.3927 63.4673 85.0116 62.9778 84.6306 62.4883C84.497 62.3151 84.2574 62.5578 84.391 62.7287C84.772 63.2182 85.1531 63.7077 85.5341 64.1971C85.6677 64.37 85.9073 64.1276 85.7738 63.9563Z" fill="black"/>
<path d="M86.5831 63.0328C86.3002 62.7083 86.0174 62.3842 85.7345 62.0597C85.5892 61.8943 85.3496 62.1359 85.4949 62.3005C85.7777 62.6246 86.0606 62.9491 86.3434 63.2736C86.4887 63.439 86.7284 63.1974 86.5831 63.0328Z" fill="black"/>
<path d="M87.3451 62.3814C87.1212 62.1508 86.8973 61.9198 86.6773 61.6892C86.5241 61.5309 86.2844 61.7717 86.4337 61.9296C86.6576 62.1606 86.8815 62.3912 87.1054 62.6222C87.2587 62.7801 87.4983 62.5393 87.3451 62.3814Z" fill="black"/>
<path d="M88.3862 61.624C88.1976 61.3109 87.9619 61.0312 87.6869 60.7924C87.5219 60.6498 87.2784 60.8894 87.4473 61.0328C87.7026 61.254 87.9187 61.5062 88.0955 61.7957C88.2094 61.9827 88.5001 61.8118 88.3862 61.624Z" fill="black"/>
<path d="M108.264 80.5505C107.906 80.0716 107.549 79.5931 107.191 79.1143C107.061 78.9406 106.763 79.1099 106.896 79.2859C107.254 79.7648 107.611 80.2433 107.969 80.7221C108.099 80.8958 108.393 80.7265 108.264 80.5505Z" fill="black"/>
<path d="M109.485 80.5143C109.179 80.1396 108.869 79.7652 108.562 79.3904C108.425 79.2203 108.185 79.4627 108.323 79.6309C108.629 80.0056 108.935 80.3804 109.242 80.7552C109.383 80.9249 109.623 80.6829 109.485 80.5143Z" fill="black"/>
<path d="M110.55 80.6487L109.729 79.5342C109.603 79.3594 109.305 79.5291 109.438 79.7059L110.259 80.8204C110.385 80.9952 110.683 80.8259 110.55 80.6487Z" fill="black"/>
<path d="M111.882 80.7292C111.536 80.3167 111.19 79.9046 110.845 79.4922C110.707 79.3236 110.467 79.5656 110.605 79.733C110.951 80.1451 111.296 80.5575 111.638 80.97C111.779 81.1385 112.019 80.8966 111.882 80.7292Z" fill="black"/>
<path d="M113.095 80.6439C112.797 80.2624 112.498 79.881 112.2 79.4996C112.062 79.3267 111.827 79.5695 111.96 79.7404C112.255 80.1218 112.553 80.5032 112.852 80.8847C112.989 81.0575 113.225 80.8148 113.095 80.6439Z" fill="black"/>
<path d="M114.168 80.8878C113.869 80.4322 113.567 79.9769 113.268 79.5212C113.147 79.3389 112.852 79.509 112.974 79.6928C113.272 80.1485 113.575 80.6042 113.873 81.0595C113.995 81.2422 114.29 81.0717 114.168 80.8878Z" fill="black"/>
<path d="M115.35 81.1558C115.02 80.6196 114.69 80.0834 114.36 79.5472C114.246 79.3606 113.952 79.5315 114.07 79.7193C114.396 80.2555 114.726 80.7917 115.056 81.3279C115.17 81.5145 115.464 81.3436 115.35 81.1558Z" fill="black"/>
<path d="M116.411 81.245C116.085 80.743 115.763 80.2405 115.437 79.7385C115.319 79.555 115.024 79.7251 115.146 79.9101C115.468 80.4126 115.794 80.9146 116.116 81.4167C116.234 81.6005 116.529 81.43 116.411 81.245Z" fill="black"/>
<path d="M117.322 81.355C117.028 80.8596 116.733 80.3643 116.435 79.8685C116.325 79.6803 116.03 79.8512 116.14 80.0402C116.438 80.5359 116.733 81.0313 117.028 81.5271C117.142 81.7152 117.436 81.544 117.322 81.355Z" fill="black"/>
<path d="M118.363 81.4548C118.061 81.0015 117.758 80.5478 117.456 80.094C117.334 79.9125 117.04 80.0826 117.161 80.2657C117.464 80.7194 117.766 81.1732 118.069 81.6269C118.191 81.8084 118.485 81.6383 118.363 81.4548Z" fill="black"/>
<path d="M119.173 81.7914L118.34 80.2232C118.238 80.0295 117.943 80.2012 118.045 80.3952C118.324 80.9177 118.599 81.4406 118.878 81.9634C118.98 82.1571 119.275 81.9854 119.173 81.7914Z" fill="black"/>
<path d="M119.848 81.6803C119.632 81.2772 119.42 80.8746 119.208 80.4715C119.102 80.2779 118.811 80.4499 118.913 80.6436C119.125 81.0462 119.342 81.4493 119.554 81.8519C119.656 82.046 119.95 81.8739 119.848 81.6803Z" fill="black"/>
<path d="M122.264 75.5394C121.412 75.5421 120.559 75.5575 119.711 75.5791C119.648 72.6906 119.507 69.8048 119.263 66.9245C119.247 66.7073 118.906 66.7053 118.925 66.9245C119.165 69.8072 119.31 72.6957 119.369 75.5865C116.596 75.6655 113.822 75.8435 111.057 76.1224C109.289 76.3007 107.529 76.529 105.773 76.7902C104.901 76.9198 104.033 77.0636 103.165 77.2137C102.725 77.2895 100.101 78.0469 100.23 76.9241C100.254 76.7065 99.912 76.7089 99.8884 76.9241C99.7509 78.1576 101.597 77.843 102.281 77.7165C104.54 77.2981 106.81 76.9595 109.089 76.6818C112.506 76.2661 115.94 76.0214 119.377 75.9263C119.4 77.1217 119.412 78.3175 119.4 79.5137C119.4 79.7333 119.738 79.7333 119.742 79.5137C119.75 78.3148 119.742 77.1166 119.719 75.9181C120.567 75.8973 121.416 75.8827 122.264 75.88C122.484 75.8792 122.484 75.5386 122.264 75.5394Z" fill="black"/>
<path d="M77.2807 86.5601C76.7818 86.238 76.3379 85.8522 75.9489 85.4055C75.8036 85.2397 75.564 85.4813 75.7093 85.6459C76.1179 86.1142 76.5854 86.5165 77.1078 86.8539C77.2925 86.9729 77.4653 86.6783 77.2807 86.5601Z" fill="black"/>
<path d="M77.4732 85.9197C77.1785 85.589 76.8878 85.2582 76.5932 84.9274C76.4479 84.7632 76.2043 85.0044 76.3497 85.1678C76.6443 85.499 76.9389 85.8298 77.2335 86.1605C77.3789 86.3247 77.6185 86.0831 77.4732 85.9197Z" fill="black"/>
<path d="M77.6656 85.1517C77.4614 84.6646 77.0685 84.3032 76.5539 84.1653C76.3418 84.1083 76.2515 84.4367 76.4636 84.4937C76.8525 84.5978 77.1825 84.8677 77.3357 85.2421C77.4221 85.4412 77.7521 85.354 77.6656 85.1517Z" fill="black"/>
<path d="M77.9446 84.0314C77.4929 83.6892 77.0411 83.3471 76.5854 83.0053C76.4125 82.8729 76.2436 83.1683 76.4165 83.2991C76.8682 83.6409 77.32 83.9831 77.7717 84.3252C77.9485 84.4576 78.1175 84.1618 77.9446 84.0314Z" fill="black"/>
<path d="M77.8386 82.8948C77.485 82.4333 77.0843 82.0216 76.6247 81.6641C76.4557 81.5309 76.2122 81.7698 76.385 81.9049C76.8172 82.2427 77.21 82.6293 77.5439 83.0665C77.6736 83.2382 77.9721 83.0693 77.8386 82.8948Z" fill="black"/>
<path d="M78.141 81.852L76.7896 80.6519C76.6246 80.5069 76.385 80.7465 76.55 80.8927C76.9978 81.2926 77.4496 81.6929 77.9013 82.0928C78.0663 82.2377 78.306 81.9981 78.141 81.852Z" fill="black"/>
<path d="M77.9603 80.3273C77.6146 79.9325 77.2728 79.5381 76.9311 79.1433C76.7857 78.9775 76.5461 79.2191 76.6914 79.3841C77.0332 79.7785 77.375 80.1733 77.7207 80.5677C77.8621 80.7339 78.1017 80.4919 77.9603 80.3273Z" fill="black"/>
<path d="M78.031 79.0777C77.7324 78.6935 77.4299 78.3093 77.1314 77.9247C76.9978 77.7519 76.7582 77.9947 76.8918 78.1655L77.7914 79.3185C77.9249 79.4914 78.1646 79.2486 78.031 79.0777Z" fill="black"/>
<path d="M78.1371 77.6753C77.9643 77.1615 77.6067 76.7404 77.1157 76.5086C76.9153 76.4155 76.7425 76.709 76.9429 76.8025C77.3553 76.9965 77.6657 77.3316 77.8071 77.7657C77.8778 77.9727 78.2039 77.8839 78.1371 77.6753Z" fill="black"/>
<path d="M77.7875 75.7366L77.4653 75.3803C77.3161 75.2177 77.0764 75.4589 77.2218 75.6211C77.3318 75.7398 77.4379 75.8584 77.5479 75.977C77.6932 76.1401 77.9328 75.8985 77.7875 75.7366Z" fill="black"/>
<path d="M77.5439 74.1905C77.481 74.0793 77.4221 73.9678 77.3592 73.8566C77.2571 73.6637 76.9625 73.8354 77.0685 74.0283C77.1274 74.1394 77.1864 74.251 77.2493 74.3622C77.3553 74.5551 77.646 74.3834 77.5439 74.1905Z" fill="black"/>
<path d="M139.922 87.108C139.792 87.0011 139.655 86.9053 139.514 86.8118C139.459 86.7733 139.4 86.7348 139.341 86.6959C139.317 86.6814 139.298 86.6661 139.278 86.6507C139.258 86.5863 139.211 86.5364 139.121 86.5474C138.881 86.5785 138.917 86.8039 139.07 86.919C139.27 87.0683 139.49 87.1901 139.683 87.3484C139.851 87.4863 140.091 87.2471 139.922 87.108Z" fill="black"/>
<path d="M140.963 86.568C140.759 86.392 140.555 86.216 140.35 86.04C140.236 85.9398 139.985 85.811 139.859 85.9728C139.651 86.2329 140.009 86.4619 140.17 86.3299C140.232 86.3869 140.299 86.4438 140.366 86.5008C140.484 86.6033 140.602 86.7059 140.72 86.8088C140.885 86.9514 141.128 86.7118 140.963 86.568Z" fill="black"/>
<path d="M142.448 86.2182C141.981 85.9558 141.517 85.6938 141.05 85.4314C140.857 85.3238 140.688 85.6176 140.877 85.7252C141.344 85.9877 141.812 86.2497 142.275 86.5121C142.468 86.6201 142.637 86.3259 142.448 86.2182Z" fill="black"/>
<path d="M143.128 85.1997C142.892 85.0434 142.656 84.887 142.421 84.7307C142.236 84.6093 142.067 84.9039 142.248 85.0245L142.955 85.4935C143.14 85.6153 143.308 85.3203 143.128 85.1997Z" fill="black"/>
<path d="M144.188 84.3688C143.968 84.1912 143.748 84.0132 143.528 83.8353C143.359 83.699 143.116 83.9382 143.289 84.0761C143.509 84.2536 143.729 84.4316 143.949 84.6096C144.118 84.7459 144.361 84.5066 144.188 84.3688Z" fill="black"/>
<path d="M144.746 83.2147C144.593 82.8772 144.255 82.6686 143.886 82.6643C143.666 82.6616 143.666 83.0022 143.886 83.0045C144.145 83.0077 144.349 83.1554 144.455 83.3864C144.546 83.5859 144.837 83.4127 144.746 83.2147Z" fill="black"/>
<path d="M145.072 81.855C144.954 81.6881 144.837 81.5207 144.719 81.3538C144.593 81.1758 144.298 81.3459 144.424 81.5254L144.778 82.0267C144.903 82.2047 145.198 82.0349 145.072 81.855Z" fill="black"/>
<path d="M132.258 86.1307C130.207 86.4238 128.153 86.6622 126.09 86.8508C127.135 84.7083 128.074 82.521 128.907 80.2873C128.986 80.0811 128.656 79.9931 128.581 80.1966C127.721 82.5009 126.747 84.7566 125.662 86.962C125.611 87.0668 125.67 87.2303 125.808 87.2181C127.996 87.0232 130.176 86.7695 132.348 86.4591C132.564 86.4281 132.474 86.1001 132.258 86.1307Z" fill="black"/>
<path d="M73.0891 92.1033C62.8125 90.8616 52.3788 91.3345 42.2555 93.4928C42.0394 93.5383 42.1298 93.8664 42.3458 93.8208C52.4417 91.6688 62.844 91.2057 73.0891 92.4435C73.3091 92.4698 73.3052 92.1293 73.0891 92.1033Z" fill="black"/>
<path d="M54.3863 90.6868C50.344 90.4978 46.3174 91.0356 42.4677 92.2801C42.2595 92.3473 42.3498 92.6757 42.558 92.6082C46.3842 91.3727 50.3715 90.8392 54.3863 91.027C54.6063 91.0372 54.6023 90.697 54.3863 90.6868Z" fill="black"/>
<path d="M43.5401 90.8171C43.0372 90.6844 42.5305 90.5516 42.0237 90.4192C41.8116 90.3634 41.7212 90.6914 41.9334 90.7472C42.4401 90.88 42.9469 91.0124 43.4497 91.1452C43.6618 91.201 43.7522 90.8725 43.5401 90.8171Z" fill="black"/>
<path d="M44.7854 90.2935C44.2707 90.0712 43.76 89.8485 43.2454 89.6261C43.049 89.5397 42.8762 89.8327 43.0765 89.92C43.5872 90.1423 44.1018 90.3646 44.6125 90.5874C44.8128 90.6738 44.9857 90.3808 44.7854 90.2935Z" fill="black"/>
<path d="M46.0856 89.9982C45.4453 89.8501 44.8482 89.6034 44.2904 89.2553C44.1018 89.1387 43.9329 89.4333 44.1175 89.5492C44.6989 89.9122 45.3275 90.1718 45.9953 90.3262C46.2113 90.3757 46.3017 90.0477 46.0856 89.9982Z" fill="black"/>
<path d="M47.327 90.0394C46.7692 89.537 46.1328 89.1583 45.4257 88.9025C45.2215 88.8275 45.1311 89.1563 45.3354 89.2305C45.9875 89.4659 46.5728 89.8178 47.0835 90.2798C47.2485 90.4263 47.4881 90.1863 47.327 90.0394Z" fill="black"/>
<path d="M48.6548 89.6862C48.1049 89.3205 47.551 88.9552 47.001 88.5894C46.8203 88.4677 46.6475 88.7627 46.8321 88.8833C47.3821 89.249 47.9321 89.6144 48.482 89.9801C48.6667 90.1019 48.8355 89.8072 48.6548 89.6862Z" fill="black"/>
<path d="M50.0729 89.5998C49.5465 89.2255 49.0201 88.8515 48.4937 88.4771C48.313 88.3498 48.1441 88.6452 48.3209 88.7709C48.8473 89.1453 49.3737 89.5193 49.9001 89.8937C50.0808 90.0209 50.2497 89.7255 50.0729 89.5998Z" fill="black"/>
<path d="M51.279 89.4101C50.8626 89.0978 50.4462 88.7851 50.0258 88.4728C49.853 88.3412 49.6802 88.637 49.8569 88.7667C50.2733 89.079 50.6897 89.3913 51.11 89.704C51.2868 89.8352 51.4558 89.5398 51.279 89.4101Z" fill="black"/>
<path d="M52.6421 89.2341C52.3043 89.0042 51.9664 88.7744 51.6286 88.5442C51.4439 88.4205 51.275 88.7155 51.4557 88.8381C51.7936 89.0683 52.1314 89.2981 52.4692 89.5279C52.6539 89.6516 52.8228 89.3566 52.6421 89.2341Z" fill="black"/>
<path d="M42.0906 73.6629C41.6781 73.2842 41.2617 72.9051 40.8492 72.5264C40.6881 72.3787 40.4446 72.6187 40.6096 72.7672C41.022 73.1459 41.4345 73.5246 41.8509 73.9037C42.012 74.0514 42.2516 73.8114 42.0906 73.6629Z" fill="black"/>
<path d="M43.5872 73.1852C43.1983 72.781 42.8094 72.3767 42.4205 71.9729C42.2673 71.8146 42.0277 72.0554 42.1769 72.2133C42.5698 72.6175 42.9587 73.0218 43.3476 73.4256C43.5008 73.5839 43.7404 73.3431 43.5872 73.1852Z" fill="black"/>
<path d="M44.5104 72.5511C44.3572 72.0774 44.0194 71.6877 43.5598 71.492C43.3594 71.4076 43.1865 71.7006 43.3869 71.7859C43.7679 71.9477 44.0547 72.2459 44.1804 72.6415C44.2472 72.8497 44.5772 72.7605 44.5104 72.5511Z" fill="black"/>
<path d="M44.9503 71.146C44.6243 70.8455 44.3022 70.5446 43.9761 70.2437C43.8151 70.0948 43.5754 70.3348 43.7365 70.4845C44.0586 70.7854 44.3847 71.0859 44.7107 71.3868C44.8678 71.5357 45.1114 71.2957 44.9503 71.146Z" fill="black"/>
<path d="M58.2321 80.9315C57.7725 80.6404 57.4229 80.2208 57.2265 79.7133C57.1479 79.511 56.8219 79.599 56.9004 79.804C57.1283 80.398 57.5211 80.8839 58.0593 81.2253C58.2478 81.3432 58.4168 81.0485 58.2321 80.9315Z" fill="black"/>
<path d="M59.0767 80.3238C58.7153 79.8862 58.3539 79.4485 57.9964 79.0113C57.855 78.8416 57.6153 79.084 57.7568 79.2517C58.1142 79.6894 58.4756 80.127 58.8331 80.5642C58.9745 80.7339 59.2142 80.4919 59.0767 80.3238Z" fill="black"/>
<path d="M59.5952 78.8899C59.277 78.6766 59.0571 78.3671 58.9471 78.0021C58.8881 77.7923 58.5582 77.8815 58.621 78.0929C58.7546 78.545 59.0335 78.9202 59.4224 79.1838C59.6031 79.3067 59.7759 79.0117 59.5952 78.8899Z" fill="black"/>
<path d="M87.518 42.5437C87.2273 42.0691 86.9326 41.5946 86.6419 41.1204C86.528 40.9338 86.2334 41.1047 86.3473 41.2921C86.6419 41.7663 86.9327 42.2408 87.2234 42.7154C87.3412 42.9016 87.6359 42.7311 87.518 42.5437Z" fill="black"/>
<path d="M88.1936 41.8645C88.0522 41.6519 87.9108 41.439 87.7693 41.2265C87.6554 41.0544 87.5572 40.8478 87.3844 40.7276C87.1369 40.5536 86.909 40.9967 87.2272 41.1204C87.2587 41.1318 87.2862 41.1287 87.3137 41.1196C87.404 41.2469 87.5415 41.4964 87.569 41.54L87.899 42.0361C88.0169 42.218 88.3154 42.0479 88.1936 41.8645Z" fill="black"/>
<path d="M88.7554 41.5285C88.5707 41.2237 88.3861 40.9185 88.2015 40.6132C88.0915 40.4259 87.7969 40.5967 87.9108 40.7853C88.0954 41.0901 88.28 41.3954 88.4647 41.7006C88.5786 41.888 88.8693 41.7171 88.7554 41.5285Z" fill="black"/>
<path d="M89.5096 41.3267C89.2975 40.9787 89.0814 40.6306 88.8693 40.2826C88.7515 40.096 88.4608 40.2668 88.5747 40.4542C88.7868 40.8023 89.0029 41.1503 89.215 41.4984C89.3329 41.685 89.6275 41.5141 89.5096 41.3267Z" fill="black"/>
<path d="M90.3582 41.2988C90.2011 40.9622 90.04 40.6259 89.8789 40.2892C89.7885 40.0908 89.4939 40.2637 89.5882 40.4609C89.7453 40.7976 89.9064 41.1342 90.0636 41.4705C90.1578 41.6689 90.4525 41.496 90.3582 41.2988Z" fill="black"/>
<path d="M90.6449 40.253C90.4996 40.088 90.26 40.3296 90.4053 40.4934C90.5467 40.6541 90.6292 40.8497 90.6489 41.0634C90.6685 41.2803 91.0103 41.2822 90.9906 41.0634C90.9631 40.7547 90.8492 40.4856 90.6449 40.253Z" fill="black"/>
<path d="M91.8037 40.7932C91.6623 40.4491 91.5209 40.1049 91.3795 39.7608C91.297 39.5608 90.967 39.6485 91.0495 39.8512C91.1909 40.1953 91.3363 40.5394 91.4777 40.8835C91.5602 41.0835 91.8862 40.9959 91.8037 40.7932Z" fill="black"/>
<path d="M92.8212 40.6341C92.6248 40.2963 92.4323 39.9581 92.2398 39.6198C92.1337 39.4293 91.8391 39.6006 91.9452 39.7915C92.1416 40.1297 92.3341 40.468 92.5266 40.8062C92.6327 40.9967 92.9273 40.825 92.8212 40.6341Z" fill="black"/>
<path d="M94.2747 40.5925C94.0665 40.3372 93.9644 40.0276 93.9644 39.7C93.9683 39.4804 93.6265 39.4804 93.6265 39.7C93.6265 40.1227 93.768 40.5065 94.0351 40.8329C94.1726 41.0034 94.4122 40.761 94.2747 40.5925Z" fill="black"/>
<path d="M95.7047 40.4997C95.5947 40.2503 95.4847 40.0008 95.3747 39.7514C95.2843 39.551 94.9897 39.7243 95.0801 39.923C95.1901 40.1725 95.3 40.4219 95.41 40.6714C95.4965 40.8717 95.7911 40.6985 95.7047 40.4997Z" fill="black"/>
<path d="M75.1319 48.6188C74.9433 48.0013 74.6683 47.4242 74.303 46.8911C74.1812 46.7112 73.8866 46.8813 74.0083 47.0628C74.358 47.5723 74.6212 48.1188 74.8019 48.7092C74.8647 48.9186 75.1947 48.829 75.1319 48.6188Z" fill="black"/>
<path d="M78.1292 53.2512C77.0764 50.6812 75.9686 48.1369 74.798 45.6184C74.7076 45.4192 74.413 45.5925 74.5073 45.7901C75.6622 48.2818 76.7582 50.7991 77.7992 53.3415C77.8817 53.5419 78.2117 53.4543 78.1292 53.2512Z" fill="black"/>
<path d="M78.9149 53.0721C78.0232 50.7823 77.1314 48.492 76.2436 46.2022C76.1651 45.9999 75.8351 46.0879 75.9137 46.2926C76.8054 48.5824 77.6971 50.8726 78.5849 53.1625C78.6635 53.3648 78.9935 53.2768 78.9149 53.0721Z" fill="black"/>
<path d="M78.6753 49.2388C78.1096 48.0277 77.5478 46.8166 76.9822 45.6051C76.8879 45.4063 76.5972 45.5795 76.6875 45.7771C77.2532 46.9882 77.8189 48.1993 78.3807 49.4105C78.475 49.6092 78.7696 49.4364 78.6753 49.2388Z" fill="black"/>
<path d="M14.8435 113.229C12.1361 115.216 9.75391 112.332 8.7624 110.005C8.66694 109.78 8.27095 109.783 8.1747 110.005C6.87992 112.986 2.60744 114.911 0.634232 111.359C0.420922 110.975 -0.166748 111.318 0.0465616 111.702C2.11327 115.422 6.66544 114.03 8.45756 110.947C9.73938 113.433 12.404 115.859 15.1868 113.817C15.5368 113.56 15.1978 112.969 14.8435 113.229Z" fill="black"/>
<path d="M133.354 112.603C131.869 111.647 130.793 110.258 130.239 108.584C130.172 108.382 129.983 108.322 129.818 108.36C129.646 108.289 129.429 108.336 129.374 108.571C128.33 113.242 121.985 113.633 120.461 109.054C120.351 108.726 119.915 108.735 119.805 109.054C118.87 111.699 115.869 112.591 113.634 110.843C113.292 110.576 112.805 111.054 113.15 111.324C115.562 113.21 118.737 112.551 120.119 109.991C122.17 114.172 128.279 113.885 129.834 109.432C130.49 110.98 131.574 112.266 133.008 113.19C133.381 113.429 133.719 112.84 133.354 112.603Z" fill="black"/>
<path d="M119.727 111.969C119.161 112.739 118.297 113.189 117.346 113.224C117.126 113.232 117.126 113.572 117.346 113.564C118.426 113.525 119.381 113.012 120.021 112.14C120.151 111.963 119.852 111.793 119.727 111.969Z" fill="black"/>
<path d="M135.031 114.693C132.886 114.507 131.013 113.263 129.991 111.373C129.925 111.249 129.771 111.278 129.697 111.373C128.876 112.455 127.803 113.247 126.526 113.718C126.322 113.794 126.413 114.123 126.617 114.046C127.897 113.574 128.966 112.803 129.822 111.755C130.926 113.635 132.851 114.844 135.031 115.033C135.251 115.052 135.251 114.711 135.031 114.693Z" fill="black"/>
<path d="M8.00938 113.019C7.05872 115.765 2.27044 115.145 0.516435 113.642C0.350658 113.501 0.109074 113.74 0.275636 113.883C2.2406 115.566 7.28694 116.143 8.33739 113.11C8.40927 112.902 8.08049 112.813 8.00938 113.019Z" fill="black"/>
<path d="M16.6627 114.16C15.7855 115.181 14.5571 115.714 13.2113 115.653C12.9917 115.643 12.9925 115.983 13.2113 115.993C14.6377 116.058 15.9725 115.484 16.9031 114.401C17.0453 114.235 16.8061 113.993 16.6627 114.16Z" fill="black"/>
<path d="M11.7264 65.0551C10.5891 65.6907 9.82465 66.5884 8.99381 67.5704C8.07536 68.6566 6.48791 70.2979 4.95821 70.2146C4.73901 70.2024 4.74019 70.543 4.95821 70.5548C6.29699 70.6279 7.47982 69.5275 8.40573 68.6767C9.62391 67.5575 10.4139 66.1782 11.8984 65.349C12.0897 65.2421 11.9185 64.9483 11.7264 65.0551Z" fill="black"/>
<path d="M11.854 66.162C11.0393 66.5423 10.3569 67.1021 9.81009 67.8139C9.67614 67.9879 9.97194 68.1572 10.1039 67.9856C10.6142 67.3217 11.2679 66.8094 12.0257 66.4559C12.2245 66.3632 12.0516 66.0697 11.854 66.162Z" fill="black"/>
<path d="M11.8395 67.2267C11.4341 67.5975 11.0063 67.9393 10.5549 68.2528C10.3758 68.3769 10.5459 68.672 10.7266 68.5466C11.2019 68.217 11.6533 67.8576 12.0799 67.4675C12.2425 67.319 12.0009 67.079 11.8395 67.2267Z" fill="black"/>
<path d="M12.0017 68.1707C11.7743 68.34 11.5472 68.5093 11.3198 68.679C11.1458 68.8082 11.315 69.1041 11.4914 68.9728C11.7189 68.8031 11.9463 68.6338 12.1738 68.4645C12.3474 68.3349 12.1781 68.0395 12.0017 68.1707Z" fill="black"/>
</g>
<defs>
<clipPath id="clip0_609_814">
<rect width="150" height="116.059" fill="white"/>
</clipPath>
</defs>
</svg>
